<?xml version="1.0" encoding="UTF-8" standalone="no"?>
<!DOCTYPE svg PUBLIC "-//W3C//DTD SVG 1.1//EN" "http://www.w3.org/Graphics/SVG/1.1/DTD/svg11.dtd">
<svg width="100%" height="100%" viewBox="0 0 1024 1024" version="1.1" xmlns="http://www.w3.org/2000/svg" xmlns:xlink="http://www.w3.org/1999/xlink" xml:space="preserve" xmlns:serif="http://www.serif.com/" style="fill-rule:evenodd;clip-rule:evenodd;stroke-linecap:round;stroke-linejoin:round;stroke-miterlimit:1.5;">
    <path d="M0,0L0,286.72L286.72,286.72L286.72,0L0,0ZM368.64,0L368.64,40.96L491.52,40.96L491.52,0L368.64,0ZM532.48,0L532.48,81.92L614.4,81.92L614.4,122.88L532.48,122.88L532.48,163.84L573.44,163.84L573.44,204.8L614.4,204.8L614.4,245.76L655.36,245.76L655.36,286.72L696.32,286.72L696.32,163.84L655.36,163.84L655.36,122.88L696.32,122.88L696.32,40.96L573.44,40.96L573.44,0L532.48,0ZM737.28,0L737.28,286.72L1024,286.72L1024,0L737.28,0ZM245.76,40.96L245.76,245.76L40.96,245.76L40.96,40.96L245.76,40.96ZM983.04,40.96L983.04,245.76L778.24,245.76L778.24,40.96L983.04,40.96ZM81.92,81.92L81.92,204.8L204.8,204.8L204.8,81.92L81.92,81.92ZM327.68,81.92L327.68,327.68L368.64,327.68L368.64,245.76L409.6,245.76L409.6,368.64L286.72,368.64L286.72,327.68L81.92,327.68L81.92,368.64L122.88,368.64L122.88,491.52L40.96,491.52L40.96,532.48L0,532.48L0,696.32L40.96,696.32L40.96,573.44L81.92,573.44L81.92,696.32L122.88,696.32L122.88,655.36L163.84,655.36L163.84,696.32L204.8,696.32L204.8,614.4L286.72,614.4L286.72,655.36L245.76,655.36L245.76,696.32L327.68,696.32L327.68,737.28L368.64,737.28L368.64,778.24L409.6,778.24L409.6,696.32L327.68,696.32L327.68,655.36L409.6,655.36L409.6,696.32L491.52,696.32L491.52,737.28L532.48,737.28L532.48,778.24L573.44,778.24L573.44,819.2L532.48,819.2L532.48,778.24L491.52,778.24L491.52,860.16L614.4,860.16L614.4,901.12L573.44,901.12L573.44,983.04L614.4,983.04L614.4,942.08L655.36,942.08L655.36,983.04L696.32,983.04L696.32,1024L1024,1024L1024,819.2L983.04,819.2L983.04,778.24L1024,778.24L1024,737.28L901.12,737.28L901.12,696.32L860.16,696.32L860.16,614.4L901.12,614.4L901.12,532.48L860.16,532.48L860.16,450.56L819.2,450.56L819.2,368.64L942.08,368.64L942.08,450.56L983.04,450.56L983.04,491.52L901.12,491.52L901.12,532.48L942.08,532.48L942.08,614.4L983.04,614.4L983.04,655.36L1024,655.36L1024,573.44L983.04,573.44L983.04,532.48L1024,532.48L1024,409.6L983.04,409.6L983.04,368.64L942.08,368.64L942.08,327.68L737.28,327.68L737.28,368.64L778.24,368.64L778.24,450.56L819.2,450.56L819.2,532.48L860.16,532.48L860.16,573.44L819.2,573.44L819.2,532.48L778.24,532.48L778.24,491.52L696.32,491.52L696.32,532.48L655.36,532.48L655.36,450.56L737.28,450.56L737.28,409.6L696.32,409.6L696.32,368.64L655.36,368.64L655.36,327.68L532.48,327.68L532.48,245.76L491.52,245.76L491.52,286.72L450.56,286.72L450.56,245.76L409.6,245.76L409.6,204.8L450.56,204.8L450.56,122.88L491.52,122.88L491.52,81.92L327.68,81.92ZM819.2,81.92L819.2,204.8L942.08,204.8L942.08,81.92L819.2,81.92ZM409.6,122.88L409.6,163.84L368.64,163.84L368.64,122.88L409.6,122.88ZM491.52,163.84L491.52,204.8L532.48,204.8L532.48,163.84L491.52,163.84ZM655.36,204.8L614.4,204.8L614.4,163.84L655.36,163.84L655.36,204.8ZM573.44,245.76L573.44,286.72L614.4,286.72L614.4,245.76L573.44,245.76ZM0,327.68L0,450.56L40.96,450.56L40.96,327.68L0,327.68ZM532.48,409.6L573.44,409.6L573.44,450.56L614.4,450.56L614.4,491.52L491.52,491.52L491.52,532.48L655.36,532.48L655.36,573.44L696.32,573.44L696.32,614.4L737.28,614.4L737.28,655.36L696.32,655.36L696.32,614.4L655.36,614.4L655.36,573.44L614.4,573.44L614.4,614.4L655.36,614.4L655.36,655.36L614.4,655.36L614.4,614.4L573.44,614.4L573.44,655.36L532.48,655.36L532.48,696.32L614.4,696.32L614.4,737.28L655.36,737.28L655.36,819.2L614.4,819.2L614.4,778.24L573.44,778.24L573.44,737.28L532.48,737.28L532.48,696.32L491.52,696.32L491.52,614.4L532.48,614.4L532.48,573.44L450.56,573.44L450.56,532.48L368.64,532.48L368.64,573.44L245.76,573.44L245.76,532.48L286.72,532.48L286.72,491.52L204.8,491.52L204.8,409.6L245.76,409.6L245.76,450.56L286.72,450.56L286.72,491.52L327.68,491.52L327.68,450.56L286.72,450.56L286.72,409.6L245.76,409.6L245.76,368.64L286.72,368.64L286.72,409.6L368.64,409.6L368.64,450.56L450.56,450.56L450.56,327.68L532.48,327.68L532.48,409.6ZM491.52,409.6L491.52,450.56L532.48,450.56L532.48,409.6L491.52,409.6ZM573.44,409.6L573.44,368.64L655.36,368.64L655.36,409.6L573.44,409.6ZM860.16,409.6L860.16,450.56L901.12,450.56L901.12,409.6L860.16,409.6ZM204.8,532.48L204.8,573.44L163.84,573.44L163.84,614.4L122.88,614.4L122.88,532.48L204.8,532.48ZM737.28,573.44L737.28,532.48L778.24,532.48L778.24,573.44L737.28,573.44ZM450.56,614.4L450.56,655.36L409.6,655.36L409.6,614.4L450.56,614.4ZM901.12,655.36L901.12,696.32L942.08,696.32L942.08,655.36L901.12,655.36ZM819.2,696.32L819.2,819.2L696.32,819.2L696.32,696.32L819.2,696.32ZM0,737.28L0,1024L286.72,1024L286.72,737.28L0,737.28ZM737.28,737.28L737.28,778.24L778.24,778.24L778.24,737.28L737.28,737.28ZM245.76,778.24L245.76,983.04L40.96,983.04L40.96,778.24L245.76,778.24ZM327.68,778.24L327.68,942.08L368.64,942.08L368.64,983.04L327.68,983.04L327.68,1024L532.48,1024L532.48,983.04L491.52,983.04L491.52,942.08L532.48,942.08L532.48,901.12L450.56,901.12L450.56,942.08L368.64,942.08L368.64,901.12L409.6,901.12L409.6,860.16L368.64,860.16L368.64,778.24L327.68,778.24ZM860.16,778.24L860.16,737.28L901.12,737.28L901.12,778.24L942.08,778.24L942.08,819.2L901.12,819.2L901.12,778.24L860.16,778.24ZM81.92,819.2L81.92,942.08L204.8,942.08L204.8,819.2L81.92,819.2ZM409.6,819.2L409.6,860.16L450.56,860.16L450.56,819.2L409.6,819.2ZM819.2,860.16L819.2,901.12L860.16,901.12L860.16,942.08L655.36,942.08L655.36,901.12L778.24,901.12L778.24,860.16L819.2,860.16ZM860.16,860.16L860.16,819.2L901.12,819.2L901.12,860.16L860.16,860.16ZM983.04,901.12L983.04,983.04L901.12,983.04L901.12,942.08L942.08,942.08L942.08,901.12L983.04,901.12Z" style="stroke:rgb(235,235,235);stroke-width:1px;"/>
</svg>
