<svg width="100" height="100" viewBox="0 250 1024 525" xmlns="http://www.w3.org/2000/svg" fill-rule="evenodd" clip-rule="evenodd" stroke-linejoin="round" stroke-miterlimit="2">
    <path d="M964.328 297.987c0-13.422-10.881-24.303-24.303-24.303H83.975c-13.422 0-24.303 10.881-24.303 24.303 0 249.647 202.681 452.329 452.328 452.329 249.647 0 452.328-202.682 452.328-452.329zM547.554 408.558c-3.13-5.733-6.425-24.402-6.477-27.806a69.885 69.885 0 01-.007-1.021c0-29.1 17.832-54.611 42.519-54.611.219 0 .437.002.657.006 51.771 1.091 127.112 98.276 127.112 180.321 0 106.759-89.329 193.433-199.358 193.433-110.029 0-199.358-86.674-199.358-193.433 0-82.045 60.46-178.916 127.112-180.321.22-.004.438-.006.657-.006 24.687 0 42.519 25.511 42.519 54.611 0 .339-.002.678-.008 1.021-.052 3.414-3.337 22.076-6.463 27.799-7.286 13.337-16.034 24.491-19.108 28.25-.229.208-.441.414-.632.618-11.709 12.468-24.732 24.319-34.919 37.629-13.209 17.259-22.108 36.721-22.108 60.911 0 63.484 50.321 115.025 112.304 115.025 61.982 0 112.303-51.541 112.303-115.025 0-24.539-8.769-43.17-22.039-60.106-9.833-12.549-22.591-24.032-34.534-37.73-.769-.906-11.506-13.689-20.172-29.565zm-84.094 24.073c2.257-1.292 4.121-2.192 4.121-2.192s-1.818.678-2.673 1.084l-1.448 1.108z" fill="#8d3525"/>
</svg>