<svg viewBox="0 0 1024 1024" xmlns="http://www.w3.org/2000/svg" fill-rule="evenodd" clip-rule="evenodd" stroke-linejoin="round" stroke-miterlimit="2">
  <path d="M964.332 297.989c0-13.423-10.882-24.303-24.303-24.303H83.976c-13.423 0-24.303 10.88-24.303 24.303 0 249.648 202.681 452.33 452.329 452.33 249.647 0 452.33-202.682 452.33-452.33zm-49.335 24.304h-805.99c12.57 211.517 188.329 379.419 402.995 379.419 214.665 0 390.425-167.902 402.995-379.42z" fill="#8d3525"/>
  <path d="M940.028 292.245c0 236.234-191.792 428.026-428.026 428.026-236.235 0-428.026-191.792-428.026-428.026h856.052zM547.556 408.56c-3.13-5.733-6.425-24.402-6.477-27.807a59.741 59.741 0 01-.008-1.02c0-29.1 17.832-54.612 42.52-54.612.218 0 .436.002.657.007 51.772 1.09 127.112 98.277 127.112 180.321 0 106.759-89.33 193.434-199.358 193.434-110.03 0-199.358-86.675-199.358-193.434 0-82.044 60.459-178.916 127.111-180.321.221-.005.44-.007.657-.007 24.688 0 42.519 25.512 42.519 54.611 0 .34-.002.68-.007 1.021-.052 3.415-3.337 22.077-6.464 27.8-7.285 13.336-16.033 24.491-19.108 28.25-.229.207-.44.414-.631.618-11.709 12.468-24.732 24.32-34.919 37.629-13.209 17.259-22.109 36.722-22.109 60.912 0 63.484 50.322 115.025 112.304 115.025 61.983 0 112.305-51.541 112.305-115.025 0-24.54-8.77-43.17-22.04-60.106-9.833-12.55-22.59-24.033-34.534-37.731-.768-.907-11.505-13.689-20.172-29.565zm-84.094 24.074c2.256-1.293 4.12-2.194 4.12-2.194s-1.818.68-2.673 1.085l-1.447 1.109z" fill="#8d3525"/>
</svg>