<svg xmlns="http://www.w3.org/2000/svg" fill-rule="evenodd" stroke-linejoin="round" stroke-miterlimit="2" clip-rule="evenodd" viewBox="0 0 24 24">
  <path d="M3.26719504 18.72009c-.347-1.341-.738-3.661-.904-5.423-.271-3.044.166-5.801 1.19-7.262.994-1.447 2.561-1.778 4.324-.934.994.482 3.028 2.425 3.691 3.525.211.347.422.633.467.633.045 0 .331-.362.632-.799.799-1.16 2.607-2.862 3.541-3.329 2.516-1.265 4.459-.091 5.258 3.179.512 2.154.211 6.703-.678 9.988l-.256.98-1.627.089.09-.421c.061-.226.257-1.16.467-2.079 1.326-5.846.633-10.622-1.536-10.622-.95 0-2.953 1.673-4.294 3.616l-.678.965.723 1.446c.935 1.883 2.561 6.282 2.561 6.96 0 .06-.361.12-.813.12h-.813l-.483-1.506c-.527-1.717-1.928-5.122-2.109-5.122-.196 0-1.371 2.727-2.004 4.7l-.633 1.928h-.783c-.452 0-.798-.074-.798-.15 0-.693 1.973-5.861 2.847-7.488l.452-.829-.618-.933c-1.401-2.08-3.374-3.707-4.474-3.707-.588 0-1.266.694-1.582 1.613-.844 2.456-.663 5.709.617 11.163.076.316.031.331-.753.331h-.843l-.181-.632z"/>
</svg>