<svg viewBox="0 0 24 24" xmlns="http://www.w3.org/2000/svg" xml:space="preserve" style="fill-rule:evenodd;clip-rule:evenodd;stroke-linejoin:round;stroke-miterlimit:2"><path style="fill:none;fill-rule:nonzero" d="M0 0h24v24H0z"/><circle cx="12.755" cy="18.799" r="1.458" transform="translate(-.818 -.341)"/><path d="M8 11.5c0-.83-.67-1.5-1.5-1.5S5 10.67 5 11.5 5.67 13 6.5 13 8 12.33 8 11.5Zm.5 3.5c-.83 0-1.5.67-1.5 1.5S7.67 18 8.5 18s1.5-.67 1.5-1.5S9.33 15 8.5 15ZM12 1C5.93 1 1 5.93 1 12s4.93 11 11 11 11-4.93 11-11S18.07 1 12 1Zm0 20c-4.96 0-9-4.04-9-9s4.04-9 9-9 9 4.04 9 9-4.04 9-9 9Zm5.5-11c-.83 0-1.5.67-1.5 1.5s.67 1.5 1.5 1.5 1.5-.67 1.5-1.5-.67-1.5-1.5-1.5Zm-2 5c-.83 0-1.5.67-1.5 1.5s.67 1.5 1.5 1.5 1.5-.67 1.5-1.5-.67-1.5-1.5-1.5Z" style="fill-rule:nonzero"/></svg>