<svg version="1.0" xmlns="http://www.w3.org/2000/svg" width="1365.333" height="1365.333" viewBox="0 0 1024 1024"><path d="M73.1 276.6c-5.7 2.9-10.2 8.1-12.2 14.2-.9 2.6-1 9.3-.6 23.7 2.7 88.4 32.6 175.6 85 248 51.2 70.6 122.2 125.7 202.3 156.8 88.8 34.6 186 40.2 278.9 16.2 52.8-13.7 105.4-38.5 150-70.8 87.3-63.3 149.3-155.1 174.5-258.2 8.3-34.3 12.3-64.2 12.4-95.1l.1-21-3-4.9c-1.9-3.1-4.9-6.1-7.9-8l-4.9-3-434.7-.3-434.6-.2-5.3 2.6zm382.1 52.1c7.9 3.5 16.4 12.6 21 22.3 4.4 9.2 5.5 14.1 6.8 29.2 1.2 13.6.6 15.7-8.2 31.1-7.7 13.5-15.8 24-29.7 38.2-20.8 21.3-28.1 30.7-35.5 45.2-6.1 12.2-8.8 22.9-9.3 37.8-2 52.5 31.6 99.6 81.2 114 19.5 5.6 41.5 5.6 61 0 29.4-8.5 53.9-28.9 68.5-56.8 13.4-25.6 16.8-56.8 8.8-81.7-5.2-16.4-13.7-28.6-37.3-54.1-17.5-18.8-24.3-27.5-32.8-41.9-9.3-15.9-9.9-18-8.7-31.8 1.3-15.1 2.4-20 6.8-29.2 7-14.9 20.5-25.2 33.1-25.4 5-.1 7.1.7 20.1 7.1 68.5 33.8 110.1 99.2 110 173.1-.1 80.8-51.3 152.1-129.8 180.8-22.5 8.2-43.6 11.8-69.2 11.8-55.8 0-106.1-21-144.6-60.4-24.8-25.5-41.1-54.8-49.3-89-3.9-16.3-5.1-26.3-5.1-43.7 0-77 44.9-143.7 119-177 8.8-3.9 13.7-3.9 23.2.4z"/></svg>