<svg version="1.0" xmlns="http://www.w3.org/2000/svg" width="1365.333" height="1365.333" viewBox="0 0 1024 1024"><path d="M475.5 59.5c-118.8 10.1-226.5 64.2-304.4 153-28.4 32.4-49.4 64.1-68.1 102.7-75 155.4-55.1 340 51.4 476.3 10.6 13.6 18.6 22.6 33.5 37.8 38.6 39.4 78.4 68.1 127.3 91.7 140.8 67.9 306.9 58.4 439.3-25.3 29.7-18.8 55.5-39.7 81.6-66.4 36.7-37.4 62.4-73.9 84.9-120.5 75-155.4 55.1-340-51.4-476.3-21-26.8-51-56.9-78.1-78.1-55.9-43.8-122.2-74.1-191.5-87.8-39.4-7.8-85.5-10.4-124.5-7.1zM405 218.6c9.3 2.7 19.1 8.5 26.9 15.9 13.6 12.9 21.9 28.2 27.2 50 3 12.4 3.1 32 .2 45.5-4.3 19.9-6.4 25.7-13.2 37.5-12.8 22.3-22.8 35.1-48.3 61.5-37.1 38.5-51.1 56.3-62.4 79.7-11.6 23.9-16.4 44.4-16.4 71.3 0 52.9 20.5 102.5 58 140.1 25.6 25.7 55.4 42.7 89.8 51.3 16.4 4.1 24.7 5 45.2 5 20.5 0 28.8-.9 45.2-5 19.7-4.9 42.6-14.9 59.3-26C671.2 709.3 705 646.2 705 580c0-27.4-4.7-47.5-16.6-71.3-10.9-21.8-20.8-34.5-56.1-71.8-23.4-24.7-32.4-35.5-43.7-52.3-15.8-23.6-18.5-29.9-23.9-54.6-2.9-13.4-2.8-33.1.1-45.5 5-20.7 12.6-34.9 25.7-48.1 14.4-14.4 27-19.9 45.5-19.7 46.9.3 107.1 47.1 155.8 121 14.9 22.5 32.2 55.9 37.6 72.4 11.5 35.3 16.3 69.5 15.3 110.3-1.3 52.8-11.8 95.1-35.3 141.6-32.2 63.9-83.5 115.2-147.4 147.4-36 18.2-69.5 28.3-111 33.7-14.2 1.9-63.8 1.9-78 0-41.5-5.4-75-15.5-111-33.7-92.5-46.6-158.1-133.7-177.6-235.4-4.7-25.1-6.8-66.2-4.5-90.7 9.2-96.6 56.2-180.8 133.6-238.9 13.1-9.9 26.5-18 34-20.7 20.2-7.1 43.5-9.2 57.5-5.1z"/></svg>