<?xml version="1.0" standalone="no"?>
<!DOCTYPE svg PUBLIC "-//W3C//DTD SVG 20010904//EN"
 "http://www.w3.org/TR/2001/REC-SVG-20010904/DTD/svg10.dtd">
<svg version="1.0" xmlns="http://www.w3.org/2000/svg"
 width="1024.000000pt" height="1024.000000pt" viewBox="0 0 1024.000000 1024.000000"
 preserveAspectRatio="xMidYMid meet">
<metadata>
Created by potrace 1.11, written by Peter Selinger 2001-2013
</metadata>
<g transform="translate(0.000000,1024.000000) scale(0.100000,-0.100000)"
fill="#000000" stroke="none">
<path d="M731 7474 c-57 -29 -102 -81 -122 -142 -9 -26 -10 -93 -6 -237 27
-884 326 -1756 850 -2480 512 -706 1222 -1257 2023 -1568 888 -346 1860 -402
2789 -162 528 137 1054 385 1500 708 873 633 1493 1551 1745 2582 83 343 123
642 124 951 l1 210 -30 49 c-19 31 -49 61 -79 80 l-49 30 -4347 3 -4346 2 -53
-26z m3821 -521 c79 -35 164 -126 210 -223 44 -92 55 -141 68 -292 12 -136 6
-157 -82 -311 -77 -135 -158 -240 -297 -382 -208 -213 -281 -307 -355 -452
-61 -122 -88 -229 -93 -378 -20 -525 316 -996 812 -1140 195 -56 415 -56 610
0 294 85 539 289 685 568 134 256 168 568 88 817 -52 164 -137 286 -373 541
-175 188 -243 275 -328 419 -93 159 -99 180 -87 318 13 151 24 200 68 292 70
149 205 252 331 254 50 1 71 -7 201 -71 685 -338 1101 -992 1100 -1731 -1
-808 -513 -1521 -1298 -1808 -225 -82 -436 -118 -692 -118 -558 0 -1061 210
-1446 604 -248 255 -411 548 -493 890 -39 163 -51 263 -51 437 0 770 449 1437
1190 1770 88 39 137 39 232 -4z"/>
</g>
</svg>
