<svg width="480" height="112"><g fill="currentColor"><path d="M480 109V81h-59l59-59-20-20-59 59V2h-28v107zM38 0c25 0 39 15 39 37v3H52v-2c0-11-5-17-15-17s-11 3-11 9 3 8 8 10l16 5c18 6 27 14 27 32s-16 34-38 34S0 97 0 74v-3h24v2c0 11 6 17 16 17s12-3 12-10-3-8-9-10l-17-5C12 60 1 52 1 33S15 0 38 0z"/><path d="m133 53 31 55h-28l-18-32-17 33H73l31-55L75 2h29l16 30 16-30h27l-30 51z"/><path d="M199 0c25 0 39 15 39 37v3h-24v-2c0-11-5-17-15-17s-11 4-11 10 3 8 8 10l16 5c18 6 27 14 27 32s-16 34-38 34-40-14-40-37v-4h24v2c0 11 6 17 16 17s12-3 12-10-3-8-9-10l-16-5c-15-5-25-13-25-32s13-33 36-33zM313 2l10 69h1l11-69h25l-20 106h-30l-10-68h-1l-10 68h-29L240 2h27l11 69h1l10-69h24zM351 108c-2.2 0-4-1.8-4-4s1.8-4 4-4 4 1.8 4 4-1.8 4-4 4zm0-7c-1.7 0-3 1.3-3 3s1.3 3 3 3 3-1.3 3-3-1.3-3-3-3zm1 5h-2v-4h2v4zm-1-2z"/></g></svg>