<svg viewBox="0 0 580 610" xmlns="http://www.w3.org/2000/svg"><path d="m243 323 81-47 80 47-80 46-81-45z" fill="currentColor"/><path d="M0 184 324 0l241 137-80 139-161-92L81 322 0 184z" fill="currentColor"/><path d="M243 507v-92l80-46 81-46v92l-80 46v92l-81 47v-93zm0-184-81-46-81 45v-92L324 92v184l-81 47zm241-93v-46l81-47 1 92-81 47-1-46z" fill="currentColor"/><path d="M162 551V277l80-45 1 91 81 45v93l-81-43v182l-81-49zM40 298 0 274v-90l81 46v92l-41-24zm284-114V92l160 92 1 92-161-92z" fill="currentColor"/></svg>