<svg viewBox="0 0 7000 3000" xmlns="http://www.w3.org/2000/svg" xml:space="preserve" style="fill-rule:evenodd;clip-rule:evenodd;stroke-linecap:round;stroke-linejoin:round;stroke-miterlimit:1.5"><path style="fill:none;stroke:#000;stroke-width:22.86px" d="M131.954 335.891h3392v2552h-3392z" transform="matrix(1.01332 0 0 1.02583 1389.16 -116.533)"/><path style="fill:none;stroke:#000;stroke-width:29.29px" d="M131.954 335.891h3392v2552h-3392z" transform="matrix(.46407 0 0 1.02546 4961.77 -113.838)"/><path style="fill:none;stroke:#000;stroke-width:29.68px" d="M131.954 335.891h3392v2552h-3392z" transform="matrix(.42697 0 0 1.02546 -44.243 -117.321)"/><path style="fill:#fff" d="M1508.1 922.72h312.32v433.993H1508.1z" transform="matrix(1.05832 0 0 1.75009 -111.171 -50.781)"/><g transform="matrix(.41127 1.02026 -1.42217 .57046 5972.158 361.877)"><path d="M946.555 2035.16V131.294" style="fill:none;stroke:#000;stroke-width:17.09px;stroke-dasharray:51.26 34.18 0 0" transform="matrix(.67857 .73453 -.29303 .2707 883.292 -501.935)" id="Background-lines"/><path d="M946.555 2035.16V131.294" style="fill:none;stroke:#000;stroke-width:18.69px;stroke-dasharray:56.08 37.38 0 0" transform="matrix(.88782 .48574 -.1665 .31491 431.262 -376.049)" id="Background-lines1"/><path d="M946.555 2035.16V131.294" style="fill:none" transform="matrix(.16397 .98647 -.39353 .06541 1576.66 -309.789)" id="Background-lines2"/><path d="M946.555 2035.16V131.294" style="fill:none;stroke:#000;stroke-width:16.52px;stroke-dasharray:49.55 33.03 0 0" transform="matrix(.45145 .8923 -.36429 .1843 1240.73 -452.744)" id="Background-lines3"/><path d="M946.555 2035.16V131.294" style="fill:none;stroke:#000;stroke-width:17.07px;stroke-dasharray:51.22 34.15 0 0" transform="matrix(-.67857 .73453 .29303 .2707 955.299 -501.935)" id="Background-lines4"/><path d="M946.555 2035.16V131.294" style="fill:none;stroke:#000;stroke-width:18.66px;stroke-dasharray:55.99 37.32 0 0" transform="matrix(-.89982 .47428 .1586 .317 1441.65 -368.822)" id="Background-lines5"/><path d="M946.555 2035.16V131.294" style="fill:none;stroke:#000;stroke-width:22.17px;stroke-dasharray:66.5 44.33 0 0" transform="matrix(1 0 0 .36205 -20.408 2.7)"/></g><path d="m5963.722 2047.42-8.99 103.59 88.26-54.96-79.27-48.63ZM5837.102 1037.38l-52.92-89.507 103.35 11.366-50.43 78.14Z"/><path d="M5993.63 2087.59c180.03-333.5 131.33-884.55-146.94-1099.368" style="fill:none;stroke:#000;stroke-width:31px" transform="matrix(1 0 0 1 .005 -.001)"/><path d="m6176.708 1511.636 9.64 97.652-174.132 16.72-9.64-97.653z"/><path style="fill:#fff" d="M865.821 876.071h93.532v142.49h-93.532z" transform="matrix(.04381 .44385 -1.61717 .15528 7588.71 1016.462)"/><text x="103.874" y="1469.94" style="font-family:TimesNewRomanPS-BoldMT,Times New Roman,serif;font-size:346.22px;font-weight:700" transform="matrix(.58814 .01655 -.01487 .58839 6272.146 690.86)">0</text><text x="103.874" y="1469.94" style="font-family:TimesNewRomanPS-BoldMT,Times New Roman,serif;font-size:346.22px;font-weight:700" transform="matrix(.58814 .01655 -.01487 .58839 6079.103 348.335)">+1</text><text x="103.874" y="1469.94" style="font-family:TimesNewRomanPS-BoldMT,Times New Roman,serif;font-size:346.22px;font-weight:700" transform="matrix(.58814 .01655 -.01487 .58839 5865.937 53.247)">+2</text><text x="103.874" y="1469.94" style="font-family:TimesNewRomanPS-BoldMT,Times New Roman,serif;font-size:346.22px;font-weight:700" transform="matrix(.58814 .01655 -.01487 .58839 6209.165 1049.946)">-1</text><text x="103.874" y="1469.94" style="font-family:TimesNewRomanPS-BoldMT,Times New Roman,serif;font-size:346.22px;font-weight:700" transform="matrix(.58814 .01655 -.01487 .58839 6098.788 1390.239)">-2</text><path d="m869.109 1568.34 200.071 391.53H669.042l200.067-391.53Z" style="fill:none;stroke:#000;stroke-width:21.03px" transform="matrix(-.4694 -.0592 .33141 -2.62753 5235.07 6839.76)"/><path d="M1305.82 2375.06H600.202s105.262-356.87 153.162-519.26c13.376-45.35 87.431-78.79 174.47-78.79h64.276c79.02 0 146.26 30.36 158.4 71.53 46.82 158.74 155.31 526.52 155.31 526.52Z" style="fill:#fff;stroke:#000;stroke-width:38.63px" transform="matrix(.68293 0 0 1.2952 4760.92 -191.54)"/><path d="M3429.28 1790.58c53.11 0 103.64-22.94 138.6-62.92a184.102 184.102 0 0 0 43.89-145.75l-64.05-476.33c-12.28-91.38-90.27-159.591-182.48-159.591h-128.09c-92.21 0-170.2 68.211-182.49 159.591l-64.04 476.33a184.132 184.132 0 0 0 182.48 208.67h256.18Z" style="fill:#fff;stroke:#000;stroke-width:77.52px" transform="matrix(.3285 0 0 .65163 4311.77 1581.83)"/><path d="M2544.89 1066.54c-57.25 53.85-128.7 85.85-206.14 85.85-188.19 0-340.97-188.937-340.97-421.651 0-232.713 152.78-421.647 340.97-421.647 188.19 0 307.95 102.347 307.95 335.06 0 22.674 95.56 156.381 74.71 163.01-43.95 13.969-75.3 13.956-86.65 69.84 0 0 1.06 44.615 1.69 71.462a48.41 48.41 0 0 1-13.08 34.286l-78.48 83.79Z" style="fill:#fff;stroke:#000;stroke-width:40px" transform="rotate(-7.904 10351.737 -21819.873)"/><ellipse cx="2440.11" cy="642.283" rx="47.945" ry="111.582" transform="rotate(-8.185 9876.563 -21609.475)"/><g transform="translate(1592.18 875)"><g transform="matrix(1.2058 0 0 1.68356 -189.188 -255.896)"><path d="M946.555 2035.16V131.294" style="fill:none;stroke:#000;stroke-width:14.55px;stroke-dasharray:43.65 29.1 0 0" transform="matrix(.72515 .78495 -.31314 .28928 880.821 -589.03)" id="Background-lines6"/><path d="M946.555 2035.16V131.294" style="fill:none;stroke:#000;stroke-width:15.93px;stroke-dasharray:47.8 31.87 0 0" transform="matrix(.91877 .54575 -.1964 .33014 450.521 -495.914)" id="Background-lines7"/><path d="M946.555 2035.16V131.294" style="fill:none" transform="matrix(.16397 .98647 -.39353 .06541 1576.66 -309.789)" id="Background-lines8"/><path d="M946.555 2035.16V131.294" style="fill:none;stroke:#000;stroke-width:14.07px;stroke-dasharray:42.2 28.13 0 0" transform="matrix(.48244 .95354 -.38929 .19696 1259.44 -535.662)" id="Background-lines9"/><path d="M946.555 2035.16V131.294" style="fill:none;stroke:#000;stroke-width:14.55px;stroke-dasharray:43.65 29.1 0 0" transform="matrix(-.72515 .78495 .31314 .28928 957.771 -589.03)" id="Background-lines10"/><path d="M946.555 2035.16V131.294" style="fill:none;stroke:#000;stroke-width:15.92px;stroke-dasharray:47.76 31.84 0 0" transform="matrix(-.9184 .54637 .19695 .33105 1391.73 -498.348)" id="Background-lines11"/><path d="M946.555 2035.16V131.294" style="fill:none" transform="matrix(-.16397 .98647 .39353 .06541 261.934 -309.789)" id="Background-lines12"/><path d="M946.555 2035.16V131.294" style="fill:none;stroke:#000;stroke-width:14.07px;stroke-dasharray:42.2 28.13 0 0" transform="matrix(-.48244 .95354 .38929 .19696 575.796 -536.462)" id="Background-lines13"/><path d="M946.555 2035.16V131.294" style="fill:none;stroke:#000;stroke-width:18.9px;stroke-dasharray:56.7 37.8 0 0" transform="matrix(1.06864 0 0 .3869 -84.908 -49.757)"/></g><path d="m1751.448 317.36 68.78 74.88 18.64-99.96-87.42 25.08ZM71.124 315.37l-66.55 76.87-21.56-99.36 88.11 22.49Z"/><path d="M3392.36 1197.29c-258.56-770.129-1549.27-742.333-1777.6-.55" style="fill:none;stroke:#000;stroke-width:30.31px" transform="matrix(1 0 0 1 -1592.18 -874.99)"/><path d="M874.71-338.895h107.628v192.08H874.709z"/><path style="fill:#fff" d="M865.821 876.071h93.532v142.49h-93.532z" transform="matrix(.48919 0 0 1.54072 482.097 -1703.745)"/><g transform="matrix(1.10873 0 0 1.09687 -2009.107 -912.964)"><circle cx="2014.58" cy="1351.66" r="106.885" style="fill:#fff;stroke:#000;stroke-width:9.07px"/><text x="103.874" y="1469.94" style="stroke:#000;stroke-width:5.55px;stroke-linecap:butt;stroke-miterlimit:2;font-family:TimesNewRomanPS-BoldMT,Times New Roman,serif;font-size:417.468px;font-weight:700" transform="matrix(.49278 0 0 .49278 1889.47 696.821)">A</text></g><g transform="matrix(1.10873 0 0 1.09687 -601.104 -949.885)"><circle cx="2014.58" cy="1351.66" r="106.885" style="fill:#fff;stroke:#000;stroke-width:9.07px"/><text x="103.874" y="1469.94" style="stroke:#000;stroke-width:5.55px;stroke-linecap:butt;stroke-miterlimit:2;font-family:TimesNewRomanPS-BoldMT,Times New Roman,serif;font-size:417.468px;font-weight:700" transform="matrix(.49278 0 0 .49278 1880.28 695.414)">G</text></g><g transform="matrix(1.10873 0 0 1.09687 -1885.355 -1184.361)"><circle cx="2014.58" cy="1351.66" r="106.885" style="fill:#fff;stroke:#000;stroke-width:9.07px"/><text x="103.874" y="1469.94" style="font-family:TimesNewRomanPS-BoldMT,Times New Roman,serif;font-size:417.468px;font-weight:700" transform="matrix(.49278 0 0 .49278 1896.25 695.414)">B</text></g><g transform="matrix(1.10873 0 0 1.09687 -751.88 -1196.126)"><circle cx="2014.58" cy="1351.66" r="106.885" style="fill:#fff;stroke:#000;stroke-width:9.07px"/><text x="103.874" y="1469.94" style="stroke:#000;stroke-width:5.55px;stroke-linecap:butt;stroke-miterlimit:2;font-family:TimesNewRomanPS-BoldMT,Times New Roman,serif;font-size:417.468px;font-weight:700" transform="matrix(.49278 0 0 .49278 1901.32 695.414)">F</text></g><g transform="matrix(1.10873 0 0 1.09687 -1648.342 -1346.21)"><circle cx="2014.58" cy="1351.66" r="106.885" style="fill:#fff;stroke:#000;stroke-width:9.07px"/><text x="103.874" y="1469.94" style="stroke:#000;stroke-width:5.55px;stroke-linecap:butt;stroke-miterlimit:2;font-family:TimesNewRomanPS-BoldMT,Times New Roman,serif;font-size:417.468px;font-weight:700" transform="matrix(.49278 0 0 .49278 1890.67 695.414)">C</text></g><g transform="matrix(1.10873 0 0 1.09687 -968.022 -1365.912)"><circle cx="2014.58" cy="1351.66" r="106.885" style="fill:#fff;stroke:#000;stroke-width:9.07px"/><text x="103.874" y="1469.94" style="stroke:#000;stroke-width:5.55px;stroke-linecap:butt;stroke-miterlimit:2;font-family:TimesNewRomanPS-BoldMT,Times New Roman,serif;font-size:417.468px;font-weight:700" transform="matrix(.49278 0 0 .49278 1897.35 695.414)">E</text></g><g transform="matrix(1.10873 0 0 1.09687 -1308.18 -1418.84)"><circle cx="2014.58" cy="1351.66" r="106.885" style="fill:#fff;stroke:#000;stroke-width:9.07px"/><text x="103.874" y="1469.94" style="stroke:#000;stroke-width:5.55px;stroke-linecap:butt;stroke-miterlimit:2;font-family:TimesNewRomanPS-BoldMT,Times New Roman,serif;font-size:417.468px;font-weight:700" transform="matrix(.49278 0 0 .49278 1892.08 695.414)">D</text></g><path d="M828.235 1441.41c0-58.18-47.233-105.41-105.411-105.41-58.179 0-105.412 47.23-105.412 105.41v438.86c0 58.18 47.233 105.41 105.412 105.41 58.178 0 105.411-47.23 105.411-105.41v-438.86Z" style="fill:#fff;stroke:#000;stroke-width:40px" transform="rotate(31.622 814.99 1537.133)"/><path d="M828.235 1441.41c0-58.18-47.233-105.41-105.411-105.41-58.179 0-105.412 47.23-105.412 105.41v438.86c0 58.18 47.233 105.41 105.412 105.41 58.178 0 105.411-47.23 105.411-105.41v-438.86Z" style="fill:#fff;stroke:#000;stroke-width:40px" transform="scale(-1 1) rotate(31.621 -111.159 -1733.461)"/><path d="m869.109 1568.34 200.071 391.53H669.042l200.067-391.53Z" style="fill:#fff;stroke:#000;stroke-width:21.03px" transform="matrix(-.47312 0 0 -2.64835 1337.34 5952.03)"/><ellipse cx="1195.03" cy="1080" rx="340.975" ry="421.647" style="fill:#fff;stroke:#000;stroke-width:40px" transform="translate(-268.878 -349.261)"/><path d="M1305.82 2375.06H600.202l148.578-503.72c16.26-55.12 80.953-94.33 155.656-94.33h108.914c67.83 0 126.56 35.59 141.32 85.65 48.78 165.35 151.15 512.4 151.15 512.4Z" style="fill:#fff;stroke:#000;stroke-width:45.12px" transform="matrix(.7561 0 0 1 205.58 -539.967)"/></g><g transform="translate(3097.18 875)"><path d="M828.235 1441.41c0-58.18-47.233-105.41-105.411-105.41-58.179 0-105.412 47.23-105.412 105.41v438.86c0 58.18 47.233 105.41 105.412 105.41 58.178 0 105.411-47.23 105.411-105.41v-438.86Z" style="fill:#fff;stroke:#000;stroke-width:40px" transform="rotate(31.622 814.99 1537.133)"/><path d="M828.235 1441.41c0-58.18-47.233-105.41-105.411-105.41-58.179 0-105.412 47.23-105.412 105.41v438.86c0 58.18 47.233 105.41 105.412 105.41 58.178 0 105.411-47.23 105.411-105.41v-438.86Z" style="fill:#fff;stroke:#000;stroke-width:40px" transform="scale(-1 1) rotate(31.621 -111.159 -1733.461)"/><path d="m869.109 1568.34 200.071 391.53H669.042l200.067-391.53Z" style="fill:#fff;stroke:#000;stroke-width:21.03px" transform="matrix(-.47312 0 0 -2.64835 1337.34 5952.03)"/><ellipse cx="1195.03" cy="1080" rx="340.975" ry="421.647" style="fill:#fff;stroke:#000;stroke-width:40px" transform="translate(-268.878 -349.261)"/><path d="M1305.82 2375.06H600.202l148.578-503.72c16.26-55.12 80.953-94.33 155.656-94.33h108.914c67.83 0 126.56 35.59 141.32 85.65 48.78 165.35 151.15 512.4 151.15 512.4Z" style="fill:#fff;stroke:#000;stroke-width:45.12px" transform="matrix(.7561 0 0 1 205.58 -539.967)"/><path d="M946.555 2035.16V131.294" style="fill:none;stroke:#000;stroke-width:26.49px;stroke-dasharray:79.48 52.99 0 0" transform="matrix(1 0 0 .24706 -20.408 -244.577)"/></g><text x="103.874" y="1469.94" style="font-family:TimesNewRomanPSMT,Times New Roman,serif;font-size:626.202px" transform="matrix(.47908 0 0 .47908 4128.52 353.692)">Ω ♯</text><text x="103.874" y="1469.94" style="font-family:TimesNewRomanPSMT,Times New Roman,serif;font-size:626.202px" transform="matrix(.47908 0 0 .47908 3594.29 360.089)">Ω</text><ellipse cx="2440.11" cy="642.283" rx="47.945" ry="111.582" transform="matrix(.99912 -.0597 .04195 1.42168 167.43 776.904)"/><ellipse cx="2440.11" cy="642.283" rx="47.945" ry="111.582" transform="matrix(-.99912 -.0597 -.04195 1.42168 4869.22 776.904)"/><ellipse cx="2440.11" cy="642.283" rx="47.945" ry="111.582" transform="matrix(.88467 -.12565 .14053 1.26194 2032.74 1033.72)"/><ellipse cx="2440.11" cy="642.283" rx="47.945" ry="111.582" transform="matrix(-1.00074 .01793 .06837 1.42065 6478.32 598.151)"/><path d="m3638.887 1773.534-80.58-65.81-4.31 103.95 84.89-38.14ZM4408.808 1779.314l75.5-71.59 11.97 103.35-87.47-31.76Z"/><path d="M3588.81 1775.63c142.99 163.43 739.33 167.45 870.08 2.07" style="fill:none;stroke:#000;stroke-width:31.02px" transform="translate(-.001 .003)"/><g id="tEXT"><path style="fill:#fff" d="M2481.24 2665.64h1540v187.758h-1540z" transform="matrix(.97841 0 0 1.69622 63.673 -1947.27)"/><path d="M2253.63 1499.73c0-36.42-26.94-66-60.13-66h-812.36c-33.19 0-60.13 29.58-60.13 66v468c0 36.43 26.94 66 60.13 66h812.36c33.19 0 60.13-29.57 60.13-66v-468Z" transform="matrix(1.5237 0 0 1.3882 523.93 151.558)"/><path d="M3020.59 1978.32h-166.97c-12.48 0-22.6 10.72-22.6 23.94v721.3c0 3.46 1.3 6.79 3.61 9.24 2.31 2.44 5.45 3.82 8.72 3.82h164.91c3.27 0 6.41-1.38 8.72-3.82 2.31-2.45 3.61-5.78 3.61-9.24v-745.24Z" style="fill:#fff;stroke:#000;stroke-width:15.55px" transform="matrix(.97308 0 0 .91864 -149.248 372.461)"/><path d="M3020.59 1978.32h-189.57v745.24c0 7.21 5.52 13.06 12.33 13.06h164.91c6.81 0 12.33-5.85 12.33-13.06v-745.24Z" style="fill:#fff;stroke:#000;stroke-width:15.55px" transform="matrix(.97308 0 0 .91864 398.815 372.461)"/><path d="M3020.59 1978.32h-189.57v745.24c0 7.21 5.52 13.06 12.33 13.06h164.91c6.81 0 12.33-5.85 12.33-13.06v-745.24Z" style="fill:#fff;stroke:#000;stroke-width:15.55px" transform="matrix(.97308 0 0 .91864 35.227 372.461)"/><path d="M3020.59 2002.26c0-13.22-10.12-23.94-22.61-23.94h-166.96v745.24c0 7.21 5.52 13.06 12.33 13.06h164.91c6.81 0 12.33-5.85 12.33-13.06v-721.3Z" style="fill:#fff;stroke:#000;stroke-width:15.55px" transform="matrix(.97308 0 0 .91864 949.684 372.461)"/><path d="M3020.59 1978.32h-189.57v745.24c0 7.21 5.52 13.06 12.33 13.06h164.91c6.81 0 12.33-5.85 12.33-13.06v-745.24Z" style="fill:#fff;stroke:#000;stroke-width:15.55px" transform="matrix(.97308 0 0 .91864 583.29 372.461)"/><path d="M3020.59 1978.32h-189.57v745.24c0 7.21 5.52 13.06 12.33 13.06h164.91c6.81 0 12.33-5.85 12.33-13.06v-745.24Z" style="fill:#fff;stroke:#000;stroke-width:15.55px" transform="matrix(.97308 0 0 .91864 216.57 372.461)"/><path d="M3020.59 1978.32h-189.57v745.24c0 7.21 5.52 13.06 12.33 13.06h164.91c6.81 0 12.33-5.85 12.33-13.06v-745.24Z" style="fill:#fff;stroke:#000;stroke-width:15.55px" transform="matrix(.97308 0 0 .91864 764.635 372.461)"/><path d="M2993.59 1992.88h100.05v422.598h-100.05z" transform="matrix(1.05417 0 0 .91864 -422.523 359.078)"/><path d="M2993.59 1992.88h100.05v422.598h-100.05z" transform="matrix(1.05417 0 0 .91864 -237.118 359.078)"/><path d="M2993.59 1992.88h100.05v422.598h-100.05z" transform="matrix(1.05417 0 0 .91864 129.6 359.078)"/><path d="M2993.59 1992.88h100.05v422.598h-100.05z" transform="matrix(1.05417 0 0 .91864 310.945 359.078)"/><path d="M2993.59 1992.88h100.05v422.598h-100.05z" transform="matrix(1.05417 0 0 .91864 496.153 359.078)"/><text x="1364.38" y="2514.44" style="font-family:TimesNewRomanPS-BoldMT,Times New Roman,serif;font-size:70.79px;font-weight:700" transform="matrix(2.36659 0 0 2.36659 -602.956 -3124.219)">C</text><text x="1343.72" y="2514.44" style="font-family:TimesNewRomanPS-BoldMT,Times New Roman,serif;font-size:58.734px;font-weight:700" transform="matrix(2.36659 0 0 2.36659 -489.1 -3846.647)">C#</text><text x="1343.72" y="2514.44" style="font-family:TimesNewRomanPS-BoldMT,Times New Roman,serif;font-size:58.734px;font-weight:700" transform="matrix(2.36659 0 0 2.36659 -293.74 -3846.563)">D#</text><text x="1350.26" y="2514.44" style="font-family:TimesNewRomanPS-BoldMT,Times New Roman,serif;font-size:58.734px;font-weight:700" transform="matrix(2.36659 0 0 2.36659 49.193 -3846.563)">F#</text><text x="1340.45" y="2514.44" style="font-family:TimesNewRomanPS-BoldMT,Times New Roman,serif;font-size:58.734px;font-weight:700" transform="matrix(2.36659 0 0 2.36659 242.992 -3846.647)">G#</text><text x="1343.72" y="2514.44" style="font-family:TimesNewRomanPS-BoldMT,Times New Roman,serif;font-size:58.734px;font-weight:700" transform="matrix(2.36659 0 0 2.36659 433.352 -3846.563)">A#</text><text x="1364.38" y="2514.44" style="font-family:TimesNewRomanPS-BoldMT,Times New Roman,serif;font-size:70.79px;font-weight:700" transform="matrix(2.36659 0 0 2.36659 -418.984 -3124.219)">D</text><text x="1368.29" y="2514.44" style="font-family:TimesNewRomanPS-BoldMT,Times New Roman,serif;font-size:70.79px;font-weight:700" transform="matrix(2.36659 0 0 2.36659 -235.01 -3124.219)">E</text><text x="1372.26" y="2514.44" style="font-family:TimesNewRomanPS-BoldMT,Times New Roman,serif;font-size:70.79px;font-weight:700" transform="matrix(2.36659 0 0 2.36659 -51.038 -3124.219)">F</text><text x="1360.44" y="2514.44" style="font-family:TimesNewRomanPS-BoldMT,Times New Roman,serif;font-size:70.79px;font-weight:700" transform="matrix(2.36659 0 0 2.36659 132.933 -3124.219)">G</text><text x="1364.38" y="2514.44" style="font-family:TimesNewRomanPS-BoldMT,Times New Roman,serif;font-size:70.79px;font-weight:700" transform="matrix(2.36659 0 0 2.36659 316.906 -3124.219)">A</text><text x="1368.29" y="2514.44" style="font-family:TimesNewRomanPS-BoldMT,Times New Roman,serif;font-size:70.79px;font-weight:700" transform="matrix(2.36659 0 0 2.36659 500.878 -3124.219)">B</text><path d="M687.282 2548.2h537.395v272.63H687.282z" transform="matrix(1.42637 0 0 1.03614 744.764 52.016)"/><path d="M2536.74 2690.66v105.14h183.61-78.47c-58.03 0-105.14-47.11-105.14-105.14Z" transform="translate(1112.703 1455.086) scale(.54357)"/><text x="103.874" y="1469.94" style="fill:#fff;font-family:TimesNewRomanPSMT,Times New Roman,serif;font-size:346.22px" transform="matrix(.5581 0 0 .5581 1798.549 2077.144)">ROLL</text><path d="M687.282 2548.2h537.395v272.63H687.282z" transform="matrix(1.42637 0 0 1.03614 3016.964 52.016)"/><path d="M2536.74 2690.66v105.14h183.61-78.47c-58.03 0-105.14-47.11-105.14-105.14Z" transform="matrix(-.54357 0 0 .54357 5376.177 1455.086)"/><text x="103.874" y="1469.94" style="fill:#fff;font-family:TimesNewRomanPSMT,Times New Roman,serif;font-size:346.22px" transform="matrix(.5581 0 0 .5581 4110.14 2077.144)">Y<tspan x="315.528px 537.832px" y="1469.94px 1469.94px">AW</tspan></text><path style="fill:#fff" d="M1471.95 75.891h472v480h-472z" transform="matrix(2.87153 0 0 1 905.629 -60)"/><text x="-1280.17" y="1469.94" style="font-family:TimesNewRomanPS-BoldMT,Times New Roman,serif;font-size:830.457px;font-weight:700" transform="matrix(.36125 0 0 .36125 5662.12 -205.01)">OCT<tspan x="457.786px 950.465px 1550.19px" y="1469.94px 1469.94px 1469.94px">AVE</tspan></text><path style="fill:#fff" d="M1471.95 75.891h472v480h-472z" transform="matrix(1.76271 0 0 1 236.633 -60)"/><text x="304.508" y="1469.94" style="font-family:TimesNewRomanPS-BoldMT,Times New Roman,serif;font-size:830.457px;font-weight:700" transform="matrix(.36125 0 0 .36125 2810.53 -205.01)">KEY</text><path style="fill:#fff" d="M1471.95 75.891h472v480h-472z" transform="matrix(2.1793 0 0 .75 -2985.91 18.973)"/><text x="-156.947" y="1469.94" style="font-family:TimesNewRomanPS-BoldMT,Times New Roman,serif;font-size:830.457px;font-weight:700" transform="matrix(.36125 0 0 .36125 382.05 -224.218)">ADSR</text><path d="M5548.96 2296.88c0-21.42-11.5-38.8-25.65-38.8H3721.84c-14.16 0-25.65 17.38-25.65 38.8v353.52c0 21.42 11.49 38.8 25.65 38.8h1801.47c14.15 0 25.65-17.38 25.65-38.8v-353.52Z" transform="matrix(0 1.42521 -.94215 0 9127.461 -5049.252)"/><path d="M3020.59 1978.32h-103.58c-22.81 0-44.68 7.49-60.81 20.83-16.12 13.34-25.18 31.43-25.18 50.3v616.04c0 18.87 9.06 36.96 25.18 50.3 16.13 13.34 38 20.83 60.81 20.83h90.76c3.4 0 6.66-1.12 9.07-3.11 2.4-1.98 3.75-4.68 3.75-7.5v-747.69Z" style="fill:#fff" transform="matrix(0 .37211 -.44988 0 7848.342 -800.83)"/><path d="M3020.59 1978.32h-189.57v731.63c0 14.73 14.43 26.67 32.24 26.67h125.08c17.81 0 32.25-11.94 32.25-26.67v-731.63Z" style="fill:#fff" transform="matrix(0 .37211 -.44988 0 7848.342 -380.75)"/><path d="M3020.59 1978.32h-189.57v731.63c0 14.73 14.43 26.67 32.24 26.67h125.08c17.81 0 32.25-11.94 32.25-26.67v-731.63Z" style="fill:#fff" transform="matrix(0 .37211 -.44988 0 7848.342 -591.253)"/><path d="M3020.59 1978.32h-189.57v731.63c0 14.73 14.43 26.67 32.24 26.67h125.08c17.81 0 32.25-11.94 32.25-26.67v-731.63Z" style="fill:#fff" transform="matrix(0 .37211 -.44988 0 7848.342 -730.293)"/><path d="M3020.59 1978.32h-189.57v731.63c0 14.73 14.43 26.67 32.24 26.67h125.08c17.81 0 32.25-11.94 32.25-26.67v-731.63Z" style="fill:#fff" transform="matrix(0 .37211 -.44988 0 7848.342 -520.716)"/><path d="M3020.59 1978.32h-189.57v731.63c0 14.73 14.43 26.67 32.24 26.67h125.08c17.81 0 32.25-11.94 32.25-26.67v-731.63Z" style="fill:#fff" transform="matrix(0 .37211 -.44988 0 7848.342 -660.94)"/><path d="M3020.59 1978.32h-189.57v731.63c0 14.73 14.43 26.67 32.24 26.67h125.08c17.81 0 32.25-11.94 32.25-26.67v-731.63Z" style="fill:#fff" transform="matrix(0 .37211 -.44988 0 7848.342 -451.364)"/><path d="M2993.59 1992.88h100.05v422.598h-100.05z" transform="matrix(0 .40312 -.40853 0 7772.483 -905.345)"/><path d="M2993.59 1992.88h100.05v422.598h-100.05z" transform="matrix(0 .40312 -.40853 0 7772.483 -831.891)"/><path d="M2993.59 1992.88h100.05v422.598h-100.05z" transform="matrix(0 .40312 -.40853 0 7772.483 -691.637)"/><path d="M2993.59 1992.88h100.05v422.598h-100.05z" transform="matrix(0 .40312 -.40853 0 7772.483 -627.22)"/><path d="M2993.59 1992.88h100.05v422.598h-100.05z" transform="matrix(0 .40312 -.40853 0 7772.483 -553.19)"/><path d="M3020.59 1978.32h-189.57v731.63c0 14.73 14.43 26.67 32.24 26.67h144.51c3.4 0 6.66-1.12 9.07-3.11 2.4-1.98 3.75-4.68 3.75-7.5v-747.69Z" style="fill:#fff" transform="matrix(0 .37211 -.44988 0 7848.342 238.03)"/><path d="M3020.59 1978.32h-189.57v731.63c0 14.73 14.43 26.67 32.24 26.67h125.08c17.81 0 32.25-11.94 32.25-26.67v-731.63Z" style="fill:#fff" transform="matrix(0 .37211 -.44988 0 7848.342 658.11)"/><path d="M3020.59 1978.32h-189.57v731.63c0 14.73 14.43 26.67 32.24 26.67h125.08c17.81 0 32.25-11.94 32.25-26.67v-731.63Z" style="fill:#fff" transform="matrix(0 .37211 -.44988 0 7848.342 447.607)"/><path d="M3020.59 1978.32h-189.57v731.63c0 14.73 14.43 26.67 32.24 26.67h125.08c17.81 0 32.25-11.94 32.25-26.67v-731.63Z" style="fill:#fff" transform="matrix(0 .37211 -.44988 0 7848.342 308.567)"/><path d="M3020.59 1978.32h-189.57v731.63c0 14.73 14.43 26.67 32.24 26.67h125.08c17.81 0 32.25-11.94 32.25-26.67v-731.63Z" style="fill:#fff" transform="matrix(0 .37211 -.44988 0 7848.342 518.144)"/><path d="M3020.59 1978.32h-189.57v731.63c0 14.73 14.43 26.67 32.24 26.67h125.08c17.81 0 32.25-11.94 32.25-26.67v-731.63Z" style="fill:#fff" transform="matrix(0 .37211 -.44988 0 7848.342 377.92)"/><path d="M3020.59 1978.32h-189.57v731.63c0 14.73 14.43 26.67 32.24 26.67h125.08c17.81 0 32.25-11.94 32.25-26.67v-731.63Z" style="fill:#fff" transform="matrix(0 .37211 -.44988 0 7848.342 587.496)"/><path d="M2993.59 1992.88h100.05v422.598h-100.05z" transform="matrix(0 .40312 -.40853 0 7772.483 133.53)"/><path d="M2993.59 1992.88h100.05v422.598h-100.05z" transform="matrix(0 .40312 -.40853 0 7772.483 206.969)"/><path d="M2993.59 1992.88h100.05v422.598h-100.05z" transform="matrix(0 .40312 -.40853 0 7772.483 347.223)"/><path d="M2993.59 1992.88h100.05v422.598h-100.05z" transform="matrix(0 .40312 -.40853 0 7772.483 411.64)"/><path d="M2993.59 1992.88h100.05v422.598h-100.05z" transform="matrix(0 .40312 -.40853 0 7772.483 485.67)"/><path d="M3020.59 1978.32h-157.33c-17.81 0-32.24 11.94-32.24 26.67v704.96c0 14.73 14.43 26.67 32.24 26.67h144.51c3.4 0 6.66-1.12 9.07-3.11 2.4-1.98 3.75-4.68 3.75-7.5v-747.69Z" style="fill:#fff" transform="matrix(0 .37211 -.44988 0 7848.342 -280.337)"/><path d="M3020.59 1978.32h-189.57v731.63c0 14.73 14.43 26.67 32.24 26.67h125.08c17.81 0 32.25-11.94 32.25-26.67v-731.63Z" style="fill:#fff" transform="matrix(0 .37211 -.44988 0 7848.342 139.743)"/><path d="M3020.59 1978.32h-189.57v731.63c0 14.73 14.43 26.67 32.24 26.67h125.08c17.81 0 32.25-11.94 32.25-26.67v-731.63Z" style="fill:#fff" transform="matrix(0 .37211 -.44988 0 7848.342 -70.76)"/><path d="M3020.59 1978.32h-189.57v731.63c0 14.73 14.43 26.67 32.24 26.67h125.08c17.81 0 32.25-11.94 32.25-26.67v-731.63Z" style="fill:#fff" transform="matrix(0 .37211 -.44988 0 7848.342 -209.8)"/><path d="M3020.59 1978.32h-189.57v731.63c0 14.73 14.43 26.67 32.24 26.67h125.08c17.81 0 32.25-11.94 32.25-26.67v-731.63Z" style="fill:#fff" transform="matrix(0 .37211 -.44988 0 7848.342 -.223)"/><path d="M3020.59 1978.32h-189.57v731.63c0 14.73 14.43 26.67 32.24 26.67h125.08c17.81 0 32.25-11.94 32.25-26.67v-731.63Z" style="fill:#fff" transform="matrix(0 .37211 -.44988 0 7848.342 -140.447)"/><path d="M3020.59 1978.32h-189.57v731.63c0 14.73 14.43 26.67 32.24 26.67h125.08c17.81 0 32.25-11.94 32.25-26.67v-731.63Z" style="fill:#fff" transform="matrix(0 .37211 -.44988 0 7848.342 69.13)"/><path d="M2993.59 1992.88h100.05v422.598h-100.05z" transform="matrix(0 .40312 -.40853 0 7772.483 -384.836)"/><path d="M2993.59 1992.88h100.05v422.598h-100.05z" transform="matrix(0 .40312 -.40853 0 7772.483 -311.398)"/><path d="M2993.59 1992.88h100.05v422.598h-100.05z" transform="matrix(0 .40312 -.40853 0 7772.483 -171.144)"/><path d="M2993.59 1992.88h100.05v422.598h-100.05z" transform="matrix(0 .40312 -.40853 0 7772.483 -106.728)"/><path d="M2993.59 1992.88h100.05v422.598h-100.05z" transform="matrix(0 .40312 -.40853 0 7772.483 -32.697)"/><path d="M3020.59 1978.32h-157.33c-17.81 0-32.24 11.94-32.24 26.67v704.96c0 14.73 14.43 26.67 32.24 26.67h144.51c3.4 0 6.66-1.12 9.07-3.11 2.4-1.98 3.75-4.68 3.75-7.5v-747.69Z" style="fill:#fff" transform="matrix(0 .37211 -.44988 0 7848.342 758.523)"/><path d="M3020.59 1978.32h-189.57v731.63c0 14.73 14.43 26.67 32.24 26.67h125.08c17.81 0 32.25-11.94 32.25-26.67v-731.63Z" style="fill:#fff" transform="matrix(0 .37211 -.44988 0 7848.342 1178.603)"/><path d="M3020.59 1978.32h-189.57v731.63c0 14.73 14.43 26.67 32.24 26.67h125.08c17.81 0 32.25-11.94 32.25-26.67v-731.63Z" style="fill:#fff" transform="matrix(0 .37211 -.44988 0 7848.342 968.1)"/><path d="M3020.59 1978.32h-189.57v731.63c0 14.73 14.43 26.67 32.24 26.67h125.08c17.81 0 32.25-11.94 32.25-26.67v-731.63Z" style="fill:#fff" transform="matrix(0 .37211 -.44988 0 7848.342 829.06)"/><path d="M3020.59 1978.32h-189.57v731.63c0 14.73 14.43 26.67 32.24 26.67h125.08c17.81 0 32.25-11.94 32.25-26.67v-731.63Z" style="fill:#fff" transform="matrix(0 .37211 -.44988 0 7848.342 1038.652)"/><path d="M3020.59 1978.32h-189.57v731.63c0 14.73 14.43 26.67 32.24 26.67h125.08c17.81 0 32.25-11.94 32.25-26.67v-731.63Z" style="fill:#fff" transform="matrix(0 .37211 -.44988 0 7848.342 898.413)"/><path d="M3020.59 1978.32h-189.57v731.63c0 14.73 14.43 26.67 32.24 26.67h125.08c17.81 0 32.25-11.94 32.25-26.67v-731.63Z" style="fill:#fff" transform="matrix(0 .37211 -.44988 0 7848.342 1107.99)"/><path d="M2993.59 1992.88h100.05v422.598h-100.05z" transform="matrix(0 .40312 -.40853 0 7772.483 654.024)"/><path d="M2993.59 1992.88h100.05v422.598h-100.05z" transform="matrix(0 .40312 -.40853 0 7772.483 727.462)"/><path d="M2993.59 1992.88h100.05v422.598h-100.05z" transform="matrix(0 .40312 -.40853 0 7772.483 867.716)"/><path d="M2993.59 1992.88h100.05v422.598h-100.05z" transform="matrix(0 .40312 -.40853 0 7772.483 932.132)"/><path d="M2993.59 1992.88h100.05v422.598h-100.05z" transform="matrix(0 .40312 -.40853 0 7772.483 1006.178)"/><path d="M3020.59 1978.32h-157.33c-17.81 0-32.24 11.94-32.24 26.67v704.96c0 14.73 14.43 26.67 32.24 26.67h144.51c3.4 0 6.66-1.12 9.07-3.11 2.4-1.98 3.75-4.68 3.75-7.5v-747.69Z" style="fill:#fff" transform="matrix(0 .37211 -.44988 0 7848.342 1281.401)"/><path d="M3020.59 2027.22c0-27.01-26.47-48.9-59.12-48.9h-130.45v731.63c0 7.07 3.39 13.86 9.44 18.86 6.05 5 14.25 7.81 22.8 7.81h98.21c32.65 0 59.12-21.89 59.12-48.9v-660.5Z" style="fill:#fff" transform="matrix(0 .37211 -.44988 0 7848.342 1701.496)"/><path d="M3020.59 1978.32h-189.57v731.63c0 14.73 14.43 26.67 32.24 26.67h125.08c17.81 0 32.25-11.94 32.25-26.67v-731.63Z" style="fill:#fff" transform="matrix(0 .37211 -.44988 0 7848.342 1490.993)"/><path d="M3020.59 1978.32h-189.57v731.63c0 14.73 14.43 26.67 32.24 26.67h125.08c17.81 0 32.25-11.94 32.25-26.67v-731.63Z" style="fill:#fff" transform="matrix(0 .37211 -.44988 0 7848.342 1351.954)"/><path d="M3020.59 1978.32h-189.57v731.63c0 14.73 14.43 26.67 32.24 26.67h125.08c17.81 0 32.25-11.94 32.25-26.67v-731.63Z" style="fill:#fff" transform="matrix(0 .37211 -.44988 0 7848.342 1561.53)"/><path d="M3020.59 1978.32h-189.57v731.63c0 14.73 14.43 26.67 32.24 26.67h125.08c17.81 0 32.25-11.94 32.25-26.67v-731.63Z" style="fill:#fff" transform="matrix(0 .37211 -.44988 0 7848.342 1421.291)"/><path d="M3020.59 1978.32h-189.57v731.63c0 14.73 14.43 26.67 32.24 26.67h125.08c17.81 0 32.25-11.94 32.25-26.67v-731.63Z" style="fill:#fff" transform="matrix(0 .37211 -.44988 0 7848.342 1630.883)"/><path d="M2993.59 1992.88h100.05v422.598h-100.05z" transform="matrix(0 .40312 -.40853 0 7772.483 1176.902)"/><path d="M2993.59 1992.88h100.05v422.598h-100.05z" transform="matrix(0 .40312 -.40853 0 7772.483 1250.34)"/><path d="M2993.59 1992.88h100.05v422.598h-100.05z" transform="matrix(0 .40312 -.40853 0 7772.483 1390.61)"/><path d="M2993.59 1992.88h100.05v422.598h-100.05z" transform="matrix(0 .40312 -.40853 0 7772.483 1455.01)"/><path d="M2993.59 1992.88h100.05v422.598h-100.05z" transform="matrix(0 .40312 -.40853 0 7772.483 1529.056)"/><path d="M1224.68 2573.91c0-14.19-16.23-25.71-36.25-25.71H723.528c-20.018 0-36.246 11.52-36.246 25.71v221.22c0 14.2 16.228 25.71 36.246 25.71h464.902c20.02 0 36.25-11.51 36.25-25.71v-221.22Z" transform="matrix(0 .60697 -.85574 0 8908.467 -80.212)"/><text x="103.874" y="1469.94" style="fill:#fff;font-family:TimesNewRomanPSMT,Times New Roman,serif;font-size:664.864px" transform="matrix(0 .41724 -.3269 0 7018.319 341.293)">-2</text><path d="M1224.68 2573.91c0-14.19-16.23-25.71-36.25-25.71H723.528c-20.018 0-36.246 11.52-36.246 25.71v221.22c0 14.2 16.228 25.71 36.246 25.71h464.902c20.02 0 36.25-11.51 36.25-25.71v-221.22Z" transform="matrix(0 .60697 -.85574 0 8908.467 437.894)"/><text x="103.874" y="1469.94" style="fill:#fff;font-family:TimesNewRomanPSMT,Times New Roman,serif;font-size:664.864px" transform="matrix(0 .41724 -.3269 0 7018.319 870.573)">-1</text><path d="M1224.68 2573.91c0-14.19-16.23-25.71-36.25-25.71H723.528c-20.018 0-36.246 11.52-36.246 25.71v221.22c0 14.2 16.228 25.71 36.246 25.71h464.902c20.02 0 36.25-11.51 36.25-25.71v-221.22Z" transform="matrix(0 .60697 -.85574 0 8908.467 958.584)"/><text x="103.874" y="1469.94" style="fill:#fff;font-family:TimesNewRomanPSMT,Times New Roman,serif;font-size:664.864px" transform="matrix(0 .41724 -.3269 0 7019.595 1426.075)">0</text><path d="M1224.68 2573.91c0-14.19-16.23-25.71-36.25-25.71H723.528c-20.018 0-36.246 11.52-36.246 25.71v221.22c0 14.2 16.228 25.71 36.246 25.71h464.902c20.02 0 36.25-11.51 36.25-25.71v-221.22Z" transform="matrix(0 .60697 -.85574 0 8908.467 1479.26)"/><text x="103.874" y="1469.94" style="fill:#fff;font-family:TimesNewRomanPSMT,Times New Roman,serif;font-size:664.864px" transform="matrix(0 .41724 -.3269 0 7018.319 1883.02)">+1</text><path d="M1224.68 2573.91c0-14.19-16.23-25.71-36.25-25.71H723.528c-20.018 0-36.246 11.52-36.246 25.71v221.22c0 14.2 16.228 25.71 36.246 25.71h464.902c20.02 0 36.25-11.51 36.25-25.71v-221.22Z" transform="matrix(0 .60697 -.85574 0 8908.467 2005.09)"/><text x="103.874" y="1469.94" style="fill:#fff;font-family:TimesNewRomanPSMT,Times New Roman,serif;font-size:664.864px" transform="matrix(0 .41724 -.3269 0 7018.319 2397.676)">+2</text><path style="fill:#fff" d="M6929.82 1039.71h171.52v1018.47h-171.52z" transform="matrix(8.94681 0 0 .71737 -61927.6 822.701)"/><path d="m869.109 1568.34 200.071 391.53H669.042l200.067-391.53Z" style="fill:none;stroke:#000;stroke-width:21.03px" transform="matrix(-.4694 -.0592 .33141 -2.62753 214.19 6840.767)"/><path d="m1213.69 2330.81-593.312-.13s86.536-306.68 130.798-463.55c14.698-52.09 88.108-90.12 173.961-90.12h58.289c82.744 0 151.884 38.78 159.604 89.51l70.66 464.29Z" style="fill:#fff;stroke:#000;stroke-width:43.43px" transform="matrix(.68293 0 0 1.10897 -259.96 140.404)"/><path style="fill:#fff" d="M0 2891.09h7000v108.912H0z" transform="matrix(.2111 0 0 1.34141 -1.72 -1022.223)"/><path style="fill:#fff" d="M0 2891.09h7000v108.912H0z" transform="matrix(.28119 0 0 1.34141 5028.91 -1022.223)"/><path d="M3429.28 1790.58c53.11 0 103.64-22.94 138.6-62.92a184.102 184.102 0 0 0 43.89-145.75l-64.05-476.33c-12.28-91.38-90.27-159.591-182.48-159.591h-128.09c-92.21 0-170.2 68.211-182.49 159.591l-64.04 476.33a184.132 184.132 0 0 0 182.48 208.67h256.18Z" style="fill:#fff;stroke:#000;stroke-width:69.97px" transform="matrix(.3285 0 0 .73866 -709.11 1500.497)"/><path d="M2544.89 1066.54c-57.25 53.85-128.7 85.85-206.14 85.85-188.19 0-340.97-188.937-340.97-421.651 0-232.713 152.78-421.647 340.97-421.647 188.19 0 307.95 102.347 307.95 335.06 0 22.674 95.56 156.381 74.71 163.01-43.95 13.969-83.27 1.503-88.64 53.684l-204.89 14.789c-20.3 1.465-37.52 15.453-43.11 35.019-5.6 19.565 1.62 40.542 18.08 52.516 67.54 49.15 142.04 103.37 142.04 103.37Z" style="fill:#fff;stroke:#000;stroke-width:40px" transform="rotate(-7.904 7848.711 14520.322)"/><path d="M946.555 2035.16V131.294" style="fill:none;stroke:#000;stroke-width:25.49px;stroke-dasharray:76.48 50.98 0 0" transform="matrix(-.2064 -.97847 .37383 -.07886 991.306 2642.475)"/><path d="M946.555 2035.16V131.294" style="fill:none;stroke:#000;stroke-width:24.72px;stroke-dasharray:74.16 49.44 0 0" transform="matrix(.47222 -.88148 .41221 .22083 270.85 2732.348)"/><ellipse cx="2440.11" cy="642.283" rx="47.945" ry="111.582" transform="rotate(-8.185 7373.176 13476.832)"/><path d="m1576.96 1621.15-65.83-38.49 8.71 75.76 57.12-37.27ZM1557.95 2245.85l-62.74 43.35 2.96-76.2 59.78 32.85Z" transform="matrix(1 0 0 1 -.002 0)"/><path d="M1540.95 1628.36c35.43 62.8 87.43 186.85 67.53 350.34-9.83 80.73-29.62 163.52-86.99 262.68" style="fill:none;stroke:#000;stroke-width:22.74px" transform="matrix(1 0 0 1 -.002 0)"/><text x="-11.758" y="1469.94" style="font-family:TimesNewRomanPS-BoldMT,Times New Roman,serif;font-size:346.22px;font-weight:700" transform="matrix(.36125 0 0 .36125 789.61 1341.997)">AMPLITUDE</text><text x="1148.62" y="1830.87" style="font-family:TimesNewRomanPS-BoldMT,Times New Roman,serif;font-size:346.22px;font-weight:700" transform="matrix(.36125 0 0 .36125 789.61 1341.997)">GA<tspan x="1642.25px 1873.18px" y="1830.87px 1830.87px">TE</tspan></text><path d="M687.282 2548.2h537.395v272.63H687.282z" transform="matrix(2.73874 0 0 1.03614 -1881.623 52.016)"/><text x="103.874" y="1469.94" style="fill:#fff;font-family:TimesNewRomanPSMT,Times New Roman,serif;font-size:346.22px" transform="matrix(.55787 0 0 .5581 48.813 2077.14)">MOUTH GAPE</text><path d="M687.282 2548.2h537.395v272.63H687.282z" transform="matrix(2.43091 0 0 .98726 3486.16 189.896)"/><text x="103.874" y="1469.94" style="fill:#fff;font-family:TimesNewRomanPSMT,Times New Roman,serif;font-size:363.309px" transform="matrix(.53178 0 0 .53178 5183.617 2122.492)">HEAD PITCH</text></g><path d="m2798.84 831.91 44.03 74.051-36.02 40.028" style="fill:none;stroke:#000;stroke-width:22.54px" transform="translate(1406 856)"/><path d="M3983.4 1828.736h79.843v142.49H3983.4z"/><path style="fill:#fff" d="M865.821 876.071h93.532v142.49h-93.532z" transform="matrix(.3629 0 0 1.32331 3692.15 644.538)"/><path d="M4041.66 1163.61s207.53 89.63 165.2 450.82" style="fill:none;stroke:#000;stroke-width:18.1px;stroke-dasharray:54.3 36.2 0 0" transform="matrix(1.048 0 0 1.08424 -203.927 -71.836)"/></svg>