<?xml version="1.0" encoding="UTF-8" standalone="no"?>
<!DOCTYPE svg PUBLIC "-//W3C//DTD SVG 1.1//EN" "http://www.w3.org/Graphics/SVG/1.1/DTD/svg11.dtd">
<svg width="100%" height="100%" viewBox="0 0 1024 1024" version="1.1" xmlns="http://www.w3.org/2000/svg" xmlns:xlink="http://www.w3.org/1999/xlink" xml:space="preserve" xmlns:serif="http://www.serif.com/" style="fill-rule:evenodd;clip-rule:evenodd;stroke-linejoin:round;stroke-miterlimit:2;">
    <g transform="matrix(2.66065,0,0,2.66065,-654.954,68.3815)">
        <path d="M552.5,102.6C548.7,103.4 541.7,105.9 537.1,108.2C525.9,113.5 515.1,124.1 509.7,134.9C507.7,138.9 506,142.9 506,143.6C506,146.9 503.9,144.5 500.4,137.2C493.1,122.1 477.9,110.3 459.9,106C452.4,104.2 448.1,104 421.3,104L391,104L391,159C391,189.2 390.6,214 390.2,214C389.8,214 376.7,189.2 361.1,159C340.1,118.2 332.3,104 331,104C329.8,104 321.1,119.9 297.4,166.1C279.9,200.3 265.4,228.7 265.2,229.1C265,229.6 270.9,230 278.3,230L291.8,230L295.8,221.5L299.9,213L362.5,213L370.3,230L408,230C456.4,230 464.9,228.7 480,218.9C488.9,213.1 495.5,205.8 499.8,196.9C501.8,192.6 504,189.1 504.5,189.1C505.1,189.1 506.9,192.1 508.5,195.8C516.2,212.9 532.3,226 551.5,230.6C560.7,232.8 577.4,232.8 586,230.6C596.5,227.9 612,219.9 612,217.1C612,216.7 609,212.4 605.4,207.6L598.9,198.9L595.7,201C577.9,212.8 552.9,211 538.9,196.9C522.4,180.5 523,151.4 540.2,135.5C548.7,127.6 554.7,125.5 569,125.6C581.3,125.6 586.1,126.9 594.8,132.4L598.7,134.8L605.3,125.9C609,121 612,116.6 612,116C612,114 599.6,107 591.6,104.4C581.2,101 563.2,100.2 552.5,102.6M446.9,126C461.7,127.9 472.5,135.4 478.3,147.8C481.4,154.2 481.5,155.1 481.5,166.5C481.4,180.8 479.6,186.6 472.6,194.5C463.7,204.7 453.5,208 430.3,208L415,208L415,125L427.3,125C434,125 442.9,125.5 446.9,126M342.5,170.6C348,182.5 352.7,192.7 352.8,193.1C353,193.6 343.2,194 331,194C317.8,194 309,193.6 309.2,193.1C309.4,192.6 314,182.4 319.5,170.6C326.2,156.1 329.9,149 331,149C332,149 335.8,156.2 342.5,170.6" style="fill-rule:nonzero;stroke:white;stroke-width:0.38px;"/>
    </g>
</svg>
