<svg xmlns="http://www.w3.org/2000/svg" xml:space="preserve" fill-rule="evenodd" stroke-linejoin="round" stroke-miterlimit="2" clip-rule="evenodd" viewBox="0 0 643 643">
  <path fill="currentColor" fill-rule="nonzero" d="M292.374.612c-64 6.4-122.1 29.8-171.5 69-13.4 10.6-40.4 37.5-50.8 50.7-51 64.6-75.4 144.1-69.1 225.7 5 65.2 28.6 124.7 70.5 177.6 9.4 11.8 36.8 38.9 49.4 48.9 72.5 57.4 163.7 80.8 255 65.5 92.4-15.5 174.2-71.7 222.1-152.6 22.4-37.8 36.2-77.4 42.6-122.8 2.8-19.6 2.5-67.4-.6-87-4.2-27.4-9.8-48.8-18.8-71.5-43.6-110.2-140.2-185.8-258.3-202-13.6-1.9-57.2-2.8-70.5-1.5Zm-173.2 183.4c1.8.7 3.9 2.2 4.8 3.2 1 1.1 15.3 32.5 32 69.9 20.9 46.9 30.2 69 30.2 71.3-.1 3.9-2.3 7.5-6 9.9-2.5 1.7-7.2 1.8-65.3 1.8-59.7 0-62.6-.1-65.3-1.9-3.3-2.2-5.7-6.5-5.7-10.1 0-2.4 58.3-135 61.7-140.3 1.4-2.3 6.4-5.1 9.1-5.2.7 0 2.7.6 4.5 1.4Zm304.9 1.4c2.1 1.3 4.5 4 5.7 6.6 2.1 4.1 2.1 5.5 2.1 69.4 0 71.1.2 69-5.8 74.5-2.1 2.1-4.7 3.1-9.3 3.9-12 2.1-21.2-.6-26.3-7.5-2.1-2.8-2.1-3.6-2.4-69.4-.2-65.6-.2-66.6 1.8-70.9 3.6-7.4 8.5-9.5 21.5-9.1 7.4.2 9.8.7 12.7 2.5Zm-164.7 68.3c1.2 1.3 7.5 14.3 14 28.9 6.4 14.6 12 26.9 12.4 27.3.5.4 6.3-11.6 13.1-26.8 14.1-31.6 15.1-33 23.3-32.2 3.4.3 5.6 1.1 7.2 2.8 3.5 3.6 62.9 137.6 62.9 142 0 1.9-.8 4.8-1.8 6.3-3.5 5.4-4.9 5.6-49.5 5.6h-40.9l-2.2-5.5c-2.9-7.1-6.8-10.5-12.1-10.5-6.6 0-9.7 2.3-13 9.6l-2.9 6.4h-40.1c-44.2 0-44.1 0-47.9-6.3-1.1-1.8-2-4.3-2-5.7 0-1.4 13.7-33.4 30.5-71 34-76.5 33-74.6 41.7-73.8 3.5.4 5.7 1.2 7.3 2.9Zm291.1 1.9c17.9 4.3 35.1 15.2 43.3 27.7 4.7 7 3.9 15.6-2 21-3.6 3.2-33.7 15.7-37.7 15.6-2.2-.1-4.8-1.2-7.2-3.2-4.9-3.9-8-5.1-13.5-5.1s-9.2 1.4-12.8 4.8c-4.3 4-5.7 7.5-5.7 14 0 11 7.4 18.2 18.8 18.2 5.3 0 6.6-.4 12-4 3.6-2.5 7.1-4 9-4 3.5 0 32.9 12.2 36.8 15.3 3.3 2.5 5.4 7.4 5.4 12.5 0 9-14.3 23.3-31.3 31.2-29.9 14-66.7 6.6-88.8-17.9-14.2-15.7-20.5-33.4-19.6-55.1.7-17.3 6-31.5 16.8-44.8 18-22.3 48.8-32.9 76.5-26.2Z"/>
</svg>
