<?xml version="1.0" encoding="UTF-8" standalone="no"?>
<!DOCTYPE svg PUBLIC "-//W3C//DTD SVG 1.1//EN" "http://www.w3.org/Graphics/SVG/1.1/DTD/svg11.dtd">
<svg width="100%" height="100%" viewBox="0 0 643 643" version="1.1" xmlns="http://www.w3.org/2000/svg" xmlns:xlink="http://www.w3.org/1999/xlink" xml:space="preserve" xmlns:serif="http://www.serif.com/" style="fill-rule:evenodd;clip-rule:evenodd;stroke-linejoin:round;stroke-miterlimit:2;">
    <g transform="matrix(0.1,0,0,-0.1,-141.126,752.612)">
        <path fill="currentColor" d="M4335,7520C3695,7456 3114,7222 2620,6830C2486,6724 2216,6455 2112,6323C1602,5677 1358,4882 1421,4066C1471,3414 1707,2819 2126,2290C2220,2172 2494,1901 2620,1801C3345,1227 4257,993 5170,1146C6094,1301 6912,1863 7391,2672C7615,3050 7753,3446 7817,3900C7845,4096 7842,4574 7811,4770C7769,5044 7713,5258 7623,5485C7187,6587 6221,7343 5040,7505C4904,7524 4468,7533 4335,7520ZM2603,5686C2621,5679 2642,5664 2651,5654C2661,5643 2804,5329 2971,4955C3180,4486 3273,4265 3273,4242C3272,4203 3250,4167 3213,4143C3188,4126 3141,4125 2560,4125C1963,4125 1934,4126 1907,4144C1874,4166 1850,4209 1850,4245C1850,4269 2433,5595 2467,5648C2481,5671 2531,5699 2558,5700C2565,5700 2585,5694 2603,5686ZM5652,5672C5673,5659 5697,5632 5709,5606C5730,5565 5730,5551 5730,4912C5730,4201 5732,4222 5672,4167C5651,4146 5625,4136 5579,4128C5459,4107 5367,4134 5316,4203C5295,4231 5295,4239 5292,4897C5290,5553 5290,5563 5310,5606C5346,5680 5395,5701 5525,5697C5599,5695 5623,5690 5652,5672ZM4005,4989C4017,4976 4080,4846 4145,4700C4209,4554 4265,4431 4269,4427C4274,4423 4332,4543 4400,4695C4541,5011 4551,5025 4633,5017C4667,5014 4689,5006 4705,4989C4740,4953 5334,3613 5334,3569C5334,3550 5326,3521 5316,3506C5281,3452 5267,3450 4821,3450L4412,3450L4390,3505C4361,3576 4322,3610 4269,3610C4203,3610 4172,3587 4139,3514L4110,3450L3709,3450C3267,3450 3268,3450 3230,3513C3219,3531 3210,3556 3210,3570C3210,3584 3347,3904 3515,4280C3855,5045 3845,5026 3932,5018C3967,5014 3989,5006 4005,4989ZM6916,4970C7095,4927 7267,4818 7349,4693C7396,4623 7388,4537 7329,4483C7293,4451 6992,4326 6952,4327C6930,4328 6904,4339 6880,4359C6831,4398 6800,4410 6745,4410C6690,4410 6653,4396 6617,4362C6574,4322 6560,4287 6560,4222C6560,4112 6634,4040 6748,4040C6801,4040 6814,4044 6868,4080C6904,4105 6939,4120 6958,4120C6993,4120 7287,3998 7326,3967C7359,3942 7380,3893 7380,3842C7380,3752 7237,3609 7067,3530C6768,3390 6400,3464 6179,3709C6037,3866 5974,4043 5983,4260C5990,4433 6043,4575 6151,4708C6331,4931 6639,5037 6916,4970Z" style="fill-rule:nonzero;"/>
    </g>
</svg>