<svg xmlns="http://www.w3.org/2000/svg" width="428" height="428" version="1.0" viewBox="0 0 321 321">
  <path fill="currentColor" d="M180 34.4l-37.5 23.5-70.9 15C32.6 81.2.5 88.1.4 88.3c-.2.2 3.7 18.8 10.2 48.9.5 2.5 0 3.1-5.1 6.3-5.4 3.5-5.6 3.8-4.2 5.8.8 1.2 5.1 8.2 9.7 15.5l8.2 13.2 10.5 49.2c5.7 27.1 10.6 49.4 10.7 49.6.2.1 7.8-1.4 17-3.3 9.1-1.9 17.3-3.5 18-3.5.8 0 7.1 9.2 14.2 20.5 12.2 19.6 12.8 20.4 14.8 19.2 1.2-.8 26.8-16.8 57-35.7l54.8-34.3 37.7-8c20.7-4.3 37.7-8 37.8-8.1.1-.1-3.5-17.6-5.2-25.2-.4-1.9 1.7-3.5 15.3-11.9 8.6-5.4 16.3-10.4 17.1-11.1 1.1-1-3.6-9.1-28.2-48.6l-29.5-47.3-4.7-22c-2.5-12.1-4.8-22.1-5-22.3-.2-.2-3.9.3-8.2 1.2-9.1 1.9-7.1 3.5-17.6-13.6-4-6.5-7.4-11.7-7.7-11.8-.3 0-17.4 10.6-38 23.4zm45.1-7.9c3.9 6.4 7 11.8 6.7 12-.5.5-80.1 17.5-80.4 17.2-.4-.4 64.1-40.6 65.3-40.6.6-.1 4.4 5.1 8.4 11.4zM250 38.4c0 .3 1.6 7.8 3.5 16.7 2 8.9 3.4 16.4 3.2 16.5-.2.2-4.7-6.6-10.1-15.2-5.3-8.6-9.6-15.7-9.4-15.9 1.4-1.2 12.8-3 12.8-2.1zm-3.3 22.7l12.2 19.6 12.1 56.8c9.8 46.3 11.8 57.1 10.8 58.1-.7.6-15.9 10.3-33.8 21.5l-32.5 20.2-67.3 14.4C111.1 259.6 80 266 79 266c-1.3 0-9.6-12.6-29.7-44.7l-27.9-44.8-3.7-17.4c-2.1-9.6-3.4-17.8-3-18.2.5-.4 29.7-18.7 65-40.7l64.1-40.1 43.9-9.5c24.1-5.1 44.5-9.3 45.3-9.2.8 0 6.9 8.9 13.7 19.7zm-112.2 1.7c-2.3 2.1-120.6 75.4-121 75.1-.6-.7-10.4-47.3-10-47.7.3-.4 129-28 131-28.1.6-.1.6.2 0 .7zM289 129c13.9 22.3 25.9 41.5 26.7 42.7 1.4 2 .9 2.4-14.2 11.8-8.6 5.4-15.7 9.6-15.9 9.4-.2-.2-5.2-23.1-11.1-50.9-5.8-27.8-10.9-51.4-11.2-52.5-.3-1.1-.3-1.8-.1-1.5.3.3 11.9 18.7 25.8 41zM12 143.5c0 .3 1.2 5.9 2.6 12.6 1.4 6.7 2.4 12.3 2.2 12.4-.4.4-12.2-18.4-12.6-20-.1-.5 1.3-2 3-3.2 3.3-2.2 4.8-2.7 4.8-1.8zm37.8 83.3c15.3 24.5 24.7 40.4 23.9 40.7-2.9.9-31 6.5-31.3 6.2-.2-.2-4.4-19.4-9.4-42.8-4.9-23.3-9.2-43.3-9.4-44.3-.3-1-.1-1.5.3-1s12.1 19 25.9 41.2zM284 198.7c.1.5 1.2 5.7 2.5 11.8 1.3 6 2.3 11 2.2 11.1-.6.6-62.9 13.5-63.3 13.2-.4-.5 56.5-36.5 57.9-36.7.4-.1.7.2.7.6zm-77.5 44.1c-.6.5-23.9 15.2-51.9 32.6-41.8 26.1-51.1 31.5-52.1 30.4-1.3-1.3-23.6-36.8-23.2-36.8 8.5-2.1 124.8-26.8 126.2-26.9 1.1-.1 1.5.3 1 .7z"/>
  <path fill="currentColor" d="M204.2 117.2c-4.2 1.1-6.2 5.5-6.2 13.3 0 6.4 2 11.9 4.8 13.4 2.2 1.2 10 1.5 12.6.5.9-.3 1.6-1.5 1.6-2.5 0-1.7-.8-1.9-6-1.9-7.1 0-8-1.1-8-9.5s.9-9.5 8-9.5c4.7 0 6-.3 6-1.5 0-.9-.6-1.7-1.2-1.9-3.3-1.1-8.6-1.2-11.6-.4zM76.5 118.7c-1.9 4.8-8.5 24.4-8.5 25.3 0 .5 1.1 1 2.4 1 1.8 0 2.5-.8 3.2-3.3.9-3.1 1.2-3.2 5.9-3.2s5 .1 5.9 3.2c.7 2.5 1.4 3.3 3.2 3.3 1.3 0 2.4-.4 2.4-.8s-1.9-6.6-4.3-13.7c-4-11.8-4.6-13-6.9-13.3-1.7-.2-2.8.3-3.3 1.5zm5.9 13c.7 2.1.4 2.3-2.7 2.3h-3.5l1.6-5.1 1.7-5.1 1.1 2.8c.6 1.6 1.5 3.9 1.8 5.1zM93.2 129.1c.3 11.3.5 12.2 2.7 14 3.5 2.9 11.2 2.6 14.8-.5 2.7-2.4 2.8-2.7 3.1-14l.4-11.6H109v10.3c0 11.6-.5 12.7-6.1 12.7-4.7 0-4.9-.7-4.9-13.1V117h-5.2l.4 12.1zM118 131v14h6.5c3.5 0 7.5-.5 8.9-1.1 4-1.9 5.9-7.1 5.4-15.1-.3-6.2-.7-7.3-3.1-9.4-2.4-2.1-3.9-2.4-10.3-2.4H118v14zm14.4-8.4c1.1 1.1 1.6 3.4 1.6 7.5 0 8.4-1 9.9-6.5 9.9H123v-19h3.9c2.3 0 4.6.7 5.5 1.6zM143 131v14h5v-28h-5v14zM153.2 118.2c-.8.8-1.2 4.9-1.2 13 0 13.9.3 14.3 10.6 13.6 6.9-.4 8-.9 7.1-3.3-.5-1.1-2.2-1.5-6.7-1.5h-6v-7h5.5c4.8 0 5.5-.2 5.5-2s-.7-2-5.5-2H157v-8h6.6c5.7 0 6.5-.2 6.2-1.8-.3-1.4-1.6-1.7-7.8-2-5-.2-7.9.1-8.8 1zM173 130.9V145h2.5c2.4 0 2.4-.2 2.7-9.2l.3-9.2 5.8 9.2c4.8 7.5 6.3 9.2 8.3 9.2h2.4v-28h-2.5c-2.4 0-2.4.2-2.7 9.1l-.3 9.2-5.5-8.9c-4.5-7.3-6.1-9-8.3-9.2l-2.7-.3v14zM221.6 119.2c-1.2 1.7-1.6 4.8-1.6 11.8 0 12.6.9 14 9 14 7.1 0 9-.6 9-3.1 0-1.7-.8-1.9-6.5-1.9H225v-6.9l5.7-.3c4.6-.2 5.9-.7 6.1-2.1.3-1.5-.5-1.7-5.8-1.7h-6.1l.3-3.8.3-3.7 6.3-.3c5.4-.3 6.2-.6 6.2-2.2 0-1.8-.7-2-7.4-2-6.6 0-7.7.3-9 2.2zM70.4 153.4c-1.7 1.3-1.9 2.9-2.2 14l-.4 12.6h2.6c2.5 0 2.6-.3 2.6-5.5v-5.4l6-.7c5-.5 6-1 6-2.5 0-1.6-.8-1.9-6-1.9h-6v-7h6.5c5.7 0 6.5-.2 6.5-1.9 0-1-.7-2.2-1.6-2.5-3-1.1-12-.6-14 .8zM90.2 163.8c.4 14.8 1.2 16.2 9.5 16.2 3 0 6.3-.4 7.3-1 2.8-1.5 4-6.5 4-17.1 0-9.9 0-9.9-2.5-9.9H106v10.4c0 11.3-.9 13.6-5.4 13.6-4.7 0-5.5-1.8-5.8-13-.3-10.1-.4-10.5-2.6-10.8l-2.4-.4.4 12zM114 154.5c0 2.2.4 2.5 4 2.5h4v11.5c0 10.8.1 11.5 2 11.5s2-.7 2-11.5V157h4c3.6 0 4-.3 4-2.5V152h-20v2.5zM137 161.2c0 10.8 1.3 16.3 4.1 17.8 1.1.6 4.5 1 7.6.8 8.3-.4 9.6-2.5 9.7-16.5.1-10.5 0-10.8-2.1-11.1-2.2-.3-2.3-.1-2.3 9 0 11.1-1.2 14.2-5.6 14.6-5.4.5-6.4-1.5-6.4-13.4V152h-2.5c-2.5 0-2.5 0-2.5 9.2zM162 166v14h2.5c2.4 0 2.5-.3 2.5-5.5s.1-5.5 2.6-5.5c2.1 0 2.9.9 4.9 5.5 2.1 4.6 2.9 5.5 5 5.5 1.4 0 2.5-.2 2.5-.5s-1.1-2.8-2.5-5.6c-2.2-4.2-2.3-5-1-5.5 3.9-1.5 3.6-13.2-.5-15.4-1-.5-5-1-8.9-1H162v14zm14.5-7c1.3 4.1-.3 6-5.1 6H167v-8h4.4c3.6 0 4.6.4 5.1 2zM186.6 154.2c-1.9 2.6-2.3 20.7-.6 23.9.9 1.6 2.2 1.9 9 1.9 7.3 0 8-.2 8-2 0-1.6-.8-1.9-6.2-2.2-6.2-.3-6.3-.3-6.6-3.4-.3-2.8 0-3.2 2.9-3.8 1.7-.3 4.5-.6 6.1-.6 2.3 0 2.9-.4 2.6-1.8-.2-1.3-1.5-1.8-6.1-2l-5.7-.3V157h6.5c5.7 0 6.5-.2 6.5-1.9 0-2.5-1.9-3.1-9-3.1-4.9 0-6.1.4-7.4 2.2zM211.2 153.2c-.7.7-1.2 3.1-1.2 5.5 0 4.8 2.4 6.9 6.5 5.9 2.9-.7 4.4-6.4 2.6-10.2-1.2-2.7-5.7-3.4-7.9-1.2zm5.8 4.8c0 3.6-.2 4-2.5 4-2.2 0-2.5-.4-2.5-3.3 0-3.8.6-4.7 3.2-4.7 1.4 0 1.8.8 1.8 4zM221.7 152.7c-1.1 1-.8 12.3.3 12.3.6 0 1-1.1 1-2.5 0-1.8.7-2.6 2.5-3.1 1.4-.3 2.5-1 2.5-1.5s-1.1-.9-2.5-.9c-1.6 0-2.5-.6-2.5-1.5 0-1 1-1.5 3-1.5 1.7 0 3-.5 3-1 0-1.1-6.3-1.4-7.3-.3zM209.5 168.1c-.4.6.2 1.3 1.4 1.6 1.8.4 2.1 1.3 2.1 5.4 0 2.7.5 4.9 1 4.9.6 0 1-2.2 1-4.9 0-4.1.3-5 2.1-5.4 3.3-.9 1.2-2.7-3.1-2.7-2.1 0-4.2.5-4.5 1.1zM220 173.5c0 3.7.4 6.5 1 6.5s1-1.1 1-2.5c0-1.8.5-2.5 2-2.5s2 .7 2 2.5c0 1.6.6 2.5 1.5 2.5 1.3 0 1.5-1.1 1.3-6.3-.3-6.1-2-8.2-2.6-3.2-.5 3.9-4.2 3.5-4.2-.5 0-1.7-.4-3-1-3s-1 2.8-1 6.5zM231.2 168.2c-1.3 1.3-1.6 7.5-.6 10.2.7 1.8 6.9 2.3 7.9.6.4-.6-.7-1-2.4-1-2.1 0-3.1-.5-3.1-1.5 0-.9.9-1.5 2.5-1.5 1.4 0 2.5-.5 2.5-1 0-.6-1.1-1-2.5-1-1.6 0-2.5-.6-2.5-1.5s.9-1.5 2.4-1.5c3.3 0 4.2-1.6 1.3-2.4-3.2-.8-4.2-.7-5.5.6zM68 199.8c0 8.6.4 13.2 1.2 14 .7.7 4.3 1.2 9.1 1.2h7.8l-.3-3.3c-.3-3.1-.5-3.2-5.3-3.7l-5-.5-.3-10.3-.3-10.2H68v12.8zM87.7 187.7c-.4.3-.7 6.6-.7 14V215h8v-28h-3.3c-1.9 0-3.7.3-4 .7zM97.5 189.2c.3 1.3 2.1 7.5 3.9 13.8l3.3 11.5 4.6.3 4.6.3 3.1-10.3c1.7-5.7 3.5-11.6 4.1-13.2.5-1.6.9-3.3.9-3.7 0-1.3-6.8-1.1-7.5.1-.4.6-1.7 4.8-2.9 9.3l-2.3 8.2-1.2-5.5c-2.8-13.1-2.8-13-7.2-13-3.6 0-3.9.2-3.4 2.2zM126.2 188c-3.1 1.3-4.2 4.9-4.2 13.8 0 12.4 1.6 14 13.5 13.4l6.5-.4V208h-6c-4.7 0-6-.3-6-1.5 0-1.1 1.2-1.5 5-1.5h5v-7h-5c-3.8 0-5-.4-5-1.5 0-1.2 1.3-1.5 6-1.5h6v-3.4c0-3.1-.3-3.4-3.7-4-5.1-.8-9.3-.7-12.1.4z"/>
</svg>