<?xml version="1.0" encoding="UTF-8" standalone="no"?>
<!DOCTYPE svg PUBLIC "-//W3C//DTD SVG 1.1//EN" "http://www.w3.org/Graphics/SVG/1.1/DTD/svg11.dtd">
<svg width="100%" height="100%" viewBox="0 0 256 256" version="1.1" xmlns="http://www.w3.org/2000/svg" xmlns:xlink="http://www.w3.org/1999/xlink" xml:space="preserve" xmlns:serif="http://www.serif.com/" style="fill-rule:evenodd;clip-rule:evenodd;stroke-linejoin:round;stroke-miterlimit:2;">
    <path d="M155.632,4.228C212.653,16.883 255.346,67.796 255.346,128.603C255.346,198.915 198.261,256 127.949,256C57.637,256 0.552,198.915 0.552,128.603C0.552,127.234 0.574,125.87 0.617,124.511C5.163,183.657 54.658,230.3 114.961,230.3C178.257,230.3 229.646,178.911 229.646,115.615C229.646,112.967 229.556,110.341 229.379,107.737C229.555,105.32 229.645,102.878 229.645,100.416C229.645,54.312 198.216,15.491 155.632,4.228Z"/>
    <circle cx="114.961" cy="115.615" r="114.685" style="fill:none;stroke:black;stroke-width:2px;"/>
    <circle cx="130.16" cy="100.416" r="99.485" style="fill:none;stroke:black;stroke-width:2px;"/>
    <path d="M62.488,57.075C78.953,32.87 106.72,16.959 138.174,16.959C188.658,16.959 229.645,57.946 229.645,108.43C229.645,158.914 188.658,199.901 138.174,199.901C87.69,199.901 46.703,158.914 46.703,108.43C46.703,107.25 46.725,106.076 46.77,104.907C48.4,142.818 79.692,173.096 118.001,173.096C157.351,173.096 189.299,141.148 189.299,101.798C189.299,62.448 157.351,30.5 118.001,30.5C95.58,30.5 75.562,40.872 62.488,57.075Z" style="stroke:black;stroke-width:2px;"/>
    <path d="M122.856,30.663C125.712,30.372 128.61,30.223 131.542,30.223C178.366,30.223 216.381,68.238 216.381,115.062C216.381,161.886 178.366,199.901 131.542,199.901C84.718,199.901 46.703,161.886 46.703,115.062C46.703,112.732 46.797,110.424 46.982,108.141C50.195,144.525 80.788,173.096 118.001,173.096C156.996,173.096 188.721,141.723 189.291,102.863C189.479,101.059 189.575,99.229 189.575,97.376C189.575,87.167 186.655,77.634 181.605,69.568C170.521,47.756 148.544,32.394 122.856,30.663Z" style="stroke:black;stroke-width:2px;"/>
    <circle cx="118.001" cy="101.798" r="71.298" style="fill:none;stroke:black;stroke-width:2px;"/>
    <circle cx="118.001" cy="101.798" r="71.298" style="fill:none;stroke:black;stroke-width:2px;"/>
    <path d="M131.404,149.579C130.807,149.597 130.208,149.606 129.607,149.606C96.663,149.606 69.916,122.859 69.916,89.915C69.916,56.971 96.663,30.224 129.607,30.224C162.551,30.224 189.298,56.971 189.298,89.915C189.298,90.514 189.289,91.11 189.272,91.704C186.44,65.389 164.132,44.87 137.069,44.87C108.09,44.87 84.563,68.397 84.563,97.376C84.563,124.441 105.085,146.751 131.404,149.579Z" style="stroke:black;stroke-width:2px;"/>
    <circle cx="137.069" cy="97.376" r="52.506" style="fill:none;stroke:black;stroke-width:2px;"/>
    <circle cx="129.331" cy="104.837" r="44.768" style="fill:none;"/>
    <path d="M129.331,60.069C154.039,60.069 174.099,80.129 174.099,104.837C174.099,129.545 154.039,149.605 129.331,149.605C104.623,149.605 84.563,129.545 84.563,104.837C84.563,80.129 104.623,60.069 129.331,60.069ZM141.088,98.971C145.527,100.963 151.648,96.955 154.76,90.02C157.872,83.084 156.796,75.847 152.358,73.856C147.918,71.864 141.798,75.872 138.686,82.807C135.574,89.743 136.649,96.98 141.088,98.971Z"/>
</svg>
