<svg xmlns="http://www.w3.org/2000/svg" xml:space="preserve" style="fill-rule:evenodd;clip-rule:evenodd;stroke-linejoin:round;stroke-miterlimit:2" viewBox="0 0 256 256">
  <path d="M155.632 4.228c57.021 12.655 99.714 63.568 99.714 124.375 0 70.312-57.085 127.397-127.397 127.397C57.637 256 .552 198.915.552 128.603c0-1.369.022-2.733.065-4.092C5.163 183.657 54.658 230.3 114.961 230.3c63.296 0 114.685-51.389 114.685-114.685 0-2.648-.09-5.274-.267-7.878.176-2.417.266-4.859.266-7.321 0-46.104-31.429-84.925-74.013-96.188Z"/>
  <circle cx="114.961" cy="115.615" r="114.685" style="fill:none;stroke:#000;stroke-width:2px"/>
  <circle cx="130.16" cy="100.416" r="99.485" style="fill:none;stroke:#000;stroke-width:2px"/>
  <path d="M62.488 57.075c16.465-24.205 44.232-40.116 75.686-40.116 50.484 0 91.471 40.987 91.471 91.471s-40.987 91.471-91.471 91.471-91.471-40.987-91.471-91.471c0-1.18.022-2.354.067-3.523 1.63 37.911 32.922 68.189 71.231 68.189 39.35 0 71.298-31.948 71.298-71.298S157.351 30.5 118.001 30.5c-22.421 0-42.439 10.372-55.513 26.575Z" style="stroke:#000;stroke-width:2px"/>
  <path d="M122.856 30.663a85.675 85.675 0 0 1 8.686-.44c46.824 0 84.839 38.015 84.839 84.839s-38.015 84.839-84.839 84.839-84.839-38.015-84.839-84.839c0-2.33.094-4.638.279-6.921 3.213 36.384 33.806 64.955 71.019 64.955 38.995 0 70.72-31.373 71.29-70.233.188-1.804.284-3.634.284-5.487a52.234 52.234 0 0 0-7.97-27.808c-11.084-21.812-33.061-37.174-58.749-38.905Z" style="stroke:#000;stroke-width:2px"/>
  <circle cx="118.001" cy="101.798" r="71.298" style="fill:none;stroke:#000;stroke-width:2px"/>
  <circle cx="118.001" cy="101.798" r="71.298" style="fill:none;stroke:#000;stroke-width:2px"/>
  <path d="M131.404 149.579c-.597.018-1.196.027-1.797.027-32.944 0-59.691-26.747-59.691-59.691s26.747-59.691 59.691-59.691 59.691 26.747 59.691 59.691c0 .599-.009 1.195-.026 1.789-2.832-26.315-25.14-46.834-52.203-46.834-28.979 0-52.506 23.527-52.506 52.506 0 27.065 20.522 49.375 46.841 52.203Z" style="stroke:#000;stroke-width:2px"/>
  <circle cx="137.069" cy="97.376" r="52.506" style="fill:none;stroke:#000;stroke-width:2px"/>
  <circle cx="129.331" cy="104.837" r="44.768" style="fill:none"/>
  <path d="M129.331 60.069c24.708 0 44.768 20.06 44.768 44.768 0 24.708-20.06 44.768-44.768 44.768-24.708 0-44.768-20.06-44.768-44.768 0-24.708 20.06-44.768 44.768-44.768Zm11.757 38.902c4.439 1.992 10.56-2.016 13.672-8.951 3.112-6.936 2.036-14.173-2.402-16.164-4.44-1.992-10.56 2.016-13.672 8.951-3.112 6.936-2.037 14.173 2.402 16.164Z"/>
</svg>