<svg version="1.0" xmlns="http://www.w3.org/2000/svg" width="610" height="412" viewBox="0 0 610 412" preserveAspectRatio="xMidYMid meet">
 <g fill="#080808">
  <path d="M425.4 408.4 c-4.5 -1.6 -9.7 -6.2 -12.2 -10.8 -1.4 -2.6 -1.7 -6.9 -2 -27.3 l-0.3 -24.3 5 0 4.9 0 0.4 22.3 c0.3 25.3 0.8 27.1 8.3 30.7 9.5 4.6 19.1 0.1 21.4 -10 0.6 -2.5 1.1 -13.2 1.1 -23.7 l0 -19.3 5 0 5 0 0 22.3 c0 25.4 -0.7 29 -6.8 35 -2 2 -5.7 4.3 -8.1 5.2 -5.4 1.9 -16.2 1.8 -21.7 -0.1z"/>
  <path d="M483.7 408.5 c-4.7 -1.8 -8.4 -4.6 -11.3 -8.8 l-2.2 -3.2 4 -2.6 4 -2.7 3.5 3.9 c4.1 4.5 8.9 6.3 15.1 5.6 5.5 -0.6 9.2 -4.2 9.2 -8.9 0 -4.2 -4.2 -7.8 -13.1 -11.3 -14.8 -5.7 -18.5 -9.9 -17.7 -20.3 0.4 -5.1 0.9 -6.7 3.4 -9.3 4 -4.4 8.2 -5.9 15.9 -5.9 7.3 0 12.3 2 16.5 6.4 l2.4 2.7 -2.9 2.4 c-3.7 3 -3.6 3 -8.1 0 -7.2 -4.9 -17.4 -1.9 -17.4 5 0 3.7 3.5 6.5 12.8 10.3 13.6 5.6 18 9.6 18.9 17.5 1 8.3 -3 15.6 -10.1 18.8 -5 2.3 -17.2 2.4 -22.9 0.4z"/>
  <path d="M569.6 407.6 c-25.7 -10.8 -27 -46.5 -2.1 -59.4 4 -2.1 6.8 -2.7 14.2 -3 8.3 -0.4 9.7 -0.2 15 2.2 3.2 1.5 7 3.9 8.6 5.3 l2.7 2.7 -2.7 2.8 c-1.5 1.5 -3 2.8 -3.4 2.8 -0.4 0 -3 -1.4 -5.7 -3.1 -12.4 -7.7 -27.8 -3.3 -33.8 9.6 -5.4 11.5 -1 25.1 9.9 30.7 8.2 4.2 18.4 3.2 25.9 -2.5 l3.3 -2.5 3.4 2.9 3.5 2.9 -2.5 2.6 c-4.8 5.2 -11.6 7.7 -21.4 8.1 -7.8 0.3 -9.8 0 -14.9 -2.1z"/>
  <path d="M2 377.4 l0 -31.6 16.8 0.4 c15 0.3 17.2 0.6 22 2.7 10.5 4.7 16.6 15.2 16.6 28.6 -0.1 8.9 -1.6 14.3 -5.7 19.7 -7.2 9.5 -14.1 11.8 -34.9 11.8 l-14.8 0 0 -31.6z m29.2 21.5 c13.5 -2.9 20.1 -19.5 13 -33 -4 -7.7 -9.3 -10.2 -22.4 -10.7 l-9.8 -0.4 0 22.6 0 22.6 7 0 c3.8 0 9.3 -0.5 12.2 -1.1z"/>
  <path d="M67 377.5 l0 -31.5 15 0 c16.7 0 20.3 1 25.3 6.9 7.2 8.6 5.5 22.9 -3.4 28.8 l-3.7 2.4 7.4 12.1 c4.1 6.6 7.4 12.2 7.4 12.4 0 0.2 -2.7 0.4 -5.9 0.4 l-5.9 0 -6.2 -10.4 c-3.4 -5.8 -6.7 -11 -7.5 -11.6 -0.7 -0.6 -3.7 -1 -6.7 -0.8 l-5.3 0.3 -0.3 11.3 -0.3 11.2 -4.9 0 -5 0 0 -31.5z m27.7 -1.5 c3.7 -1.3 6.3 -5.7 6.3 -10.7 0 -7.7 -4.6 -10.6 -16.1 -10.1 l-7.4 0.3 -0.3 9.4 c-0.1 5.2 -0.1 10 0.2 10.8 0.7 1.6 12.8 1.8 17.3 0.3z"/>
  <path d="M119.3 408.3 c0.2 -0.5 7.1 -15.1 15.3 -32.5 8.2 -17.5 15.1 -31.8 15.5 -31.8 0.3 0 2 3 3.7 6.8 1.6 3.7 7.2 15.5 12.2 26.2 5.1 10.7 10.5 22.3 12.1 25.8 l2.8 6.2 -5.7 0 -5.7 -0.1 -2.7 -5.9 -2.7 -6 -14.3 0 -14.3 0 -2.7 6 -2.6 6 -5.7 0 c-3.1 0 -5.4 -0.3 -5.2 -0.7z m40 -21 c0.5 -0.9 -8.5 -21.2 -9.4 -21.3 -0.4 0 -7.4 14.8 -9.5 20.4 -0.5 1.4 0.6 1.6 8.9 1.6 5.3 0 9.8 -0.3 10 -0.7z"/>
  <path d="M186 377.5 l0 -31.5 5.5 0 5.5 0 0 15 c0 8.3 0.3 15 0.8 14.9 0.4 0 6.6 -6.7 13.7 -14.9 l13 -14.9 6.3 -0.1 6.4 0 -3.4 3.9 c-1.8 2.2 -7.3 8.5 -12.2 14.1 l-8.9 10.1 2 2.2 c1.8 2 20.8 28.3 22.7 31.5 0.5 0.9 -0.8 1.2 -5.6 1.2 l-6.3 -0.1 -8.3 -11.7 c-4.6 -6.4 -9 -12.6 -9.8 -13.7 -1.4 -1.8 -1.6 -1.7 -5.9 2.5 l-4.5 4.4 0 9.3 0 9.3 -5.5 0 -5.5 0 0 -31.5z"/>
  <path d="M247 377.5 l0 -31.5 20 0 20 0 0 4.5 0 4.4 -14.7 0.3 -14.8 0.3 -0.3 7.8 -0.3 7.7 14.1 0 14 0 0 5 0 5 -14 0 -14.1 0 0.3 9.3 0.3 9.2 15.3 0.3 15.2 0.3 0 4.4 0 4.5 -20.5 0 -20.5 0 0 -31.5z"/>
  <path d="M331 377.5 c0 -17.3 0.2 -31.5 0.4 -31.5 0.3 0 7.3 8.3 15.7 18.5 8.4 10.2 15.5 18.5 15.8 18.5 0.3 -0.1 7.8 -8.8 16.6 -19.5 8.7 -10.7 15.9 -19.5 16 -19.5 0 0 -0.1 14.6 -0.3 32.5 l-0.3 32.5 -4.9 0 -5 0 -0.2 -18.2 -0.3 -18.3 -10.9 13.2 -10.8 13.3 -2.1 -2.8 c-1.2 -1.5 -3.5 -4.3 -5.1 -6.3 -1.7 -1.9 -4.7 -5.5 -6.7 -8 -2 -2.4 -4.6 -5.5 -5.8 -6.9 l-2 -2.5 -0.1 18.3 0 18.2 -5 0 -5 0 0 -31.5z"/>
  <path d="M526 377.5 l0 -31.5 5 0 5 0 0 31.5 0 31.5 -5 0 -5 0 0 -31.5z"/>
  <path d="M1.8 155.5 l0.2 -153.5 79.3 0 c65.3 0 81 0.3 89.2 1.5 47.7 7.2 90.8 40.2 111.9 85.8 16.5 35.5 18.9 79.8 6.4 117.1 -7.3 22 -19.6 41.4 -37.3 59.1 -21.7 21.7 -44 34 -73.3 40.7 -9.5 2.1 -11.3 2.2 -93.2 2.5 l-83.5 0.4 0.3 -153.6z"/>
  <path d="M313 156.4 l0 -152.5 2.3 0.7 c1.2 0.4 34.5 12.5 73.9 27 l71.7 26.3 71.8 -26.4 c39.5 -14.5 72.6 -26.7 73.5 -27 1.7 -0.7 1.8 7.2 2 151.9 l0.3 152.6 -147.7 0 -147.8 0 0 -152.6z"/>
 </g>
</svg>