<?xml version="1.0" encoding="utf-8"?>
<!-- Generator: Adobe Illustrator 22.1.0, SVG Export Plug-In . SVG Version: 6.00 Build 0)  -->
<svg version="1.1"
	 id="svg3020" inkscape:version="0.48.4 r9939" sodipodi:docname="logo.svg" xmlns:cc="http://creativecommons.org/ns#" xmlns:dc="http://purl.org/dc/elements/1.1/" xmlns:inkscape="http://www.inkscape.org/namespaces/inkscape" xmlns:rdf="http://www.w3.org/1999/02/22-rdf-syntax-ns#" xmlns:sodipodi="http://sodipodi.sourceforge.net/DTD/sodipodi-0.dtd" xmlns:svg="http://www.w3.org/2000/svg"
	 xmlns="http://www.w3.org/2000/svg" xmlns:xlink="http://www.w3.org/1999/xlink" x="0px" y="0px" viewBox="0 0 215 56"
	 style="enable-background:new 0 0 215 56;" xml:space="preserve">
<style type="text/css">
	.st0{fill:#FFFFFF;}
</style>
<sodipodi:namedview  bordercolor="#666666" borderopacity="1" fit-margin-bottom="0" fit-margin-left="0" fit-margin-right="0" fit-margin-top="0" gridtolerance="10" guidetolerance="10" id="namedview3022" inkscape:current-layer="g3028" inkscape:cx="262.22163" inkscape:cy="33.31848" inkscape:pageopacity="0" inkscape:pageshadow="2" inkscape:window-height="1026" inkscape:window-maximized="1" inkscape:window-width="1920" inkscape:window-x="0" inkscape:window-y="27" inkscape:zoom="2.6084395" objecttolerance="10" pagecolor="#ffffff" showgrid="false">
	</sodipodi:namedview>
<g id="g3028" transform="matrix(1.25,0,0,-1.25,-8.0768312e-5,55.999998)" inkscape:groupmode="layer" inkscape:label="ink_ext_XXXXXX">
	<g id="g3030" transform="matrix(0.0633338,0,0,0.06283724,2.3691734e-5,0)">
		<path id="path3032" inkscape:connector-curvature="0" class="st0" d="M2655.7,171.3c-2.1-7.1-5.2-13.6-9.5-19.2
			c-4.2-5.6-9.6-10.1-16-13.5c-6.4-3.4-13.9-5.1-22.3-5.1c-9.3,0-17,2-23.2,5.9c-6.2,3.9-11.2,9-15,15.2c-3.8,6.2-6.5,13.1-8,20.9
			c-1.5,7.7-2.3,15.5-2.3,23.4c0,8.1,0.9,15.9,2.8,23.4c1.8,7.4,4.8,14,8.8,19.8c4.1,5.7,9.1,10.3,15.2,13.7
			c6.1,3.4,13.3,5.1,21.7,5.1c9.8,0,18-1.8,24.4-5.5c6.5-3.7,11.6-8.6,15.6-14.8c3.9-6.2,6.8-13.3,8.4-21.3c1.7-8,2.5-16.5,2.5-25.5
			C2658.9,186,2657.8,178.4,2655.7,171.3z M2658.9,300v-29.1h-0.8c-7.3,12.6-16.4,21.6-27.2,27c-10.8,5.3-23.4,8-37.7,8
			c-15.2,0-28.6-3-40.2-8.8c-11.7-5.9-21.4-13.8-29.3-23.8c-7.9-10-13.8-21.5-17.9-34.6c-4.1-13.1-6.1-26.6-6.1-40.7
			c0-14.9,1.8-29,5.2-42.3c3.5-13.4,9.1-25,16.6-35c7.6-10,17.3-17.9,29.1-23.6c11.8-5.8,25.8-8.6,42.1-8.6
			c13.2,0,25.8,2.8,37.7,8.2c11.9,5.5,21.1,13.9,27.6,25.5h0.8V93.6c0.3-15.4-3.4-28.2-11.2-38.3c-7.7-10.1-20-15.2-36.9-15.2
			c-10.7,0-20.1,2.2-28.2,6.5c-8.2,4.3-13.6,12.2-16.4,23.4h-59.4c0.9-12.3,4.3-23,10.4-31.8c6-8.9,13.6-16.1,22.7-21.7
			c9.1-5.6,19.2-9.7,30.3-12.4c11.1-2.7,22-4,32.6-4c25,0,44.9,3.4,59.8,10.1c14.9,6.7,26.3,15,34.1,24.6c7.9,9.7,13,20.1,15.4,31.4
			c2.4,11.2,3.6,21.2,3.6,29.9v204H2658.9L2658.9,300z M2455.4,281.3c-5.9,7.7-14,13.8-24.2,18.1c-10.2,4.4-23.4,6.5-39.4,6.5
			c-12.6,0-25-2.9-37.1-8.6c-12.1-5.8-21.9-15-29.5-27.6h-1.3V300H2267V82.2h59.8v114.2c0,22.2,3.6,38.1,10.9,47.8
			c7.3,9.7,19.1,14.5,35.4,14.5c14.3,0,24.3-4.4,29.9-13.3c5.6-8.8,8.4-22.3,8.4-40.2v-123h59.8v134c0,13.5-1.2,25.8-3.6,36.9
			C2465.4,264.1,2461.3,273.5,2455.4,281.3L2455.4,281.3z M2171,333.7h59.8V383H2171V333.7z M2171,82.2h59.8V300H2171V82.2z
			 M2118.3,281.3c-5.9,7.7-14,13.8-24.2,18.1c-10.2,4.4-23.4,6.5-39.4,6.5c-11.2,0-22.7-2.9-34.5-8.6c-11.8-5.8-21.5-15-29.1-27.6
			h-1.2V383H1930V82.2h59.8v114.2c0,22.2,3.7,38.1,10.9,47.8c7.3,9.7,19.1,14.5,35.4,14.5c14.3,0,24.3-4.4,29.9-13.3
			c5.6-8.8,8.4-22.3,8.4-40.2v-123h59.8v134c0,13.5-1.2,25.8-3.6,36.9C2128.3,264.1,2124.2,273.5,2118.3,281.3z M1868,365.3h-59.8
			V300H1721l-47.6-149.2h-0.8L1623.2,300h-51.8v3.8c-4.8,1.4-9.1,2.1-13.1,2.1c-7.6,0-14.9-1.1-21.9-3.4c-7-2.2-13.6-5.4-19.8-9.5
			c-6.2-4.1-11.7-9-16.4-14.8c-4.8-5.8-8.6-12-11.4-18.8h-0.8V300h-56.9V82.2h59.8v98.2c0,9.8,1,19,2.9,27.4
			c1.9,8.4,5.3,15.8,9.9,22.1c4.7,6.3,10.8,11.3,18.3,15c7.6,3.6,16.8,5.5,27.8,5.5c3.7,0,7.4-0.2,11.4-0.6
			c3.9-0.4,7.3-0.9,10.1-1.5v20.2l64.5-172.8c1.7-4.2,2.5-8.7,2.5-13.5c0-6.5-1.9-12.4-5.7-17.7c-3.8-5.3-9.6-8.4-17.5-9.3
			c-5.9-0.3-11.8-0.2-17.7,0.4c-5.9,0.6-11.7,1.1-17.3,1.7V8c6.2-0.6,12.3-1.1,18.3-1.5c6.1-0.4,12.2-0.6,18.3-0.6
			c20.5,0,36.5,3.8,48,11.4c11.5,7.6,20.5,20.2,27,37.9l80.1,215.3V260h36.2V131.5c0-10.9,1.8-19.8,5.5-26.5
			c3.6-6.8,8.6-11.9,15-15.6c6.3-3.7,13.6-6.1,21.9-7.4c8.3-1.3,17.1-1.9,26.3-1.9c5.9,0,11.9,0.2,18.1,0.4
			c6.2,0.3,11.8,0.8,16.9,1.7v46.4c-2.8-0.6-5.8-1-8.8-1.3c-3.1-0.3-6.3-0.4-9.7-0.4c-10.1,0-16.8,1.7-20.2,5.1
			c-3.4,3.4-5.1,10.1-5.1,20.2V260h43.8v40H1868C1868,300,1868,365.3,1868,365.3z M1249,214.5c0.3,4.2,1.2,9,2.7,14.3
			c1.5,5.3,4.2,10.4,8,15.2c3.8,4.8,8.8,8.8,15.2,12c6.3,3.2,14.2,4.9,23.8,4.9c14.6,0,25.5-3.9,32.7-11.8
			c7.2-7.9,12.2-19.4,15-34.6C1346.4,214.5,1249,214.5,1249,214.5z M1402,225c-4,15.5-10.3,29.2-19.2,41.3
			c-8.9,12.1-20.2,21.7-33.9,28.9c-13.8,7.2-29.9,10.8-48.5,10.8c-16.6,0-31.7-3-45.3-8.8c-13.6-5.9-25.4-14-35.2-24.2
			c-9.8-10.3-17.4-22.4-22.8-36.4c-5.3-14.1-8-29.2-8-45.5c0-16.9,2.6-32.3,7.8-46.3c5.2-14,12.6-26.1,22.1-36.2
			c9.6-10.1,21.2-17.9,35-23.4c13.8-5.5,29.2-8.2,46.3-8.2c24.7,0,45.8,5.6,63.2,16.9c17.4,11.2,30.3,29.9,38.7,56h-52.7
			c-2-6.7-7.3-13.1-16-19.2c-8.7-6-19.1-9.1-31.2-9.1c-16.9,0-29.8,4.3-38.8,13c-9,8.7-13.9,22.8-14.7,42.1h157.1
			C1407.3,193.4,1405.9,209.6,1402,225z M1080.1,151.3h-0.8L1033.3,300h-62.8l74.6-217.8h66.6l73.7,217.8H1126
			C1126,300,1080.1,151.3,1080.1,151.3z M801.6,211.5h145.8v51.4H801.6v64.5h158.8V383h-225V82.2h228.4v55.6H801.6
			C801.6,137.8,801.6,211.5,801.6,211.5z M1782.7,558.7c1.5,5.3,4.2,10.4,8,15.2c3.8,4.8,8.8,8.8,15.2,12c6.3,3.2,14.2,4.8,23.8,4.8
			c14.6,0,25.5-3.9,32.7-11.8c7.2-7.9,12.1-19.4,15-34.5h-97.3C1780.2,548.6,1781.1,553.4,1782.7,558.7z M1727.9,474.5
			c5.2-14,12.6-26.1,22.1-36.2c9.6-10.1,21.2-17.9,35-23.4c13.8-5.5,29.2-8.2,46.3-8.2c24.7,0,45.8,5.6,63.2,16.9
			c17.4,11.2,30.3,29.9,38.8,56h-52.7c-2-6.7-7.3-13.1-16-19.2c-8.7-6-19.1-9.1-31.2-9.1c-16.9,0-29.8,4.3-38.8,13.1
			c-9,8.7-13.9,22.8-14.8,42.1h157.2c1.1,16.8-0.3,33-4.2,48.5c-3.9,15.4-10.3,29.2-19.2,41.3c-8.8,12.1-20.1,21.7-33.9,28.9
			c-13.8,7.2-29.9,10.7-48.4,10.7c-16.6,0-31.7-3-45.3-8.8c-13.6-5.9-25.3-14-35.2-24.2c-9.8-10.3-17.4-22.4-22.7-36.4
			c-5.3-14.1-8-29.2-8-45.5C1720.1,504,1722.7,488.5,1727.9,474.5L1727.9,474.5z M1644.7,510.3c0,9.8,1,19,3,27.4
			c1.9,8.4,5.3,15.8,9.9,22.1c4.6,6.3,10.7,11.3,18.3,15c7.6,3.7,16.8,5.5,27.8,5.5c3.7,0,7.4-0.2,11.4-0.6
			c3.9-0.4,7.3-0.9,10.1-1.5v55.6c-4.8,1.4-9.1,2.1-13.1,2.1c-7.6,0-14.9-1.1-21.9-3.4c-7-2.2-13.7-5.4-19.8-9.5
			c-6.2-4.1-11.7-9-16.4-14.8c-4.8-5.8-8.6-12-11.4-18.8h-0.8V630h-56.9V412.1h59.8C1644.7,412.1,1644.7,510.3,1644.7,510.3z
			 M1491.7,442.4h1.2v-30.3h56.9V630H1490V515.8c0-22.2-3.6-38.1-10.9-47.8c-7.3-9.7-19.1-14.5-35.4-14.5
			c-14.3,0-24.3,4.4-29.9,13.3c-5.6,8.8-8.4,22.3-8.4,40.2v123h-59.8V496c0-13.5,1.2-25.8,3.6-36.9c2.4-11.1,6.5-20.5,12.4-28.2
			c5.9-7.7,13.9-13.7,24.2-17.9c10.2-4.2,23.4-6.3,39.4-6.3c12.6,0,25,2.8,37.1,8.4C1474.3,420.7,1484.2,429.8,1491.7,442.4z
			 M1223.7,461.4c0-11,1.8-19.8,5.5-26.5c3.7-6.7,8.7-11.9,14.9-15.6c6.3-3.7,13.6-6.1,21.9-7.4c8.3-1.3,17-1.9,26.3-1.9
			c5.9,0,11.9,0.2,18.1,0.4c6.2,0.3,11.8,0.8,16.9,1.7v46.3c-2.8-0.6-5.8-1-8.8-1.3c-3.1-0.3-6.3-0.4-9.7-0.4
			c-10.1,0-16.8,1.7-20.2,5c-3.4,3.4-5.1,10.1-5.1,20.2v107.9h43.8v40h-43.8v65.3h-59.8V630h-36.2v-40h36.2V461.4z M984.4,430.9
			c5.9-7.7,14-13.7,24.2-17.9c10.3-4.2,23.4-6.3,39.4-6.3c12.6,0,25,2.8,37.1,8.4c12.1,5.6,21.9,14.7,29.5,27.4h1.3v-30.3h56.9V630
			h-59.8V515.8c0-22.2-3.6-38.1-10.9-47.8c-7.3-9.7-19.1-14.5-35.4-14.5c-14.3,0-24.3,4.4-29.9,13.3c-5.6,8.8-8.4,22.3-8.4,40.2v123
			h-59.8V496c0-13.5,1.2-25.8,3.6-36.9C974.4,448,978.5,438.6,984.4,430.9z M801.6,536.4h126v51.4h-126v69.5h145.4V713H735.4V412.1
			h66.2L801.6,536.4"/>
		<path id="path3034" inkscape:connector-curvature="0" class="st0" d="M318.4,350.7c-32.9,0.6-59.1,27.9-58.6,61.1
			c0.6,33.2,27.7,59.6,60.6,59c32.9-0.6,59.1-27.9,58.5-61.1C378.5,376.5,351.4,350.2,318.4,350.7z M645.9,404.4c0,0.5,0,1.1,0,1.6
			c-0.4,143.3-94.2,264.6-223.7,306.4L237.9,527.5c-34.8-30.6-59.3-66.9-60.1-114.3c-1.4-78.8,61-143.8,139.2-145.2
			c78.3-1.4,142.8,61.4,144.2,140.2c1,56.9-31.2,106.6-78.6,130.3l61.8,65c79.4-51.1,113.4-124.3,112.1-200.3
			c-2.2-130-108.7-233.4-237.7-231.2c-129,2.3-231.7,109.5-229.5,239.4c0.8,50.4,27.3,115.4,57.9,150.7l-60.4,63
			c-14.9-15.9-28.1-33.3-39.5-52C22.5,528.5,4.5,474.3,0.9,426.3c-0.4-5.8-0.8-11.6-0.9-17.5c0-7.3,0.3-14.5,0.7-21.7
			c0.2-3,0.2-6,0.4-8.9c10.5-119.1,84.9-220.2,189-267.5c0.8-0.4,1.5-0.8,2.3-1.1c7.7-3.4,15.6-6.3,23.6-9.2
			c2.3-0.8,4.5-1.7,6.8-2.5c6.8-2.2,13.8-4,20.7-5.8c3.6-0.9,7.1-2,10.8-2.8c6-1.3,12.2-2.2,18.3-3.1c4.7-0.7,9.4-1.6,14.2-2.2
			c5.5-0.6,11.1-0.8,16.6-1.2c5.6-0.3,11.1-0.8,16.7-0.8c5.2,0,10.4,0.3,15.6,0.5c5.8,0.2,11.6,0.3,17.4,0.9
			c5.5,0.5,10.9,1.4,16.4,2.2c5.1,0.8,10.3,1.4,15.3,2.3c6.5,1.3,12.8,2.9,19.1,4.6c3.8,1,7.6,1.8,11.3,2.9
			c7.9,2.3,15.5,5.1,23.1,8.1c2,0.7,4,1.4,5.9,2.1C557.7,152.1,639,261.5,645.3,391.4C645.5,395.8,645.9,400,645.9,404.4"/>
	</g>
</g>
</svg>
