<?xml version="1.0" encoding="UTF-8" standalone="no"?>
<!DOCTYPE svg PUBLIC "-//W3C//DTD SVG 1.1//EN" "http://www.w3.org/Graphics/SVG/1.1/DTD/svg11.dtd">
<svg width="100%" height="100%" viewBox="0 0 52 50" version="1.1" xmlns="http://www.w3.org/2000/svg" xmlns:xlink="http://www.w3.org/1999/xlink" xml:space="preserve" xmlns:serif="http://www.serif.com/" style="fill-rule:evenodd;clip-rule:evenodd;stroke-linejoin:round;stroke-miterlimit:2;">
    <g id="path3034" transform="matrix(0.0791672,0,0,-0.0785466,0,55.9566)">
        <path d="M318.4,350.7C285.5,351.3 259.3,378.6 259.8,411.8C260.4,445 287.5,471.4 320.4,470.8C353.3,470.2 379.5,442.9 378.9,409.7C378.5,376.5 351.4,350.2 318.4,350.7ZM645.9,404.4L645.9,406C645.5,549.3 551.7,670.6 422.2,712.4L237.9,527.5C203.1,496.9 178.6,460.6 177.8,413.2C176.4,334.4 238.8,269.4 317,268C395.3,266.6 459.8,329.4 461.2,408.2C462.2,465.1 430,514.8 382.6,538.5L444.4,603.5C523.8,552.4 557.8,479.2 556.5,403.2C554.3,273.2 447.8,169.8 318.8,172C189.8,174.3 87.1,281.5 89.3,411.4C90.1,461.8 116.6,526.8 147.2,562.1L86.8,625.1C71.9,609.2 58.7,591.8 47.3,573.1C22.5,528.5 4.5,474.3 0.9,426.3C0.5,420.5 0.1,414.7 0,408.8C0,401.5 0.3,394.3 0.7,387.1C0.9,384.1 0.9,381.1 1.1,378.2C11.6,259.1 86,158 190.1,110.7C190.9,110.3 191.6,109.9 192.4,109.6C200.1,106.2 208,103.3 216,100.4C218.3,99.6 220.5,98.7 222.8,97.9C229.6,95.7 236.6,93.9 243.5,92.1C247.1,91.2 250.6,90.1 254.3,89.3C260.3,88 266.5,87.1 272.6,86.2C277.3,85.5 282,84.6 286.8,84C292.3,83.4 297.9,83.2 303.4,82.8C309,82.5 314.5,82 320.1,82C325.3,82 330.5,82.3 335.7,82.5C341.5,82.7 347.3,82.8 353.1,83.4C358.6,83.9 364,84.8 369.5,85.6C374.6,86.4 379.8,87 384.8,87.9C391.3,89.2 397.6,90.8 403.9,92.5C407.7,93.5 411.5,94.3 415.2,95.4C423.1,97.7 430.7,100.5 438.3,103.5C440.3,104.2 442.3,104.9 444.2,105.6C557.7,152.1 639,261.5 645.3,391.4C645.5,395.8 645.9,400 645.9,404.4" style="fill-rule:nonzero;"/>
    </g>
</svg>
