<?xml version="1.0" encoding="UTF-8" standalone="no"?>
<!DOCTYPE svg PUBLIC "-//W3C//DTD SVG 1.1//EN" "http://www.w3.org/Graphics/SVG/1.1/DTD/svg11.dtd">
<svg width="100%" height="100%" viewBox="0 0 1500 418" version="1.1" xmlns="http://www.w3.org/2000/svg" xmlns:xlink="http://www.w3.org/1999/xlink" xml:space="preserve" xmlns:serif="http://www.serif.com/" style="fill-rule:evenodd;clip-rule:evenodd;stroke-linejoin:round;stroke-miterlimit:2;">
    <g transform="matrix(4.16667,0,0,4.16667,12.4923,-1.15208)">
        <rect x="114.548" y="13.525" width="21.014" height="75.865" style="fill:rgb(17,21,23);fill-rule:nonzero;"/>
    </g>
    <g transform="matrix(4.16667,0,0,4.16667,12.4923,-1.15208)">
        <path d="M146.591,89.39L146.591,13.525L204.379,13.525L204.379,28.233L167.604,28.233L167.604,43.888L201.435,43.888L201.435,58.6L167.604,58.6L167.604,74.674L204.379,74.674L204.379,89.39L146.591,89.39Z" style="fill:rgb(17,21,23);fill-rule:nonzero;"/>
    </g>
    <g transform="matrix(4.16667,0,0,4.16667,12.4923,-1.15208)">
        <path d="M216.154,89.39L216.154,13.525L273.929,13.525L273.929,28.233L237.163,28.233L237.163,43.888L270.982,43.888L270.982,58.6L237.163,58.6L237.163,74.674L273.929,74.674L273.929,89.39L216.154,89.39Z" style="fill:rgb(17,21,23);fill-rule:nonzero;"/>
    </g>
    <g transform="matrix(4.16667,0,0,4.16667,12.4923,-1.15208)">
        <path d="M285.694,89.39L285.694,13.525L343.485,13.525L343.485,28.233L306.723,28.233L306.723,43.888L340.545,43.888L340.545,58.6L306.723,58.6L306.723,74.674L343.485,74.674L343.485,89.39L285.694,89.39Z" style="fill:rgb(17,21,23);fill-rule:nonzero;"/>
    </g>
    <g transform="matrix(4.16667,0,0,4.16667,12.4923,-1.15208)">
        <path d="M47.939,59.069C47.661,64.425 47.593,69.383 47.197,74.756C49.317,74.946 51.709,75.133 53.97,74.803L53.295,59.833L53.177,59.118C51.454,59.186 49.825,59.257 47.939,59.069ZM34.697,44.027C32.086,45.336 28.245,47.314 28.667,50.896C29.227,52.851 31.345,54.113 33.02,54.921C42.282,59 54.577,59.14 64.355,56.094C66.769,55.161 70.009,53.812 70.453,50.855C70.426,48.411 67.841,46.873 65.981,45.938L65.981,45.822C66.629,45.565 67.374,45.336 68.046,45.264L68.046,45.199C64.77,44.613 61.609,43.757 58.436,42.917C59.047,44.309 59.488,45.777 59.997,47.224C60.95,46.919 61.928,46.687 62.957,46.547C64.63,47.198 67.024,48.13 67.261,50.222C67.447,52.177 65.308,53.13 63.955,53.924C56.784,56.534 48.714,56.788 41.234,54.806C39.167,54.153 36.186,53.317 35.929,50.687C37.396,47.224 41.188,46.503 44.356,45.661C42.728,44.613 41.073,43.684 39.495,42.517C37.791,42.611 36.234,43.357 34.697,44.027ZM50.543,23.13L49.615,26.111L44.959,39.446C46.124,39.565 47.568,39.446 48.714,39.565L48.714,39.675L48.032,54.759L48.15,54.921C49.64,55.065 51.499,55.14 53.017,54.881L53.017,54.643L52.41,40.011L52.5,39.516L56.597,39.446C54.554,34.048 52.571,28.595 50.664,23.13L50.543,23.13ZM48.38,16.43C51.806,14.096 54.878,17.358 57.532,19.223C67.795,27.482 77.478,36.936 84.856,47.613C85.787,48.991 86.207,51.13 85.373,52.689C83.459,55.882 80.879,58.793 78.433,61.75L78.433,61.91C72.332,68.404 65.889,75.082 58.925,80.581C55.528,82.65 52.41,87.166 48.032,84.368C38.067,77.085 28.532,68.032 20.446,58.321C19.076,56.184 16.936,54.435 15.982,52.014C14.652,48.736 17.585,46.382 19.264,43.914C27.507,33.747 37.743,23.779 48.38,16.43ZM56.969,6.72L53.177,1.345C52.711,1.06 52.131,0.593 51.618,0.454C50.499,-0.03 49.292,0.556 48.38,1.249L41.516,10.189C30.506,23.824 17.471,36.559 3.25,46.32C2.126,47.198 0.454,48.055 0.107,49.503C-0.266,50.806 0.412,51.88 1.219,52.689C12.606,60.535 23.495,69.845 33.185,80.464C34.906,82.273 36.3,84.068 37.982,85.766C40.817,89.539 44.147,93.338 46.752,97.384C47.568,98.241 47.709,99.642 48.987,100.059C49.987,100.405 51.222,100.641 52.175,100.059L53.124,99.106C64.907,82.414 79.85,67.425 96.545,55.323C98.217,53.829 101.409,53.273 101.455,50.503C101.336,49.225 100.593,47.967 99.495,47.267L99.221,47.224C90.629,41.379 82.624,34.769 75.082,27.271L66.748,18.564C63.372,14.821 60.091,10.675 56.969,6.72ZM47.149,14.378C50.499,11.771 54.714,13.935 57.532,16.333C60.485,18.59 63.559,21.146 66.257,23.759L66.748,24.041C74.221,30.974 81.161,38.68 86.864,46.828C87.788,48.246 88.604,49.852 88.088,51.734C86.187,56.487 82.324,60.278 78.946,64.425C71.637,72.294 63.928,79.905 55.298,85.978C53.552,87.211 51.197,88.352 49.106,87.373C42.753,84.047 37.396,78.6 31.836,73.636C25.388,67.656 18.915,60.696 14.027,53.414C13.302,52.389 13.097,51.13 13.118,49.782C13.747,47.267 15.468,45.199 17.098,43.08C22.874,35.72 29.947,28.739 37.091,22.363C37.256,22.199 37.561,21.852 37.819,21.685C40.887,19.033 43.936,16.685 47.149,14.378Z" style="fill:rgb(17,21,23);fill-rule:nonzero;"/>
    </g>
    <g transform="matrix(4.16667,0,0,4.16667,12.4923,-1.15208)">
        <path d="M67.848,92.888L67.124,92.888L67.124,91.971L67.696,91.971C68.006,91.971 68.426,92.003 68.426,92.396C68.426,92.814 68.212,92.888 67.848,92.888ZM69.288,92.478C69.288,91.609 68.714,91.335 67.731,91.335L66.313,91.335L66.313,95.128L67.124,95.128L67.124,93.534L67.51,93.534L68.384,95.128L69.351,95.128L68.372,93.465C68.885,93.422 69.288,93.175 69.288,92.478ZM67.71,95.946L67.71,95.935C66.313,95.946 65.186,94.858 65.186,93.229C65.186,91.609 66.313,90.531 67.71,90.531C69.075,90.531 70.238,91.609 70.238,93.229C70.238,94.858 69.075,95.946 67.71,95.946ZM67.71,89.709C65.837,89.709 64.17,91.006 64.17,93.229C64.17,95.461 65.837,96.761 67.71,96.761C69.572,96.761 71.241,95.461 71.241,93.229C71.241,91.006 69.572,89.709 67.71,89.709Z" style="fill:rgb(17,21,23);"/>
    </g>
</svg>
