<?xml version="1.0" encoding="UTF-8" standalone="no"?>
<!DOCTYPE svg PUBLIC "-//W3C//DTD SVG 1.1//EN" "http://www.w3.org/Graphics/SVG/1.1/DTD/svg11.dtd">
<svg width="100%" height="100%" viewBox="0 0 1434 805" version="1.1" xmlns="http://www.w3.org/2000/svg" xmlns:xlink="http://www.w3.org/1999/xlink" xml:space="preserve" xmlns:serif="http://www.serif.com/" style="fill-rule:evenodd;clip-rule:evenodd;stroke-linejoin:round;stroke-miterlimit:2;">
    <g transform="matrix(4.16667,0,0,4.16667,0,0)">
        <path d="M17.54,121.292L11.46,132.84C12.311,132.902 13.023,132.902 13.769,132.902L16.08,132.902C16.963,132.902 17.574,132.902 18.422,132.84L17.54,121.292ZM22.872,142.957C21.513,142.957 20.563,142.99 19.238,143.024L19.034,142.819C18.932,141.258 18.897,140.139 18.761,138.572L18.524,135.621C17.676,135.587 16.012,135.587 15.162,135.587L13.328,135.587C12.412,135.587 11.529,135.587 10.068,135.621L8.745,138.167C7.929,139.728 7.386,140.852 6.606,142.415L6.469,142.719L6.197,142.923C4.909,142.923 3.991,142.923 2.667,142.957L2.53,142.65C3.142,141.5 12.311,125.264 15.502,119.082L15.775,118.949C17.54,118.912 19.238,118.85 20.528,118.85L20.733,119.012C20.869,121.868 22.125,134.738 23.075,142.751L22.872,142.957Z" style="fill:rgb(17,21,23);fill-rule:nonzero;"/>
        <path d="M39.514,127.845C39.243,127.777 38.667,127.742 37.952,127.742C33.334,127.742 31.06,129.75 29.837,132.324C29.6,132.84 28.988,134.332 28.988,135.959C28.988,138.472 30.38,140.478 33.199,140.478C34.014,140.478 36.186,139.867 37.07,138.78L39.514,127.845ZM39.616,142.889C38.428,142.889 37.615,142.923 36.424,142.99L36.289,142.751L36.56,141.464C35.475,142.242 34.048,143.192 31.67,143.192C27.596,143.192 25.253,140.139 25.253,136.403C25.253,134.532 25.898,132.09 27.052,130.224C29.905,125.709 34.387,125.125 37.817,125.125C38.667,125.125 39.277,125.159 40.124,125.23C41.313,119.696 41.552,118.509 41.79,116.809L42.06,116.572C43.42,116.368 44.336,116.197 45.694,115.957L45.864,116.162C44.336,121.903 40.736,137.762 39.889,142.683L39.616,142.889Z" style="fill:rgb(17,21,23);fill-rule:nonzero;"/>
        <path d="M52.044,142.923C50.584,142.957 49.566,142.99 48.105,143.061L47.8,142.852C47.563,139.696 46.272,129.272 45.831,125.641L46.036,125.402C47.326,125.402 48.241,125.332 49.497,125.23L49.736,125.433C49.872,127.368 49.94,128.73 50.11,130.664L50.924,140.139C56.662,129 57.411,127.574 58.43,125.469L58.735,125.332L60.026,125.332C60.705,125.332 61.18,125.332 61.86,125.3L62.028,125.537C61.01,127.298 59.722,129.407 58.667,131.311L55.815,136.434C54.593,138.61 53.506,140.514 52.35,142.751L52.044,142.923Z" style="fill:rgb(17,21,23);fill-rule:nonzero;"/>
        <path d="M68.753,140.514C69.804,140.514 71.502,140.032 72.694,138.813C73.541,135.35 74.221,131.784 75.137,127.878C74.73,127.878 74.221,127.813 73.678,127.813C70.418,127.813 67.124,128.827 65.425,132.868C65.222,133.345 64.679,134.706 64.679,136.3C64.679,138.714 66.106,140.514 68.753,140.514ZM75.308,142.957L74.425,142.957C73.574,142.957 72.964,142.99 72.115,143.024L71.945,142.819L72.182,141.464C70.587,142.751 68.89,143.16 67.225,143.16C63.218,143.16 60.943,140.17 60.943,136.537C60.943,134.027 62.028,131.683 62.54,130.797C65.36,125.84 70.384,125.264 73.95,125.264C75.546,125.264 79.008,125.332 79.008,125.332L79.179,125.571C76.428,137.554 75.987,139.489 75.546,142.751L75.308,142.957Z" style="fill:rgb(17,21,23);fill-rule:nonzero;"/>
        <path d="M94.936,142.957C93.645,142.957 92.764,142.99 91.472,143.061L91.336,142.819C91.812,140.545 92.288,139.017 92.764,136.778L93.577,132.902C93.68,132.395 93.951,131.311 93.951,130.392C93.951,127.878 91.744,127.777 91.065,127.777C88.993,127.777 87.364,129 86.583,129.578C85.631,133.957 84.645,138.34 83.83,142.751L83.594,142.957C82.303,142.957 81.421,142.99 80.129,143.061L79.961,142.819C81.08,138.34 83.22,128.897 83.526,125.84L83.764,125.605C85.088,125.433 86.039,125.264 87.364,124.993L87.535,125.23L87.058,126.964C89.536,125.064 91.982,124.891 92.764,124.891C93.781,124.891 97.687,125.064 97.687,129.407C97.687,130.528 97.246,132.803 96.565,135.959L96.057,138.371C95.717,140.004 95.411,141.118 95.207,142.751L94.936,142.957Z" style="fill:rgb(17,21,23);fill-rule:nonzero;"/>
        <path d="M112.221,142.415C111.032,143.094 109.027,143.364 107.84,143.364C103.46,143.364 100.437,140.069 100.437,135.758C100.437,132.936 101.661,128.56 105.396,126.282C107.366,125.095 109.437,124.922 110.354,124.922C112.732,124.922 114.599,125.501 115.616,126.282L115.718,126.522C115.345,127.504 115.141,128.215 114.87,129.204L114.53,129.306C113.988,128.39 112.493,127.606 110.694,127.606C106.448,127.606 104.139,132.09 104.139,135.485C104.139,139.456 107.229,140.615 108.861,140.615C109.437,140.615 111.203,140.545 113.002,138.983L113.273,139.117C112.901,140.24 112.696,141.019 112.426,142.176L112.221,142.415Z" style="fill:rgb(17,21,23);fill-rule:nonzero;"/>
        <path d="M123.496,120.542C122.172,120.714 121.256,120.816 119.931,121.022L119.729,120.746C119.998,119.592 120.204,118.78 120.44,117.623L120.747,117.387C122.07,117.217 122.988,117.115 124.276,116.909L124.55,117.147C124.245,118.27 124.04,119.12 123.769,120.272L123.496,120.542ZM118.641,142.923C117.317,142.923 116.367,142.957 115.042,143.024L114.871,142.819C115.957,138.883 118.37,127.676 118.537,125.84L118.776,125.605C120.168,125.433 121.12,125.3 122.478,125.064L122.647,125.3C122.478,125.264 119.659,138.201 118.878,142.751L118.641,142.923Z" style="fill:rgb(17,21,23);fill-rule:nonzero;"/>
        <path d="M138.27,142.957C136.98,142.957 136.098,142.99 134.808,143.061L134.671,142.819C135.147,140.545 135.622,139.017 136.098,136.778L136.914,132.902C137.014,132.395 137.286,131.311 137.286,130.392C137.286,127.878 135.078,127.777 134.401,127.777C132.329,127.777 130.699,129 129.918,129.578C128.966,133.957 127.982,138.34 127.165,142.751L126.929,142.957C125.638,142.957 124.755,142.99 123.463,143.061L123.295,142.819C124.415,138.34 126.555,128.897 126.86,125.84L127.099,125.605C128.423,125.433 129.373,125.264 130.699,124.993L130.869,125.23L130.393,126.964C132.873,125.064 135.316,124.891 136.098,124.891C137.115,124.891 141.022,125.064 141.022,129.407C141.022,130.528 140.58,132.803 139.899,135.959L139.392,138.371C139.053,140.004 138.747,141.118 138.543,142.751L138.27,142.957Z" style="fill:rgb(17,21,23);fill-rule:nonzero;"/>
        <path d="M157.798,127.944C157.798,127.944 156.78,127.914 156.472,127.914C153.416,127.914 150.122,128.456 148.254,132.426C147.44,134.197 147.337,135.587 147.337,136.334C147.337,139.867 149.612,140.68 151.31,140.68C153.178,140.68 154.537,139.728 155.285,139.017L157.798,127.944ZM161.974,125.501C161.024,129.339 160.173,132.84 159.358,136.672L158.409,141.156C157.219,146.793 156.236,151.545 148.798,151.545C146.762,151.545 143.706,151.072 141.803,149.001L141.803,148.727C142.313,147.947 142.652,147.371 143.162,146.556L143.432,146.556C144.351,147.745 146.048,148.969 148.56,148.969C153.622,148.969 154.028,144.281 154.402,143.123L154.74,141.736C152.5,143.293 150.496,143.331 149.75,143.331C145.741,143.331 143.638,140.275 143.638,136.742C143.638,135.895 143.772,133.008 145.573,130.224C148.766,125.3 153.859,125.3 157.764,125.3C159.461,125.3 161.837,125.23 161.837,125.23L161.974,125.501Z" style="fill:rgb(17,21,23);fill-rule:nonzero;"/>
        <path d="M180.754,142.957C179.429,142.957 178.513,142.99 177.154,143.024L176.985,142.819C177.801,139.489 181.603,123.703 181.91,121.8C178.173,121.834 176.544,121.903 174.948,121.936L174.776,121.73C175.082,120.746 175.288,120.072 175.526,119.082L175.798,118.912C177.357,118.949 179.838,118.983 181.876,118.983C183.845,118.983 190.804,118.949 192.845,118.883L193.017,119.082C192.741,119.967 192.535,120.746 192.264,121.73L192.029,121.903C190.666,121.8 188.666,121.8 185.679,121.766C185.001,124.078 184.728,125.772 184.182,128.152L182.454,135.895C181.944,138.201 181.467,140.376 181.025,142.751L180.754,142.957Z" style="fill:rgb(17,21,23);fill-rule:nonzero;"/>
        <path d="M200.938,132.125C201.069,131.34 201.107,131.004 201.107,130.633C201.038,127.542 198.491,127.298 197.61,127.298C193.701,127.298 192.379,130.903 192.007,132.157C192.007,132.157 198.764,132.125 200.938,132.125ZM201.379,142.006C200.223,142.683 198.457,143.364 195.845,143.364C190.035,143.364 187.963,139.903 187.963,135.992C187.963,130.051 191.598,124.922 197.473,124.922C201.478,124.922 204.329,126.756 204.329,131.278C204.329,132.665 204.029,133.855 203.92,134.368L203.688,134.532C201.92,134.532 198.691,134.5 195.741,134.5C194.21,134.5 193.092,134.5 191.563,134.569C191.529,134.772 191.463,135.381 191.463,136.03C191.463,140.478 195.332,140.578 196.557,140.578C199.376,140.578 200.832,139.489 202.16,138.54L202.429,138.714C202.057,139.832 201.816,140.615 201.548,141.767L201.379,142.006Z" style="fill:rgb(17,21,23);fill-rule:nonzero;"/>
        <path d="M217.916,142.415C216.728,143.094 214.726,143.364 213.538,143.364C209.157,143.364 206.135,140.069 206.135,135.758C206.135,132.936 207.357,128.56 211.092,126.282C213.063,125.095 215.129,124.922 216.051,124.922C218.426,124.922 220.291,125.501 221.31,126.282L221.416,126.522C221.041,127.504 220.838,128.215 220.566,129.204L220.228,129.306C219.682,128.39 218.188,127.606 216.392,127.606C212.144,127.606 209.835,132.09 209.835,135.485C209.835,139.456 212.926,140.615 214.557,140.615C215.129,140.615 216.894,140.545 218.694,138.983L218.97,139.117C218.598,140.24 218.392,141.019 218.123,142.176L217.916,142.415Z" style="fill:rgb(17,21,23);fill-rule:nonzero;"/>
        <path d="M235.642,142.957C234.353,142.957 233.438,142.99 232.179,143.024L232.007,142.819C232.313,141.595 232.685,140.139 232.96,138.915L233.941,134.636C234.144,133.72 234.723,131.105 234.723,130.189C234.723,127.813 232.619,127.712 232.007,127.712C229.904,127.712 227.897,129.105 227.322,129.61L225.963,135.657C225.42,138.032 225.014,140.309 224.535,142.719L224.298,142.923C223.045,142.923 222.129,142.957 220.869,142.99L220.67,142.789C221.142,140.615 225.795,121.868 226.307,116.774L226.576,116.572C227.932,116.368 228.916,116.231 230.279,115.957L230.444,116.197C229.491,119.764 228.748,123.327 227.86,126.928C228.916,126.214 230.923,124.922 233.741,124.922C234.619,124.922 238.426,125.125 238.426,129.204C238.426,130.698 238.088,132.259 237.813,133.485L236.897,137.59C236.525,139.287 236.185,141.054 235.879,142.751L235.642,142.957Z" style="fill:rgb(17,21,23);fill-rule:nonzero;"/>
        <path d="M255.272,142.957C253.985,142.957 253.098,142.99 251.81,143.061L251.673,142.819C252.147,140.545 252.623,139.017 253.098,136.778L253.913,132.902C254.017,132.395 254.288,131.311 254.288,130.392C254.288,127.878 252.079,127.777 251.4,127.777C249.332,127.777 247.701,129 246.916,129.578C245.967,133.957 244.982,138.34 244.17,142.751L243.929,142.957C242.642,142.957 241.76,142.99 240.47,143.061L240.301,142.819C241.42,138.34 243.554,128.897 243.86,125.84L244.098,125.605C245.423,125.433 246.376,125.264 247.701,124.993L247.869,125.23L247.394,126.964C249.876,125.064 252.316,124.891 253.098,124.891C254.113,124.891 258.025,125.064 258.025,129.407C258.025,130.528 257.584,132.803 256.9,135.959L256.394,138.371C256.053,140.004 255.748,141.118 255.545,142.751L255.272,142.957Z" style="fill:rgb(17,21,23);fill-rule:nonzero;"/>
        <path d="M267.835,140.852C272.967,140.852 273.816,132.564 273.816,131.41C273.816,128.117 271.81,127.403 270.282,127.403C265.598,127.403 264.307,134.368 264.307,136.811C264.307,138.983 265.326,140.852 267.835,140.852ZM270.147,124.922C274.357,124.922 277.413,127.066 277.413,131.582C277.413,135.147 275.782,143.364 267.767,143.364C265.629,143.364 260.704,142.852 260.704,136.573C260.704,131.071 263.697,124.922 270.147,124.922Z" style="fill:rgb(17,21,23);fill-rule:nonzero;"/>
        <path d="M282.644,142.957C281.389,142.99 280.473,142.99 279.185,143.061L279.048,142.852C279.554,140.103 283.188,125.23 284.379,116.774L284.616,116.534C286.007,116.334 286.963,116.162 288.353,115.892L288.519,116.097C286.822,123.433 283.392,139.628 282.92,142.751L282.644,142.957Z" style="fill:rgb(17,21,23);fill-rule:nonzero;"/>
        <path d="M295.072,140.852C300.204,140.852 301.051,132.564 301.051,131.41C301.051,128.117 299.045,127.403 297.517,127.403C292.832,127.403 291.545,134.368 291.545,136.811C291.545,138.983 292.56,140.852 295.072,140.852ZM297.382,124.922C301.595,124.922 304.65,127.066 304.65,131.582C304.65,135.147 303.019,143.364 295.004,143.364C292.863,143.364 287.941,142.852 287.941,136.573C287.941,131.071 290.932,124.922 297.382,124.922Z" style="fill:rgb(17,21,23);fill-rule:nonzero;"/>
        <path d="M320.951,127.944C320.951,127.944 319.932,127.914 319.629,127.914C316.572,127.914 313.275,128.456 311.41,132.426C310.592,134.197 310.491,135.587 310.491,136.334C310.491,139.867 312.767,140.68 314.47,140.68C316.332,140.68 317.691,139.728 318.438,139.017L320.951,127.944ZM325.126,125.501C324.176,129.339 323.329,132.84 322.514,136.672L321.566,141.156C320.376,146.795 319.392,151.545 311.954,151.545C309.916,151.545 306.863,151.072 304.957,149.001L304.957,148.727C305.47,147.947 305.807,147.371 306.316,146.556L306.588,146.556C307.507,147.745 309.201,148.969 311.713,148.969C316.772,148.969 317.185,144.281 317.557,143.123L317.894,141.736C315.657,143.293 313.647,143.331 312.907,143.331C308.897,143.331 306.791,140.275 306.791,136.742C306.791,135.895 306.929,133.008 308.726,130.224C311.92,125.3 317.014,125.3 320.916,125.3C322.613,125.3 324.991,125.23 324.991,125.23L325.126,125.501Z" style="fill:rgb(17,21,23);fill-rule:nonzero;"/>
        <path d="M343.535,125.537C339.457,132.125 329.92,148.118 328.626,151.004L328.357,151.206L326.826,151.206C326.147,151.206 325.504,151.206 324.822,151.242L324.723,151.004C325.707,149.511 329.069,144.314 329.885,142.819C328.588,134.368 327.338,125.98 327.166,125.571L327.404,125.332C328.697,125.332 329.61,125.264 330.935,125.159L331.207,125.332C331.379,127.203 331.482,128.522 331.717,130.36L332.697,138.371L336.001,132.532C337.285,130.259 338.576,127.944 339.798,125.501L340.069,125.3C340.441,125.332 340.816,125.332 341.191,125.332C342.004,125.332 342.585,125.3 343.366,125.264L343.535,125.537Z" style="fill:rgb(17,21,23);fill-rule:nonzero;"/>
        <path d="M128.927,184.717C127.636,184.753 126.754,184.785 125.498,184.855L125.328,184.649C126.517,179.114 125.837,182.373 128.621,169.672C127.977,169.672 126.991,169.706 126.039,169.706L125.837,169.503C126.074,168.655 126.245,168.078 126.449,167.228L126.72,166.989C127.602,167.058 128.246,167.092 129.129,167.092L129.639,164.647C130.388,161.012 131.032,157.956 135.784,157.956C136.975,157.956 137.757,158.164 138.266,158.262L138.435,158.534C138.198,159.386 138.028,159.996 137.823,160.84L137.552,161.048C137.315,161.012 136.839,160.811 136.229,160.811C134.089,160.811 133.75,162.203 133.138,164.918L132.663,167.092L133.24,167.092C134.227,167.092 134.904,167.092 135.889,167.058L136.059,167.331C135.819,168.008 135.651,168.691 135.414,169.503L135.142,169.74C134.055,169.706 133.274,169.672 132.153,169.672C131.067,175.073 129.945,179.217 129.164,184.514L128.927,184.717Z" style="fill:rgb(17,21,23);fill-rule:nonzero;"/>
        <path d="M142.442,182.611C147.568,182.611 148.418,174.323 148.418,173.168C148.418,169.879 146.416,169.162 144.888,169.162C140.201,169.162 138.909,176.125 138.909,178.571C138.909,180.745 139.93,182.611 142.442,182.611ZM144.749,166.686C148.96,166.686 152.018,168.823 152.018,173.34C152.018,176.906 150.388,185.125 142.373,185.125C140.235,185.125 135.31,184.614 135.31,178.334C135.31,172.827 138.299,166.686 144.749,166.686Z" style="fill:rgb(17,21,23);fill-rule:nonzero;"/>
        <path d="M157.081,184.717C155.754,184.717 154.837,184.753 153.548,184.785L153.38,184.578C154.806,179.248 156.74,170.49 157.081,167.601L157.316,167.365C158.678,167.194 159.661,167.058 160.988,166.789L161.156,167.027C160.884,168.008 160.68,168.892 160.407,170.011C160.917,169.162 162.412,166.652 164.824,166.652C165.57,166.652 166.044,166.823 166.387,167.027L166.487,167.331C165.977,168.551 165.639,169.403 165.162,170.656L164.824,170.762C164.585,170.592 164.044,170.281 163.397,170.281C162.48,170.281 160.374,170.762 159.32,175.173C159.014,176.465 157.658,182.305 157.352,184.48L157.081,184.717Z" style="fill:rgb(17,21,23);fill-rule:nonzero;"/>
        <path d="M193.963,184.683C192.976,184.683 191.65,184.753 190.295,184.753L190.157,184.578C191.173,180.368 191.889,177.418 192.804,173.168C191.517,173.136 190.601,173.136 189.342,173.136L185.775,173.136C184.285,173.136 183.228,173.136 181.704,173.239C180.788,176.975 180.069,180.778 179.291,184.514L179.054,184.717C177.695,184.717 176.741,184.717 175.419,184.785L175.247,184.548C175.626,183.017 179.801,165.156 180.548,160.912L180.788,160.709C182.144,160.709 183.095,160.675 184.416,160.641L184.585,160.84C183.603,164.918 183.704,164.275 182.379,170.317C182.517,170.317 183.772,170.353 184.688,170.353C187.713,170.353 191.142,170.317 193.451,170.251C194.642,164.817 195.048,162.817 195.42,160.912L195.654,160.709C197.017,160.709 197.967,160.675 199.326,160.641L199.46,160.84C197.322,170.011 194.976,180.269 194.194,184.48L193.963,184.683Z" style="fill:rgb(17,21,23);fill-rule:nonzero;"/>
        <path d="M213.72,184.683C212.504,184.717 211.616,184.753 210.397,184.819L210.223,184.578L210.632,182.951C208.866,184.407 206.897,185.054 205.098,185.054C200.954,185.054 200.038,182.239 200.038,180.403C200.038,179.183 200.307,177.894 200.92,175.207L201.635,172.05C201.973,170.554 202.248,169.503 202.619,167.367L202.857,167.128C204.113,167.128 204.994,167.058 206.251,166.989L206.42,167.194C205.17,172.355 203.775,177.751 203.775,179.284C203.775,180.269 204.045,182.203 206.694,182.203C208.223,182.203 209.751,181.558 211.21,180.231C212.976,172.287 213.757,168.447 213.926,167.367L214.194,167.16C215.454,167.128 216.338,167.058 217.629,166.989L217.764,167.228C216.71,171.201 214.301,182.172 213.96,184.48L213.72,184.683Z" style="fill:rgb(17,21,23);fill-rule:nonzero;"/>
        <path d="M243.407,184.717C242.185,184.717 241.301,184.753 240.076,184.785L239.876,184.548C240.382,182.576 240.857,180.508 241.332,178.5L241.944,175.886C242.42,173.848 242.623,172.559 242.623,171.914C242.623,169.641 240.654,169.571 240.076,169.571C237.973,169.571 236.272,170.793 235.529,171.439C235.494,172.115 235.291,173.78 234.813,175.886L234.038,179.454C233.663,181.184 233.319,182.778 233.017,184.514L232.775,184.717C231.522,184.717 230.635,184.753 229.382,184.785L229.21,184.514C229.754,182.439 231.826,174.086 231.826,171.985C231.826,169.74 229.923,169.571 229.279,169.571C227.447,169.571 225.779,170.827 225.17,171.373L224.048,176.433C223.404,179.417 222.929,181.49 222.416,184.514L222.182,184.683C220.892,184.717 220.007,184.717 218.754,184.785L218.551,184.548C219.869,179.558 221.842,170.387 222.182,167.569L222.382,167.367C223.744,167.194 224.694,167.027 225.988,166.789L226.188,167.027L225.748,168.756C226.697,167.941 228.907,166.686 231.557,166.686C232.335,166.686 234.407,166.922 235.254,169.162C238.076,166.922 240.757,166.686 241.673,166.686C244.154,166.686 246.291,168.043 246.291,170.827C246.291,171.985 246.019,173.239 245.717,174.6L245.135,177.175C244.525,179.86 244.22,181.792 243.644,184.514L243.407,184.717Z" style="fill:rgb(17,21,23);fill-rule:nonzero;"/>
        <path d="M256.517,182.272C257.569,182.272 259.269,181.792 260.454,180.572C261.303,177.106 261.982,173.545 262.904,169.641C262.491,169.641 261.982,169.571 261.441,169.571C258.178,169.571 254.885,170.592 253.188,174.629C252.985,175.11 252.441,176.465 252.441,178.061C252.441,180.472 253.869,182.272 256.517,182.272ZM263.069,184.717L262.188,184.717C261.342,184.717 260.728,184.753 259.881,184.785L259.709,184.578L259.944,183.222C258.351,184.514 256.653,184.918 254.985,184.918C250.978,184.918 248.704,181.933 248.704,178.297C248.704,175.785 249.791,173.442 250.304,172.559C253.123,167.601 258.147,167.027 261.713,167.027C263.307,167.027 266.772,167.092 266.772,167.092L266.941,167.331C264.191,179.317 263.748,181.251 263.307,184.514L263.069,184.717Z" style="fill:rgb(17,21,23);fill-rule:nonzero;"/>
        <path d="M282.697,184.717C281.413,184.717 280.525,184.753 279.238,184.819L279.101,184.578C279.572,182.305 280.051,180.778 280.525,178.535L281.345,174.662C281.441,174.157 281.717,173.071 281.717,172.15C281.717,169.641 279.51,169.535 278.829,169.535C276.757,169.535 275.129,170.762 274.345,171.337C273.394,175.715 272.41,180.098 271.595,184.514L271.357,184.717C270.069,184.717 269.185,184.753 267.892,184.819L267.726,184.578C268.845,180.098 270.982,170.656 271.288,167.601L271.525,167.367C272.851,167.194 273.801,167.027 275.129,166.754L275.295,166.989L274.819,168.722C277.304,166.823 279.744,166.652 280.525,166.652C281.545,166.652 285.451,166.823 285.451,171.165C285.451,172.287 285.007,174.564 284.329,177.723L283.819,180.131C283.476,181.764 283.176,182.883 282.976,184.514L282.697,184.717Z" style="fill:rgb(17,21,23);fill-rule:nonzero;"/>
        <path d="M295.876,162.301C294.551,162.473 293.635,162.573 292.313,162.781L292.11,162.508C292.382,161.352 292.585,160.539 292.819,159.386L293.126,159.147C294.454,158.977 295.366,158.873 296.66,158.673L296.929,158.909C296.626,160.03 296.42,160.876 296.15,162.031L295.876,162.301ZM291.022,184.683C289.697,184.683 288.744,184.717 287.423,184.785L287.251,184.578C288.335,180.642 290.751,169.434 290.92,167.601L291.157,167.367C292.554,167.194 293.504,167.058 294.857,166.823L295.029,167.058C294.857,167.027 292.041,179.959 291.257,184.514L291.022,184.683Z" style="fill:rgb(17,21,23);fill-rule:nonzero;"/>
        <path d="M303.079,184.649C301.954,184.918 301.072,184.954 300.632,184.954C297.404,184.954 296.592,183.293 296.592,181.592C296.592,180.3 297.304,177.313 298.288,173.201L299.135,169.672L298.46,169.672C297.813,169.672 297.335,169.672 296.691,169.706L296.522,169.467C296.76,168.691 296.929,168.078 297.135,167.228L297.369,167.058C298.257,167.092 298.832,167.092 299.713,167.092C300.123,165.528 300.329,164.406 300.632,162.845L300.873,162.61C302.194,162.334 303.11,162.101 304.4,161.761L304.569,161.962C304.298,162.881 304.129,163.561 303.894,164.478L303.248,167.092C304.639,167.092 305.588,167.092 306.947,167.027L307.116,167.259C306.813,168.078 306.642,168.691 306.404,169.503L306.166,169.706C304.876,169.672 303.96,169.672 302.67,169.672L300.835,177.347C300.666,178.027 300.188,180.131 300.188,180.811C300.188,181.899 300.973,182.272 301.853,182.272C302.735,182.272 303.551,181.933 303.857,181.829L304.029,182.001C303.757,182.883 303.551,183.493 303.313,184.376L303.079,184.649Z" style="fill:rgb(17,21,23);fill-rule:nonzero;"/>
        <path d="M323.804,167.297C319.728,173.886 310.188,189.876 308.897,192.762L308.626,192.97L307.098,192.97C306.423,192.97 305.775,192.97 305.095,193L304.994,192.762C305.982,191.27 309.342,186.074 310.154,184.578C308.866,176.125 307.607,167.74 307.438,167.331L307.676,167.092C308.97,167.092 309.885,167.027 311.207,166.922L311.482,167.092C311.647,168.962 311.751,170.281 311.988,172.115L312.976,180.131L316.272,174.29C317.557,172.017 318.848,169.706 320.069,167.259L320.342,167.058C320.717,167.092 321.088,167.092 321.463,167.092C322.279,167.092 322.857,167.058 323.635,167.027L323.804,167.297Z" style="fill:rgb(17,21,23);fill-rule:nonzero;"/>
        <rect x="114.548" y="13.525" width="21.014" height="75.865" style="fill:rgb(17,21,23);fill-rule:nonzero;"/>
        <path d="M146.591,89.39L146.591,13.525L204.379,13.525L204.379,28.233L167.604,28.233L167.604,43.888L201.435,43.888L201.435,58.6L167.604,58.6L167.604,74.674L204.379,74.674L204.379,89.39L146.591,89.39Z" style="fill:rgb(17,21,23);fill-rule:nonzero;"/>
        <path d="M216.154,89.39L216.154,13.525L273.929,13.525L273.929,28.233L237.163,28.233L237.163,43.888L270.982,43.888L270.982,58.6L237.163,58.6L237.163,74.674L273.929,74.674L273.929,89.39L216.154,89.39Z" style="fill:rgb(17,21,23);fill-rule:nonzero;"/>
        <path d="M285.694,89.39L285.694,13.525L343.485,13.525L343.485,28.233L306.723,28.233L306.723,43.888L340.545,43.888L340.545,58.6L306.723,58.6L306.723,74.674L343.485,74.674L343.485,89.39L285.694,89.39Z" style="fill:rgb(17,21,23);fill-rule:nonzero;"/>
        <path d="M47.939,59.069C47.661,64.425 47.593,69.383 47.197,74.756C49.317,74.946 51.709,75.133 53.97,74.803L53.295,59.833L53.177,59.118C51.454,59.186 49.825,59.257 47.939,59.069ZM34.697,44.027C32.086,45.336 28.245,47.314 28.667,50.896C29.227,52.851 31.345,54.113 33.02,54.921C42.282,59 54.577,59.14 64.355,56.094C66.769,55.161 70.009,53.812 70.453,50.855C70.426,48.411 67.841,46.873 65.981,45.938L65.981,45.822C66.629,45.565 67.374,45.336 68.046,45.264L68.046,45.199C64.77,44.613 61.609,43.757 58.436,42.917C59.047,44.309 59.488,45.777 59.997,47.224C60.95,46.919 61.928,46.687 62.957,46.547C64.63,47.198 67.024,48.13 67.261,50.222C67.447,52.177 65.308,53.13 63.955,53.924C56.784,56.534 48.714,56.788 41.234,54.806C39.167,54.153 36.186,53.317 35.929,50.687C37.396,47.224 41.188,46.503 44.356,45.661C42.728,44.613 41.073,43.684 39.495,42.517C37.791,42.611 36.234,43.357 34.697,44.027ZM50.543,23.13L49.615,26.111L44.959,39.446C46.124,39.565 47.568,39.446 48.714,39.565L48.714,39.675L48.032,54.759L48.15,54.921C49.64,55.065 51.499,55.14 53.017,54.881L53.017,54.643L52.41,40.011L52.5,39.516L56.597,39.446C54.554,34.048 52.571,28.595 50.664,23.13L50.543,23.13ZM48.38,16.43C51.806,14.096 54.878,17.358 57.532,19.223C67.795,27.482 77.478,36.936 84.856,47.613C85.787,48.991 86.207,51.13 85.373,52.689C83.459,55.882 80.879,58.793 78.433,61.75L78.433,61.91C72.332,68.404 65.889,75.082 58.925,80.581C55.528,82.65 52.41,87.166 48.032,84.368C38.067,77.085 28.532,68.032 20.446,58.321C19.076,56.184 16.936,54.435 15.982,52.014C14.652,48.736 17.585,46.382 19.264,43.914C27.507,33.747 37.743,23.779 48.38,16.43ZM56.969,6.72L53.177,1.345C52.711,1.06 52.131,0.593 51.618,0.454C50.499,-0.03 49.292,0.556 48.38,1.249L41.516,10.189C30.506,23.824 17.471,36.559 3.25,46.32C2.126,47.198 0.454,48.055 0.107,49.503C-0.266,50.806 0.412,51.88 1.219,52.689C12.606,60.535 23.495,69.845 33.185,80.464C34.906,82.273 36.3,84.068 37.982,85.766C40.817,89.539 44.147,93.338 46.752,97.384C47.568,98.241 47.709,99.642 48.987,100.059C49.987,100.405 51.222,100.641 52.175,100.059L53.124,99.106C64.907,82.414 79.85,67.425 96.545,55.323C98.217,53.829 101.409,53.273 101.455,50.503C101.336,49.225 100.593,47.967 99.495,47.267L99.221,47.224C90.629,41.379 82.624,34.769 75.082,27.271L66.748,18.564C63.372,14.821 60.091,10.675 56.969,6.72ZM47.149,14.378C50.499,11.771 54.714,13.935 57.532,16.333C60.485,18.59 63.559,21.146 66.257,23.759L66.748,24.041C74.221,30.974 81.161,38.68 86.864,46.828C87.788,48.246 88.604,49.852 88.088,51.734C86.187,56.487 82.324,60.278 78.946,64.425C71.637,72.294 63.928,79.905 55.298,85.978C53.552,87.211 51.197,88.352 49.106,87.373C42.753,84.047 37.396,78.6 31.836,73.636C25.388,67.656 18.915,60.696 14.027,53.414C13.302,52.389 13.097,51.13 13.118,49.782C13.747,47.267 15.468,45.199 17.098,43.08C22.874,35.72 29.947,28.739 37.091,22.363C37.256,22.199 37.561,21.852 37.819,21.685C40.887,19.033 43.936,16.685 47.149,14.378Z" style="fill:rgb(17,21,23);fill-rule:nonzero;"/>
        <path d="M67.848,92.888L67.124,92.888L67.124,91.971L67.696,91.971C68.006,91.971 68.426,92.003 68.426,92.396C68.426,92.814 68.212,92.888 67.848,92.888ZM69.288,92.478C69.288,91.609 68.714,91.335 67.731,91.335L66.313,91.335L66.313,95.128L67.124,95.128L67.124,93.534L67.51,93.534L68.384,95.128L69.351,95.128L68.372,93.465C68.885,93.422 69.288,93.175 69.288,92.478ZM67.71,95.946L67.71,95.935C66.313,95.946 65.186,94.858 65.186,93.229C65.186,91.609 66.313,90.531 67.71,90.531C69.075,90.531 70.238,91.609 70.238,93.229C70.238,94.858 69.075,95.946 67.71,95.946ZM67.71,89.709C65.837,89.709 64.17,91.006 64.17,93.229C64.17,95.461 65.837,96.761 67.71,96.761C69.572,96.761 71.241,95.461 71.241,93.229C71.241,91.006 69.572,89.709 67.71,89.709Z" style="fill:rgb(17,21,23);"/>
    </g>
</svg>
