<svg xmlns="http://www.w3.org/2000/svg" style="fill-rule:evenodd;clip-rule:evenodd;stroke-linejoin:round;stroke-miterlimit:2" viewBox="0 0 1434 805">
  <path d="m17.54 121.292-6.08 11.548c.851.062 1.563.062 2.309.062h2.311c.883 0 1.494 0 2.342-.062l-.882-11.548Zm5.332 21.665c-1.359 0-2.309.033-3.634.067l-.204-.205c-.102-1.561-.137-2.68-.273-4.247l-.237-2.951c-.848-.034-2.512-.034-3.362-.034h-1.834c-.916 0-1.799 0-3.26.034l-1.323 2.546c-.816 1.561-1.359 2.685-2.139 4.248l-.137.304-.272.204c-1.288 0-2.206 0-3.53.034l-.137-.307c.612-1.15 9.781-17.386 12.972-23.568l.273-.133c1.765-.037 3.463-.099 4.753-.099l.205.162c.136 2.856 1.392 15.726 2.342 23.739l-.203.206ZM39.514 127.845c-.271-.068-.847-.103-1.562-.103-4.618 0-6.892 2.008-8.115 4.582-.237.516-.849 2.008-.849 3.635 0 2.513 1.392 4.519 4.211 4.519.815 0 2.987-.611 3.871-1.698l2.444-10.935Zm.102 15.044c-1.188 0-2.001.034-3.192.101l-.135-.239.271-1.287c-1.085.778-2.512 1.728-4.89 1.728-4.074 0-6.417-3.053-6.417-6.789 0-1.871.645-4.313 1.799-6.179 2.853-4.515 7.335-5.099 10.765-5.099.85 0 1.46.034 2.307.105 1.189-5.534 1.428-6.721 1.666-8.421l.27-.237c1.36-.204 2.276-.375 3.634-.615l.17.205c-1.528 5.741-5.128 21.6-5.975 26.521l-.273.206ZM52.044 142.923c-1.46.034-2.478.067-3.939.138l-.305-.209c-.237-3.156-1.528-13.58-1.969-17.211l.205-.239c1.29 0 2.205-.07 3.461-.172l.239.203c.136 1.935.204 3.297.374 5.231l.814 9.475c5.738-11.139 6.487-12.565 7.506-14.67l.305-.137h1.291c.679 0 1.154 0 1.834-.032l.168.237c-1.018 1.761-2.306 3.87-3.361 5.774l-2.852 5.123c-1.222 2.176-2.309 4.08-3.465 6.317l-.306.172ZM68.753 140.514c1.051 0 2.749-.482 3.941-1.701.847-3.463 1.527-7.029 2.443-10.935-.407 0-.916-.065-1.459-.065-3.26 0-6.554 1.014-8.253 5.055-.203.477-.746 1.838-.746 3.432 0 2.414 1.427 4.214 4.074 4.214Zm6.555 2.443h-.883c-.851 0-1.461.033-2.31.067l-.17-.205.237-1.355c-1.595 1.287-3.292 1.696-4.957 1.696-4.007 0-6.282-2.99-6.282-6.623 0-2.51 1.085-4.854 1.597-5.74 2.82-4.957 7.844-5.533 11.41-5.533 1.596 0 5.058.068 5.058.068l.171.239c-2.751 11.983-3.192 13.918-3.633 17.18l-.238.206ZM94.936 142.957c-1.291 0-2.172.033-3.464.104l-.136-.242c.476-2.274.952-3.802 1.428-6.041l.813-3.876c.103-.507.374-1.591.374-2.51 0-2.514-2.207-2.615-2.886-2.615-2.072 0-3.701 1.223-4.482 1.801-.952 4.379-1.938 8.762-2.753 13.173l-.236.206a56.48 56.48 0 0 0-3.465.104l-.168-.242c1.119-4.479 3.259-13.922 3.565-16.979l.238-.235a45.638 45.638 0 0 0 3.6-.612l.171.237-.477 1.734c2.478-1.9 4.924-2.073 5.706-2.073 1.017 0 4.923.173 4.923 4.516 0 1.121-.441 3.396-1.122 6.552l-.508 2.412c-.34 1.633-.646 2.747-.85 4.38l-.271.206ZM112.221 142.415c-1.189.679-3.194.949-4.381.949-4.38 0-7.403-3.295-7.403-7.606 0-2.822 1.224-7.198 4.959-9.476 1.97-1.187 4.041-1.36 4.958-1.36 2.378 0 4.245.579 5.262 1.36l.102.24c-.373.982-.577 1.693-.848 2.682l-.34.102c-.542-.916-2.037-1.7-3.836-1.7-4.246 0-6.555 4.484-6.555 7.879 0 3.971 3.09 5.13 4.722 5.13.576 0 2.342-.07 4.141-1.632l.271.134a31.297 31.297 0 0 0-.847 3.059l-.205.239ZM123.496 120.542c-1.324.172-2.24.274-3.565.48l-.202-.276c.269-1.154.475-1.966.711-3.123l.307-.236c1.323-.17 2.241-.272 3.529-.478l.274.238a86.432 86.432 0 0 0-.781 3.125l-.273.27Zm-4.855 22.381c-1.324 0-2.274.034-3.599.101l-.171-.205c1.086-3.936 3.499-15.143 3.666-16.979l.239-.235a68.381 68.381 0 0 0 3.702-.541l.169.236c-.169-.036-2.988 12.901-3.769 17.451l-.237.172ZM138.27 142.957c-1.29 0-2.172.033-3.462.104l-.137-.242c.476-2.274.951-3.802 1.427-6.041l.816-3.876c.1-.507.372-1.591.372-2.51 0-2.514-2.208-2.615-2.885-2.615-2.072 0-3.702 1.223-4.483 1.801-.952 4.379-1.936 8.762-2.753 13.173l-.236.206c-1.291 0-2.174.033-3.466.104l-.168-.242c1.12-4.479 3.26-13.922 3.565-16.979l.239-.235a45.716 45.716 0 0 0 3.6-.612l.17.237-.476 1.734c2.48-1.9 4.923-2.073 5.705-2.073 1.017 0 4.924.173 4.924 4.516 0 1.121-.442 3.396-1.123 6.552l-.507 2.412c-.339 1.633-.645 2.747-.849 4.38l-.273.206ZM157.798 127.944s-1.018-.03-1.326-.03c-3.056 0-6.35.542-8.218 4.512-.814 1.771-.917 3.161-.917 3.908 0 3.533 2.275 4.346 3.973 4.346 1.868 0 3.227-.952 3.975-1.663l2.513-11.073Zm4.176-2.443c-.95 3.838-1.801 7.339-2.616 11.171l-.949 4.484c-1.19 5.637-2.173 10.389-9.611 10.389-2.036 0-5.092-.473-6.995-2.544v-.274c.51-.78.849-1.356 1.359-2.171h.27c.919 1.189 2.616 2.413 5.128 2.413 5.062 0 5.468-4.688 5.842-5.846l.338-1.387c-2.24 1.557-4.244 1.595-4.99 1.595-4.009 0-6.112-3.056-6.112-6.589 0-.847.134-3.734 1.935-6.518 3.193-4.924 8.286-4.924 12.191-4.924 1.697 0 4.073-.07 4.073-.07l.137.271ZM180.754 142.957c-1.325 0-2.241.033-3.6.067l-.169-.205c.816-3.33 4.618-19.116 4.925-21.019-3.737.034-5.366.103-6.962.136l-.172-.206c.306-.984.512-1.658.75-2.648l.272-.17c1.559.037 4.04.071 6.078.071 1.969 0 8.928-.034 10.969-.1l.172.199c-.276.885-.482 1.664-.753 2.648l-.235.173c-1.363-.103-3.363-.103-6.35-.137-.678 2.312-.951 4.006-1.497 6.386l-1.728 7.743c-.51 2.306-.987 4.481-1.429 6.856l-.271.206ZM200.938 132.125c.131-.785.169-1.121.169-1.492-.069-3.091-2.616-3.335-3.497-3.335-3.909 0-5.231 3.605-5.603 4.859 0 0 6.757-.032 8.931-.032Zm.441 9.881c-1.156.677-2.922 1.358-5.534 1.358-5.81 0-7.882-3.461-7.882-7.372 0-5.941 3.635-11.07 9.51-11.07 4.005 0 6.856 1.834 6.856 6.356 0 1.387-.3 2.577-.409 3.09l-.232.164c-1.768 0-4.997-.032-7.947-.032-1.531 0-2.649 0-4.178.069-.034.203-.1.812-.1 1.461 0 4.448 3.869 4.548 5.094 4.548 2.819 0 4.275-1.089 5.603-2.038l.269.174c-.372 1.118-.613 1.901-.881 3.053l-.169.239ZM217.916 142.415c-1.188.679-3.19.949-4.378.949-4.381 0-7.403-3.295-7.403-7.606 0-2.822 1.222-7.198 4.957-9.476 1.971-1.187 4.037-1.36 4.959-1.36 2.375 0 4.24.579 5.259 1.36l.106.24c-.375.982-.578 1.693-.85 2.682l-.338.102c-.546-.916-2.04-1.7-3.836-1.7-4.248 0-6.557 4.484-6.557 7.879 0 3.971 3.091 5.13 4.722 5.13.572 0 2.337-.07 4.137-1.632l.276.134a31.019 31.019 0 0 0-.847 3.059l-.207.239ZM235.642 142.957c-1.289 0-2.204.033-3.463.067l-.172-.205c.306-1.224.678-2.68.953-3.904l.981-4.279c.203-.916.782-3.531.782-4.447 0-2.376-2.104-2.477-2.716-2.477-2.103 0-4.11 1.393-4.685 1.898l-1.359 6.047c-.543 2.375-.949 4.652-1.428 7.062l-.237.204c-1.253 0-2.169.034-3.429.067l-.199-.201c.472-2.174 5.125-20.921 5.637-26.015l.269-.202c1.356-.204 2.34-.341 3.703-.615l.165.24c-.953 3.567-1.696 7.13-2.584 10.731 1.056-.714 3.063-2.006 5.881-2.006.878 0 4.685.203 4.685 4.282 0 1.494-.338 3.055-.613 4.281l-.916 4.105a142.463 142.463 0 0 0-1.018 5.161l-.237.206ZM255.272 142.957c-1.287 0-2.174.033-3.462.104l-.137-.242c.474-2.274.95-3.802 1.425-6.041l.815-3.876c.104-.507.375-1.591.375-2.51 0-2.514-2.209-2.615-2.888-2.615-2.068 0-3.699 1.223-4.484 1.801-.949 4.379-1.934 8.762-2.746 13.173l-.241.206c-1.287 0-2.169.033-3.459.104l-.169-.242c1.119-4.479 3.253-13.922 3.559-16.979l.238-.235a45.632 45.632 0 0 0 3.603-.612l.168.237-.475 1.734c2.482-1.9 4.922-2.073 5.704-2.073 1.015 0 4.927.173 4.927 4.516 0 1.121-.441 3.396-1.125 6.552l-.506 2.412c-.341 1.633-.646 2.747-.849 4.38l-.273.206ZM267.835 140.852c5.132 0 5.981-8.288 5.981-9.442 0-3.293-2.006-4.007-3.534-4.007-4.684 0-5.975 6.965-5.975 9.408 0 2.172 1.019 4.041 3.528 4.041Zm2.312-15.93c4.21 0 7.266 2.144 7.266 6.66 0 3.565-1.631 11.782-9.646 11.782-2.138 0-7.063-.512-7.063-6.791 0-5.502 2.993-11.651 9.443-11.651ZM282.644 142.957c-1.255.033-2.171.033-3.459.104l-.137-.209c.506-2.749 4.14-17.622 5.331-26.078l.237-.24c1.391-.2 2.347-.372 3.737-.642l.166.205c-1.697 7.336-5.127 23.531-5.599 26.654l-.276.206ZM295.072 140.852c5.132 0 5.979-8.288 5.979-9.442 0-3.293-2.006-4.007-3.534-4.007-4.685 0-5.972 6.965-5.972 9.408 0 2.172 1.015 4.041 3.527 4.041Zm2.31-15.93c4.213 0 7.268 2.144 7.268 6.66 0 3.565-1.631 11.782-9.646 11.782-2.141 0-7.063-.512-7.063-6.791 0-5.502 2.991-11.651 9.441-11.651ZM320.951 127.944s-1.019-.03-1.322-.03c-3.057 0-6.354.542-8.219 4.512-.818 1.771-.919 3.161-.919 3.908 0 3.533 2.276 4.346 3.979 4.346 1.862 0 3.221-.952 3.968-1.663l2.513-11.073Zm4.175-2.443c-.95 3.838-1.797 7.339-2.612 11.171l-.948 4.484c-1.19 5.639-2.174 10.389-9.612 10.389-2.038 0-5.091-.473-6.997-2.544v-.274c.513-.78.85-1.356 1.359-2.171h.272c.919 1.189 2.613 2.413 5.125 2.413 5.059 0 5.472-4.688 5.844-5.846l.337-1.387c-2.237 1.557-4.247 1.595-4.987 1.595-4.01 0-6.116-3.056-6.116-6.589 0-.847.138-3.734 1.935-6.518 3.194-4.924 8.288-4.924 12.19-4.924 1.697 0 4.075-.07 4.075-.07l.135.271ZM343.535 125.537c-4.078 6.588-13.615 22.581-14.909 25.467l-.269.202h-1.531c-.679 0-1.322 0-2.004.036l-.099-.238c.984-1.493 4.346-6.69 5.162-8.185-1.297-8.451-2.547-16.839-2.719-17.248l.238-.239c1.293 0 2.206-.068 3.531-.173l.272.173c.172 1.871.275 3.19.51 5.028l.98 8.011 3.304-5.839c1.284-2.273 2.575-4.588 3.797-7.031l.271-.201a13.1 13.1 0 0 0 1.122.032c.813 0 1.394-.032 2.175-.068l.169.273ZM128.927 184.717c-1.291.036-2.173.068-3.429.138l-.17-.206c1.189-5.535.509-2.276 3.293-14.977-.644 0-1.63.034-2.582.034l-.202-.203c.237-.848.408-1.425.612-2.275l.271-.239c.882.069 1.526.103 2.409.103l.51-2.445c.749-3.635 1.393-6.691 6.145-6.691 1.191 0 1.973.208 2.482.306l.169.272c-.237.852-.407 1.462-.612 2.306l-.271.208c-.237-.036-.713-.237-1.323-.237-2.14 0-2.479 1.392-3.091 4.107l-.475 2.174h.577c.987 0 1.664 0 2.649-.034l.17.273c-.24.677-.408 1.36-.645 2.172l-.272.237c-1.087-.034-1.868-.068-2.989-.068-1.086 5.401-2.208 9.545-2.989 14.842l-.237.203ZM142.442 182.611c5.126 0 5.976-8.288 5.976-9.443 0-3.289-2.002-4.006-3.53-4.006-4.687 0-5.979 6.963-5.979 9.409 0 2.174 1.021 4.04 3.533 4.04Zm2.307-15.925c4.211 0 7.269 2.137 7.269 6.654 0 3.566-1.63 11.785-9.645 11.785-2.138 0-7.063-.511-7.063-6.791 0-5.507 2.989-11.648 9.439-11.648ZM157.081 184.717c-1.327 0-2.244.036-3.533.068l-.168-.207c1.426-5.33 3.36-14.088 3.701-16.977l.235-.236c1.362-.171 2.345-.307 3.672-.576l.168.238c-.272.981-.476 1.865-.749 2.984.51-.849 2.005-3.359 4.417-3.359.746 0 1.22.171 1.563.375l.1.304a99.616 99.616 0 0 0-1.325 3.325l-.338.106c-.239-.17-.78-.481-1.427-.481-.917 0-3.023.481-4.077 4.892-.306 1.292-1.662 7.132-1.968 9.307l-.271.237ZM193.963 184.683c-.987 0-2.313.07-3.668.07l-.138-.175c1.016-4.21 1.732-7.16 2.647-11.41-1.287-.032-2.203-.032-3.462-.032h-3.567c-1.49 0-2.547 0-4.071.103-.916 3.736-1.635 7.539-2.413 11.275l-.237.203c-1.359 0-2.313 0-3.635.068l-.172-.237c.379-1.531 4.554-19.392 5.301-23.636l.24-.203c1.356 0 2.307-.034 3.628-.068l.169.199c-.982 4.078-.881 3.435-2.206 9.477.138 0 1.393.036 2.309.036 3.025 0 6.454-.036 8.763-.102 1.191-5.434 1.597-7.434 1.969-9.339l.234-.203c1.363 0 2.313-.034 3.672-.068l.134.199c-2.138 9.171-4.484 19.429-5.266 23.64l-.231.203ZM213.72 184.683c-1.216.034-2.104.07-3.323.136l-.174-.241.409-1.627c-1.766 1.456-3.735 2.103-5.534 2.103-4.144 0-5.06-2.815-5.06-4.651 0-1.22.269-2.509.882-5.196l.715-3.157c.338-1.496.613-2.547.984-4.683l.238-.239c1.256 0 2.137-.07 3.394-.139l.169.205c-1.25 5.161-2.645 10.557-2.645 12.09 0 .985.27 2.919 2.919 2.919 1.529 0 3.057-.645 4.516-1.972 1.766-7.944 2.547-11.784 2.716-12.864l.268-.207c1.26-.032 2.144-.102 3.435-.171l.135.239c-1.054 3.973-3.463 14.944-3.804 17.252l-.24.203ZM243.407 184.717c-1.222 0-2.106.036-3.331.068l-.2-.237c.506-1.972.981-4.04 1.456-6.048l.612-2.614c.476-2.038.679-3.327.679-3.972 0-2.273-1.969-2.343-2.547-2.343-2.103 0-3.804 1.222-4.547 1.868-.035.676-.238 2.341-.716 4.447l-.775 3.568c-.375 1.73-.719 3.324-1.021 5.06l-.242.203c-1.253 0-2.14.036-3.393.068l-.172-.271c.544-2.075 2.616-10.428 2.616-12.529 0-2.245-1.903-2.414-2.547-2.414-1.832 0-3.5 1.256-4.109 1.802l-1.122 5.06c-.644 2.984-1.119 5.057-1.632 8.081l-.234.169c-1.29.034-2.175.034-3.428.102l-.203-.237c1.318-4.99 3.291-14.161 3.631-16.979l.2-.202a59.328 59.328 0 0 0 3.606-.578l.2.238-.44 1.729c.949-.815 3.159-2.07 5.809-2.07.778 0 2.85.236 3.697 2.476 2.822-2.24 5.503-2.476 6.419-2.476 2.481 0 4.618 1.357 4.618 4.141 0 1.158-.272 2.412-.574 3.773l-.582 2.575c-.61 2.685-.915 4.617-1.491 7.339l-.237.203ZM256.517 182.272c1.052 0 2.752-.48 3.937-1.7.849-3.466 1.528-7.027 2.45-10.931-.413 0-.922-.07-1.463-.07-3.263 0-6.556 1.021-8.253 5.058-.203.481-.747 1.836-.747 3.432 0 2.411 1.428 4.211 4.076 4.211Zm6.552 2.445h-.881c-.846 0-1.46.036-2.307.068l-.172-.207.235-1.356c-1.593 1.292-3.291 1.696-4.959 1.696-4.007 0-6.281-2.985-6.281-6.621 0-2.512 1.087-4.855 1.6-5.738 2.819-4.958 7.843-5.532 11.409-5.532 1.594 0 5.059.065 5.059.065l.169.239c-2.75 11.986-3.193 13.92-3.634 17.183l-.238.203ZM282.697 184.717a60.6 60.6 0 0 0-3.459.102l-.137-.241c.471-2.273.95-3.8 1.424-6.043l.82-3.873c.096-.505.372-1.591.372-2.512 0-2.509-2.207-2.615-2.888-2.615-2.072 0-3.7 1.227-4.484 1.802-.951 4.378-1.935 8.761-2.75 13.177l-.238.203c-1.288 0-2.172.036-3.465.102l-.166-.241c1.119-4.48 3.256-13.922 3.562-16.977l.237-.234a45.36 45.36 0 0 0 3.604-.613l.166.235-.476 1.733c2.485-1.899 4.925-2.07 5.706-2.07 1.02 0 4.926.171 4.926 4.513 0 1.122-.444 3.399-1.122 6.558l-.51 2.408c-.343 1.633-.643 2.752-.843 4.383l-.279.203ZM295.876 162.301c-1.325.172-2.241.272-3.563.48l-.203-.273c.272-1.156.475-1.969.709-3.122l.307-.239c1.328-.17 2.24-.274 3.534-.474l.269.236a85.75 85.75 0 0 0-.779 3.122l-.274.27Zm-4.854 22.382c-1.325 0-2.278.034-3.599.102l-.172-.207c1.084-3.936 3.5-15.144 3.669-16.977l.237-.234a68.83 68.83 0 0 0 3.7-.544l.172.235c-.172-.031-2.988 12.901-3.772 17.456l-.235.169ZM303.079 184.649a10.639 10.639 0 0 1-2.447.305c-3.228 0-4.04-1.661-4.04-3.362 0-1.292.712-4.279 1.696-8.391l.847-3.529h-.675c-.647 0-1.125 0-1.769.034l-.169-.239c.238-.776.407-1.389.613-2.239l.234-.17a54.05 54.05 0 0 0 2.344.034c.41-1.564.616-2.686.919-4.247l.241-.235a63.153 63.153 0 0 0 3.527-.849l.169.201c-.271.919-.44 1.599-.675 2.516l-.646 2.614c1.391 0 2.34 0 3.699-.065l.169.232c-.303.819-.474 1.432-.712 2.244l-.238.203c-1.29-.034-2.206-.034-3.496-.034l-1.835 7.675c-.169.68-.647 2.784-.647 3.464 0 1.088.785 1.461 1.665 1.461.882 0 1.698-.339 2.004-.443l.172.172c-.272.882-.478 1.492-.716 2.375l-.234.273ZM323.804 167.297c-4.076 6.589-13.616 22.579-14.907 25.465l-.271.208h-1.528c-.675 0-1.323 0-2.003.03l-.101-.238c.988-1.492 4.348-6.688 5.16-8.184-1.288-8.453-2.547-16.838-2.716-17.247l.238-.239c1.294 0 2.209-.065 3.531-.17l.275.17c.165 1.87.269 3.189.506 5.023l.988 8.016 3.296-5.841c1.285-2.273 2.576-4.584 3.797-7.031l.273-.201c.375.034.746.034 1.121.034.816 0 1.394-.034 2.172-.065l.169.27ZM114.548 13.525h21.014V89.39h-21.014zM146.591 89.39V13.525h57.788v14.708h-36.775v15.655h33.831V58.6h-33.831v16.074h36.775V89.39h-57.788ZM216.154 89.39V13.525h57.775v14.708h-36.766v15.655h33.819V58.6h-33.819v16.074h36.766V89.39h-57.775ZM285.694 89.39V13.525h57.791v14.708h-36.762v15.655h33.822V58.6h-33.822v16.074h36.762V89.39h-57.791ZM47.939 59.069c-.278 5.356-.346 10.314-.742 15.687 2.12.19 4.512.377 6.773.047l-.675-14.97-.118-.715c-1.723.068-3.352.139-5.238-.049ZM34.697 44.027c-2.611 1.309-6.452 3.287-6.03 6.869.56 1.955 2.678 3.217 4.353 4.025C42.282 59 54.577 59.14 64.355 56.094c2.414-.933 5.654-2.282 6.098-5.239-.027-2.444-2.612-3.982-4.472-4.917v-.116c.648-.257 1.393-.486 2.065-.558v-.065c-3.276-.586-6.437-1.442-9.61-2.282.611 1.392 1.052 2.86 1.561 4.307a17.318 17.318 0 0 1 2.96-.677c1.673.651 4.067 1.583 4.304 3.675.186 1.955-1.953 2.908-3.306 3.702-7.171 2.61-15.241 2.864-22.721.882-2.067-.653-5.048-1.489-5.305-4.119 1.467-3.463 5.259-4.184 8.427-5.026-1.628-1.048-3.283-1.977-4.861-3.144-1.704.094-3.261.84-4.798 1.51ZM50.543 23.13l-.928 2.981-4.656 13.335c1.165.119 2.609 0 3.755.119v.11l-.682 15.084.118.162c1.49.144 3.349.219 4.867-.04v-.238l-.607-14.632.09-.495 4.097-.07a666.684 666.684 0 0 1-5.933-16.316h-.121Zm-2.163-6.7c3.426-2.334 6.498.928 9.152 2.793 10.263 8.259 19.946 17.713 27.324 28.39.931 1.378 1.351 3.517.517 5.076-1.914 3.193-4.494 6.104-6.94 9.061v.16c-6.101 6.494-12.544 13.172-19.508 18.671-3.397 2.069-6.515 6.585-10.893 3.787-9.965-7.283-19.5-16.336-27.586-26.047-1.37-2.137-3.51-3.886-4.464-6.307-1.33-3.278 1.603-5.632 3.282-8.1C27.507 33.747 37.743 23.779 48.38 16.43Zm8.589-9.71-3.792-5.375c-.466-.285-1.046-.752-1.559-.891-1.119-.484-2.326.102-3.238.795l-6.864 8.94C30.506 23.824 17.471 36.559 3.25 46.32c-1.124.878-2.796 1.735-3.143 3.183-.373 1.303.305 2.377 1.112 3.186 11.387 7.846 22.276 17.156 31.966 27.775 1.721 1.809 3.115 3.604 4.797 5.302 2.835 3.773 6.165 7.572 8.77 11.618.816.857.957 2.258 2.235 2.675 1 .346 2.235.582 3.188 0l.949-.953C64.907 82.414 79.85 67.425 96.545 55.323c1.672-1.494 4.864-2.05 4.91-4.82-.119-1.278-.862-2.536-1.96-3.236l-.274-.043c-8.592-5.845-16.597-12.455-24.139-19.953l-8.334-8.707c-3.376-3.743-6.657-7.889-9.779-11.844Zm-9.82 7.658c3.35-2.607 7.565-.443 10.383 1.955 2.953 2.257 6.027 4.813 8.725 7.426l.491.282c7.473 6.933 14.413 14.639 20.116 22.787.924 1.418 1.74 3.024 1.224 4.906-1.901 4.753-5.764 8.544-9.142 12.691-7.309 7.869-15.018 15.48-23.648 21.553-1.746 1.233-4.101 2.374-6.192 1.395-6.353-3.326-11.71-8.773-17.27-13.737-6.448-5.98-12.921-12.94-17.809-20.222-.725-1.025-.93-2.284-.909-3.632.629-2.515 2.35-4.583 3.98-6.702 5.776-7.36 12.849-14.341 19.993-20.717.165-.164.47-.511.728-.678 3.068-2.652 6.117-5 9.33-7.307Z" style="fill:#111517;fill-rule:nonzero" transform="scale(4.16667)"/>
  <path d="M67.848 92.888h-.724v-.917h.572c.31 0 .73.032.73.425 0 .418-.214.492-.578.492Zm1.44-.41c0-.869-.574-1.143-1.557-1.143h-1.418v3.793h.811v-1.594h.386l.874 1.594h.967l-.979-1.663c.513-.043.916-.29.916-.987Zm-1.578 3.468v-.011c-1.397.011-2.524-1.077-2.524-2.706 0-1.62 1.127-2.698 2.524-2.698 1.365 0 2.528 1.078 2.528 2.698 0 1.629-1.163 2.717-2.528 2.717Zm0-6.237c-1.873 0-3.54 1.297-3.54 3.52 0 2.232 1.667 3.532 3.54 3.532 1.862 0 3.531-1.3 3.531-3.532 0-2.223-1.669-3.52-3.531-3.52Z" style="fill:#111517" transform="scale(4.16667)"/>
</svg>