<?xml version="1.0" encoding="UTF-8" standalone="no"?>
<!DOCTYPE svg PUBLIC "-//W3C//DTD SVG 1.1//EN" "http://www.w3.org/Graphics/SVG/1.1/DTD/svg11.dtd">
<svg width="100%" height="100%" viewBox="0 0 1024 1024" version="1.1" xmlns="http://www.w3.org/2000/svg" xmlns:xlink="http://www.w3.org/1999/xlink" xml:space="preserve" xmlns:serif="http://www.serif.com/" style="fill-rule:evenodd;clip-rule:evenodd;stroke-linejoin:round;stroke-miterlimit:2;">
    <g id="Layer18">
        <g transform="matrix(1.16656,0,0,1.16656,-126.774,-283.903)">
            <path d="M935.319,498.81C935.319,487.304 925.991,477.977 914.486,477.977L180.659,477.977C169.153,477.977 159.826,487.304 159.826,498.81C159.826,712.814 333.569,886.557 547.572,886.557C761.575,886.557 935.319,712.814 935.319,498.81ZM893.028,519.644L202.116,519.644C212.892,700.961 363.556,844.89 547.572,844.89C731.588,844.89 882.253,700.961 893.028,519.644Z"/>
        </g>
        <g transform="matrix(1.16656,0,0,1.16656,-85.277,-104.922)">
            <path d="M878.913,340.46C878.913,542.965 714.505,707.373 512,707.373C309.495,707.373 145.087,542.965 145.087,340.46L878.913,340.46ZM535.637,424.838C536.526,422.123 536.97,419.25 536.926,416.331C536.921,416.038 536.919,415.747 536.919,415.456C536.919,390.511 552.205,368.642 573.368,368.642C573.555,368.642 573.742,368.644 573.931,368.648C637.67,392.73 682.894,452.893 682.894,523.223C682.894,614.739 606.319,689.039 512,689.039C417.681,689.039 341.106,614.739 341.106,523.223C341.106,452.893 386.33,392.73 450.069,368.648C450.258,368.644 450.445,368.642 450.632,368.642C471.795,368.642 487.08,390.511 487.08,415.456C487.08,415.747 487.078,416.038 487.074,416.331C487.029,419.258 487.477,422.141 488.37,424.862C486.882,430.01 484.213,435.256 481.533,440.162C475.288,451.594 467.789,461.156 465.153,464.378C464.957,464.556 464.776,464.733 464.612,464.908C454.575,475.596 443.411,485.755 434.679,497.164C423.356,511.959 415.727,528.643 415.727,549.379C415.727,603.799 458.864,647.981 511.996,647.981C565.129,647.981 608.266,603.799 608.266,549.379C608.266,528.343 600.749,512.373 589.373,497.855C580.944,487.097 570.008,477.254 559.77,465.511C559.111,464.734 549.907,453.777 542.478,440.168C539.795,435.253 537.123,429.996 535.637,424.838ZM470.391,460.804C472.325,459.696 473.923,458.924 473.923,458.924C473.923,458.924 472.364,459.506 471.631,459.854L470.391,460.804Z"/>
        </g>
    </g>
</svg>
