<?xml version="1.0" encoding="UTF-8" standalone="no"?>
<!DOCTYPE svg PUBLIC "-//W3C//DTD SVG 1.1//EN" "http://www.w3.org/Graphics/SVG/1.1/DTD/svg11.dtd">
<svg width="100%" height="100%" viewBox="0 0 1024 1024" version="1.1" xmlns="http://www.w3.org/2000/svg" xmlns:xlink="http://www.w3.org/1999/xlink" xml:space="preserve" xmlns:serif="http://www.serif.com/" style="fill-rule:evenodd;clip-rule:evenodd;stroke-linejoin:round;stroke-miterlimit:2;">
    <g id="Layer20">
        <path d="M964.328,297.987C964.328,284.565 953.447,273.684 940.025,273.684L83.975,273.684C70.553,273.684 59.672,284.565 59.672,297.987C59.672,547.634 262.353,750.316 512,750.316C761.647,750.316 964.328,547.634 964.328,297.987ZM547.554,408.558C544.424,402.825 541.129,384.156 541.077,380.752C541.072,380.409 541.07,380.07 541.07,379.731C541.07,350.631 558.902,325.12 583.589,325.12C583.808,325.12 584.026,325.122 584.246,325.126C636.017,326.217 711.358,423.402 711.358,505.447C711.358,612.206 622.029,698.88 512,698.88C401.971,698.88 312.642,612.206 312.642,505.447C312.642,423.402 373.102,326.531 439.754,325.126C439.974,325.122 440.192,325.12 440.411,325.12C465.098,325.12 482.93,350.631 482.93,379.731C482.93,380.07 482.928,380.409 482.922,380.752C482.87,384.166 479.585,402.828 476.459,408.551C469.173,421.888 460.425,433.042 457.351,436.801C457.122,437.009 456.91,437.215 456.719,437.419C445.01,449.887 431.987,461.738 421.8,475.048C408.591,492.307 399.692,511.769 399.692,535.959C399.692,599.443 450.013,650.984 511.996,650.984C573.978,650.984 624.299,599.443 624.299,535.959C624.299,511.42 615.53,492.789 602.26,475.853C592.427,463.304 579.669,451.821 567.726,438.123C566.957,437.217 556.22,424.434 547.554,408.558Z" style="fill:rgb(141,53,37);"/>
    </g>
</svg>
