<?xml version="1.0" encoding="UTF-8" standalone="no"?>
<!DOCTYPE svg PUBLIC "-//W3C//DTD SVG 1.1//EN" "http://www.w3.org/Graphics/SVG/1.1/DTD/svg11.dtd">
<svg width="100%" height="100%" viewBox="0 0 1024 1024" version="1.1" xmlns="http://www.w3.org/2000/svg" xmlns:xlink="http://www.w3.org/1999/xlink" xml:space="preserve" xmlns:serif="http://www.serif.com/" style="fill-rule:evenodd;clip-rule:evenodd;stroke-linejoin:round;stroke-miterlimit:2;">
    <g transform="matrix(2.17067,0,0,2.17067,-599.385,-448.545)">
        <circle cx="512" cy="442.51" r="209.185" style="fill:white;"/>
    </g>
    <g transform="matrix(2.17067,0,0,2.17067,-599.385,-448.545)">
        <path d="M512,233.325C627.453,233.325 721.185,327.058 721.185,442.51C721.185,557.963 627.453,651.696 512,651.696C396.547,651.696 302.815,557.963 302.815,442.51C302.815,327.058 396.547,233.325 512,233.325ZM657.231,392.434C662.65,408.131 665.593,424.98 665.593,442.51C665.593,527.281 596.77,596.103 512,596.103C427.23,596.103 358.407,527.281 358.407,442.51C358.407,386.799 388.132,337.976 432.582,311.046C439.774,308.077 447.19,306.388 454.707,306.229C454.882,306.225 455.056,306.224 455.228,306.224C474.806,306.224 488.946,326.455 488.946,349.532C488.946,349.801 488.945,350.071 488.941,350.341C488.899,353.049 486.294,367.849 483.814,372.387C478.037,382.963 471.1,391.809 468.661,394.79C468.48,394.954 468.313,395.118 468.161,395.28C458.876,405.167 448.548,414.566 440.47,425.121C429.995,438.807 422.937,454.242 422.937,473.425C422.937,523.769 462.843,564.642 511.996,564.642C561.15,564.642 601.056,523.769 601.056,473.425C601.056,453.964 594.101,439.19 583.578,425.76C575.78,415.807 565.664,406.701 556.192,395.838C555.583,395.119 547.068,384.983 540.195,372.393C537.713,367.846 535.1,353.041 535.059,350.341C535.054,350.072 535.052,349.802 535.052,349.532C535.052,326.455 549.193,306.224 568.772,306.224C568.944,306.224 569.117,306.225 569.293,306.229C598.59,306.846 637.405,346.27 657.231,392.434ZM473.507,391.484C475.296,390.459 476.774,389.744 476.774,389.744C476.774,389.744 475.332,390.283 474.654,390.604L473.507,391.484Z" style="fill:rgb(141,53,37);"/>
    </g>
</svg>
