<svg xmlns="http://www.w3.org/2000/svg" xml:space="preserve" fill-rule="evenodd" stroke-linejoin="round" stroke-miterlimit="2" clip-rule="evenodd" viewBox="0 0 1024 1024">
  <circle cx="512" cy="442.51" r="209.185" fill="#8d3525" transform="translate(-599.385 -448.545) scale(2.17067)"/>
  <path fill="hsl(20, 27%, 87%)" d="M827.25 403.301C839.011 437.374 845.4 473.947 845.4 512c0 184.009-149.391 333.4-333.4 333.4S178.6 696.009 178.6 512c0-120.93 64.524-226.91 161.01-285.367 15.61-6.444 31.71-10.11 48.025-10.454.38-.009.757-.012 1.131-.012 42.497 0 73.192 43.916 73.192 94.006 0 .586-.004 1.171-.013 1.758-.089 5.878-5.744 38.003-11.127 47.854-12.54 22.957-27.599 42.159-32.892 48.63-.394.356-.757.712-1.086 1.063-20.156 21.463-42.573 41.865-60.109 64.775-22.738 29.709-38.058 63.212-38.058 104.853 0 109.28 86.623 198.002 193.318 198.002 106.697 0 193.321-88.722 193.321-198.002 0-42.243-15.097-74.313-37.94-103.466-16.926-21.603-38.886-41.37-59.446-64.95-1.322-1.561-19.805-23.564-34.724-50.893-5.388-9.868-11.06-42.005-11.149-47.866-.01-.585-.014-1.171-.014-1.756 0-50.092 30.696-94.008 73.193-94.008.376 0 .751.003 1.131.012 63.596 1.339 147.851 86.914 190.887 187.122Zm-398.806-2.063c3.883-2.226 7.092-3.777 7.092-3.777s-3.13 1.171-4.601 1.868l-2.491 1.909Z"/>
</svg>
