<svg xmlns="http://www.w3.org/2000/svg" xml:space="preserve" fill-rule="evenodd" stroke-linejoin="round" stroke-miterlimit="2" clip-rule="evenodd" viewBox="0 0 3742 3742">
  <path fill="#000" d="M3741.318 1870.658c0 1033.133-837.525 1870.657-1870.658 1870.657C837.519 3741.315.002 2903.791.002 1870.658.002 837.525 837.52 0 1870.66 0c1033.133 0 1870.658 837.525 1870.658 1870.658Zm-1870.65 1586.424c874.758 0 1586.408-711.675 1586.408-1586.433S2745.426 284.233 1870.668 284.233c-874.758 0-1586.424 711.658-1586.424 1586.416 0 874.758 711.666 1586.433 1586.424 1586.433Zm0-3105.857c837.808 0 1519.416 681.608 1519.416 1519.424 0 837.817-681.608 1519.433-1519.416 1519.433-837.824 0-1519.432-681.616-1519.432-1519.433 0-837.816 681.608-1519.424 1519.432-1519.424Zm947.05 977.624h-203.933c-97.834 161.392-239.825 361.034-397.908 529.617-44.942-59.867-102.35-103.942-175.817-123.55-84.683-22.6-171.85-8.217-259.117 42.717-46.616 27.208-91.666 64.416-134.866 108.608l382.958-834.675-149.883.05-10.717 18.617c-.817 1.433-84.375 144.342-248.492 235.825-11.208 6.25-22.041 11.783-32.7 17.016 32.242-47.325 48.009-105.35 40.059-165.616-17.609-133.492-144.109-226.908-282.533-208.642-138.425 18.267-236.367 141.292-218.759 274.784 7.134 54.083 32.35 101.383 68.784 137.541a228.6 228.6 0 0 0 7.083 7.017c.883.808 1.733 1.633 2.633 2.433 53.925 49.683 199.567 140.8 451.583.342 120.409-67.109 200.609-157.342 242.442-213.05l-435.575 949.391c-58.491-130.275-26.683-354.608 8.392-522.316h-180.133c-40.75 207.191-68.592 475.808 36.858 643.75 13.333 21.233 28.475 40.166 45.092 57.158-102.284 196.208-177.6 395.783-214.884 508.916h184.892c40.858-118.216 104.942-274.033 182.383-422.633 5.042 1.3 9.9 2.842 15.067 3.95 33.308 7.142 67.2 10.708 101.725 10.708 158.691 0 329.791-75.625 511.241-225.533 14.567 65.442 24.692 142.033 29.809 228.575 9.1 154.033 1.091 305.308-7.55 404.933h176.841c17.183-192.691 29.333-525-52.367-768.558a2448.55 2448.55 0 0 0 46.1-47.991c213.584-228.434 386.592-497.95 471.292-649.384Zm-1199.175 880.483c78.292-124.291 164.509-228.683 251.317-279.35 45.792-26.741 86.675-34.8 124.683-24.633 35.342 9.434 66.534 36.634 93.084 79.034-156.984 140.424-321.567 235.55-469.084 224.95Z"/>
</svg>