<!-- <svg xmlns="http://www.w3.org/2000/svg" width="640" height="360" viewBox="0 0 6400 3600" preserveAspectRatio="xMidYMid meet"> -->
<svg xmlns="http://www.w3.org/2000/svg" width="129" height="129" viewBox="0 0 6400 3600" preserveAspectRatio="xMidYMid meet">
<rect fill="none" height="129" width="129"/>
<path d="M1279 2208 c-23 -89 -49 -243 -60 -360 -18 -202 11 -385 79 -482 66 -96 170 -118 287 -62 66 32 201 161 245 234 14 23 28 42 31 42 3 0 22 -24 42 -53 53 -77 173 -190 235 -221 167 -84 296 -6 349 211 34 143 14 445 -45 663 l-17 65 -54 3 -54 3 6 -28 c4 -15 17 -77 31 -138 88 -388 42 -705 -102 -705 -63 0 -196 111 -285 240 l-45 64 48 96 c62 125 170 417 170 462 0 4 -24 8 -54 8 l-54 0 -32 -100 c-35 -114 -128 -340 -140 -340 -13 0 -91 181 -133 312 l-42 128 -52 0 c-30 0 -53 -5 -53 -10 0 -46 131 -389 189 -497 l30 -55 -41 -62 c-93 -138 -224 -246 -297 -246 -39 0 -84 46 -105 107 -56 163 -44 379 41 741 5 21 2 22 -50 22 l-56 0 -12 -42z"></path>
</svg>