<?xml version="1.0" encoding="UTF-8" standalone="no"?>
<!DOCTYPE svg PUBLIC "-//W3C//DTD SVG 1.1//EN" "http://www.w3.org/Graphics/SVG/1.1/DTD/svg11.dtd">
<svg width="100%" height="100%" viewBox="0 0 2187 1948" version="1.1" xmlns="http://www.w3.org/2000/svg" xmlns:xlink="http://www.w3.org/1999/xlink" xml:space="preserve" xmlns:serif="http://www.serif.com/" style="fill-rule:evenodd;clip-rule:evenodd;stroke-linejoin:round;stroke-miterlimit:2;">
    <path d="M1287.5,205.5C1300.8,204.279 1313.46,206.446 1325.5,212C1334.59,218.42 1338.59,227.254 1337.5,238.5L1308.5,238.5C1306.48,225.818 1299.48,221.985 1287.5,227C1280.49,233.982 1281.49,239.649 1290.5,244C1301.54,246.844 1312.54,249.844 1323.5,253C1337.51,258.846 1343.34,269.346 1341,284.5C1338.49,296.683 1331.32,304.85 1319.5,309C1302.72,313.889 1286.06,313.556 1269.5,308C1256.66,301.493 1250.66,290.993 1251.5,276.5L1280.5,276.5C1280.46,287.131 1285.8,292.465 1296.5,292.5C1308.27,292.921 1312.77,287.588 1310,276.5C1308.43,274.964 1306.56,273.772 1304.5,273L1274.5,265C1254.44,257.523 1248.27,243.689 1256,223.5C1263.81,212.68 1274.31,206.68 1287.5,205.5Z" style="fill-opacity:0.96;"/>
    <path d="M757.5,208.5L830.5,208.5L830.5,228.5L786.5,228.5L786.5,251.5L827.5,251.5L827.5,271.5L786.5,271.5L786.5,310.5L757.5,310.5L757.5,208.5Z" style="fill-opacity:0.97;"/>
    <rect x="841.5" y="208.5" width="30" height="102" style="fill-opacity:0.97;"/>
    <path d="M889.5,208.5C902.85,208.167 916.183,208.501 929.5,209.5L962,280.5C962.131,256.502 961.964,232.502 961.5,208.5L987.5,208.5L987.5,310.5C974.491,310.832 961.474,310.499 948.5,309.5L915,234.5C914.5,259.831 914.333,285.164 914.5,310.5L889.5,310.5L889.5,208.5Z" style="fill-opacity:0.97;"/>
    <path d="M1037.5,208.5L1073.5,208.5L1112.5,310.5L1079.5,310.5L1073.5,289.5C1060.16,289.167 1046.81,289.501 1033.5,290.5C1031.27,297.036 1028.93,303.537 1026.5,310C1016.82,310.832 1007.15,310.665 997.5,309.5C1010.84,275.805 1024.17,242.138 1037.5,208.5ZM1053.5,230.5C1049.37,243.566 1045.03,256.567 1040.5,269.5C1049.12,270.665 1057.84,270.832 1066.5,270C1062.41,256.755 1058.08,243.586 1053.5,230.5Z" style="fill-opacity:0.96;"/>
    <path d="M1122.5,208.5L1152.5,208.5L1152.5,289.5L1197.5,289.5L1197.5,310.5L1122.5,310.5L1122.5,208.5Z" style="fill-opacity:0.95;"/>
    <rect x="1207.5" y="208.5" width="29" height="102" style="fill-opacity:0.99;"/>
    <path d="M1345.5,208.5L1436.5,208.5L1436.5,229.5L1405.5,229.5L1405.5,310.5L1375.5,310.5L1375.5,229.5L1345.5,229.5L1345.5,208.5Z" style="fill-opacity:0.95;"/>
    <path d="M-0.5,571.5L-0.5,533.5C0.643,505.292 6.477,477.958 17,451.5C38.71,408.576 71.876,396.409 116.5,415C135.064,424.707 151.564,437.207 166,452.5L189,479.5C195.649,488.967 202.484,498.302 209.5,507.5C227.012,480.807 247.678,456.641 271.5,435C288.18,420.328 307.513,410.994 329.5,407C359.5,404.748 382,416.582 397,442.5C409.46,467.339 416.46,493.672 418,521.5C420.635,568.244 417.302,614.578 408,660.5C403.87,681.656 399.034,702.667 393.5,723.5C379.831,723.667 366.161,723.5 352.5,723C371.262,662.261 380.428,600.095 380,536.5C372.072,428.68 333.405,416.347 264,499.5C252.324,514.17 241.793,529.716 232.5,546C262.647,602.464 285.981,661.631 302.5,723.5C288.992,723.825 275.476,723.491 262,722.5C248.642,675.749 230.975,630.749 209,587.5C187.63,630.897 170.064,676.067 156.5,722.5C143.192,723.499 129.842,723.833 116.5,723.5C132.372,661.551 155.705,602.551 186.5,546.5C170.133,517.953 150.133,492.119 126.5,469C116.042,459.223 104.042,451.889 90.5,447C75.217,442.893 63.717,447.726 56,461.5C45.127,483.526 39.46,506.859 39,531.5C37.688,577.362 42.022,622.695 52,667.5C56.186,686.241 60.686,704.91 65.5,723.5C51.753,724.138 38.253,723.471 25,721.5C11.244,672.24 2.744,622.24 -0.5,571.5Z" style="fill-opacity:0.98;"/>
    <path d="M487.5,423.5L603.5,423.5C617.015,484.239 630.849,544.906 645,605.5C660.157,545.206 675.157,484.872 690,424.5C727.427,423.504 764.927,423.17 802.5,423.5L802.5,723.5L727.5,723.5C727.667,653.833 727.5,584.166 727,514.5L674,722.5C663.847,723.163 653.675,723.496 643.5,723.5C633.105,723.487 622.939,722.821 613,721.5L563,513.5C562.5,583.499 562.333,653.499 562.5,723.5L487.5,723.5L487.5,423.5Z" style="fill-opacity:0.98;"/>
    <rect x="839.5" y="423.5" width="78" height="300" style="fill-opacity:0.99;"/>
    <path d="M955.5,423.5C997.835,423.333 1040.17,423.5 1082.5,424C1127.2,425.392 1156.36,447.226 1170,489.5C1181.37,541.28 1182.37,593.28 1173,645.5C1162.46,695.377 1131.62,721.21 1080.5,723C1038.83,723.5 997.168,723.667 955.5,723.5L955.5,423.5ZM1031.5,486.5C1045.6,485.936 1059.6,486.77 1073.5,489C1089.65,496.172 1098.48,508.672 1100,526.5C1103.33,557.745 1103.33,589.255 1100,620.5C1097,645.842 1082.83,659.009 1057.5,660C1048.84,660.5 1040.17,660.666 1031.5,660.5L1031.5,486.5Z" style="fill-opacity:0.99;"/>
    <rect x="1208.5" y="423.5" width="79" height="300" style="fill-opacity:0.98;"/>
    <path d="M1534.5,423.5L1705.5,423.5L1705.5,446.5C1673.5,446.333 1641.5,446.5 1609.5,447L1711.5,515L1608.5,516C1643,538.415 1677.33,561.082 1711.5,584L1608.5,585C1642.83,607.833 1677.17,630.667 1711.5,653.5C1677.5,654.333 1643.5,654.833 1609.5,655L1711.5,723C1653.83,723.5 1596.17,723.667 1538.5,723.5L1538.5,700.5C1571.17,700.667 1603.84,700.5 1636.5,700C1602.34,677.751 1568.33,655.25 1534.5,632.5C1568.5,631.667 1602.5,631.167 1636.5,631L1534.5,563L1637.5,562C1603,539.585 1568.67,516.918 1534.5,494L1637.5,493C1604.17,471 1570.83,449 1537.5,427C1535.94,426.241 1534.94,425.074 1534.5,423.5Z" style="fill-opacity:0.96;"/>
    <path d="M1768.5,423.5L1939.5,423.5L1939.5,446.5C1907.5,446.333 1875.5,446.5 1843.5,447L1945.5,515L1842.5,516C1877,538.415 1911.33,561.082 1945.5,584L1842.5,585C1876.83,607.833 1911.17,630.667 1945.5,653.5C1911.5,654.333 1877.5,654.833 1843.5,655L1945.5,723C1887.5,723.5 1829.5,723.667 1771.5,723.5L1771.5,700.5C1804.5,700.667 1837.5,700.5 1870.5,700C1836.34,677.751 1802.33,655.25 1768.5,632.5C1802.5,631.667 1836.5,631.167 1870.5,631L1768.5,563L1870.5,562L1768.5,494L1871.5,493C1838.17,471 1804.83,449 1771.5,427C1769.94,426.241 1768.94,425.074 1768.5,423.5Z" style="fill-opacity:0.95;"/>
    <path d="M2001.5,424.5C2058.33,423.501 2115.33,423.168 2172.5,423.5L2172.5,446.5C2140.5,446.333 2108.5,446.5 2076.5,447C2110.66,469.249 2144.67,491.75 2178.5,514.5C2144.5,515.333 2110.5,515.833 2076.5,516L2178.5,584L2075.5,585C2110.17,607.322 2144.51,630.158 2178.5,653.5C2144.5,654.333 2110.5,654.833 2076.5,655C2110.66,677.249 2144.67,699.75 2178.5,722.5C2120.84,723.5 2063.17,723.833 2005.5,723.5L2005.5,700.5C2038.17,700.667 2070.84,700.5 2103.5,700L2001.5,632L2104.5,631C2070,608.585 2035.67,585.918 2001.5,563L2104.5,562C2070.33,539.082 2036,516.415 2001.5,494L2105.5,493C2070.71,470.357 2036.04,447.523 2001.5,424.5Z" style="fill-opacity:0.96;"/>
    <path d="M1358.5,438.5C1371.21,438.126 1383.88,438.626 1396.5,440C1405.25,444.545 1408.41,451.712 1406,461.5C1404.91,465.186 1402.74,468.019 1399.5,470C1401.36,471.512 1402.88,473.383 1404,475.5C1404.84,483.317 1406,490.984 1407.5,498.5C1402.57,498.803 1397.74,498.469 1393,497.5C1391.93,491.552 1391.26,485.538 1391,479.5C1390.63,478.593 1390.13,477.749 1389.5,477C1383.62,475.59 1377.62,475.09 1371.5,475.5L1371.5,498.5L1358.5,498.5L1358.5,438.5ZM1371.5,450.5L1371.5,464.5C1377.51,464.666 1383.51,464.499 1389.5,464C1390.41,463.633 1391.25,463.127 1392,462.5C1393.28,460.122 1393.7,457.964 1393.26,456.025C1392.82,454.143 1391.57,452.468 1389.5,451C1383.51,450.501 1377.51,450.334 1371.5,450.5Z" style="fill-opacity:0.92;"/>
    <rect x="24.5" y="787.5" width="85" height="295" style="fill-opacity:0.99;"/>
    <rect x="1578.5" y="788.5" width="79" height="56" style="fill-opacity:0.97;"/>
    <path d="M1495.5,817.5L1499.5,817.5L1499.5,878.5L1547.5,878.5L1547.5,928.5L1498.5,928.5C1498.33,957.169 1498.5,985.835 1499,1014.5C1499.35,1024.18 1504.18,1030.35 1513.5,1033C1524.8,1034.73 1536.14,1034.9 1547.5,1033.5L1547.5,1082.5C1521.29,1085.77 1494.81,1086.27 1468.5,1084C1442.53,1081.36 1427.69,1067.19 1424,1041.5C1423.5,1003.83 1423.33,966.168 1423.5,928.5L1384.5,928.5L1384.5,878.5L1424.5,878.5C1424.18,867.585 1424.51,856.752 1425.5,846C1448.96,836.806 1472.29,827.305 1495.5,817.5Z" style="fill-opacity:0.99;"/>
    <path d="M772.5,870.5C803.099,867.892 832.099,873.392 859.5,887C887.568,904.281 903.068,929.447 906,962.5C909.216,992.764 902.883,1020.76 887,1046.5C866.611,1072.28 839.778,1085.78 806.5,1087C779.438,1089.24 753.105,1085.9 727.5,1077C692.664,1061.47 673.164,1034.64 669,996.5C664.892,965.69 671.226,937.356 688,911.5C702.176,893.678 720.343,881.845 742.5,876C752.395,873.633 762.409,871.798 772.5,870.5ZM787.5,914.5C804.162,915.419 815.329,923.753 821,939.5C827.089,961.92 828.089,984.587 824,1007.5C817.382,1039.22 798.882,1049.72 768.5,1039C757.478,1029.46 751.311,1017.29 750,1002.5C748,987.167 748,971.833 750,956.5C751.186,942.296 757.019,930.463 767.5,921C773.797,917.268 780.464,915.101 787.5,914.5Z" style="fill-opacity:0.99;"/>
    <path d="M1246.5,870.5C1274.35,867.856 1301.35,871.356 1327.5,881C1348.79,891.049 1360.62,907.882 1363,931.5C1363.33,970.5 1363.67,1009.5 1364,1048.5C1364.26,1059.87 1365.76,1071.04 1368.5,1082C1343.5,1082.5 1318.5,1082.67 1293.5,1082.5C1292.2,1073.55 1291.37,1064.55 1291,1055.5C1280.07,1071.72 1264.91,1081.56 1245.5,1085C1224.59,1088.49 1204.25,1086.49 1184.5,1079C1162.09,1067.04 1151.43,1048.21 1152.5,1022.5C1151.93,998.142 1161.93,979.642 1182.5,967C1204.21,956.256 1227.21,950.59 1251.5,950C1264.83,949.5 1278.16,949.333 1291.5,949.5C1292.15,939.92 1290.99,930.586 1288,921.5C1281.95,910.804 1272.78,906.638 1260.5,909C1251.6,910.895 1245.44,916.062 1242,924.5C1240.73,929.418 1239.9,934.437 1239.5,939.5L1165.5,939.5C1164.7,915.257 1174.7,897.09 1195.5,885C1211.77,877.186 1228.77,872.353 1246.5,870.5ZM1267.5,986.5L1291.5,986.5C1292.6,1001.33 1289.76,1015.33 1283,1028.5C1272.37,1042.04 1258.87,1045.87 1242.5,1040C1228.51,1030.2 1225.01,1017.37 1232,1001.5C1234.84,998.323 1238.03,995.472 1241.5,993C1250,989.607 1258.66,987.44 1267.5,986.5ZM1798.5,870.5C1828.27,868.127 1856.6,873.294 1883.5,886C1913.65,904.204 1929.82,931.037 1932,966.5C1934.58,995.861 1927.91,1022.86 1912,1047.5C1891.64,1072.64 1865.14,1085.81 1832.5,1087C1805.42,1089.24 1779.09,1085.9 1753.5,1077C1715.67,1059.89 1695.83,1030.39 1694,988.5C1692.64,917.033 1727.47,877.7 1798.5,870.5ZM1813.5,914.5C1826.46,914.892 1836.29,920.559 1843,931.5C1849.93,946.717 1853.09,962.717 1852.5,979.5C1852.98,995.94 1849.82,1011.61 1843,1026.5C1830.48,1044.01 1814.31,1048.17 1794.5,1039C1785.24,1031.33 1779.41,1021.5 1777,1009.5C1773.67,989.5 1773.67,969.5 1777,949.5C1779.39,936.529 1785.89,926.362 1796.5,919C1802.03,916.461 1807.7,914.961 1813.5,914.5Z" style="fill-opacity:0.99;"/>
    <path d="M290.5,872.5C345.914,870.414 373.08,897.081 372,952.5C372.5,995.832 372.667,1039.17 372.5,1082.5L294.5,1082.5C294.969,1037.13 294.469,991.8 293,946.5C288.18,927.496 276.014,919.662 256.5,923C243.369,926.131 235.202,934.298 232,947.5C230.526,992.484 230.026,1037.49 230.5,1082.5L152.5,1082.5C152.667,1022.17 152.5,961.832 152,901.5C151.738,893.487 151.238,885.483 150.5,877.5L228.5,877.5C228.145,886.86 228.647,896.232 230,905.5C244.528,884.153 264.695,873.153 290.5,872.5Z" style="fill-opacity:0.98;"/>
    <path d="M553.5,872.5C572.234,871.62 589.901,875.454 606.5,884C623.872,896.566 633.039,913.733 634,935.5C634.5,984.499 634.667,1033.5 634.5,1082.5L557.5,1082.5C557.958,1037.16 557.458,991.818 556,946.5C552.587,930.586 542.754,922.586 526.5,922.5C507.713,923.115 496.879,932.782 494,951.5C492.544,995.15 492.044,1038.83 492.5,1082.5L415.5,1082.5C415.667,1023.5 415.5,964.499 415,905.5C414.651,896.159 414.151,886.825 413.5,877.5L491.5,877.5C491.334,887.172 491.5,896.839 492,906.5C506.603,884.613 527.103,873.279 553.5,872.5Z" style="fill-opacity:0.99;"/>
    <path d="M2186.5,943.5L2186.5,1082.5L2108.5,1082.5C2108.67,1038.5 2108.5,994.499 2108,950.5C2103.67,927.232 2089.83,918.399 2066.5,924C2055.36,928.478 2048.53,936.644 2046,948.5C2044.53,993.128 2044.03,1037.79 2044.5,1082.5L1967.5,1082.5C1968,1014.15 1967.33,945.815 1965.5,877.5L2042.5,877.5C2042.62,887.183 2043.12,896.85 2044,906.5C2054.18,889.487 2069.02,878.987 2088.5,875C2109.64,871.039 2130.31,872.706 2150.5,880C2166.77,887.611 2177.27,900.111 2182,917.5C2184.12,926.204 2185.62,934.871 2186.5,943.5Z" style="fill-opacity:0.99;"/>
    <path d="M910.5,878.5C938.488,877.5 966.496,877.167 994.5,877.5C1007.36,924.236 1020.52,970.902 1034,1017.5C1048.73,971.292 1063.07,924.957 1077,878.5C1101.48,877.173 1126.02,877.173 1150.5,878.5C1124.64,946.092 1098.97,1013.76 1073.5,1081.5C1045.18,1082.83 1016.82,1082.83 988.5,1081.5C962.509,1013.83 936.509,946.163 910.5,878.5Z" style="fill-opacity:0.99;"/>
    <rect x="1579.5" y="877.5" width="77" height="205" style="fill-opacity:0.99;"/>
    <path d="M751.5,1166.5C785.223,1165.84 818.723,1166.51 852,1168.5C889.89,1265.28 928.056,1361.95 966.5,1458.5C935.507,1459.5 904.507,1459.83 873.5,1459.5L854.5,1401.5L737.5,1401.5C731.367,1420.57 725.034,1439.57 718.5,1458.5C691.175,1459.5 663.841,1459.83 636.5,1459.5C674.634,1361.77 712.967,1264.1 751.5,1166.5ZM797.5,1225.5C810.433,1265.65 822.768,1305.99 834.5,1346.5C808.825,1346.83 783.158,1346.5 757.5,1345.5C770.633,1305.43 783.967,1265.43 797.5,1225.5ZM1882.5,1166.5L1959.5,1166.5C1959.33,1253.83 1959.5,1341.17 1960,1428.5C1960.48,1438.84 1960.98,1449.17 1961.5,1459.5L1888.5,1459.5C1888.1,1450.17 1887.6,1440.83 1887,1431.5C1875.76,1448.87 1859.93,1459.37 1839.5,1463C1779.84,1471.95 1743.67,1447.11 1731,1388.5C1726.14,1359.97 1728.14,1331.97 1737,1304.5C1756.87,1264.97 1789.04,1247.47 1833.5,1252C1853.27,1254.46 1869.43,1263.3 1882,1278.5C1882.5,1241.17 1882.67,1203.83 1882.5,1166.5ZM1843.5,1296.5C1855.9,1296.62 1865.73,1301.62 1873,1311.5C1880.46,1325.89 1883.96,1341.22 1883.5,1357.5C1883.96,1373.77 1880.46,1389.1 1873,1403.5C1861.19,1419.39 1846.36,1422.89 1828.5,1414C1819.23,1406.3 1813.39,1396.46 1811,1384.5C1806.13,1360.85 1808.13,1337.85 1817,1315.5C1822.72,1304.59 1831.55,1298.26 1843.5,1296.5Z" style="fill-opacity:0.99;"/>
    <path d="M33.5,1184.5C51.69,1183.68 66.524,1190.34 78,1204.5C85.077,1214.91 92.932,1224.78 101.5,1234C109.944,1239.51 118.611,1239.84 127.5,1235C135.803,1227.04 142.97,1218.2 149,1208.5C167.123,1184.28 189.956,1178.44 217.5,1191C222.923,1194.42 227.756,1198.59 232,1203.5C239.667,1214.65 248.193,1225.18 257.5,1235C270.938,1241.35 282.104,1238.52 291,1226.5C298.177,1215 306.741,1204.41 316.5,1195C334.317,1182.58 352.983,1181.25 372.5,1191C377.588,1194.08 382.088,1197.92 386,1202.5C393.137,1212.61 400.642,1222.44 408.5,1232C421.955,1241.74 434.122,1240.24 445,1227.5C453.354,1214.14 463.521,1202.31 475.5,1192C496.616,1180.67 516.616,1182.34 535.5,1197C545.204,1208.37 554.542,1220.04 563.5,1232C565.899,1234.06 568.596,1235.75 571.5,1237C577.007,1237.76 582.34,1239.09 587.5,1241C593.043,1246.51 593.876,1252.68 590,1259.5C585.377,1264.02 579.877,1265.52 573.5,1264C560.928,1262.42 550.428,1256.92 542,1247.5C534.192,1236.73 526.021,1226.22 517.5,1216C502.792,1206.78 490.292,1209.28 480,1223.5C471.948,1236.88 461.782,1248.38 449.5,1258C423.369,1270 401.202,1264.84 383,1242.5C376.77,1233.22 369.922,1224.36 362.5,1216C348.474,1207.02 336.307,1209.19 326,1222.5C320.667,1229.83 315.333,1237.17 310,1244.5C289.115,1267.29 265.615,1270.45 239.5,1254C229.153,1244.33 220.319,1233.49 213,1221.5C199.333,1206.83 185.667,1206.83 172,1221.5C163.646,1234.86 153.479,1246.69 141.5,1257C116.096,1269.91 93.93,1265.74 75,1244.5C67.923,1234.09 60.068,1224.23 51.5,1215C49.126,1213.15 46.406,1211.79 43.5,1211C36.17,1211.57 30.337,1209.07 26,1203.5C23.127,1194.94 25.627,1188.61 33.5,1184.5Z" style="fill-opacity:0.96;"/>
    <path d="M1417.5,1248.5C1441.81,1247.06 1465.48,1250.23 1488.5,1258C1514.2,1268.88 1527.37,1288.38 1528,1316.5C1528.33,1357.17 1528.67,1397.83 1529,1438.5C1529.85,1445.24 1531.01,1451.9 1532.5,1458.5C1507.85,1459.83 1483.15,1459.83 1458.5,1458.5C1456.97,1449.93 1456.13,1441.26 1456,1432.5C1444.24,1450.14 1427.74,1460.31 1406.5,1463C1388.47,1465.3 1370.8,1463.64 1353.5,1458C1329.27,1446.74 1317.27,1427.57 1317.5,1400.5C1318.49,1368.01 1334.49,1346.84 1365.5,1337C1382.42,1331.68 1399.76,1328.68 1417.5,1328C1430.5,1327.5 1443.5,1327.33 1456.5,1327.5C1457.12,1316.7 1455.29,1306.36 1451,1296.5C1447.13,1290.65 1441.63,1287.48 1434.5,1287C1414.39,1286.94 1404.39,1297.11 1404.5,1317.5L1331.5,1317.5C1331.16,1288.01 1344.83,1268.17 1372.5,1258C1387.27,1253.08 1402.27,1249.91 1417.5,1248.5ZM1431.5,1364.5L1456.5,1364.5C1457.31,1378.96 1454.47,1392.63 1448,1405.5C1437.95,1419.29 1424.78,1423.46 1408.5,1418C1396.88,1411.59 1392.04,1401.76 1394,1388.5C1395.1,1381.42 1398.6,1375.92 1404.5,1372C1413.16,1367.79 1422.16,1365.29 1431.5,1364.5Z" style="fill-opacity:0.98;"/>
    <path d="M2186.5,1389.5L2186.5,1403.5C2182.09,1433.42 2165.09,1452.25 2135.5,1460C2113.12,1465.16 2090.45,1466.83 2067.5,1465C2046.37,1464.55 2027.04,1458.55 2009.5,1447C1993.78,1432.71 1986.44,1414.88 1987.5,1393.5L2064.5,1393.5C2064.73,1418.89 2077.06,1428.06 2101.5,1421C2112.69,1412.61 2114.36,1402.61 2106.5,1391C2103.65,1389.07 2100.64,1387.4 2097.5,1386C2077.95,1379.93 2058.28,1374.26 2038.5,1369C2000.03,1357.56 1985.86,1332.39 1996,1293.5C2004.14,1274.99 2017.97,1262.82 2037.5,1257C2060.78,1250.86 2084.45,1248.86 2108.5,1251C2132.56,1251.95 2152.73,1261.12 2169,1278.5C2177.34,1290.85 2181.84,1304.51 2182.5,1319.5L2109.5,1319.5C2110.46,1294.33 2098.79,1284.83 2074.5,1291C2062.44,1297.74 2060.44,1306.74 2068.5,1318C2071.34,1319.92 2074.34,1321.59 2077.5,1323C2100.17,1329.33 2122.83,1335.67 2145.5,1342C2169.49,1349.15 2183.16,1364.98 2186.5,1389.5Z" style="fill-opacity:0.98;"/>
    <path d="M1694.5,1254.5L1716.5,1254.5L1716.5,1320.5C1701.86,1318.3 1687.53,1319.47 1673.5,1324C1658.2,1331.73 1649.7,1344.23 1648,1361.5C1647.5,1394.16 1647.33,1426.83 1647.5,1459.5L1570.5,1459.5C1570.67,1402.17 1570.5,1344.83 1570,1287.5C1569.48,1276.83 1568.98,1266.17 1568.5,1255.5L1643.5,1255.5C1643.96,1268.5 1644.46,1281.5 1645,1294.5C1654.56,1272.43 1671.06,1259.1 1694.5,1254.5Z" style="fill-opacity:0.98;"/>
    <path d="M942.5,1255.5C968.741,1255.17 994.908,1255.51 1021,1256.5C1031.39,1302.96 1042.22,1349.29 1053.5,1395.5C1065.79,1348.99 1077.46,1302.32 1088.5,1255.5L1175.5,1255.5C1186.52,1302.6 1198.02,1349.6 1210,1396.5C1221.99,1349.52 1233.83,1302.52 1245.5,1255.5L1314.5,1255.5C1293.87,1323.56 1272.54,1391.39 1250.5,1459C1221.83,1459.83 1193.16,1459.67 1164.5,1458.5C1152.33,1412.51 1140.17,1366.51 1128,1320.5C1114.93,1366.53 1101.77,1412.53 1088.5,1458.5C1060.17,1459.5 1031.84,1459.83 1003.5,1459.5C982.856,1391.59 962.523,1323.59 942.5,1255.5Z" style="fill-opacity:0.98;"/>
    <path d="M33.5,1285.5C44.725,1284.51 55.058,1287.01 64.5,1293C76.148,1302.98 85.981,1314.48 94,1327.5C103.478,1340.01 114.978,1342.51 128.5,1335C137.144,1325.84 145.005,1315.97 152,1305.5C171.212,1283.72 193.712,1279.56 219.5,1293C229.753,1301.35 238.253,1311.19 245,1322.5C248.465,1326.97 252.298,1331.13 256.5,1335C270.022,1342.51 281.522,1340.01 291,1327.5C298.319,1315.51 307.153,1304.67 317.5,1295C343.183,1279.66 366.35,1282.83 387,1304.5C394.667,1315.65 403.193,1326.18 412.5,1336C421.94,1341.14 430.94,1340.47 439.5,1334C447.075,1325.77 453.934,1316.9 460,1307.5C476.116,1286.79 496.616,1280.63 521.5,1289C526.506,1291.5 531.173,1294.5 535.5,1298C545.204,1309.37 554.542,1321.04 563.5,1333C570.31,1337.96 577.976,1340.62 586.5,1341C592.924,1346.56 594.091,1353.06 590,1360.5C584.502,1365.4 578.169,1366.73 571,1364.5C560.6,1362.47 551.6,1357.8 544,1350.5C535.525,1339.05 526.687,1327.88 517.5,1317C508.626,1310.52 499.292,1309.86 489.5,1315C480.193,1324.82 471.667,1335.35 464,1346.5C443.698,1367.74 420.864,1370.91 395.5,1356C386.022,1347.18 377.855,1337.35 371,1326.5C366.651,1319.81 360.818,1314.98 353.5,1312C346.751,1310.67 340.418,1311.67 334.5,1315C325.602,1324.56 317.413,1334.75 310,1345.5C289.09,1368.07 265.59,1371.24 239.5,1355C230.865,1346.7 223.365,1337.54 217,1327.5C212.323,1320.48 206.156,1315.32 198.5,1312C191.206,1310.49 184.54,1311.82 178.5,1316C170.265,1324.9 162.742,1334.42 156,1344.5C136.436,1366.84 113.603,1371.01 87.5,1357C76.184,1347.35 66.684,1336.19 59,1323.5C52.4,1314.62 43.568,1310.12 32.5,1310C24.774,1305.16 22.94,1298.66 27,1290.5C28.805,1288.17 30.972,1286.51 33.5,1285.5Z" style="fill-opacity:0.96;"/>
    <path d="M32.5,1386.5C42.754,1385.33 52.42,1387.16 61.5,1392C73.806,1400.64 83.64,1411.47 91,1424.5C104.558,1444.01 119.558,1445.35 136,1428.5C143.319,1416.51 152.153,1405.67 162.5,1396C174.482,1387.34 187.815,1384.34 202.5,1387C214.981,1389.83 225.147,1396.33 233,1406.5C240.077,1416.91 247.932,1426.78 256.5,1436C266.068,1442.14 275.401,1441.8 284.5,1435C292.407,1426.44 299.598,1417.24 306,1407.5C325.183,1384.66 348.016,1380.16 374.5,1394C385.816,1403.65 395.316,1414.81 403,1427.5C408.297,1435.06 415.463,1439.39 424.5,1440.5C430.132,1440.34 435.132,1438.51 439.5,1435C448.687,1424.12 457.525,1412.95 466,1401.5C481.294,1386.89 499.128,1382.72 519.5,1389C529.815,1393.57 538.315,1400.41 545,1409.5C551.03,1419.2 558.197,1428.04 566.5,1436C572.694,1439.45 579.361,1441.45 586.5,1442C592.921,1447.52 594.087,1454.02 590,1461.5C586.897,1464.74 583.064,1466.41 578.5,1466.5C561.655,1465.33 548.155,1457.99 538,1444.5C531.598,1434.76 524.407,1425.56 516.5,1417C506.26,1409.63 496.26,1409.97 486.5,1418C478.292,1427.87 470.453,1438.05 463,1448.5C442.091,1469.01 419.258,1471.51 394.5,1456C384.153,1446.33 375.319,1435.49 368,1423.5C353.06,1407.23 338.727,1407.89 325,1425.5C317.652,1437.85 308.485,1448.68 297.5,1458C272.008,1471.74 249.508,1467.91 230,1446.5C222.587,1435.75 214.398,1425.56 205.5,1416C191.721,1408.89 180.221,1411.73 171,1424.5C163.316,1437.19 153.816,1448.35 142.5,1458C117.649,1471.46 95.483,1467.96 76,1447.5C68.333,1436.35 59.807,1425.82 50.5,1416C44.174,1413 37.431,1410.98 30.5,1410C22.19,1401.39 22.857,1393.55 32.5,1386.5Z" style="fill-opacity:0.96;"/>
    <path d="M1118.5,1947.5L1067.5,1947.5C815.281,1937.54 597.948,1846.37 415.5,1674C394.307,1652.98 373.957,1631.13 354.5,1608.5C373.144,1607.33 391.838,1607.17 410.5,1608C568.203,1775.02 761.87,1872.35 991.5,1900C1243.6,1923.94 1469.6,1859.27 1669.5,1706C1707.29,1676.22 1742.62,1643.55 1775.5,1608C1794.18,1607.17 1812.84,1607.33 1831.5,1608.5C1693.57,1767.7 1521.57,1872.2 1315.5,1922C1250.5,1936.83 1184.83,1945.33 1118.5,1947.5Z" style="fill-opacity:0.98;"/>
    <path d="M937.5,1616.5C952.312,1614.43 965.979,1617.26 978.5,1625C984.364,1630.56 987.03,1637.4 986.5,1645.5C986.69,1655.12 983.524,1663.45 977,1670.5C965.757,1681.42 953.539,1691.3 940.5,1700C956.163,1700.5 971.83,1700.67 987.5,1700.5L987.5,1721.5L904.5,1721.5C904.334,1713.83 904.5,1706.16 905,1698.5C921.85,1687 937.586,1673.94 952,1659.5C956.515,1654.12 957.848,1648.12 956,1641.5C951.215,1636.06 945.715,1635.23 939.5,1639C936.924,1641.65 935.591,1644.82 935.5,1648.5L906.5,1648.5C906.037,1636.92 910.704,1628.09 920.5,1622C926.013,1619.72 931.697,1617.88 937.5,1616.5Z" style="fill-opacity:0.96;"/>
    <path d="M1037.5,1616.5C1065.92,1614.43 1082.42,1627.43 1087,1655.5C1087.67,1664.83 1087.67,1674.17 1087,1683.5C1080.76,1716.22 1061.26,1728.72 1028.5,1721C1017.09,1717.26 1009.26,1709.76 1005,1698.5C999,1679.5 999,1660.5 1005,1641.5C1010.83,1626.52 1021.67,1618.18 1037.5,1616.5ZM1042.5,1636.5C1037.76,1637.14 1034.59,1639.81 1033,1644.5C1028.72,1660.74 1028.39,1677.07 1032,1693.5C1033.4,1696.9 1035.57,1699.74 1038.5,1702C1046.96,1704.35 1052.8,1701.52 1056,1693.5C1059.59,1676.74 1059.26,1660.07 1055,1643.5C1052.26,1638.71 1048.1,1636.38 1042.5,1636.5Z" style="fill-opacity:0.96;"/>
    <path d="M1131.5,1616.5C1138.17,1616.33 1144.84,1616.5 1151.5,1617C1175.88,1620.93 1184.71,1634.76 1178,1658.5C1173.01,1667.5 1166.51,1675.33 1158.5,1682L1134.5,1700C1149.83,1700.5 1165.16,1700.67 1180.5,1700.5L1180.5,1721.5L1097.5,1721.5C1097.17,1713.8 1097.5,1706.14 1098.5,1698.5C1111.35,1688.91 1124.01,1679.08 1136.5,1669C1143.91,1663.12 1148.57,1655.62 1150.5,1646.5C1150.16,1639.99 1146.66,1636.66 1140,1636.5C1133.14,1637.36 1129.31,1641.19 1128.5,1648C1118.84,1648.5 1109.17,1648.67 1099.5,1648.5C1099.68,1634.84 1106.01,1625.34 1118.5,1620C1122.92,1618.65 1127.25,1617.48 1131.5,1616.5Z" style="fill-opacity:0.96;"/>
    <path d="M1380.86,415.073C1410.43,415.073 1434.44,439.085 1434.44,468.661C1434.44,498.237 1410.43,522.249 1380.86,522.249C1351.28,522.249 1327.27,498.237 1327.27,468.661C1327.27,439.085 1351.28,415.073 1380.86,415.073ZM1380.86,422.722C1355.5,422.722 1334.92,443.307 1334.92,468.661C1334.92,494.015 1355.5,514.599 1380.86,514.599C1406.21,514.599 1426.8,494.015 1426.8,468.661C1426.8,443.307 1406.21,422.722 1380.86,422.722Z"/>
    <g transform="matrix(1,0,0,1,-101.843,0)">
        <g transform="matrix(1,0,0,1,102.448,-1.71062)">
            <rect x="1200.56" y="1699.34" width="83.062" height="23.871"/>
        </g>
        <g transform="matrix(0.361873,-0.361873,0.707107,0.707107,-333.055,879.331)">
            <rect x="1200.56" y="1699.34" width="83.062" height="23.871"/>
        </g>
        <g transform="matrix(6.12323e-17,-1,1,6.12323e-17,-366.733,2900.06)">
            <rect x="1200.56" y="1699.34" width="83.062" height="23.871"/>
        </g>
    </g>
</svg>
