<svg xmlns="http://www.w3.org/2000/svg" width="2187" height="1948" fill-rule="evenodd" clip-rule="evenodd" image-rendering="optimizeQuality" shape-rendering="geometricPrecision" text-rendering="geometricPrecision">
  <path fill="#000000" d="M1047.5-.5h90c239.72 13.907 447.39 101.741 623 263.5a1521.434 1521.434 0 0 1 46 47c-19.67.667-39.33.667-59 0-113.17-111.294-246.5-189.294-400-234-199.6-54.454-396.271-45.454-590 27-121.01 47.463-227.677 116.463-320 207a561.343 561.343 0 0 1-58-.5C539.182 140.648 734.848 39.815 966.5 7a1538.802 1538.802 0 0 1 81-7.5Zm6 231c4.55 13.004 8.88 26.171 13 39.5-8.69.832-17.35.665-26-.5 4.54-12.95 8.87-25.95 13-39Z" opacity=".976"/>
  <path fill="#000000" d="M1287.5 205.5c13.3-1.221 25.96.946 38 6.5 9.09 6.42 13.09 15.254 12 26.5h-29c-2.02-12.682-9.02-16.515-21-11.5-7.01 6.982-6.01 12.649 3 17 11.04 2.844 22.04 5.844 33 9 14.01 5.846 19.84 16.346 17.5 31.5-2.51 12.183-9.68 20.35-21.5 24.5-16.78 4.889-33.44 4.556-50-1-12.84-6.507-18.84-17.007-18-31.5h29c-.04 10.631 5.3 15.965 16 16 11.77.421 16.27-4.912 13.5-16a15.811 15.811 0 0 0-5.5-3.5l-30-8c-20.06-7.477-26.23-21.311-18.5-41.5 7.81-10.82 18.31-16.82 31.5-18Z" opacity=".959"/>
  <path fill="#000000" d="M757.5 208.5h73v20h-44v23h41v20h-41v39h-29v-102Z" opacity=".97"/>
  <path fill="#000000" d="M841.5 208.5h30v102h-30v-102Z" opacity=".968"/>
  <path fill="#000000" d="M889.5 208.5c13.35-.333 26.683.001 40 1l32.5 71c.131-23.998-.036-47.998-.5-72h26v102a381.292 381.292 0 0 1-39-1l-33.5-75c-.5 25.331-.667 50.664-.5 76h-25v-102Z" opacity=".969"/>
  <path fill="#000000" d="M1037.5 208.5h36l39 102h-33l-6-21a400.8 400.8 0 0 0-40 1 662.486 662.486 0 0 1-7 19.5c-9.68.832-19.35.665-29-.5 13.34-33.695 26.67-67.362 40-101Zm16 22a1339.49 1339.49 0 0 1-13 39 113.23 113.23 0 0 0 26 .5 1130.205 1130.205 0 0 0-13-39.5Z" opacity=".964"/>
  <path fill="#000000" d="M1122.5 208.5h30v81h45v21h-75v-102Z" opacity=".953"/>
  <path fill="#000000" d="M1207.5 208.5h29v102h-29v-102Z" opacity=".993"/>
  <path fill="#000000" d="M1345.5 208.5h91v21h-31v81h-30v-81h-30v-21Z" opacity=".955"/>
  <path fill="#000000" d="M-.5 571.5v-38c1.143-28.208 6.977-55.542 17.5-82 21.71-42.924 54.876-55.091 99.5-36.5 18.564 9.707 35.064 22.207 49.5 37.5l23 27a883.523 883.523 0 0 0 20.5 28c17.512-26.693 38.178-50.859 62-72.5 16.68-14.672 36.013-24.006 58-28 30-2.252 52.5 9.582 67.5 35.5 12.46 24.839 19.46 51.172 21 79 2.635 46.744-.698 93.078-10 139a967.2 967.2 0 0 1-14.5 63 840.27 840.27 0 0 1-41-.5c18.762-60.739 27.928-122.905 27.5-186.5-7.928-107.82-46.595-120.153-116-37a365.978 365.978 0 0 0-31.5 46.5c30.147 56.464 53.481 115.631 70 177.5a415.804 415.804 0 0 1-40.5-1c-13.358-46.751-31.025-91.751-53-135a836.553 836.553 0 0 0-52.5 135 400.778 400.778 0 0 1-40 1c15.872-61.949 39.205-120.949 70-177-16.367-28.547-36.367-54.381-60-77.5-10.458-9.777-22.458-17.111-36-22-15.283-4.107-26.783.726-34.5 14.5-10.873 22.026-16.54 45.359-17 70-1.312 45.862 3.022 91.195 13 136a1712.363 1712.363 0 0 0 13.5 56c-13.747.638-27.247-.029-40.5-2-13.756-49.26-22.256-99.26-25.5-150Z" opacity=".975"/>
  <path fill="#000000" d="M1370.5 415.5c33.23-3.157 54.39 11.177 63.5 43 3.31 34.592-11.86 55.759-45.5 63.5-26.98 2.099-46.14-9.068-57.5-33.5-9.29-36.771 3.88-61.104 39.5-73Zm4 7c19.05-1.223 34.22 5.777 45.5 21 13.37 26.672 7.87 48.506-16.5 65.5-25.06 11.06-45.56 5.56-61.5-16.5-11.77-23.735-7.61-44.235 12.5-61.5 6.39-3.734 13.06-6.567 20-8.5Zm-3 28c6.01-.166 12.01.001 18 .5 4.2 2.981 5.03 6.814 2.5 11.5a9.39 9.39 0 0 1-2.5 1.5c-5.99.499-11.99.666-18 .5v-14Z" opacity=".881"/>
  <path fill="#000000" d="M487.5 423.5h116a17809.664 17809.664 0 0 0 41.5 182 35893.412 35893.412 0 0 0 45-181c37.427-.996 74.927-1.33 112.5-1v300h-75c.167-69.667 0-139.334-.5-209l-53 208a470.782 470.782 0 0 1-30.5 1c-10.395-.013-20.561-.679-30.5-2l-50-208c-.5 69.999-.667 139.999-.5 210h-75v-300Z" opacity=".984"/>
  <path fill="#000000" d="M839.5 423.5h78v300h-78v-300Z" opacity=".99"/>
  <path fill="#000000" d="M955.5 423.5c42.335-.167 84.67 0 127 .5 44.7 1.392 73.86 23.226 87.5 65.5 11.37 51.78 12.37 103.78 3 156-10.54 49.877-41.38 75.71-92.5 77.5-41.67.5-83.332.667-125 .5v-300Zm76 63c14.1-.564 28.1.27 42 2.5 16.15 7.172 24.98 19.672 26.5 37.5a443.491 443.491 0 0 1 0 94c-3 25.342-17.17 38.509-42.5 39.5-8.66.5-17.33.666-26 .5v-174Z" opacity=".989"/>
  <path fill="#000000" d="M1208.5 423.5h79v300h-79v-300Z" opacity=".978"/>
  <path fill="#000000" d="M1534.5 423.5h171v23c-32-.167-64 0-96 .5l102 68-103 1a8433.534 8433.534 0 0 1 103 68l-103 1c34.33 22.833 68.67 45.667 103 68.5-34 .833-68 1.333-102 1.5l102 68c-57.67.5-115.33.667-173 .5v-23c32.67.167 65.34 0 98-.5a8293.875 8293.875 0 0 1-102-67.5c34-.833 68-1.333 102-1.5l-102-68 103-1a8433.534 8433.534 0 0 1-103-68l103-1c-33.33-22-66.67-44-100-66-1.56-.759-2.56-1.926-3-3.5Z" opacity=".956"/>
  <path fill="#000000" d="M1768.5 423.5h171v23c-32-.167-64 0-96 .5l102 68-103 1a8433.534 8433.534 0 0 1 103 68l-103 1c34.33 22.833 68.67 45.667 103 68.5-34 .833-68 1.333-102 1.5l102 68c-58 .5-116 .667-174 .5v-23c33 .167 66 0 99-.5a8293.875 8293.875 0 0 1-102-67.5c34-.833 68-1.333 102-1.5l-102-68 102-1-102-68 103-1c-33.33-22-66.67-44-100-66-1.56-.759-2.56-1.926-3-3.5Z" opacity=".955"/>
  <path fill="#000000" d="M2001.5 424.5c56.83-.999 113.83-1.332 171-1v23c-32-.167-64 0-96 .5a8293.875 8293.875 0 0 1 102 67.5c-34 .833-68 1.333-102 1.5l102 68-103 1a4163.073 4163.073 0 0 1 103 68.5c-34 .833-68 1.333-102 1.5a8293.875 8293.875 0 0 1 102 67.5c-57.66 1-115.33 1.333-173 1v-23c32.67.167 65.34 0 98-.5l-102-68 103-1a8433.534 8433.534 0 0 1-103-68l103-1a8433.534 8433.534 0 0 0-103-68l104-1a11354.048 11354.048 0 0 1-104-68.5Z" opacity=".956"/>
  <path fill="#000000" d="M1358.5 438.5c12.71-.374 25.38.126 38 1.5 8.75 4.545 11.91 11.712 9.5 21.5-1.09 3.686-3.26 6.519-6.5 8.5a17.785 17.785 0 0 1 4.5 5.5c.84 7.817 2 15.484 3.5 23-4.93.303-9.76-.031-14.5-1a134.09 134.09 0 0 1-2-18 9.246 9.246 0 0 0-1.5-2.5c-5.88-1.41-11.88-1.91-18-1.5v23h-13v-60Zm13 12v14c6.01.166 12.01-.001 18-.5a9.39 9.39 0 0 0 2.5-1.5c2.53-4.686 1.7-8.519-2.5-11.5-5.99-.499-11.99-.666-18-.5Z" opacity=".919"/>
  <path fill="#000000" d="M24.5 787.5h85v295h-85v-295Z" opacity=".985"/>
  <path fill="#000000" d="M1578.5 788.5h79v56h-79v-56Z" opacity=".969"/>
  <path fill="#000000" d="M1495.5 817.5h4v61h48v50h-49c-.17 28.669 0 57.335.5 86 .35 9.68 5.18 15.85 14.5 18.5 11.3 1.73 22.64 1.9 34 .5v49a376.612 376.612 0 0 1-79 1.5c-25.97-2.64-40.81-16.81-44.5-42.5-.5-37.67-.67-75.332-.5-113h-39v-50h40c-.32-10.915.01-21.748 1-32.5a2882.915 2882.915 0 0 0 70-28.5Z" opacity=".985"/>
  <path fill="#000000" d="M772.5 870.5c30.599-2.608 59.599 2.892 87 16.5 28.068 17.281 43.568 42.447 46.5 75.5 3.216 30.264-3.117 58.26-19 84-20.389 25.78-47.222 39.28-80.5 40.5-27.062 2.24-53.395-1.1-79-10-34.836-15.53-54.336-42.36-58.5-80.5-4.108-30.81 2.226-59.144 19-85 14.176-17.822 32.343-29.655 54.5-35.5a285.52 285.52 0 0 1 30-5.5Zm15 44c16.662.919 27.829 9.253 33.5 25 6.089 22.42 7.089 45.087 3 68-6.618 31.72-25.118 42.22-55.5 31.5-11.022-9.54-17.189-21.71-18.5-36.5-2-15.333-2-30.667 0-46 1.186-14.204 7.019-26.037 17.5-35.5 6.297-3.732 12.964-5.899 20-6.5Z" opacity=".986"/>
  <path fill="#000000" d="M1246.5 870.5c27.85-2.644 54.85.856 81 10.5 21.29 10.049 33.12 26.882 35.5 50.5.33 39 .67 78 1 117 .26 11.37 1.76 22.54 4.5 33.5-25 .5-50 .67-75 .5-1.3-8.95-2.13-17.95-2.5-27-10.93 16.22-26.09 26.06-45.5 29.5-20.91 3.49-41.25 1.49-61-6-22.41-11.96-33.07-30.79-32-56.5-.57-24.358 9.43-42.858 30-55.5 21.71-10.744 44.71-16.41 69-17 13.33-.5 26.66-.667 40-.5.65-9.58-.51-18.914-3.5-28-6.05-10.696-15.22-14.862-27.5-12.5-8.9 1.895-15.06 7.062-18.5 15.5a87.806 87.806 0 0 0-2.5 15h-74c-.8-24.243 9.2-42.41 30-54.5 16.27-7.814 33.27-12.647 51-14.5Zm21 116h24c1.1 14.83-1.74 28.83-8.5 42-10.63 13.54-24.13 17.37-40.5 11.5-13.99-9.8-17.49-22.63-10.5-38.5a57.458 57.458 0 0 1 9.5-8.5c8.5-3.393 17.16-5.56 26-6.5ZM1798.5 870.5c29.77-2.373 58.1 2.794 85 15.5 30.15 18.204 46.32 45.037 48.5 80.5 2.58 29.361-4.09 56.36-20 81-20.36 25.14-46.86 38.31-79.5 39.5-27.08 2.24-53.41-1.1-79-10-37.83-17.11-57.67-46.61-59.5-88.5-1.36-71.467 33.47-110.8 104.5-118Zm15 44c12.96.392 22.79 6.059 29.5 17 6.93 15.217 10.09 31.217 9.5 48 .48 16.44-2.68 32.11-9.5 47-12.52 17.51-28.69 21.67-48.5 12.5-9.26-7.67-15.09-17.5-17.5-29.5-3.33-20-3.33-40 0-60 2.39-12.971 8.89-23.138 19.5-30.5 5.53-2.539 11.2-4.039 17-4.5Z" opacity=".985"/>
  <path fill="#000000" d="M290.5 872.5c55.414-2.086 82.58 24.581 81.5 80 .5 43.332.667 86.67.5 130h-78c.469-45.37-.031-90.7-1.5-136-4.82-19.004-16.986-26.838-36.5-23.5-13.131 3.131-21.298 11.298-24.5 24.5a3118.12 3118.12 0 0 0-1.5 135h-78c.167-60.33 0-120.668-.5-181a404.013 404.013 0 0 0-1.5-24h78a153.607 153.607 0 0 0 1.5 28c14.528-21.347 34.695-32.347 60.5-33Z" opacity=".982"/>
  <path fill="#000000" d="M553.5 872.5c18.734-.88 36.401 2.954 53 11.5 17.372 12.566 26.539 29.733 27.5 51.5.5 48.999.667 98 .5 147h-77a3217.78 3217.78 0 0 0-1.5-136c-3.413-15.914-13.246-23.914-29.5-24-18.787.615-29.621 10.282-32.5 29a2991.857 2991.857 0 0 0-1.5 131h-77c.167-59 0-118.001-.5-177a864.374 864.374 0 0 0-1.5-28h78c-.166 9.672 0 19.339.5 29 14.603-21.887 35.103-33.221 61.5-34Z" opacity=".989"/>
  <path fill="#000000" d="M2186.5 943.5v139h-78c.17-44 0-88.001-.5-132-4.33-23.268-18.17-32.101-41.5-26.5-11.14 4.478-17.97 12.644-20.5 24.5-1.47 44.628-1.97 89.29-1.5 134h-77c.5-68.35-.17-136.685-2-205h77c.12 9.683.62 19.35 1.5 29 10.18-17.013 25.02-27.513 44.5-31.5 21.14-3.961 41.81-2.294 62 5 16.27 7.611 26.77 20.111 31.5 37.5 2.12 8.704 3.62 17.371 4.5 26Z" opacity=".986"/>
  <path fill="#000000" d="M910.5 878.5a1764.925 1764.925 0 0 1 84-1c12.86 46.736 26.02 93.402 39.5 140a8404.612 8404.612 0 0 0 43-139 679 679 0 0 1 73.5 0 37572.049 37572.049 0 0 0-77 203 905.887 905.887 0 0 1-85 0 781280.886 781280.886 0 0 0-78-203Z" opacity=".985"/>
  <path fill="#000000" d="M1579.5 877.5h77v205h-77v-205Z" opacity=".994"/>
  <path fill="#000000" d="M751.5 1166.5c33.723-.66 67.223.01 100.5 2 37.89 96.78 76.056 193.45 114.5 290-30.993 1-61.993 1.33-93 1l-19-58h-117a2846.207 2846.207 0 0 1-19 57c-27.325 1-54.659 1.33-82 1 38.134-97.73 76.467-195.4 115-293Zm46 59a4249.903 4249.903 0 0 1 37 121c-25.675.33-51.342 0-77-1a12661.85 12661.85 0 0 1 40-120ZM1882.5 1166.5h77c-.17 87.33 0 174.67.5 262 .48 10.34.98 20.67 1.5 31h-73c-.4-9.33-.9-18.67-1.5-28-11.24 17.37-27.07 27.87-47.5 31.5-59.66 8.95-95.83-15.89-108.5-74.5-4.86-28.53-2.86-56.53 6-84 19.87-39.53 52.04-57.03 96.5-52.5 19.77 2.46 35.93 11.3 48.5 26.5.5-37.33.67-74.67.5-112Zm-39 130c12.4.12 22.23 5.12 29.5 15 7.46 14.39 10.96 29.72 10.5 46 .46 16.27-3.04 31.6-10.5 46-11.81 15.89-26.64 19.39-44.5 10.5-9.27-7.7-15.11-17.54-17.5-29.5-4.87-23.65-2.87-46.65 6-69 5.72-10.91 14.55-17.24 26.5-19Z" opacity=".987"/>
  <path fill="#000000" d="M33.5 1184.5c18.19-.82 33.024 5.84 44.5 20a249.096 249.096 0 0 0 23.5 29.5c8.444 5.51 17.111 5.84 26 1 8.303-7.96 15.47-16.8 21.5-26.5 18.123-24.22 40.956-30.06 68.5-17.5 5.423 3.42 10.256 7.59 14.5 12.5a259.924 259.924 0 0 0 25.5 31.5c13.438 6.35 24.604 3.52 33.5-8.5a165.465 165.465 0 0 1 25.5-31.5c17.817-12.42 36.483-13.75 56-4 5.088 3.08 9.588 6.92 13.5 11.5a506.423 506.423 0 0 0 22.5 29.5c13.455 9.74 25.622 8.24 36.5-4.5 8.354-13.36 18.521-25.19 30.5-35.5 21.116-11.33 41.116-9.66 60 5a700.826 700.826 0 0 1 28 35 31.345 31.345 0 0 0 8 5c5.507.76 10.84 2.09 16 4 5.543 5.51 6.376 11.68 2.5 18.5-4.623 4.52-10.123 6.02-16.5 4.5-12.572-1.58-23.072-7.08-31.5-16.5a587.499 587.499 0 0 0-24.5-31.5c-14.708-9.22-27.208-6.72-37.5 7.5-8.052 13.38-18.218 24.88-30.5 34.5-26.131 12-48.298 6.84-66.5-15.5a248.576 248.576 0 0 0-20.5-26.5c-14.026-8.98-26.193-6.81-36.5 6.5-5.333 7.33-10.667 14.67-16 22-20.885 22.79-44.385 25.95-70.5 9.5-10.347-9.67-19.181-20.51-26.5-32.5-13.667-14.67-27.333-14.67-41 0-8.354 13.36-18.521 25.19-30.5 35.5-25.404 12.91-47.57 8.74-66.5-12.5a249.096 249.096 0 0 0-23.5-29.5 22.657 22.657 0 0 0-8-4c-7.33.57-13.163-1.93-17.5-7.5-2.873-8.56-.373-14.89 7.5-19Z" opacity=".961"/>
  <path fill="#000000" d="M1417.5 1248.5c24.31-1.44 47.98 1.73 71 9.5 25.7 10.88 38.87 30.38 39.5 58.5.33 40.67.67 81.33 1 122 .85 6.74 2.01 13.4 3.5 20a686.714 686.714 0 0 1-74 0c-1.53-8.57-2.37-17.24-2.5-26-11.76 17.64-28.26 27.81-49.5 30.5-18.03 2.3-35.7.64-53-5-24.23-11.26-36.23-30.43-36-57.5.99-32.49 16.99-53.66 48-63.5 16.92-5.32 34.26-8.32 52-9 13-.5 26-.67 39-.5.62-10.8-1.21-21.14-5.5-31-3.87-5.85-9.37-9.02-16.5-9.5-20.11-.06-30.11 10.11-30 30.5h-73c-.34-29.49 13.33-49.33 41-59.5 14.77-4.92 29.77-8.09 45-9.5Zm14 116h25c.81 14.46-2.03 28.13-8.5 41-10.05 13.79-23.22 17.96-39.5 12.5-11.62-6.41-16.46-16.24-14.5-29.5 1.1-7.08 4.6-12.58 10.5-16.5 8.66-4.21 17.66-6.71 27-7.5Z" opacity=".984"/>
  <path fill="#000000" d="M2186.5 1389.5v14c-4.41 29.92-21.41 48.75-51 56.5-22.38 5.16-45.05 6.83-68 5-21.13-.45-40.46-6.45-58-18-15.72-14.29-23.06-32.12-22-53.5h77c.23 25.39 12.56 34.56 37 27.5 11.19-8.39 12.86-18.39 5-30a58.881 58.881 0 0 0-9-5 1492.61 1492.61 0 0 0-59-17c-38.47-11.44-52.64-36.61-42.5-75.5 8.14-18.51 21.97-30.68 41.5-36.5 23.28-6.14 46.95-8.14 71-6 24.06.95 44.23 10.12 60.5 27.5 8.34 12.35 12.84 26.01 13.5 41h-73c.96-25.17-10.71-34.67-35-28.5-12.06 6.74-14.06 15.74-6 27 2.84 1.92 5.84 3.59 9 5 22.67 6.33 45.33 12.67 68 19 23.99 7.15 37.66 22.98 41 47.5Z" opacity=".983"/>
  <path fill="#000000" d="M1694.5 1254.5h22v66c-14.64-2.2-28.97-1.03-43 3.5-15.3 7.73-23.8 20.23-25.5 37.5-.5 32.66-.67 65.33-.5 98h-77c.17-57.33 0-114.67-.5-172a8663 8663 0 0 1-1.5-32h75c.46 13 .96 26 1.5 39 9.56-22.07 26.06-35.4 49.5-40Z" opacity=".982"/>
  <path fill="#000000" d="M942.5 1255.5c26.241-.33 52.408.01 78.5 1 10.39 46.46 21.22 92.79 32.5 139 12.29-46.51 23.96-93.18 35-140h87c11.02 47.1 22.52 94.1 34.5 141 11.99-46.98 23.83-93.98 35.5-141h69c-20.63 68.06-41.96 135.89-64 203.5-28.67.83-57.34.67-86-.5-12.17-45.99-24.33-91.99-36.5-138-13.07 46.03-26.23 92.03-39.5 138-28.33 1-56.66 1.33-85 1a23305.293 23305.293 0 0 1-61-204Z" opacity=".984"/>
  <path fill="#000000" d="M33.5 1285.5c11.225-.99 21.558 1.51 31 7.5 11.648 9.98 21.481 21.48 29.5 34.5 9.478 12.51 20.978 15.01 34.5 7.5a225.365 225.365 0 0 0 23.5-29.5c19.212-21.78 41.712-25.94 67.5-12.5 10.253 8.35 18.753 18.19 25.5 29.5 3.465 4.47 7.298 8.63 11.5 12.5 13.522 7.51 25.022 5.01 34.5-7.5 7.319-11.99 16.153-22.83 26.5-32.5 25.683-15.34 48.85-12.17 69.5 9.5a259.924 259.924 0 0 0 25.5 31.5c9.44 5.14 18.44 4.47 27-2a196.493 196.493 0 0 0 20.5-26.5c16.116-20.71 36.616-26.87 61.5-18.5 5.006 2.5 9.673 5.5 14 9a700.826 700.826 0 0 1 28 35c6.81 4.96 14.476 7.62 23 8 6.424 5.56 7.591 12.06 3.5 19.5-5.498 4.9-11.831 6.23-19 4-10.4-2.03-19.4-6.7-27-14a669.767 669.767 0 0 0-26.5-33.5c-8.874-6.48-18.208-7.14-28-2a259.924 259.924 0 0 0-25.5 31.5c-20.302 21.24-43.136 24.41-68.5 9.5-9.478-8.82-17.645-18.65-24.5-29.5-4.349-6.69-10.182-11.52-17.5-14.5-6.749-1.33-13.082-.33-19 3a268.24 268.24 0 0 0-24.5 30.5c-20.91 22.57-44.41 25.74-70.5 9.5-8.635-8.3-16.135-17.46-22.5-27.5-4.677-7.02-10.844-12.18-18.5-15.5-7.294-1.51-13.96-.18-20 4a231.362 231.362 0 0 0-22.5 28.5c-19.564 22.34-42.397 26.51-68.5 12.5-11.316-9.65-20.816-20.81-28.5-33.5-6.6-8.88-15.432-13.38-26.5-13.5-7.726-4.84-9.56-11.34-5.5-19.5 1.805-2.33 3.972-3.99 6.5-5Z" opacity=".96"/>
  <path fill="#000000" d="M32.5 1386.5c10.254-1.17 19.92.66 29 5.5 12.306 8.64 22.14 19.47 29.5 32.5 13.558 19.51 28.558 20.85 45 4 7.319-11.99 16.153-22.83 26.5-32.5 11.982-8.66 25.315-11.66 40-9 12.481 2.83 22.647 9.33 30.5 19.5a249.106 249.106 0 0 0 23.5 29.5c9.568 6.14 18.901 5.8 28-1a212.867 212.867 0 0 0 21.5-27.5c19.183-22.84 42.016-27.34 68.5-13.5 11.316 9.65 20.816 20.81 28.5 33.5 5.297 7.56 12.463 11.89 21.5 13 5.632-.16 10.632-1.99 15-5.5a669.767 669.767 0 0 0 26.5-33.5c15.294-14.61 33.128-18.78 53.5-12.5 10.315 4.57 18.815 11.41 25.5 20.5 6.03 9.7 13.197 18.54 21.5 26.5 6.194 3.45 12.861 5.45 20 6 6.421 5.52 7.587 12.02 3.5 19.5-3.103 3.24-6.936 4.91-11.5 5-16.845-1.17-30.345-8.51-40.5-22a212.867 212.867 0 0 0-21.5-27.5c-10.24-7.37-20.24-7.03-30 1a518.238 518.238 0 0 0-23.5 30.5c-20.909 20.51-43.742 23.01-68.5 7.5-10.347-9.67-19.181-20.51-26.5-32.5-14.94-16.27-29.273-15.61-43 2-7.348 12.35-16.515 23.18-27.5 32.5-25.492 13.74-47.992 9.91-67.5-11.5a268.24 268.24 0 0 0-24.5-30.5c-13.779-7.11-25.279-4.27-34.5 8.5-7.684 12.69-17.184 23.85-28.5 33.5-24.851 13.46-47.017 9.96-66.5-10.5a259.924 259.924 0 0 0-25.5-31.5 69.337 69.337 0 0 0-20-6c-8.31-8.61-7.643-16.45 2-23.5Z" opacity=".961"/>
  <path fill="#000000" d="M1118.5 1947.5h-51c-252.219-9.96-469.552-101.13-652-273.5a1126.276 1126.276 0 0 1-61-65.5 523.062 523.062 0 0 1 56-.5c157.703 167.02 351.37 264.35 581 292 252.1 23.94 478.1-40.73 678-194 37.79-29.78 73.12-62.45 106-98 18.68-.83 37.34-.67 56 .5-137.93 159.2-309.93 263.7-516 313.5-65 14.83-130.67 23.33-197 25.5Zm-76-311c5.6-.12 9.76 2.21 12.5 7 4.26 16.57 4.59 33.24 1 50-3.2 8.02-9.04 10.85-17.5 8.5-2.93-2.26-5.1-5.1-6.5-8.5-3.61-16.43-3.28-32.76 1-49 1.59-4.69 4.76-7.36 9.5-8Zm197 7c1 12.49 1.33 25.16 1 38-9.34.17-18.67 0-28-.5 9.22-12.38 18.22-24.88 27-37.5Z" opacity=".976"/>
  <path fill="#000000" d="M937.5 1616.5c14.812-2.07 28.479.76 41 8.5 5.864 5.56 8.53 12.4 8 20.5.19 9.62-2.976 17.95-9.5 25a257.477 257.477 0 0 1-36.5 29.5c15.663.5 31.33.67 47 .5v21h-83c-.166-7.67 0-15.34.5-23a326.663 326.663 0 0 0 47-39c4.515-5.38 5.848-11.38 4-18-4.785-5.44-10.285-6.27-16.5-2.5-2.576 2.65-3.909 5.82-4 9.5h-29c-.463-11.58 4.204-20.41 14-26.5a113.21 113.21 0 0 1 17-5.5Z" opacity=".958"/>
  <path fill="#000000" d="M1037.5 1616.5c28.42-2.07 44.92 10.93 49.5 39 .67 9.33.67 18.67 0 28-6.24 32.72-25.74 45.22-58.5 37.5-11.41-3.74-19.24-11.24-23.5-22.5-6-19-6-38 0-57 5.83-14.98 16.67-23.32 32.5-25Zm5 20c-4.74.64-7.91 3.31-9.5 8-4.28 16.24-4.61 32.57-1 49 1.4 3.4 3.57 6.24 6.5 8.5 8.46 2.35 14.3-.48 17.5-8.5 3.59-16.76 3.26-33.43-1-50-2.74-4.79-6.9-7.12-12.5-7Z" opacity=".965"/>
  <path fill="#000000" d="M1131.5 1616.5c6.67-.17 13.34 0 20 .5 24.38 3.93 33.21 17.76 26.5 41.5-4.99 9-11.49 16.83-19.5 23.5l-24 18c15.33.5 30.66.67 46 .5v21h-83c-.33-7.7 0-15.36 1-23 12.85-9.59 25.51-19.42 38-29.5 7.41-5.88 12.07-13.38 14-22.5-.34-6.51-3.84-9.84-10.5-10-6.86.86-10.69 4.69-11.5 11.5-9.66.5-19.33.67-29 .5.18-13.66 6.51-23.16 19-28.5 4.42-1.35 8.75-2.52 13-3.5ZM1233.5 1619.5h34v62h16v20h-16v20h-27v-20h-49c-.17-8.67 0-17.34.5-26a3276.11 3276.11 0 0 0 41.5-56Zm6 24c-8.78 12.62-17.78 25.12-27 37.5 9.33.5 18.66.67 28 .5.33-12.84 0-25.51-1-38Z" opacity=".957"/>
</svg>
