<svg xmlns="http://www.w3.org/2000/svg" height="24" width="24" viewBox="0 0 26 20">
  <rect fill="none" height="26" width="26"/>
  <path fill="hsl(22, 28%, 87%)" d="M3.53817848 17.13718838c-.37570822-1.4526305-.7999994-3.96598896-.97975636-5.8752993-.2931172-3.29716354.17975695-6.28420587 1.28987759-7.86720065 1.07692228-1.56680046 2.77408701-1.92550465 4.68420706-1.01133528 1.07692228.52226682 3.28015951 2.62752842 3.9983776 3.81862065.22833992.37570823.45667983.68582946.5060725.68582946.04858297 0 .3587042-.39190255.68501974-.8655864.8655864-1.25667924 2.8234797-3.10040257 3.8356247-3.60647507 2.72550405-1.37084919 4.83076565-.09797564 5.69635205 3.44372215.55465546 2.3336015.22833992 7.2623428-.7344124 10.8202349l-.2777326 1.06153768-1.76275173.09716592.09797564-.45667982c.065587-.24453424.27773259-1.25667924.5060725-2.2518202 1.43643618-6.33278884.68501973-11.50687408-1.6647761-11.50687408-1.02833932 0-3.19918791 1.81214441-4.65181842 3.91740601L14.03209784 8.584968l.78380509 1.56680046c1.012145 2.0396746 2.77408701 6.80566298 2.77408701 7.5400754 0 .06558699-.39109282.13036427-.880971.13036427h-.88097101l-.52226682-1.63157774c-.5716595-1.86072737-2.08906728-5.54898375-2.28501855-5.54898375-.2121456 0-1.48582886 2.95384397-2.1708486 5.09149421l-.68582945 2.08906728h-.84858237c-.48987818 0-.86477669-.0809716-.86477669-.16275292 0-.75060673 2.13765024-6.34898315 3.08420825-8.11173488l.48987818-.89797505L11.35598646 7.63841c-1.5182175-2.25262991-3.65586774-4.01538165-4.8477697-4.01538165-.63643677 0-1.37084918.75141645-1.71335905 1.74655742-.91416936 2.66072677-.71821809 6.18542052.66882542 12.09391817.08178131.34250987.03319835.35870419-.81619373.35870419h-.91335965l-.19595127-.68501974z"/>
</svg>