<?xml version="1.0" encoding="UTF-8" standalone="no"?>
<!DOCTYPE svg PUBLIC "-//W3C//DTD SVG 1.1//EN" "http://www.w3.org/Graphics/SVG/1.1/DTD/svg11.dtd">
<svg width="100%" height="100%" viewBox="0 0 1024 1024" version="1.1" xmlns="http://www.w3.org/2000/svg" xmlns:xlink="http://www.w3.org/1999/xlink" xml:space="preserve" xmlns:serif="http://www.serif.com/" style="fill-rule:evenodd;clip-rule:evenodd;stroke-linejoin:round;stroke-miterlimit:2;">
    <g transform="matrix(2.88887,0,0,2.88887,-462.219,-220.716)">
        <path d="M347.27,347.267L347.268,222.423L388.885,222.423L388.885,347.267L347.27,347.267ZM409.693,201.614L409.691,160L513.728,160L513.728,201.614L409.693,201.614ZM347.268,160L388.883,160L388.883,201.615L347.268,201.615L347.268,160ZM284.845,347.268L284.845,160L326.46,160L326.46,347.268L284.845,347.268ZM222.422,305.653L222.423,160L264.037,160L264.037,305.653L222.422,305.653ZM160,347.268L160,160L201.615,160L201.615,347.268L160,347.268ZM409.691,347.268L409.691,222.423L451.306,222.423L451.306,347.268L409.691,347.268Z"/>
    </g>
</svg>
