<svg xmlns="http://www.w3.org/2000/svg" width="867.217" height="200" viewBox="0 0 867.217 200">
  <path d="M570.185,160l7.348,26.119c.873,3.347,1.746,6.693,2.328,9.458.364,1.6.655,3.128.946,4.584h.146c.291-1.455.582-2.983.946-4.584.582-2.765,1.31-6.111,2.255-9.458L591.5,160h15.06v52.019H596.74V182.19c0-2.11,0-4.729.218-6.984.073-1.237.146-2.546.218-3.783h-.146c-.218,1.237-.509,2.4-.728,3.565-.509,2.037-1.018,4.365-1.528,6.33l-8.949,30.7H575.715l-8.73-30.7c-.582-1.964-1.019-4.292-1.528-6.33-.218-1.164-.509-2.328-.728-3.565h-.145c.073,1.237.145,2.546.218,3.783.073,2.255.218,4.874.218,6.984v29.829h-9.676V160Zm65.478,47.872h-.146a9.933,9.933,0,0,1-3.783,3.565,15.7,15.7,0,0,1-7.2,1.455c-7.712,0-13.023-3.929-13.023-11.422,0-4.074,1.6-6.839,4.365-8.658s6.4-2.765,10.622-3.347c6.257-.873,9.022-1.382,9.022-4.22,0-2.765-2.037-4.438-6.257-4.438-4.656,0-6.912,1.6-7.2,5.238h-8.8a11.392,11.392,0,0,1,4.074-8.585c2.619-2.255,6.548-3.71,12-3.71,11.2,0,15.715,4.947,15.715,13.751V206.49c0,2.837.437,4.511,1.31,5.166v.364h-9.531A10.485,10.485,0,0,1,635.664,207.872Zm-2.183-4.147a6.552,6.552,0,0,0,2.255-4.874v-5.6c-1.746,1.091-4.365,1.6-6.912,2.183-5.238,1.164-7.712,2.328-7.712,5.82s2.328,4.729,5.82,4.729A9.485,9.485,0,0,0,633.481,203.725Zm15.059-3.783h9.167c.655,4.365,3.638,6.184,8.148,6.184,4.365,0,6.839-1.673,6.839-4.292,0-1.746-1.237-2.765-2.983-3.419a54.2,54.2,0,0,0-6.839-1.528c-3.419-.655-6.62-1.382-9.094-3.056-2.546-1.673-4.147-4.147-4.147-8.221a10.41,10.41,0,0,1,4.438-9.021c2.765-1.964,6.475-2.91,10.768-2.91,9.967,0,15.206,4.729,16.006,12.368h-8.949c-.509-4.074-2.91-5.457-7.2-5.457-3.929,0-6.4,1.382-6.4,4.147,0,1.673,1.237,2.474,3.2,3.056,1.892.655,4.438.946,7.057,1.528,3.128.655,6.4,1.382,8.949,3.056,2.546,1.746,4.22,4.365,4.22,8.73a10.5,10.5,0,0,1-4.365,8.8,19.242,19.242,0,0,1-11.35,3.2C655.088,213.11,649.122,207.945,648.54,199.942Zm35.357,0h9.167c.655,4.365,3.638,6.184,8.149,6.184,4.365,0,6.839-1.673,6.839-4.292,0-1.746-1.237-2.765-2.983-3.419a54.2,54.2,0,0,0-6.839-1.528c-3.419-.655-6.62-1.382-9.094-3.056-2.546-1.673-4.147-4.147-4.147-8.221a10.41,10.41,0,0,1,4.438-9.021c2.765-1.964,6.475-2.91,10.767-2.91,9.967,0,15.206,4.729,16.006,12.368h-8.949c-.509-4.074-2.91-5.457-7.2-5.457-3.929,0-6.4,1.382-6.4,4.147,0,1.673,1.237,2.474,3.2,3.056,1.892.655,4.438.946,7.057,1.528,3.128.655,6.4,1.382,8.949,3.056,2.547,1.746,4.22,4.365,4.22,8.73a10.5,10.5,0,0,1-4.365,8.8,19.243,19.243,0,0,1-11.35,3.2C690.445,213.11,684.48,207.945,683.9,199.942Zm60.021,7.93h-.146a9.933,9.933,0,0,1-3.783,3.565,15.7,15.7,0,0,1-7.2,1.455c-7.712,0-13.023-3.929-13.023-11.422,0-4.074,1.6-6.839,4.365-8.658s6.4-2.765,10.622-3.347c6.257-.873,9.022-1.382,9.022-4.22,0-2.765-2.037-4.438-6.257-4.438-4.656,0-6.912,1.6-7.2,5.238h-8.8a11.392,11.392,0,0,1,4.074-8.585c2.619-2.255,6.548-3.71,12-3.71,11.2,0,15.715,4.947,15.715,13.751V206.49c0,2.837.437,4.511,1.31,5.166v.364h-9.531A10.486,10.486,0,0,1,743.919,207.872Zm-2.183-4.147a6.552,6.552,0,0,0,2.255-4.874v-5.6c-1.746,1.091-4.365,1.6-6.912,2.183-5.238,1.164-7.712,2.328-7.712,5.82s2.328,4.729,5.82,4.729A9.485,9.485,0,0,0,741.736,203.725Zm20.734,3.638a19.922,19.922,0,0,1-5.166-13.969,20.522,20.522,0,0,1,5.093-14.041,17.816,17.816,0,0,1,13.532-5.675,18.148,18.148,0,0,1,11.641,3.783,15.983,15.983,0,0,1,5.311,9.895H783.2a6.723,6.723,0,0,0-6.839-5.748c-6.039,0-9.022,4.438-9.022,11.786,0,7.13,2.765,11.786,8.876,11.786,4.074,0,6.839-2.037,7.494-6.33h9.531a14.736,14.736,0,0,1-4.874,10.04,17.487,17.487,0,0,1-11.932,4.22A18.474,18.474,0,0,1,762.47,207.363Zm44.744-27.792c2.765-4,5.675-5.893,10.84-5.893a12.153,12.153,0,0,1,9.312,3.929,14.814,14.814,0,0,1,3.565,10.04v24.373h-9.895V189.1c0-4.074-2.255-6.839-6.475-6.839-4.365,0-7.566,3.419-7.566,8.585v21.171H797.1V160H807v19.571Zm52.965,28.083h-.218a11.977,11.977,0,0,1-10.695,5.384c-8.367,0-12.95-5.165-12.95-13.459V174.7h9.822V197.9c0,4.365,1.891,6.766,6.184,6.766,4.656,0,7.494-3.492,7.494-8.439V174.7h9.895v37.323h-9.531Zm13.169-7.712h9.167c.655,4.365,3.638,6.184,8.149,6.184,4.365,0,6.839-1.673,6.839-4.292,0-1.746-1.237-2.765-2.983-3.419a54.209,54.209,0,0,0-6.839-1.528c-3.419-.655-6.62-1.382-9.094-3.056-2.547-1.673-4.147-4.147-4.147-8.221a10.41,10.41,0,0,1,4.438-9.021c2.765-1.964,6.475-2.91,10.767-2.91,9.967,0,15.206,4.729,16.006,12.368H896.7c-.509-4.074-2.91-5.457-7.2-5.457-3.929,0-6.4,1.382-6.4,4.147,0,1.673,1.237,2.474,3.2,3.056,1.892.655,4.438.946,7.057,1.528,3.128.655,6.4,1.382,8.949,3.056,2.546,1.746,4.22,4.365,4.22,8.73a10.5,10.5,0,0,1-4.365,8.8,19.242,19.242,0,0,1-11.35,3.2C879.895,213.11,873.929,207.945,873.347,199.942Zm40.74,7.421c-3.347-3.492-5.02-8.512-5.02-14.041a20.254,20.254,0,0,1,5.166-13.969,17.627,17.627,0,0,1,13.241-5.675c6.038,0,10.549,2.255,13.678,6.257s4.729,9.531,4.729,16.224H918.816c.8,5.82,3.856,9.312,9.531,9.312,3.929,0,6.111-1.746,7.2-4.584H945.3a14.429,14.429,0,0,1-5.311,8.585,18.453,18.453,0,0,1-11.568,3.638C922.163,213.11,917.434,210.927,914.087,207.363Zm4.875-18.043H935.55c-.291-4.8-3.347-8-7.93-8C922.381,181.317,919.835,184.372,918.962,189.32ZM952.283,174.7V163.056h9.676V174.7h6.4v6.911h-6.4v19.425c0,2.837,1.455,3.71,3.711,3.71h1.892a4.8,4.8,0,0,0,1.018-.073v7.275a11.261,11.261,0,0,1-1.6.073c-1.091.073-2.619.073-4.583.073a11.8,11.8,0,0,1-6.839-1.819c-1.964-1.382-3.274-3.638-3.274-7.13V181.608h-5.165V174.7Zm22.99,0V163.056h9.676V174.7h6.4v6.911h-6.4v19.425c0,2.837,1.455,3.71,3.711,3.71h1.891a4.807,4.807,0,0,0,1.019-.073v7.275a11.265,11.265,0,0,1-1.6.073c-1.091.073-2.619.073-4.583.073a11.8,11.8,0,0,1-6.839-1.819c-1.964-1.382-3.274-3.638-3.274-7.13V181.608h-5.165V174.7Zm18.769,25.245h9.167c.655,4.365,3.638,6.184,8.148,6.184,4.365,0,6.839-1.673,6.839-4.292,0-1.746-1.237-2.765-2.983-3.419a54.191,54.191,0,0,0-6.839-1.528c-3.419-.655-6.62-1.382-9.094-3.056-2.546-1.673-4.147-4.147-4.147-8.221a10.41,10.41,0,0,1,4.438-9.021c2.765-1.964,6.475-2.91,10.768-2.91,9.967,0,15.206,4.729,16.006,12.368H1017.4c-.509-4.074-2.91-5.457-7.2-5.457-3.929,0-6.4,1.382-6.4,4.147,0,1.673,1.237,2.474,3.2,3.056,1.892.655,4.438.946,7.057,1.528,3.128.655,6.4,1.382,8.948,3.056,2.547,1.746,4.22,4.365,4.22,8.73a10.5,10.5,0,0,1-4.365,8.8,19.243,19.243,0,0,1-11.35,3.2C1000.589,213.11,994.623,207.945,994.041,199.942ZM565.893,227.625v52.019H555.344V227.625Zm16.733,19.789a11.914,11.914,0,0,1,11.059-6.111A12.153,12.153,0,0,1,603,245.231a14.814,14.814,0,0,1,3.565,10.04v24.373h-9.895V256.726c0-4.074-2.255-6.839-6.475-6.839-4.365,0-7.566,3.42-7.566,8.585v21.171h-9.894V242.321h9.676v5.093Zm27.282,20.153h9.167c.655,4.365,3.638,6.184,8.148,6.184,4.365,0,6.839-1.673,6.839-4.292,0-1.746-1.237-2.765-2.983-3.419a54.2,54.2,0,0,0-6.839-1.528c-3.419-.655-6.62-1.382-9.094-3.056-2.547-1.673-4.147-4.147-4.147-8.221a10.41,10.41,0,0,1,4.438-9.021c2.765-1.964,6.475-2.91,10.768-2.91,9.967,0,15.205,4.729,16.006,12.368h-8.949c-.509-4.074-2.91-5.457-7.2-5.457-3.929,0-6.4,1.382-6.4,4.147,0,1.673,1.237,2.474,3.2,3.056,1.892.655,4.438.946,7.057,1.528,3.128.655,6.4,1.382,8.949,3.056,2.546,1.746,4.22,4.365,4.22,8.73a10.5,10.5,0,0,1-4.365,8.8,19.242,19.242,0,0,1-11.35,3.2C616.456,280.735,610.49,275.569,609.908,267.566Zm39.432-25.245V230.68h9.676v11.641h6.4v6.911h-6.4v19.425c0,2.837,1.455,3.71,3.711,3.71h1.891a4.809,4.809,0,0,0,1.019-.073v7.275a11.273,11.273,0,0,1-1.6.073c-1.091.073-2.619.073-4.583.073a11.8,11.8,0,0,1-6.839-1.819c-1.964-1.382-3.274-3.638-3.274-7.13V249.232h-5.165v-6.911Zm30.628-13.314v8.876h-9.894v-8.876Zm0,13.314v37.323h-9.894V242.321Zm8.949,0V230.68h9.676v11.641H705v6.911h-6.4v19.425c0,2.837,1.455,3.71,3.711,3.71H704.2a4.81,4.81,0,0,0,1.019-.073v7.275a11.274,11.274,0,0,1-1.6.073c-1.091.073-2.619.073-4.584.073a11.8,11.8,0,0,1-6.839-1.819c-1.964-1.382-3.274-3.638-3.274-7.13V249.232h-5.166v-6.911Zm44.306,32.957H733a11.977,11.977,0,0,1-10.7,5.384c-8.366,0-12.95-5.166-12.95-13.459V242.321h9.822v23.208c0,4.365,1.891,6.766,6.184,6.766,4.656,0,7.494-3.492,7.494-8.439V242.321h9.894v37.323h-9.531Zm18.48-32.957V230.68h9.676v11.641h6.4v6.911h-6.4v19.425c0,2.837,1.455,3.71,3.71,3.71h1.892A4.808,4.808,0,0,0,768,272.3v7.275a11.272,11.272,0,0,1-1.6.073c-1.091.073-2.619.073-4.584.073a11.8,11.8,0,0,1-6.839-1.819c-1.964-1.382-3.274-3.638-3.274-7.13V249.232h-5.166v-6.911Zm23.572,32.666c-3.347-3.492-5.02-8.512-5.02-14.041a20.254,20.254,0,0,1,5.166-13.969,17.628,17.628,0,0,1,13.241-5.675c6.038,0,10.549,2.255,13.678,6.257s4.729,9.531,4.729,16.224H780c.8,5.82,3.856,9.312,9.531,9.312,3.929,0,6.111-1.746,7.2-4.584h9.749a14.43,14.43,0,0,1-5.311,8.585,18.455,18.455,0,0,1-11.568,3.638C783.35,280.735,778.622,278.552,775.275,274.987Zm4.874-18.043h16.588c-.291-4.8-3.347-8-7.93-8C783.569,248.941,781.022,252,780.149,256.944Zm46.489,18.043a19.5,19.5,0,0,1-5.456-13.969,19.8,19.8,0,0,1,5.456-14.041A19.22,19.22,0,0,1,840.68,241.3a19.514,19.514,0,0,1,14.114,5.675,20.062,20.062,0,0,1,5.384,14.041,19.757,19.757,0,0,1-5.384,13.969,19.279,19.279,0,0,1-14.114,5.748A18.991,18.991,0,0,1,826.638,274.987Zm23.5-13.969c0-7.348-3.347-12.223-9.458-12.223s-9.458,4.875-9.458,12.223c0,7.275,3.347,12.15,9.458,12.15S850.138,268.294,850.138,261.019Zm16.369-18.7v-3.347c0-4.583,1.746-7.639,4.729-9.458,2.91-1.746,7.057-2.328,11.859-1.819v7.639c-4.656-.218-6.693.291-6.693,4.22v2.765H883.1v7.13H876.4v30.193h-9.894V249.451h-5.093v-7.13ZM581.535,295.249v8.876H565.893v43.143H555.344V304.125H539.7v-8.876Zm-1.091,47.363c-3.347-3.492-5.02-8.512-5.02-14.041a20.255,20.255,0,0,1,5.166-13.969,17.628,17.628,0,0,1,13.241-5.675c6.038,0,10.549,2.255,13.678,6.257s4.729,9.531,4.729,16.224H585.173c.8,5.82,3.856,9.312,9.531,9.312,3.929,0,6.111-1.746,7.2-4.584h9.749a14.431,14.431,0,0,1-5.311,8.585,18.455,18.455,0,0,1-11.568,3.638C588.519,348.359,583.791,346.177,580.444,342.612Zm4.875-18.043h16.588c-.291-4.8-3.347-8-7.93-8C588.738,316.566,586.191,319.622,585.319,324.569Zm34.412,18.043a19.923,19.923,0,0,1-5.166-13.969,20.522,20.522,0,0,1,5.093-14.041,17.816,17.816,0,0,1,13.532-5.675,18.147,18.147,0,0,1,11.641,3.783,15.982,15.982,0,0,1,5.311,9.895h-9.676a6.723,6.723,0,0,0-6.839-5.748c-6.039,0-9.021,4.438-9.021,11.786,0,7.13,2.765,11.786,8.876,11.786,4.074,0,6.839-2.037,7.493-6.33h9.531a14.735,14.735,0,0,1-4.875,10.04,17.486,17.486,0,0,1-11.932,4.22A18.474,18.474,0,0,1,619.73,342.612Zm44.744-27.792c2.765-4,5.675-5.893,10.84-5.893a12.154,12.154,0,0,1,9.313,3.929,14.813,14.813,0,0,1,3.565,10.04v24.372H678.3V324.351c0-4.074-2.255-6.839-6.475-6.839-4.365,0-7.567,3.419-7.567,8.585v21.171h-9.894V295.249h9.894V314.82Zm39.287.218a11.914,11.914,0,0,1,11.059-6.111,12.153,12.153,0,0,1,9.312,3.929A14.813,14.813,0,0,1,727.7,322.9v24.372H717.8V324.351c0-4.074-2.255-6.839-6.475-6.839-4.365,0-7.566,3.419-7.566,8.585v21.171h-9.895V309.945h9.676v5.093Zm33.248,27.574a19.5,19.5,0,0,1-5.457-13.969,19.8,19.8,0,0,1,5.457-14.041,19.22,19.22,0,0,1,14.042-5.675,19.515,19.515,0,0,1,14.114,5.675,20.062,20.062,0,0,1,5.384,14.041,19.757,19.757,0,0,1-5.384,13.969,19.279,19.279,0,0,1-14.114,5.748A18.991,18.991,0,0,1,737.009,342.612Zm23.5-13.969c0-7.348-3.347-12.223-9.458-12.223s-9.458,4.875-9.458,12.223c0,7.275,3.347,12.15,9.458,12.15S760.509,335.919,760.509,328.643Zm24.227-33.394v52.019H774.84V295.249Zm9.749,47.363a19.5,19.5,0,0,1-5.457-13.969,19.8,19.8,0,0,1,5.457-14.041,19.22,19.22,0,0,1,14.042-5.675,19.514,19.514,0,0,1,14.114,5.675,20.063,20.063,0,0,1,5.384,14.041,19.757,19.757,0,0,1-5.384,13.969,19.278,19.278,0,0,1-14.114,5.748A18.991,18.991,0,0,1,794.484,342.612Zm23.5-13.969c0-7.348-3.346-12.223-9.458-12.223s-9.458,4.875-9.458,12.223c0,7.275,3.347,12.15,9.458,12.15S817.983,335.919,817.983,328.643Zm13.168,19.716h9.822c.8,2.328,2.837,4.147,7.494,4.147,5.529,0,8.294-2.546,8.294-7.785v-4.074h-.218a11.852,11.852,0,0,1-9.749,4.365,15.569,15.569,0,0,1-11.277-4.729,17.717,17.717,0,0,1-5.166-13.1c0-5.529,1.673-10.113,4.584-13.314a14.883,14.883,0,0,1,11.568-4.947c4.656,0,8.076,1.819,10.331,4.947h.145v-3.929h9.531v34.485c0,5.238-1.6,8.8-4.438,11.349-3.129,2.91-7.93,4.22-13.46,4.22C838.281,360,832.243,355.635,831.151,348.359Zm24.081-14.26a11.653,11.653,0,0,0,2.037-7.13,11.4,11.4,0,0,0-2.183-7.13,8.135,8.135,0,0,0-6.693-2.983c-5.093,0-8.367,3.856-8.367,10.186,0,6.4,3.274,10.04,8.44,10.04A8.184,8.184,0,0,0,855.233,334.1Zm21.535,17.606c4,0,5.529-1.964,5.529-5.093a13.621,13.621,0,0,0-.582-3.71c-.509-1.528-1.164-3.565-2.255-6.4l-10.04-26.555h10.4l5.529,16.806c.582,1.746,1.091,3.71,1.6,5.384.218.946.509,1.819.8,2.765h.145c.218-.946.437-1.819.655-2.765a54.861,54.861,0,0,1,1.528-5.384l5.239-16.806h9.967l-13.023,38.268c-1.455,4.22-2.837,6.984-4.8,8.73-2.037,1.819-4.583,2.547-8.367,2.547h-5.82v-7.785Zm-529.5-4.438h41.615V222.423H347.268Zm62.423-145.653H513.728V160H409.691ZM347.268,160h41.615v41.615H347.268ZM284.845,347.268H326.46V160H284.845Zm-62.423-41.615h41.615V160H222.423ZM160,347.268h41.615V160H160Zm249.691,0h41.615V222.423H409.691Z" transform="translate(-160 -160)"></path>
</svg>