<svg viewBox="0 0 130 50" xmlns="http://www.w3.org/2000/svg" fill-rule="evenodd" clip-rule="evenodd" stroke-linejoin="round" stroke-miterlimit="2">
  <path fill="currentColor" d="M0 50V0h18.117l5.631 20.144L29.297 0h17.872l-.163 50H32.888l.081-22.185-3.835 16.73-10.283.245-4.162-15.914L14.934 50H0zM49.59 50V0h18.117l5.631 20.144L78.888 0h17.871l-.163 50H82.478l.081-22.185-3.835 16.73-10.283.245-4.162-15.914L64.524 50H49.59zM99.475 50l.04-50H130v13.289l-17.426.165.044 6.734 14.036.038.327 13.139-14.121-.001L112.781 50H99.475z"/>
</svg>