<svg xmlns="http://www.w3.org/2000/svg" xml:space="preserve" style="enable-background:new 0 0 250 70" viewBox="0 0 250 70"><path d="M5 4.883h16.115l15.078 25.616h.482c-.67-3.862-1.405-7.844-1.405-11.769V4.883h16.055v46.199H35.27L20.504 26.818h-.491c.551 3.19 1.037 6.189 1.037 9.257v15.007H5V4.883M53.519 51.082 71.41 4.883h14.219l22.288 60.244H90.053l-10.189-35.06c-.675-2.265-1.166-4.537-1.166-6.859h-.363c0 2.322-.491 4.594-1.161 6.859l-6.127 21.015H53.519M114.095 4.883h17.276l6.379 24.264h.423c.308-2.02.61-4.163 1.161-6.125l5.209-18.139h17.098l7.591 46.199h-16.233l-2.259-25.306h-.312c-.308 1.538-.61 3.125-1.098 4.599l-6.683 20.707h-9.804l-6.008-19.542c-.486-1.962-.918-3.802-1.037-5.765h-.556c-.119 1.845-.239 3.743-.427 5.579l-1.955 19.727h-16.239l7.474-46.198M180.431 4.883h17.271l6.366 24.264h.432c.312-2.02.615-4.163 1.175-6.125l5.205-18.139h17.088l7.596 46.199h-16.229l-2.268-25.306h-.308c-.308 1.538-.619 3.125-1.102 4.599l-6.678 20.707h-9.804l-6.004-19.542c-.491-1.962-.918-3.802-1.046-5.765h-.542c-.129 1.845-.252 3.743-.432 5.579l-1.964 19.727h-16.234l7.478-46.198M242.848 7.011c.918.92 1.377 2.036 1.377 3.334 0 1.317-.459 2.439-1.377 3.371-.914.925-2.033 1.388-3.346 1.388-1.309 0-2.424-.463-3.342-1.388-.913-.932-1.368-2.054-1.368-3.371 0-1.299.455-2.415 1.377-3.334.918-.93 2.038-1.393 3.333-1.393 1.308 0 2.423.463 3.346 1.393m.546-.537c-1.074-1.063-2.368-1.6-3.892-1.6-1.511 0-2.8.537-3.86 1.6-1.074 1.074-1.611 2.366-1.611 3.872 0 1.531.532 2.83 1.598 3.903 1.06 1.074 2.35 1.616 3.874 1.616 1.523 0 2.817-.542 3.892-1.616 1.069-1.081 1.606-2.377 1.606-3.903-.001-1.511-.538-2.803-1.607-3.872zm-3.076 3.621c-.221.09-.56.138-1.01.138h-.954v-2.19h.903c.583 0 1.01.078 1.281.227.271.149.399.44.399.883.001.462-.206.781-.619.942zm-3.029 3.254h1.065v-2.382h.84c.555 0 .949.064 1.179.198.386.222.565.686.565 1.381v.479l.022.195c.009.023.009.048.019.064.009.021.009.048.019.064h.986l-.032-.081c-.027-.048-.041-.149-.055-.307-.014-.166-.014-.31-.014-.452v-.441c0-.305-.115-.617-.331-.932-.225-.323-.564-.516-1.042-.594.377-.06.666-.156.872-.289.399-.255.597-.654.597-1.191 0-.759-.312-1.264-.936-1.526-.35-.142-.9-.218-1.644-.218h-2.111v6.032z" fill="currentColor"/></svg>