<svg xmlns="http://www.w3.org/2000/svg" fill-rule="evenodd" stroke-linejoin="round" stroke-miterlimit="2" clip-rule="evenodd" viewBox="0 0 3018 2502">
  <defs/>
  <path fill="#000" d="M0 636.628h3017.661v1865.214H.001z"/>
  <path fill="#000" fill-rule="nonzero" d="M3017.65 0H1975.12v636.629h288.113V348.516h754.417V0z"/>
  <path fill="#fff" fill-rule="nonzero" d="M1508.82 2035.531c-257.53 0-466.296-208.78-466.296-466.292 0-257.55 208.767-466.317 466.296-466.317 257.538 0 466.3 208.767 466.3 466.317 0 257.513-208.762 466.292-466.3 466.292m466.3-1398.905V976.15c-128.341-101.05-290.279-161.342-466.3-161.342-416.642 0-754.421 337.767-754.421 754.43 0 416.642 337.779 754.417 754.421 754.417 416.65 0 754.417-337.775 754.417-754.417V636.626H1975.12z"/>
</svg>