<?xml version="1.0" encoding="UTF-8" standalone="no"?>
<!DOCTYPE svg PUBLIC "-//W3C//DTD SVG 1.1//EN" "http://www.w3.org/Graphics/SVG/1.1/DTD/svg11.dtd">
<svg width="100%" height="100%" viewBox="0 0 3508 618" version="1.1" xmlns="http://www.w3.org/2000/svg" xmlns:xlink="http://www.w3.org/1999/xlink" xml:space="preserve" xmlns:serif="http://www.serif.com/" style="fill-rule:evenodd;clip-rule:evenodd;stroke-linejoin:round;stroke-miterlimit:2;">
    <g transform="matrix(0.798185,0,0,0.798185,-622.05,-518.41)">
        <path d="M877.784,1084.15L877.784,1421.41L841.125,1421.41L841.125,1047.49L939.579,1047.49C1048.51,1047.49 1098.78,990.932 1098.78,866.294C1098.78,743.75 1048.51,686.144 939.579,686.144L779.33,686.144L779.33,649.486L939.579,649.486C1005.56,649.486 1055.84,668.339 1089.36,707.092C1120.78,742.703 1136.49,796.119 1136.49,866.294C1136.49,1007.69 1072.6,1084.15 939.579,1084.15L877.784,1084.15ZM779.33,711.282L815.988,711.282L815.988,1421.41L779.33,1421.41L779.33,711.282ZM841.125,1022.35L841.125,711.282L939.579,711.282C1034.89,711.282 1074.69,756.319 1074.69,866.294C1074.69,976.269 1034.89,1022.35 939.579,1022.35L841.125,1022.35ZM877.784,747.94L877.784,985.696L939.579,985.696C966.811,985.696 985.664,982.553 995.09,976.269C1004.52,969.985 1010.8,964.748 1013.94,961.606C1029.65,943.8 1036.99,912.379 1036.99,866.294C1036.99,816.02 1028.61,786.693 1012.9,769.935C996.138,753.177 972.048,747.94 939.579,747.94L877.784,747.94Z" style="fill:rgb(141,53,37);fill-rule:nonzero;"/>
        <path d="M1218.18,650.533L1218.18,1422.45L1181.52,1422.45L1181.52,650.533L1218.18,650.533ZM1466.41,1024.45L1243.32,1024.45L1243.32,650.533L1279.98,650.533L1279.98,987.79L1428.71,987.79L1428.71,650.533L1466.41,650.533L1466.41,1024.45ZM1490.5,1422.45L1490.5,650.533L1528.21,650.533L1528.21,1422.45L1490.5,1422.45ZM1243.32,1049.59L1466.41,1049.59L1466.41,1422.45L1428.71,1422.45L1428.71,1086.24L1279.98,1086.24L1279.98,1422.45L1243.32,1422.45L1243.32,1049.59Z" style="fill:rgb(141,53,37);fill-rule:nonzero;"/>
        <path d="M1976.49,1201.46C1976.49,1270.58 1961.82,1322.95 1932.5,1359.61C1920.98,1373.23 1906.31,1388.94 1883.27,1400.46C1860.23,1413.03 1830.9,1421.41 1793.19,1421.41C1717.78,1421.41 1675.89,1387.89 1653.89,1359.61C1624.57,1322.95 1609.9,1270.58 1609.9,1201.46L1609.9,868.389C1609.9,800.309 1624.57,747.94 1653.89,710.234C1675.89,681.955 1717.78,649.486 1793.19,649.486C1868.61,649.486 1910.5,681.955 1932.5,710.234C1961.82,747.94 1976.49,800.309 1976.49,868.389L1976.49,1201.46ZM1939.83,868.389C1939.83,750.035 1889.55,686.144 1793.19,686.144C1696.84,686.144 1646.56,750.035 1646.56,868.389L1646.56,1201.46C1646.56,1319.81 1697.88,1384.75 1793.19,1384.75C1888.51,1384.75 1939.83,1319.81 1939.83,1201.46L1939.83,868.389ZM1914.69,1201.46C1914.69,1307.24 1873.84,1359.61 1793.19,1359.61C1712.55,1359.61 1671.7,1307.24 1671.7,1201.46L1671.7,868.389C1671.7,813.925 1682.17,774.124 1703.12,748.987C1721.97,723.85 1752.35,711.282 1793.19,711.282C1834.04,711.282 1864.42,723.85 1883.27,748.987C1904.22,774.124 1914.69,813.925 1914.69,868.389L1914.69,1201.46ZM1878.03,868.389C1878.03,808.688 1864.42,777.267 1846.61,762.603C1828.81,747.94 1806.81,747.94 1793.19,747.94C1777.48,747.94 1757.58,747.94 1739.78,762.603C1721.97,777.267 1708.36,808.688 1708.36,868.389L1708.36,1201.46C1708.36,1263.25 1721.97,1292.58 1739.78,1307.24C1757.58,1321.9 1777.48,1322.95 1793.19,1322.95C1806.81,1322.95 1828.81,1321.9 1846.61,1307.24C1864.42,1292.58 1878.03,1263.25 1878.03,1201.46L1878.03,868.389Z" style="fill:rgb(141,53,37);fill-rule:nonzero;"/>
        <path d="M2460.38,689.287L2023.62,689.287L2023.62,651.581L2460.38,651.581L2460.38,689.287ZM2023.62,713.376L2229.95,713.376L2229.95,1423.5L2192.25,1423.5L2192.25,751.082L2023.62,751.082L2023.62,713.376ZM2254.04,1423.5L2254.04,713.376L2460.38,713.376L2460.38,751.082L2291.75,751.082L2291.75,1423.5L2254.04,1423.5Z" style="fill:rgb(141,53,37);fill-rule:nonzero;"/>
        <path d="M2883.52,1201.46C2883.52,1270.58 2868.86,1322.95 2839.53,1359.61C2828.01,1373.23 2813.34,1388.94 2790.3,1400.46C2767.26,1413.03 2737.93,1421.41 2700.23,1421.41C2624.82,1421.41 2582.92,1387.89 2560.93,1359.61C2531.6,1322.95 2516.94,1270.58 2516.94,1201.46L2516.94,868.389C2516.94,800.309 2531.6,747.94 2560.93,710.234C2582.92,681.955 2624.82,649.486 2700.23,649.486C2775.64,649.486 2817.53,681.955 2839.53,710.234C2868.86,747.94 2883.52,800.309 2883.52,868.389L2883.52,1201.46ZM2846.86,868.389C2846.86,750.035 2796.59,686.144 2700.23,686.144C2603.87,686.144 2553.59,750.035 2553.59,868.389L2553.59,1201.46C2553.59,1319.81 2604.92,1384.75 2700.23,1384.75C2795.54,1384.75 2846.86,1319.81 2846.86,1201.46L2846.86,868.389ZM2821.72,1201.46C2821.72,1307.24 2780.88,1359.61 2700.23,1359.61C2619.58,1359.61 2578.73,1307.24 2578.73,1201.46L2578.73,868.389C2578.73,813.925 2589.2,774.124 2610.15,748.987C2629.01,723.85 2659.38,711.282 2700.23,711.282C2741.08,711.282 2771.45,723.85 2790.3,748.987C2811.25,774.124 2821.72,813.925 2821.72,868.389L2821.72,1201.46ZM2785.07,868.389C2785.07,808.688 2771.45,777.267 2753.64,762.603C2735.84,747.94 2713.84,747.94 2700.23,747.94C2684.52,747.94 2664.62,747.94 2646.81,762.603C2629.01,777.267 2615.39,808.688 2615.39,868.389L2615.39,1201.46C2615.39,1263.25 2629.01,1292.58 2646.81,1307.24C2664.62,1321.9 2684.52,1322.95 2700.23,1322.95C2713.84,1322.95 2735.84,1321.9 2753.64,1307.24C2771.45,1292.58 2785.07,1263.25 2785.07,1201.46L2785.07,868.389Z" style="fill:rgb(141,53,37);fill-rule:nonzero;"/>
        <path d="M3309.8,921.805L3272.1,921.805L3272.1,872.578C3272.1,750.035 3222.87,689.287 3125.46,689.287C3030.15,689.287 2977.78,766.793 2977.78,872.578C2977.78,932.279 3000.83,973.127 3030.15,1000.36C3058.43,1027.59 3091.95,1042.25 3111.85,1050.63L3129.65,1059.01C3147.46,1066.34 3176.79,1076.82 3201.92,1099.86C3227.06,1122.9 3248.01,1158.51 3248.01,1209.84C3248.01,1306.19 3201.92,1361.7 3125.46,1361.7C3042.72,1361.7 3002.92,1313.53 3002.92,1204.6L3002.92,1155.37L3039.58,1155.37L3039.58,1204.6C3039.58,1249.64 3047.96,1282.1 3063.67,1302.01C3066.81,1307.24 3073.1,1311.43 3082.52,1316.67C3091.95,1321.9 3105.56,1325.05 3125.46,1325.05C3163.17,1325.05 3184.12,1306.19 3196.69,1283.15C3208.21,1260.11 3210.3,1230.78 3210.3,1209.84C3210.3,1173.18 3197.73,1149.09 3179.93,1131.28C3162.12,1114.52 3138.03,1103 3116.04,1093.58L3097.18,1085.2C3075.19,1075.77 3037.48,1060.06 3003.97,1027.59C2962.07,986.743 2941.12,935.421 2941.12,872.578C2941.12,806.593 2958.93,751.082 2992.45,712.329C3024.91,674.623 3071,651.581 3125.46,651.581C3200.88,651.581 3242.77,684.05 3264.77,712.329C3295.14,751.082 3309.8,804.499 3309.8,872.578L3309.8,921.805ZM2941.12,1155.37L2977.78,1155.37L2977.78,1204.6C2977.78,1325.05 3028.06,1386.84 3125.46,1386.84C3171.55,1386.84 3210.3,1369.04 3235.44,1334.47C3259.53,1304.1 3272.1,1260.11 3272.1,1209.84C3272.1,1150.13 3248.01,1109.29 3219.73,1083.1C3190.4,1056.92 3156.89,1043.3 3139.08,1035.97L3122.32,1028.64C3102.42,1020.26 3073.1,1007.69 3047.96,982.553C3022.82,958.464 3002.92,923.9 3002.92,872.578C3002.92,835.92 3010.25,796.119 3030.15,765.745C3050.05,735.371 3080.43,713.376 3125.46,713.376C3206.11,713.376 3248.01,763.651 3248.01,872.578L3248.01,921.805L3210.3,921.805L3210.3,872.578C3210.3,812.878 3196.69,780.409 3178.88,765.745C3161.08,751.082 3139.08,751.082 3125.46,751.082C3084.62,751.082 3064.72,773.077 3053.2,800.309C3040.63,827.541 3039.58,858.962 3039.58,872.578C3039.58,909.237 3052.15,933.326 3069.95,952.179C3087.76,971.032 3111.85,984.648 3136.99,994.075L3153.74,1001.41C3173.64,1009.78 3211.35,1023.4 3244.87,1055.87C3287.81,1095.67 3309.8,1146.99 3309.8,1209.84C3309.8,1328.19 3243.82,1423.5 3125.46,1423.5C3002.92,1423.5 2941.12,1342.85 2941.12,1204.6L2941.12,1155.37Z" style="fill:rgb(141,53,37);fill-rule:nonzero;"/>
        <path d="M3356.93,651.581L3570.6,1041.21L3570.6,1423.5L3534.99,1423.5L3534.99,1050.63L3315.04,651.581L3356.93,651.581ZM3741.32,651.581L3781.12,651.581L3583.17,1011.88L3385.22,651.581L3428.16,651.581L3584.22,935.421L3741.32,651.581ZM3594.69,1423.5L3594.69,1041.21L3809.4,651.581L3854.44,651.581L3633.44,1050.63L3633.44,1423.5L3594.69,1423.5Z" style="fill:rgb(141,53,37);fill-rule:nonzero;"/>
        <path d="M4208.46,649.486L4208.46,1308.29L3958.13,687.192L3936.14,687.192L3936.14,1421.41L3899.48,1421.41L3899.48,649.486L3982.22,649.486L4170.75,1116.62L4170.75,649.486L4208.46,649.486ZM4211.6,1383.7L4232.55,1383.7L4232.55,649.486L4270.25,649.486L4270.25,1421.41L4186.46,1421.41L3997.93,954.274L3997.93,1421.41L3961.27,1421.41L3961.27,762.603L4211.6,1383.7Z" style="fill:rgb(141,53,37);fill-rule:nonzero;"/>
        <path d="M4770.9,689.287L4334.14,689.287L4334.14,651.581L4770.9,651.581L4770.9,689.287ZM4334.14,713.376L4540.48,713.376L4540.48,1423.5L4502.77,1423.5L4502.77,751.082L4334.14,751.082L4334.14,713.376ZM4564.57,1423.5L4564.57,713.376L4770.9,713.376L4770.9,751.082L4602.27,751.082L4602.27,1423.5L4564.57,1423.5Z" style="fill:rgb(141,53,37);fill-rule:nonzero;"/>
        <path d="M4864.12,650.533L4864.12,1422.45L4827.46,1422.45L4827.46,650.533L4864.12,650.533ZM5112.35,1024.45L4889.25,1024.45L4889.25,650.533L4925.91,650.533L4925.91,987.79L5074.64,987.79L5074.64,650.533L5112.35,650.533L5112.35,1024.45ZM5136.44,1422.45L5136.44,650.533L5174.14,650.533L5174.14,1422.45L5136.44,1422.45ZM4889.25,1049.59L5112.35,1049.59L5112.35,1422.45L5074.64,1422.45L5074.64,1086.24L4925.91,1086.24L4925.91,1422.45L4889.25,1422.45L4889.25,1049.59Z" style="fill:rgb(141,53,37);fill-rule:nonzero;"/>
    </g>
</svg>
