<svg xmlns="http://www.w3.org/2000/svg" viewBox="0 0 1410 420">
  <path d="M0 0c239.315 0 239.315 0 281 31l2.527 1.855c27.819 21.315 43.132 53.475 47.992 87.812.523 4.261.658 8.47.684 12.759l.022 2.367C332.503 175.625 325.7 208.443 297 238c-10.836 10.87-23.377 19.033-37 26 1.383 2.896 2.947 5.544 4.73 8.21l1.66 2.489 1.798 2.676 1.88 2.81c6.29 9.382 12.655 18.713 19.032 28.036a8933 8933 0 0 1 7.629 11.184q7.873 11.556 15.771 23.095c6.528 9.535 13.037 19.083 19.544 28.631l6.1 8.943 2.052 3.007 3.882 5.688 1.777 2.606 1.552 2.273c1.88 2.774 3.734 5.564 5.593 8.352l1-402h193c11.395 13.674 11.395 13.674 15.625 19.438a4340 4340 0 0 0 4.667 6.278c3.143 4.201 6.335 8.365 9.52 12.534a2444 2444 0 0 1 15.813 20.938 1220 1220 0 0 0 16.308 21.294c4.336 5.552 8.583 11.165 12.795 16.812a927 927 0 0 0 9.71 12.769c3.283 4.251 6.488 8.531 9.562 12.937 4.747-4.428 8.54-9.447 12.438-14.625l2.134-2.818c5.104-6.754 10.134-13.56 15.137-20.39 5.024-6.843 10.17-13.59 15.33-20.331A1070 1070 0 0 0 699 47.5c5.626-7.68 11.363-15.269 17.147-22.831q7.214-9.436 14.312-18.96C733.9 1.1 733.9 1.1 735 0a74 74 0 0 1 4.638-.12l3.038-.004 3.361.01h3.518c3.858 0 7.716.009 11.574.016l8 .005q9.471.005 18.944.021 10.78.016 21.561.022Q831.817-.034 854 0c-4.348 7.682-4.348 7.682-6.96 10.953l-1.657 2.095-1.758 2.202a653 653 0 0 0-14.5 19.063A1147 1147 0 0 1 814 54.5a1183 1183 0 0 0-15 20c-5.587 7.627-11.293 15.156-17.04 22.664A1069 1069 0 0 0 769 114.5c-5.587 7.627-11.293 15.156-17.04 22.664-4.966 6.501-9.835 13.069-14.669 19.67a922 922 0 0 1-11.307 15.057c-2.681 3.5-5.349 7.011-8.015 10.524q-1.978 2.597-3.973 5.182a806 806 0 0 0-5.621 7.403l-1.742 2.229-1.547 2.083-1.374 1.801c-.95 1.96-.95 1.96-.043 4.342 1.332 2.546 2.77 4.693 4.534 6.96l1.95 2.524 2.097 2.686q2.197 2.846 4.39 5.695l2.23 2.892c3.099 4.055 6.118 8.167 9.13 12.288 4.925 6.726 9.934 13.38 15 20 8.041 10.511 15.89 21.156 23.709 31.834a1779 1779 0 0 0 22.33 29.83c4.968 6.502 9.837 13.07 14.672 19.672 4.362 5.94 8.81 11.811 13.289 17.664a1308 1308 0 0 1 16.75 22.369 954 954 0 0 0 9.457 12.693l2.107 2.783q2.027 2.673 4.065 5.335l1.832 2.418 1.634 2.14C854 407 854 407 854 409c-15.272.446-30.544.78-45.822.984-7.095.098-14.187.23-21.28.45-6.188.19-12.374.312-18.566.354-3.275.024-6.54.091-9.813.22-19.875.755-19.875.755-25.975-3.87-4.29-4.47-7.411-9.475-10.32-14.919-1.612-2.922-3.51-5.402-5.599-8l-1.832-2.389L713 379.5a1170 1170 0 0 1-15-20c-5.637-7.694-11.386-15.297-17.18-22.875a1986 1986 0 0 1-13.227-17.508c-4.978-6.653-10.023-13.253-15.075-19.85-3.592-4.699-7.112-9.43-10.518-14.267-5.576 6.646-10.889 13.44-16.068 20.397-4.224 5.673-8.51 11.298-12.807 16.916a1211 1211 0 0 0-15.25 20.375c-5.085 6.947-10.31 13.767-15.623 20.541-4.805 6.146-9.44 12.405-14.046 18.7-4.622 6.31-9.345 12.536-14.12 18.73l-1.54 1.997-1.348 1.744c-1.12 1.495-2.162 3.046-3.198 4.6-2.24.396-2.24.396-5.095.425l-3.29.055-3.644.015-3.848.05c-3.538.047-7.075.073-10.612.096-3.031.023-6.062.056-9.094.09-10.863.12-21.726.196-32.589.265l-5.195.034c-16.168.104-32.335.194-48.502.253l-11.24.042-2.823.01c-15.068.06-30.134.2-45.201.37q-23.211.261-46.424.299c-8.687.016-17.371.066-26.058.202-7.403.116-14.802.163-22.206.123-3.776-.02-7.544-.006-11.319.095-21.917.56-21.917.56-28.387-4.337-4.352-4.611-7.33-9.77-10.104-15.436-2.305-4.464-5.199-8.527-8.056-12.651a4985 4985 0 0 1-3.5-5.277c-4.291-6.458-8.643-12.873-13-19.286l-1.213-1.785-6.144-9.04q-5.393-7.936-10.778-15.876l-3.512-5.175q-5.6-8.249-11.19-16.504l-5.319-7.852-2.55-3.766-3.521-5.2-2.03-3c-1.37-2.111-1.37-2.111-2.556-3.239l-37-1v127H0zm466 51v308c2.677-2.677 4.788-4.895 6.96-7.879l1.657-2.261 1.758-2.423 3.781-5.167c.64-.879 1.282-1.757 1.942-2.662 8.523-11.685 17.149-23.28 25.936-34.767 6.77-8.864 13.377-17.843 19.966-26.841 7.905-10.796 15.891-21.518 24.023-32.144a1140 1140 0 0 0 15.147-20.294c2.525-3.459 5.064-6.89 7.736-10.238l1.311-1.662a425 425 0 0 1 3.404-4.217c1.614-2.323 1.614-2.323 1.17-4.807-.904-3.013-2.137-4.823-4.072-7.298l-2.037-2.635-2.182-2.768q-2.22-2.86-4.437-5.722l-2.153-2.758A486 486 0 0 1 559.5 174c-3.34-4.472-6.72-8.91-10.11-13.344a1557 1557 0 0 1-19.1-25.49c-5.022-6.841-10.166-13.585-15.325-20.323a1042 1042 0 0 1-13.09-17.53c-5.075-6.936-10.288-13.747-15.597-20.505-5.125-6.547-10.051-13.232-14.924-19.968l-1.686-2.317-1.491-2.065c-.389-.48-.777-.962-1.177-1.458zM112 92v105l28 .188 8.734.082c20.452.114 40.703-.115 57.078-14.102 10.358-10.266 14.146-23.587 14.563-37.793-.032-14.925-4.32-28.024-14.5-39.125-13.316-12.646-31.015-14.42-48.465-14.348l-3.493.003c-4.285.006-8.57.02-12.855.032z" style="fill:#fff" transform="translate(458 3)"/>
  <path d="m0 0 2.081-.002c11.252.017 22.056.71 33.044 3.252l2.192.488c29.37 6.73 54.174 21.904 75.808 42.512l2.332 2.137c27.54 26.05 43.501 66.35 44.734 103.884.85 32.464-6.86 62.377-22.693 90.729l-1.35 2.422-1.023 1.828 1.704 1.696a45008 45008 0 0 1 41.064 40.916q9.921 9.901 19.858 19.787 8.663 8.618 17.31 17.255 4.575 4.57 9.164 9.129 4.325 4.295 8.63 8.608a873 873 0 0 0 3.163 3.144c9.938 9.835 17.06 19.06 17.482 33.527-.243 7.912-1.992 14.52-7.527 20.368-7.651 6.502-16.39 8.159-26.223 7.382-12.05-2.065-20.73-10.195-28.971-18.59q-1.627-1.629-3.256-3.255a1980 1980 0 0 1-8.726-8.788c-3.044-3.076-6.103-6.137-9.16-9.2a8149 8149 0 0 1-17.296-17.403c-6.561-6.617-13.136-13.22-19.713-19.821a26151 26151 0 0 1-40.503-40.755l-2.492 1.454a577256906.363 577256906.363 0 0 0-6.513 3.8c-38.734 22.57-81.937 28.464-125.557 17.559-38.455-10.315-73.615-36.331-94.155-70.556-7.743-13.622-14.276-28.09-18.283-43.257l-.628-2.314c-9.938-38.43-3.345-81.234 15.628-115.686.565-1.054 1.13-2.109 1.71-3.195 20.59-37.02 56.482-62.292 96.602-74.06 5.834-1.618 11.69-2.89 17.688-3.745l1.884-.277C-14.687.02-7.356.007 0 0m-67.875 81.25-1.781 1.344c-19.692 15.233-30.689 42.346-33.906 66.219q-.19 2.215-.313 4.437l-.16 2.77c-.84 29.048 10.279 55.01 29.82 76.101 13.985 14.681 31.786 24.178 51.34 29.129l2.86.742c25.977 5.48 54.29-.332 76.515-14.555a194 194 0 0 0 5.625-4.187l1.616-1.246c19.688-15.381 32.688-36.48 38.384-60.754l.684-2.875c5.204-25.843-.948-53.668-15.235-75.625C70.9 78.359 46.331 62.263 17.257 56.701c-31.303-4.51-61.24 4.12-85.132 24.549" style="fill:#2c9ad8" transform="translate(163.875 3.75)"/>
  <path d="M0 0c9.488 7.173 16.186 16.031 18.75 27.813 1.328 14.346.062 26.622-8.812 38.437-8.639 10-19.25 15.768-32.415 16.82-14.31.476-25.534-3.584-35.992-13.324-8.38-8.74-12.634-19.714-13.093-31.746.336-14.415 6.088-25.375 16.312-35.187A46.94 46.94 0 0 1 0 0" style="fill:#fff" transform="translate(1385.25 330.188)"/>
  <path d="M0 0v2l-3.156.445C-24.428 5.674-41.638 13.638-57 29l-1.887 1.887C-75.619 48.823-81.972 72.26-81.336 96.25c.988 21.158 9.624 39.805 23.336 55.75l-2 1c-19.608-14.244-33.096-32.135-37.62-56.293-3.372-24.055 1.724-45.819 15.558-65.644C-62.799 6.134-31.187-6.279 0 0" style="fill:#2c9ad8" transform="translate(186 82)"/>
</svg>