<?xml version="1.0" encoding="UTF-8" standalone="no"?>
<!DOCTYPE svg PUBLIC "-//W3C//DTD SVG 1.1//EN" "http://www.w3.org/Graphics/SVG/1.1/DTD/svg11.dtd">
<svg width="100%" height="100%" viewBox="0 0 1024 1024" version="1.1" xmlns="http://www.w3.org/2000/svg" xmlns:xlink="http://www.w3.org/1999/xlink" xml:space="preserve" xmlns:serif="http://www.serif.com/" style="fill-rule:evenodd;clip-rule:evenodd;stroke-linejoin:round;stroke-miterlimit:2;">
    <g transform="matrix(0.633903,0,0,0.633903,512,525.117)">
        <g transform="matrix(1,0,0,1,-943.75,-554.167)">
            <g transform="matrix(8.33333,0,0,8.33333,982.167,841.308)">
                <path d="M0,10.228L0,-11.081C0,-14.669 2.032,-14.939 3.365,-14.939L3.365,-15.7L-8.46,-15.7L-8.46,-14.939C-7.128,-14.939 -5.095,-14.668 -5.095,-11.08L-5.095,10.227C-5.095,13.816 -7.128,14.087 -8.46,14.087L-8.46,14.848L3.365,14.848L3.365,14.087C2.032,14.087 0,13.817 0,10.228Z" style="fill:rgb(211,18,69);fill-rule:nonzero;"/>
            </g>
            <g transform="matrix(8.33333,0,0,8.33333,1350.22,965.038)">
                <path d="M15.235,-30.548L-9.798,-30.548L-9.798,-24.593L-9.035,-24.593C-8.479,-26.148 -8.295,-28.391 -3.897,-28.391L0.171,-28.391L0.171,-4.62C0.171,-1.032 -1.861,-0.761 -3.193,-0.761L-3.193,0L8.631,0L8.631,-0.761C7.299,-0.761 5.266,-1.031 5.266,-4.619L5.266,-28.391L9.334,-28.391C13.733,-28.391 13.917,-26.148 14.472,-24.593L15.235,-24.593L15.235,-30.548Z" style="fill:rgb(211,18,69);fill-rule:nonzero;"/>
            </g>
            <g transform="matrix(8.33333,0,0,8.33333,596.079,838)">
                <path d="M0,-0.001C0,-8.792 -6.012,-15.92 -15.921,-15.92C-25.83,-15.92 -31.844,-8.792 -31.844,-0.001C-31.844,8.791 -25.83,15.919 -15.921,15.919C-6.012,15.918 0,8.791 0,-0.001M-15.267,13.734C-21.655,14.064 -25.833,8.126 -26.195,0.541C-26.556,-7.044 -22.965,-13.405 -16.577,-13.736C-10.187,-14.066 -6.011,-8.128 -5.649,-0.542C-5.288,7.044 -8.878,13.403 -15.267,13.734" style="fill:rgb(211,18,69);fill-rule:nonzero;"/>
            </g>
            <g transform="matrix(8.33333,0,0,8.33333,767.129,953.613)">
                <path d="M0,-27.805C5.02,-27.805 8.673,-25.318 10.199,-20.752L10.955,-20.752L10.942,-27.778C9.096,-28.372 4.685,-29.797 0.487,-29.797C-5.564,-29.797 -9.089,-28.171 -12.012,-25.492C-15.914,-21.916 -16.762,-16.662 -16.762,-13.903C-16.762,-11.143 -15.914,-5.89 -12.012,-2.313C-9.089,0.366 -5.564,1.992 0.487,1.992C4.685,1.992 9.096,0.567 10.942,-0.027L10.955,-7.054L10.199,-7.054C8.673,-2.487 5.02,0 0,0C-4.63,0 -11.039,-2.729 -11.039,-13.903C-11.039,-25.075 -4.63,-27.805 0,-27.805" style="fill:rgb(211,18,69);fill-rule:nonzero;"/>
            </g>
            <g transform="matrix(8.33333,0,0,8.33333,300.026,783.558)">
                <path d="M0,13.028C-0.044,8.203 -3.786,5.982 -7.64,3.711C-10.49,2.032 -15.032,0.408 -15.032,-2.868C-15.032,-5.945 -12.403,-7.544 -9.453,-7.544C-5.115,-7.544 -3.083,-4.748 -2.482,-1.467L-1.458,-1.467L-1.458,-7.611C-3.083,-8.421 -5.642,-9.416 -9.096,-9.416C-14.147,-9.416 -18.924,-6.379 -19.058,-1.264C-19.147,3.229 -16.444,4.889 -11.209,7.779C-7.752,9.689 -4.155,12.21 -4.155,15.066C-4.155,18.227 -6.973,20.281 -10.59,20.281C-16.751,20.281 -18.242,15.488 -18.437,12.753L-19.418,12.753L-19.437,19.864C-17.46,21.192 -14.343,22.444 -10.768,22.402C-4.023,22.402 0,18.268 0,13.028" style="fill:rgb(211,18,69);fill-rule:nonzero;"/>
            </g>
            <g transform="matrix(8.33333,0,0,8.33333,1056.33,965.038)">
                <path d="M0,-30.548L0,-29.787C1.332,-29.787 3.364,-29.516 3.364,-25.928L3.364,-4.62C3.364,-1.032 1.332,-0.761 0,-0.761L0,0L21.881,0L21.881,-6.063L21.113,-6.063C20.652,-3.964 20.019,-2.157 17.262,-2.157L8.459,-2.157L8.459,-15.651L13.694,-15.651C16.653,-15.651 17.029,-13.736 16.978,-12.286L17.746,-12.286L18.676,-17.808L18.829,-18.718L18.112,-18.718C17.466,-17.908 16.832,-17.808 15.35,-17.808L8.459,-17.808L8.459,-28.391L15.855,-28.391C18.613,-28.391 19.513,-26.476 19.707,-25.027L20.474,-25.027L20.474,-30.548L0,-30.548Z" style="fill:rgb(211,18,69);fill-rule:nonzero;"/>
            </g>
            <g transform="matrix(8.33333,0,0,8.33333,1685.12,965.038)">
                <path d="M0,-30.548L0,-29.787C0.602,-29.607 1.96,-28.865 0.746,-26.558L-5.37,-15.754L-11.908,-27.168C-12.813,-28.765 -12.26,-29.787 -11.23,-29.787L-11.23,-30.548L-21.198,-30.548L-21.198,-29.787C-19.122,-29.787 -17.839,-28.051 -16.326,-25.571L-8.822,-13.072L-8.822,-4.62C-8.822,-1.032 -10.854,-0.761 -12.186,-0.761L-12.186,0L-0.362,0L-0.362,-0.761C-1.694,-0.761 -3.727,-1.031 -3.727,-4.619L-3.727,-13.589L4.152,-26.771C5.43,-28.687 6.345,-29.421 7.932,-29.787L7.932,-30.548L0,-30.548Z" style="fill:rgb(211,18,69);fill-rule:nonzero;"/>
            </g>
            <g transform="matrix(8.33333,0,0,8.33333,233.45,392.602)">
                <path d="M0,26.311C-1.332,26.311 -3.365,26.041 -3.365,22.453L-3.365,14.552L0.859,14.552L6.027,21.6C8.786,25.409 13.431,29.787 19.648,27.161L19.516,26.462C17.634,26.856 15.089,25.366 12.375,22.301L4.742,12.851C7.633,10.926 10.055,7.909 10.055,3.87C10.055,-1.077 6.685,-3.476 0,-3.476L-11.824,-3.476L-11.824,-2.715C-10.492,-2.715 -8.46,-2.444 -8.46,1.145L-8.46,22.452C-8.46,26.04 -10.492,26.311 -11.824,26.311L-11.824,27.072L0,27.072L0,26.311ZM-3.365,12.431L-3.365,-1.604L-0.933,-1.604C3.182,-1.604 5.24,1.461 5.24,5.414C5.24,9.366 3.182,12.431 -0.933,12.431L-3.365,12.431Z" style="fill:rgb(211,18,69);fill-rule:nonzero;"/>
            </g>
            <g transform="matrix(8.33333,0,0,8.33333,513.467,358.417)">
                <path d="M0,31.838C9.91,31.838 15.922,24.711 15.922,15.919C15.922,7.127 9.91,0 0,0C-9.908,0 -15.922,7.127 -15.922,15.919C-15.922,24.711 -9.908,31.838 0,31.838M-0.655,2.184C5.735,1.853 9.911,7.792 10.273,15.377C10.634,22.963 7.044,29.324 0.655,29.654C-5.733,29.984 -9.911,24.046 -10.273,16.461C-10.635,8.875 -7.043,2.514 -0.655,2.184" style="fill:rgb(211,18,69);fill-rule:nonzero;"/>
            </g>
            <g transform="matrix(8.33333,0,0,8.33333,685.904,576.742)">
                <path d="M0,-20.596L7.504,-8.097L7.504,0.355C7.504,3.944 5.472,4.215 4.14,4.215L4.14,4.976L15.964,4.976L15.964,4.215C14.632,4.215 12.599,3.945 12.599,0.356L12.599,-8.613L20.48,-21.796C21.757,-23.712 24.206,-24.811 25.43,-24.811L25.43,-25.572L16.061,-25.572L16.061,-24.811C16.784,-24.811 18.775,-24.743 17.072,-21.582L11.033,-10.644L4.418,-22.193C3.513,-23.79 4.066,-24.811 5.097,-24.811L5.097,-25.572L-5.536,-25.572L-5.536,-24.811C-3.46,-24.811 -1.513,-23.076 0,-20.596" style="fill:rgb(211,18,69);fill-rule:nonzero;"/>
            </g>
            <g transform="matrix(8.33333,0,0,8.33333,868.346,370.239)">
                <path d="M0,28.995L0,29.756L9.247,29.756L9.247,28.999C7.138,28.999 6.841,27.853 7.298,26.317L9.275,20.922L20.154,20.922L22.227,26.393C22.949,28.354 22.689,28.996 21.23,28.996L21.23,29.756L31.939,29.756L31.939,28.995C29.863,28.995 28.516,28.323 26.963,24.777L16.583,-0.761L15.143,-0.761L4.51,25.195C3.009,28.807 1.583,28.995 0,28.995M19.384,18.89L10.02,18.89L14.624,6.327L19.384,18.89Z" style="fill:rgb(211,18,69);fill-rule:nonzero;"/>
            </g>
            <g transform="matrix(8.33333,0,0,8.33333,1239.99,363.638)">
                <path d="M-8.46,30.548L13.62,30.548L13.62,24.484L12.853,24.484C12.391,26.584 11.759,28.391 9.001,28.391L0,28.391L0,4.619C0,1.031 2.032,0.761 3.365,0.761L3.365,0L-8.46,0L-8.46,0.761C-7.127,0.761 -5.095,1.032 -5.095,4.62L-5.095,25.928C-5.095,29.516 -7.127,29.787 -8.46,29.787L-8.46,30.548Z" style="fill:rgb(211,18,69);fill-rule:nonzero;"/>
            </g>
            <g transform="matrix(8.33333,0,0,8.33333,322.879,138.278)">
                <path d="M0,15.384C-0.706,15.384 -1.784,15.24 -1.784,13.339L-1.784,7.828L6.485,7.828L6.485,13.339C6.485,15.24 5.408,15.384 4.702,15.384L4.702,15.787L10.969,15.787L10.969,15.384C10.263,15.384 9.186,15.24 9.186,13.339L9.186,2.045C9.186,0.143 10.263,-0 10.969,-0L10.969,-0.403L4.702,-0.403L4.702,-0C5.408,-0 6.485,0.143 6.485,2.046L6.485,6.592L-1.784,6.592L-1.784,2.045C-1.784,0.143 -0.706,-0 0,-0L0,-0.403L-6.267,-0.403L-6.267,-0C-5.561,-0 -4.484,0.143 -4.484,2.046L-4.484,13.339C-4.484,15.24 -5.561,15.384 -6.267,15.384L-6.267,15.787L0,15.787L0,15.384Z" style="fill:rgb(211,18,69);fill-rule:nonzero;"/>
            </g>
            <g transform="matrix(8.33333,0,0,8.33333,164.223,260.311)">
                <path d="M0,-13.904L2.156,-13.904L2.156,-1.306C2.156,0.596 1.079,0.74 0.373,0.74L0.373,1.143L6.639,1.143L6.639,0.74C5.933,0.74 4.856,0.597 4.856,-1.305L4.856,-13.904L7.012,-13.904C9.344,-13.904 9.441,-12.715 9.735,-11.891L10.14,-11.891L10.14,-15.047L-3.127,-15.047L-3.127,-11.891L-2.724,-11.891C-2.429,-12.715 -2.331,-13.904 0,-13.904" style="fill:rgb(211,18,69);fill-rule:nonzero;"/>
            </g>
            <g transform="matrix(8.33333,0,0,8.33333,452.808,249.425)">
                <path d="M0,-11.292L0,0.001C0,1.903 -1.078,2.046 -1.783,2.046L-1.783,2.449L9.853,2.449L9.853,-0.764L9.446,-0.764C9.201,0.349 8.866,1.307 7.405,1.307L2.7,1.307L2.7,-5.846L5.514,-5.846C7.082,-5.846 7.281,-4.83 7.255,-4.062L7.661,-4.062L8.154,-6.988L8.235,-7.471L7.855,-7.471C7.513,-7.042 7.177,-6.988 6.391,-6.988L2.7,-6.988L2.7,-12.598L6.659,-12.598C8.12,-12.598 8.598,-11.583 8.701,-10.814L9.107,-10.814L9.107,-13.741L-1.784,-13.741L-1.784,-13.337C-1.078,-13.337 0,-13.194 0,-11.292" style="fill:rgb(211,18,69);fill-rule:nonzero;"/>
            </g>
        </g>
    </g>
</svg>
