<?xml version="1.0" encoding="UTF-8" standalone="no"?>
<!DOCTYPE svg PUBLIC "-//W3C//DTD SVG 1.1//EN" "http://www.w3.org/Graphics/SVG/1.1/DTD/svg11.dtd">
<svg width="100%" height="100%" viewBox="0 0 1068 193" version="1.1" xmlns="http://www.w3.org/2000/svg" xmlns:xlink="http://www.w3.org/1999/xlink" xml:space="preserve" xmlns:serif="http://www.serif.com/" style="fill-rule:evenodd;clip-rule:evenodd;stroke-linejoin:round;stroke-miterlimit:2;">
    <g transform="matrix(2,0,0,2,147.973,67.1128)">
        <path d="M0,29.04C-1.333,29.04 -3.367,28.769 -3.367,25.179L-3.367,14.778L12.241,14.778L12.241,25.178C12.241,28.768 10.208,29.04 8.875,29.04L8.875,29.8L20.705,29.8L20.705,29.04C19.373,29.04 17.339,28.769 17.339,25.179L17.339,3.861C17.339,0.271 19.373,0.001 20.705,0.001L20.705,-0.76L8.875,-0.76L8.875,0.001C10.208,0.001 12.241,0.271 12.241,3.863L12.241,12.444L-3.367,12.444L-3.367,3.861C-3.367,0.271 -1.333,0.001 0,0.001L0,-0.76L-11.829,-0.76L-11.829,0.001C-10.497,0.001 -8.464,0.271 -8.464,3.863L-8.464,25.178C-8.464,28.768 -10.497,29.04 -11.829,29.04L-11.829,29.8L0,29.8L0,29.04Z" style="fill:rgb(211,18,69);fill-rule:nonzero;"/>
    </g>
    <g transform="matrix(2,0,0,2,76.098,122.397)">
        <path d="M0,-26.244L4.07,-26.244L4.07,-2.463C4.07,1.126 2.036,1.398 0.703,1.398L0.703,2.158L12.532,2.158L12.532,1.398C11.2,1.398 9.167,1.127 9.167,-2.462L9.167,-26.244L13.236,-26.244C17.637,-26.244 17.82,-24 18.376,-22.444L19.139,-22.444L19.139,-28.402L-5.903,-28.402L-5.903,-22.444L-5.141,-22.444C-4.585,-24 -4.401,-26.244 0,-26.244" style="fill:rgb(211,18,69);fill-rule:nonzero;"/>
    </g>
    <g transform="matrix(2,0,0,2,206.833,117.466)">
        <path d="M0,-21.314L0,0.002C0,3.592 -2.034,3.863 -3.366,3.863L-3.366,4.623L18.598,4.623L18.598,-1.442L17.83,-1.442C17.368,0.659 16.736,2.467 13.978,2.467L5.097,2.467L5.097,-11.033L10.408,-11.033C13.369,-11.033 13.744,-9.116 13.694,-7.667L14.462,-7.667L15.391,-13.191L15.545,-14.102L14.827,-14.102C14.181,-13.291 13.547,-13.191 12.064,-13.191L5.097,-13.191L5.097,-23.778L12.57,-23.778C15.328,-23.778 16.23,-21.862 16.423,-20.412L17.19,-20.412L17.19,-25.937L-3.367,-25.937L-3.367,-25.176C-2.034,-25.176 0,-24.904 0,-21.314" style="fill:rgb(211,18,69);fill-rule:nonzero;"/>
    </g>
    <g transform="matrix(2,0,0,2,818.388,97.037)">
        <path d="M0,10.246L0,-11.098C0,-14.693 2.037,-14.964 3.371,-14.964L3.371,-15.726L-8.474,-15.726L-8.474,-14.964C-7.139,-14.964 -5.103,-14.692 -5.103,-11.098L-5.103,10.245C-5.103,13.839 -7.139,14.11 -8.474,14.11L-8.474,14.873L3.371,14.873L3.371,14.11C2.037,14.11 0,13.84 0,10.246Z" style="fill:rgb(211,18,69);fill-rule:nonzero;"/>
    </g>
    <g transform="matrix(2,0,0,2,906.868,126.781)">
        <path d="M15.261,-30.598L-9.813,-30.598L-9.813,-24.633L-9.049,-24.633C-8.493,-26.191 -8.308,-28.437 -3.903,-28.437L0.171,-28.437L0.171,-4.627C0.171,-1.033 -1.864,-0.762 -3.198,-0.762L-3.198,0L8.645,0L8.645,-0.762C7.312,-0.762 5.276,-1.032 5.276,-4.626L5.276,-28.437L9.35,-28.437C13.756,-28.437 13.941,-26.191 14.497,-24.633L15.261,-24.633L15.261,-30.598Z" style="fill:rgb(211,18,69);fill-rule:nonzero;"/>
    </g>
    <g transform="matrix(2,0,0,2,725.577,96.2428)">
        <path d="M0,-0.001C0,-8.807 -6.022,-15.946 -15.948,-15.946C-25.873,-15.946 -31.897,-8.807 -31.897,-0.001C-31.897,8.806 -25.873,15.945 -15.948,15.945C-6.022,15.944 0,8.806 0,-0.001M-15.293,13.757C-21.691,14.087 -25.876,8.14 -26.238,0.542C-26.6,-7.056 -23.004,-13.428 -16.604,-13.759C-10.204,-14.09 -6.021,-8.142 -5.659,-0.543C-5.297,7.055 -8.892,13.426 -15.293,13.757" style="fill:rgb(211,18,69);fill-rule:nonzero;"/>
    </g>
    <g transform="matrix(2,0,0,2,766.696,124.035)">
        <path d="M0,-27.851C5.029,-27.851 8.687,-25.36 10.217,-20.786L10.972,-20.786L10.959,-27.823C9.112,-28.419 4.693,-29.847 0.488,-29.847C-5.573,-29.847 -9.104,-28.218 -12.032,-25.534C-15.94,-21.952 -16.789,-16.69 -16.789,-13.926C-16.789,-11.161 -15.94,-5.9 -12.032,-2.317C-9.104,0.367 -5.573,1.996 0.488,1.996C4.693,1.996 9.112,0.568 10.959,-0.027L10.972,-7.065L10.217,-7.065C8.687,-2.491 5.029,0 0,0C-4.637,0 -11.057,-2.734 -11.057,-13.926C-11.057,-25.117 -4.637,-27.851 0,-27.851" style="fill:rgb(211,18,69);fill-rule:nonzero;"/>
    </g>
    <g transform="matrix(2,0,0,2,654.407,83.154)">
        <path d="M0,13.05C-0.045,8.217 -3.792,5.992 -7.653,3.718C-10.507,2.035 -15.057,0.409 -15.057,-2.872C-15.057,-5.955 -12.424,-7.556 -9.468,-7.556C-5.123,-7.556 -3.088,-4.756 -2.486,-1.469L-1.461,-1.469L-1.461,-7.623C-3.088,-8.435 -5.651,-9.431 -9.111,-9.431C-14.17,-9.431 -18.956,-6.389 -19.09,-1.265C-19.179,3.234 -16.471,4.897 -11.228,7.793C-7.764,9.705 -4.162,12.231 -4.162,15.092C-4.162,18.258 -6.984,20.315 -10.607,20.315C-16.778,20.315 -18.271,15.514 -18.468,12.774L-19.451,12.774L-19.469,19.898C-17.489,21.227 -14.367,22.481 -10.786,22.44C-4.03,22.44 0,18.299 0,13.05" style="fill:rgb(211,18,69);fill-rule:nonzero;"/>
    </g>
    <g transform="matrix(2,0,0,2,836.216,126.781)">
        <path d="M0,-30.598L0,-29.836C1.335,-29.836 3.37,-29.564 3.37,-25.97L3.37,-4.627C3.37,-1.033 1.335,-0.762 0,-0.762L0,0L21.918,0L21.918,-6.073L21.148,-6.073C20.686,-3.97 20.053,-2.16 17.291,-2.16L8.474,-2.16L8.474,-15.677L13.716,-15.677C16.682,-15.677 17.058,-13.758 17.007,-12.306L17.776,-12.306L18.707,-17.836L18.861,-18.748L18.142,-18.748C17.496,-17.937 16.86,-17.836 15.376,-17.836L8.474,-17.836L8.474,-28.437L15.882,-28.437C18.643,-28.437 19.546,-26.519 19.739,-25.068L20.508,-25.068L20.508,-30.598L0,-30.598Z" style="fill:rgb(211,18,69);fill-rule:nonzero;"/>
    </g>
    <g transform="matrix(2,0,0,2,987.377,126.781)">
        <path d="M0,-30.598L0,-29.836C0.603,-29.655 1.964,-28.912 0.748,-26.601L-5.378,-15.779L-11.927,-27.213C-12.833,-28.812 -12.28,-29.836 -11.248,-29.836L-11.248,-30.598L-21.233,-30.598L-21.233,-29.836C-19.153,-29.836 -17.868,-28.097 -16.353,-25.613L-8.836,-13.093L-8.836,-4.627C-8.836,-1.033 -10.872,-0.762 -12.206,-0.762L-12.206,0L-0.362,0L-0.362,-0.762C-1.696,-0.762 -3.732,-1.032 -3.732,-4.626L-3.732,-13.611L4.159,-26.814C5.439,-28.734 6.356,-29.469 7.945,-29.836L7.945,-30.598L0,-30.598Z" style="fill:rgb(211,18,69);fill-rule:nonzero;"/>
    </g>
    <g transform="matrix(2,0,0,2,308.85,72.5738)">
        <path d="M0,26.354C-1.334,26.354 -3.37,26.083 -3.37,22.489L-3.37,14.576L0.86,14.576L6.037,21.636C8.8,25.451 13.453,29.836 19.68,27.206L19.549,26.506C17.663,26.9 15.114,25.408 12.395,22.338L4.75,12.872C7.646,10.944 10.071,7.922 10.071,3.876C10.071,-1.079 6.696,-3.482 0,-3.482L-11.843,-3.482L-11.843,-2.72C-10.509,-2.72 -8.474,-2.449 -8.474,1.146L-8.474,22.489C-8.474,26.083 -10.509,26.354 -11.843,26.354L-11.843,27.116L0,27.116L0,26.354ZM-3.37,12.451L-3.37,-1.607L-0.934,-1.607C3.188,-1.607 5.249,1.463 5.249,5.422C5.249,9.381 3.188,12.451 -0.934,12.451L-3.37,12.451Z" style="fill:rgb(211,18,69);fill-rule:nonzero;"/>
    </g>
    <g transform="matrix(2,0,0,2,376.165,64.355)">
        <path d="M0,31.891C9.926,31.891 15.948,24.752 15.948,15.946C15.948,7.139 9.926,0 0,0C-9.925,0 -15.949,7.139 -15.949,15.946C-15.949,24.752 -9.925,31.891 0,31.891M-0.656,2.187C5.744,1.856 9.927,7.805 10.29,15.403C10.652,23 7.056,29.372 0.656,29.704C-5.743,30.034 -9.928,24.086 -10.29,16.488C-10.652,8.89 -7.055,2.518 -0.656,2.187" style="fill:rgb(211,18,69);fill-rule:nonzero;"/>
    </g>
    <g transform="matrix(2,0,0,2,417.619,116.837)">
        <path d="M0,-20.629L7.517,-8.109L7.517,0.357C7.517,3.951 5.481,4.223 4.147,4.223L4.147,4.985L15.991,4.985L15.991,4.223C14.656,4.223 12.62,3.952 12.62,0.358L12.62,-8.626L20.513,-21.831C21.792,-23.749 24.244,-24.852 25.47,-24.852L25.47,-25.614L16.087,-25.614L16.087,-24.852C16.811,-24.852 18.806,-24.783 17.1,-21.617L11.051,-10.661L4.425,-22.228C3.519,-23.827 4.073,-24.852 5.105,-24.852L5.105,-25.614L-5.545,-25.614L-5.545,-24.852C-3.466,-24.852 -1.515,-23.113 0,-20.629" style="fill:rgb(211,18,69);fill-rule:nonzero;"/>
    </g>
    <g transform="matrix(2,0,0,2,461.476,67.1968)">
        <path d="M0,29.043L0,29.805L9.263,29.805L9.263,29.047C7.15,29.047 6.852,27.899 7.31,26.361L9.29,20.957L20.187,20.957L22.263,26.437C22.987,28.401 22.726,29.044 21.265,29.044L21.265,29.805L31.992,29.805L31.992,29.043C29.913,29.043 28.563,28.37 27.007,24.818L16.61,-0.762L15.167,-0.762L4.518,25.237C3.014,28.854 1.586,29.043 0,29.043M19.416,18.921L10.037,18.921L14.649,6.338L19.416,18.921Z" style="fill:rgb(211,18,69);fill-rule:nonzero;"/>
    </g>
    <g transform="matrix(2,0,0,2,550.816,65.61)">
        <path d="M-8.474,30.598L13.643,30.598L13.643,24.524L12.874,24.524C12.412,26.628 11.778,28.438 9.016,28.438L0,28.438L0,4.626C0,1.032 2.036,0.762 3.371,0.762L3.371,0L-8.474,0L-8.474,0.762C-7.139,0.762 -5.103,1.033 -5.103,4.627L-5.103,25.97C-5.103,29.565 -7.139,29.836 -8.474,29.836L-8.474,30.598Z" style="fill:rgb(211,18,69);fill-rule:nonzero;"/>
    </g>
</svg>
