<svg xmlns="http://www.w3.org/2000/svg" x="0px" y="0px" width="180px" height="72px" viewBox="0 0 180 72" xml:space="preserve">
	<path d="M103.7,33.2c-0.3-0.2-0.6-0.4-1-0.4c-0.4-0.1-0.9-0.1-1.5-0.1c-0.7,0-1.3,0.1-1.7,0.1
		c-0.5,0.1-0.8,0.3-1.1,0.6c-0.3,0.3-0.5,0.7-0.6,1.3c-0.1,0.5-0.2,1.2-0.2,2.1v4c0,0.9,0.1,1.6,0.2,2.1c0.1,0.5,0.3,0.9,0.6,1.2
		c0.3,0.3,0.7,0.5,1.1,0.6c0.5,0.1,1.1,0.1,1.7,0.1c0.6,0,1.2,0,1.6-0.1c0.4-0.1,0.7-0.3,1-0.5c0.2-0.2,0.4-0.6,0.5-1
		c0.1-0.4,0.2-0.9,0.2-1.6v-0.9h-0.9v0.8c0,0.4,0,0.8-0.1,1c0,0.3-0.1,0.5-0.3,0.7c-0.2,0.2-0.4,0.3-0.7,0.4
		c-0.3,0.1-0.7,0.1-1.2,0.1c-0.6,0-1.1,0-1.4-0.1c-0.4-0.1-0.6-0.2-0.8-0.4c-0.2-0.2-0.3-0.5-0.4-0.9c-0.1-0.4-0.1-0.9-0.1-1.6v-3.9
		c0-0.7,0-1.2,0.1-1.6c0.1-0.4,0.2-0.7,0.4-0.9c0.2-0.2,0.5-0.3,0.8-0.4c0.4-0.1,0.8-0.1,1.4-0.1c0.4,0,0.8,0,1.1,0.1
		c0.3,0,0.5,0.1,0.7,0.3c0.2,0.1,0.3,0.3,0.4,0.6c0.1,0.3,0.1,0.6,0.1,1.1v0.8h0.9v-0.9c0-0.7-0.1-1.3-0.2-1.7
		C104.1,33.7,103.9,33.4,103.7,33.2z"></path>
	<path d="M112.2,33.4c-0.3-0.3-0.7-0.5-1.1-0.6c-0.5-0.1-1-0.1-1.7-0.1c-0.7,0-1.3,0.1-1.7,0.1
		c-0.5,0.1-0.8,0.3-1.1,0.6c-0.3,0.3-0.5,0.7-0.6,1.3c-0.1,0.5-0.2,1.2-0.2,2.1v4c0,0.9,0.1,1.6,0.2,2.1c0.1,0.5,0.3,0.9,0.6,1.2
		c0.3,0.3,0.7,0.5,1.1,0.6c0.5,0.1,1,0.1,1.7,0.1c0.7,0,1.3,0,1.7-0.1c0.5-0.1,0.8-0.3,1.1-0.6c0.3-0.3,0.5-0.7,0.6-1.2
		c0.1-0.5,0.2-1.2,0.2-2.1v-4c0-0.9-0.1-1.6-0.2-2.1C112.7,34.1,112.5,33.7,112.2,33.4z M112,40.7c0,0.7,0,1.2-0.1,1.6
		c-0.1,0.4-0.2,0.7-0.4,0.9c-0.2,0.2-0.5,0.3-0.8,0.4c-0.4,0.1-0.8,0.1-1.4,0.1c-0.6,0-1.1,0-1.4-0.1c-0.3-0.1-0.6-0.2-0.8-0.4
		c-0.2-0.2-0.3-0.5-0.4-0.9c-0.1-0.4-0.1-0.9-0.1-1.6v-3.9c0-0.7,0-1.2,0.1-1.6c0.1-0.4,0.2-0.7,0.4-0.9c0.2-0.2,0.4-0.3,0.8-0.4
		c0.4-0.1,0.8-0.1,1.4-0.1c0.6,0,1.1,0,1.4,0.1c0.4,0.1,0.6,0.2,0.8,0.4c0.2,0.2,0.3,0.5,0.4,0.9c0.1,0.4,0.1,0.9,0.1,1.6V40.7z"></path>
	<polygon points="120.6,43.5 120.6,43.5 115.9,32.8 114.3,32.8 114.3,44.8 115.3,44.8 115.3,34 115.4,34 120,44.8 
		121.6,44.8 121.6,32.8 120.6,32.8"></polygon>
	<polygon points="129.3,43.5 129.2,43.5 124.6,32.8 123,32.8 123,44.8 124,44.8 124,34 124,34 128.7,44.8 130.3,44.8 
		130.3,32.8 129.3,32.8"></polygon>
	<polygon points="131.5,44.8 137.1,44.8 137.1,43.6 132.5,43.6 132.5,39.2 136.9,39.2 136.9,38 132.5,38 132.5,34 
		137.1,34 137.1,32.8 131.5,32.8"></polygon>
	<path d="M144.4,33.2c-0.3-0.2-0.6-0.4-1-0.4c-0.4-0.1-0.9-0.1-1.5-0.1c-0.7,0-1.3,0.1-1.7,0.1
		c-0.5,0.1-0.9,0.3-1.1,0.6c-0.3,0.3-0.5,0.7-0.6,1.3c-0.1,0.5-0.2,1.2-0.2,2.1v4c0,0.9,0.1,1.6,0.2,2.1c0.1,0.5,0.3,0.9,0.6,1.2
		c0.3,0.3,0.7,0.5,1.1,0.6c0.5,0.1,1.1,0.1,1.7,0.1c0.6,0,1.2,0,1.6-0.1c0.4-0.1,0.7-0.3,1-0.5c0.2-0.2,0.4-0.6,0.5-1
		c0.1-0.4,0.2-0.9,0.2-1.6v-0.9h-0.9v0.8c0,0.4,0,0.8-0.1,1c0,0.3-0.1,0.5-0.3,0.7c-0.2,0.2-0.4,0.3-0.7,0.4
		c-0.3,0.1-0.7,0.1-1.2,0.1c-0.6,0-1.1,0-1.4-0.1c-0.4-0.1-0.6-0.2-0.8-0.4c-0.2-0.2-0.3-0.5-0.4-0.9c-0.1-0.4-0.1-0.9-0.1-1.6v-3.9
		c0-0.7,0-1.2,0.1-1.6c0.1-0.4,0.2-0.7,0.4-0.9c0.2-0.2,0.5-0.3,0.8-0.4c0.4-0.1,0.8-0.1,1.4-0.1c0.4,0,0.8,0,1.1,0.1
		c0.3,0,0.5,0.1,0.7,0.3c0.2,0.1,0.3,0.3,0.4,0.6c0.1,0.3,0.1,0.6,0.1,1.1v0.8h0.9v-0.9c0-0.7-0.1-1.3-0.2-1.7
		C144.9,33.7,144.7,33.4,144.4,33.2z"></path>
	<polygon points="145.6,34 148.5,34 148.5,44.8 149.5,44.8 149.5,34 152.3,34 152.3,32.8 145.6,32.8"></polygon>
	<rect x="153.6" y="32.8" width="1" height="12"></rect>
	<path d="M162.4,33.4c-0.3-0.3-0.7-0.5-1.1-0.6c-0.5-0.1-1-0.1-1.7-0.1c-0.7,0-1.3,0.1-1.7,0.1
		c-0.5,0.1-0.9,0.3-1.1,0.6c-0.3,0.3-0.5,0.7-0.6,1.3c-0.1,0.5-0.2,1.2-0.2,2.1v4c0,0.9,0.1,1.6,0.2,2.1c0.1,0.5,0.3,0.9,0.6,1.2
		c0.3,0.3,0.7,0.5,1.1,0.6c0.5,0.1,1,0.1,1.7,0.1c0.7,0,1.3,0,1.7-0.1c0.5-0.1,0.9-0.3,1.1-0.6c0.3-0.3,0.5-0.7,0.6-1.2
		c0.1-0.5,0.2-1.2,0.2-2.1v-4c0-0.9-0.1-1.6-0.2-2.1C162.9,34.1,162.7,33.7,162.4,33.4z M162.2,40.7c0,0.7,0,1.2-0.1,1.6
		c-0.1,0.4-0.2,0.7-0.4,0.9c-0.2,0.2-0.5,0.3-0.8,0.4c-0.4,0.1-0.8,0.1-1.4,0.1c-0.6,0-1.1,0-1.4-0.1c-0.4-0.1-0.6-0.2-0.8-0.4
		c-0.2-0.2-0.3-0.5-0.4-0.9c-0.1-0.4-0.1-0.9-0.1-1.6v-3.9c0-0.7,0-1.2,0.1-1.6c0.1-0.4,0.2-0.7,0.4-0.9c0.2-0.2,0.4-0.3,0.8-0.4
		c0.3-0.1,0.8-0.1,1.4-0.1c0.6,0,1.1,0,1.4,0.1c0.4,0.1,0.6,0.2,0.8,0.4c0.2,0.2,0.3,0.5,0.4,0.9c0.1,0.4,0.1,0.9,0.1,1.6V40.7z"></path>
	<polygon points="170.7,43.5 170.7,43.5 166,32.8 164.4,32.8 164.4,44.8 165.4,44.8 165.4,34 165.4,34 170.1,44.8 
		171.7,44.8 171.7,32.8 170.7,32.8"></polygon>
	<path d="M179.2,39.8c-0.1-0.4-0.2-0.8-0.5-1c-0.2-0.2-0.6-0.4-1-0.5c-0.4-0.1-0.9-0.2-1.6-0.2c-0.5,0-0.9-0.1-1.2-0.2
		c-0.3-0.1-0.5-0.2-0.7-0.3c-0.2-0.2-0.3-0.4-0.3-0.6c0-0.3-0.1-0.6-0.1-1c0-0.4,0-0.8,0.1-1.1c0-0.3,0.1-0.5,0.3-0.6
		c0.1-0.2,0.4-0.3,0.6-0.3c0.3-0.1,0.7-0.1,1.2-0.1c0.4,0,0.8,0,1.1,0.1c0.3,0.1,0.5,0.2,0.7,0.3c0.2,0.1,0.3,0.3,0.3,0.6
		c0.1,0.2,0.1,0.6,0.1,1V36h0.9c0-0.7-0.1-1.3-0.2-1.7c-0.1-0.4-0.2-0.8-0.5-1c-0.2-0.2-0.5-0.4-0.9-0.5c-0.4-0.1-0.9-0.1-1.5-0.1
		c-0.6,0-1.1,0-1.5,0.1c-0.4,0.1-0.7,0.2-1,0.4c-0.2,0.2-0.4,0.6-0.5,1c-0.1,0.4-0.2,1-0.2,1.7c0,0.6,0,1.1,0.1,1.4
		c0.1,0.4,0.2,0.7,0.3,0.9c0.2,0.2,0.4,0.4,0.7,0.5c0.3,0.1,0.6,0.2,1.1,0.3l1.1,0.1c0.5,0.1,0.9,0.1,1.2,0.2
		c0.3,0.1,0.5,0.2,0.6,0.4c0.1,0.2,0.2,0.4,0.2,0.6c0,0.3,0,0.6,0,1c0,0.6,0,1-0.1,1.3c0,0.3-0.1,0.6-0.3,0.7
		c-0.2,0.2-0.4,0.3-0.7,0.3c-0.3,0-0.7,0-1.2,0c-0.5,0-0.9,0-1.2-0.1c-0.3,0-0.5-0.1-0.7-0.3c-0.2-0.1-0.3-0.3-0.3-0.6
		c-0.1-0.3-0.1-0.6-0.1-1.1V41h-0.9V42c0,0.6,0.1,1.1,0.2,1.5c0.1,0.4,0.3,0.7,0.6,0.9c0.3,0.2,0.6,0.4,1,0.5
		c0.4,0.1,0.9,0.1,1.5,0.1c0.6,0,1.1,0,1.5-0.1c0.4-0.1,0.7-0.3,1-0.5c0.3-0.2,0.4-0.6,0.6-1c0.1-0.4,0.2-1,0.2-1.7
		C179.3,40.8,179.3,40.2,179.2,39.8z"></path>
	<path d="M85.7,40v-2.5c0-1.6-0.5-1.9-1.6-1.9h-2.8V42h2.8C85.2,42,85.7,41.2,85.7,40z"></path>
	<path d="M95.7,41.3c-0.2-2.2,0.2-3.9-0.1-5.6c-0.8-5-3.1-9-5.6-12.4c-3.4-4.5-7.5-8.1-12.6-11.5
		C67.6,5.4,55.8,0.9,40.8,0h-5.1c-6.8,0.4-12.8,1.7-17.8,4.2C13,6.6,8.9,9.8,6.8,14.7c4.7-6.6,12-10.1,21.4-11.5
		C37.8,1.7,48.6,3,57.3,5.6c8,2.4,15.5,6,22,11c5.3,4,10.2,9.3,13,15.8c0.5,1,1,2.1,1.2,3c0.1,0.5,0.1,1.1,0.2,1.8
		c-0.7-1.8-4-6.9-4.2-7.1C85.5,23.6,79.5,18,72.3,13.8c-7.1-4.1-15.6-7.3-25.1-8.5C36.4,4,26.1,5.5,18.6,9.3
		C11.7,12.8,5,19.3,4.4,28.8c-0.2,3.2,0.2,5.9,0.9,8.4C4.1,26,9.5,18.8,16.2,14.4c6.9-4.5,16.6-7,27.9-6.2
		c10.3,0.8,19.2,3.6,26.7,7.6c7.5,4,13.9,9.3,18.5,15.8c-3.4-4.5-7.4-8.3-12.3-11.5c-3.5-2.3-7.2-4.1-11.3-5.7
		c-8.2-3.2-17.8-5.5-29-4.6c-10.1,0.8-18.6,4.5-23.1,11c-2.4,3.5-3.6,8.4-2.6,13.6c0.5,2.3,1.4,4.2,2.4,6.1c1,1.8,2,3.7,3.4,5
		c-2.3-3.6-4.2-7.5-4.2-12.6c0-5.1,2.3-9.1,5-11.9c5.4-5.5,14.3-8.7,25-8.8c10.9-0.1,20.1,2.5,27.9,6c5.9,2.6,11,6.1,15.3,10
		c1.4,1.3,7.1,7,8.5,13.5c0,0.2,0.1,0.4,0.1,0.6c0.1,1.8-0.5,3.2-0.9,4.8c0-1.2,2.1-5-3.8-12.9c-5.2-6.8-15.3-12.2-24.2-14.6
		c-4.3-1.2-9.1-2.3-14.2-3c-5.1-0.7-10.7-0.7-15.9,0c3-1.1,6.8-1.9,11-2.3c4.4-0.4,8.8,0.1,12.4,0.4c-9.4-2.3-21-1.5-28.3,1.6
		c-3.8,1.7-6.5,4.1-9.5,6.8c-2.9,2.6-5.2,6.4-5.2,11.2c0,4.6,1.9,8.6,4,11.7c2.2,3.2,4.8,5.9,7.6,8.2c5.9,4.9,12.8,8,21,10.4
		c-2.5-0.1-4.9-0.6-7.2-1c-2.3-0.5-4.6-0.8-6.7-1.6c-1-0.4-2.1-1.1-3.1-1.6c-6.1-3.3-11.7-7.6-16-12.5c-0.7-0.8-1.3-1.7-2.2-2.5
		c2.5,3.9,5.7,7.3,9.1,10.3c1.2,1,2.4,2,3.4,3C19.8,55.7,14,52.1,9.4,47c-4.1-4.6-8.5-11.1-8.5-19.5c0-1.7,0.4-3.4,0.5-4.9
		c-0.7,1.9-1.2,4-1.4,6.4V32c1.4,10.9,7.3,17.8,14.1,23.1c5.2,4.1,11.4,7.3,18.3,9.5c2.4,0.8,4.9,1.2,7.4,1.9c1.7,0.5,3.3,1.4,5,2
		c5.4,1.8,11.1,3.1,17.8,3.4c0.1,0,4.9,0.1,4.9,0.1c4.9-0.3,9.3-1.1,12.9-2.5c3.6-1.3,6.9-3.3,9.5-5.6c4.3-4,7.9-10.9,6.5-19.5
		C96.2,43.4,95.8,42.4,95.7,41.3z M78,32.8h6.1c3.4,0,4.9,1.3,4.9,4.7V40c0,3.3-1.1,4.9-4.4,4.9H78V32.8z M64.9,32.8h5.4l3.5,9.3
		h0.1l-0.2-9.3h3.2v12.1h-5.5L68,35.6h-0.1l0.2,9.3h-3.2V32.8z M53.4,32.8h3.2v8c0,1.4,0.8,1.4,2.1,1.4c1.4,0,1.8-0.1,1.8-1.5v-7.8
		h3.2v8c0,3.2-1.5,4.1-5.1,4.1c-4.8,0-5.3-1.2-5.3-4.1V32.8z M52.3,37.1v3.4c0,3.7-2.3,4.4-5.6,4.4c-3.3,0-5.6-0.7-5.6-4.4v-3.4
		c0-3.7,2.3-4.4,5.6-4.4C50,32.7,52.3,33.4,52.3,37.1z M45.9,62.3c-5.2-1.4-10.2-3.6-14.5-6.2c-1.5-0.9-3-1.7-4.2-2.7
		c-1-0.8-1.9-2-2.8-3.2c-3-3.7-6.1-8.7-5.4-15.6c1.8,8.2,7.1,13.8,13.1,18.2c6.1,4.5,13.5,7.8,21.8,9.7h0.3
		c-10.3-3-21.4-9.1-27.5-17.7C24,40.7,21,33.9,23.5,27.5c0.8-2.1,1.6-3.3,3.5-4.5c4.4-2.8,10.3-4.3,17-4.7
		c-4.2,0.9-8.5,2.3-11.7,4.9c-3.1,2.5-5.6,6.1-5.6,11c0,8.7,5,13.2,6.8,14.9c3.4,3.2,7.5,6.2,12,8.4c6.8,3.2,14.6,5.7,24.3,5.4
		C62.4,65.6,53,64.2,45.9,62.3z M35.1,40l-0.7,0c-3-0.2-4.7-0.2-4.7-3.6c0-3.5,1.9-3.7,5.1-3.7c2.6,0,4.9,0,4.9,3.4v0.5h-3.1
		c0-1.2-0.5-1.2-1.8-1.2c-1.7,0-1.9,0.4-1.9,1c0,1,0.5,1,1.3,1.1l1.3,0.1c3.6,0.3,4.5,0.7,4.5,3.5c0,2,0.1,4-5.2,4
		c-3.1,0-5.1-0.1-5.1-4h3.1c0,1.3,0.5,1.4,2,1.4c1.5,0,2-0.1,2-1.1C36.8,40.1,36.7,40.1,35.1,40z M81.3,65c-7,3.3-17.8,4.9-27.9,3.1
		c2.3-0.2,4.5-0.3,6.7-0.5c2.1-0.2,4.2-0.8,6.1-1c1.9-0.3,3.6-0.2,5.2-0.5c4.8-0.8,8.6-2.4,12.2-4.8c2.4-1.6,3.9-3.6,5.8-5.5
		c1.5-1.5,2.6-3.1,3.4-5.2c0.2-0.6,0.2-1.4,0.5-2.3c0.3-0.8,0.9-1.5,1.1-2.5c0.1,0,0.1,0,0.1,0.1C94,55.6,88.6,61.6,81.3,65z"></path>
	<path d="M46.7,42.1c1.7,0,2.3-0.2,2.3-2v-2.7c0-1.8-0.6-2-2.3-2c-1.7,0-2.2,0.2-2.3,2v2.7C44.5,41.9,45,42.1,46.7,42.1z"></path>
</svg>