<svg xmlns="http://www.w3.org/2000/svg" width="499.7pt" height="220.9pt" viewBox="0 0 499.7 220.9">
  <defs>
    <clipPath id="a">
      <path d="M491 59h8.699219v9H491zm0 0"/>
    </clipPath>
    <clipPath id="b">
      <path d="M385 76h114.699219v52H385zm0 0"/>
    </clipPath>
    <clipPath id="c">
      <path d="M27 131h111v89.898438H27zm0 0"/>
    </clipPath>
  </defs>

  <path fill="currentColor" d="M144.445313 136.457031h2.660156l6.222656 9.75 6.28125-9.75h2.644531v10.863282h-1.621093V137.5625l-6.21875 9.757813h-2.222657l-6.15625-9.757813v9.757813h-1.589843v-10.863282m22.273437 8.613282v-8.613282h1.648438v8.15625l1.375 1.371094h7.066406l1.371094-1.371094v-8.15625h1.652343v8.613282l-2.25 2.25h-8.613281l-2.25-2.25m17.214844.519531v-1.351563h1.636719v.878907l.863281.867187h7.984375l1.054687-1.054687v-1.6875l-.769531-.769532h-9.132812l-1.636719-1.636718v-2.441407l1.933594-1.9375h9.449218l1.730469 1.734375v1.242188h-1.636719v-.800781l-.867187-.867188h-7.902344l-1.054687 1.054688v1.558593l.769531.773438h9.128906l1.640625 1.632812v2.601563l-1.9375 1.933594h-9.523437l-1.730469-1.730469m16.953125.535156h3.433594v-8.484375h-3.433594v-1.183594h8.535156v1.183594h-3.449219V146.125h3.449219v1.195313h-8.535156V146.125m12.121094-1.054687v-6.359375l2.25-2.253907h9.214843l1.949219 1.953125v1.527344h-1.574219v-.992187l-1.148437-1.148438h-7.667969l-1.371094 1.371094v5.445312l1.371094 1.371094h7.667969l1.148437-1.148437v-1.089844h1.574219v1.625l-1.949219 1.949219h-9.214843l-2.25-2.25m18.429687-3.777344h3.761719v-3.371094h1.335937v3.371094h3.765625v1.273437h-3.765625v3.371094h-1.335937v-3.371094H231.4375v-1.273437m14.378906-4.835938h11.285157v1.324219h-9.632813v3.480469h9.019531v1.324219h-9.019531v4.734375h-1.652344v-10.863282m14.707032 9.667969h3.433593v-8.484375h-3.433593v-1.183594h8.535156v1.183594h-3.449219V146.125h3.449219v1.195313h-8.535156V146.125m12.710937-9.667969h1.652344v9.527344h9.304687v1.335938h-10.957031v-10.863282m14.570313 0h2.660156l6.222656 9.75 6.277344-9.75h2.644531v10.863282h-1.621094V137.5625l-6.214843 9.757813h-2.222657l-6.15625-9.757813v9.757813h-1.589843v-10.863282m23.199218 4.835938h3.765625v-3.371094h1.335938v3.371094h3.761719v1.273437h-3.761719v3.371094h-1.335938v-3.371094h-3.765625v-1.273437M324.71875 146.125h3.4375v-8.484375h-3.4375v-1.183594h8.535156v1.183594h-3.449218V146.125h3.449218v1.195313h-8.535156V146.125m12.710938-9.667969h2.539062l9.175781 9.75v-9.75h1.574219v10.863282h-2.535156l-9.179688-9.742188v9.742188h-1.574218v-10.863282m22.996093 1.339844h-5.875v-1.339844h13.402344v1.339844h-5.875v9.523438h-1.652344v-9.523438m11.308594-1.339844h11.511719v1.324219h-9.859375v3.480469h9.242187v1.324219h-9.242187v3.398437h9.871094v1.335938h-11.523438v-10.863282m25.859375 5.085938l1.367188-1.371094v-1.316406l-1.132813-1.136719h-8.691406v3.824219zm-10.109375-5.085938h11.195313l1.9375 1.9375v2.238282l-1.953125 1.953125 2.296875 4.734375h-1.777344l-2.125-4.4375h-7.921875v4.4375h-1.652344v-10.863282m20.742188 6.503907h6.613281l-3.308594-5.574219zm2.1875-6.503907h2.300781l6.546875 10.863282h-1.828125l-1.804688-3.050782H407.4375l-1.808594 3.050782h-1.765625l6.550782-10.863282m11.785156 8.613282v-6.359375l2.25-2.253907h9.210937l1.953125 1.953125v1.527344h-1.574218v-.992187l-1.148438-1.148438h-7.667969l-1.371093 1.371094v5.445312l1.371093 1.371094h7.667969l1.148438-1.148437v-1.089844h1.574218v1.625l-1.953125 1.949219h-9.210937l-2.25-2.25m22.582031-7.273438h-5.871094v-1.339844h13.398438v1.339844h-5.875v9.523438h-1.652344v-9.523438m11.152344 8.328125h3.433594v-8.484375h-3.433594v-1.183594h8.535156v1.183594h-3.449219V146.125h3.449219v1.195313h-8.535156V146.125m11.890625-9.667969h1.78125l5.335937 9.871094 5.335938-9.871094h1.6875l-5.796875 10.863282h-2.550781l-5.792969-10.863282m17.8125 0h11.511719v1.324219h-9.859375v3.480469h9.242187v1.324219h-9.242187v3.398437h9.867187v1.335938h-11.519531v-10.863282m9.460937-13.234375l.320313-.320312v-.710938l-.285156-.28125H493.75v1.3125zm-2.570312 1.761719h.394531v-3.074219h-.394531v-.675781h3.015625l.679687.695313v1.140625l-.492187.488281.492187.488281v.9375h.410157v.675781h-.839844l-.375-.378906v-1.066406l-.320313-.300781H493.75v1.070312h.46875v.675781h-1.691406zm4.03125 1.519531l.828125-.828125v-4.441406l-.828125-.824219h-4.046875l-.824219.824219v4.441406l.824219.828125zm-5.714844-.585937v-4.902344l1.269531-1.296875h4.839844l1.273438 1.296875v4.902344l-1.273438 1.296875h-4.839844l-1.269531-1.296875M325.578125 59.421875h2.003906L332.253906 66.75l4.722657-7.328125h1.992187v8.167969H337.75v-7.34375l-4.679687 7.34375h-1.671875l-4.625-7.34375v7.34375h-1.195313v-8.167969m19.101563 4.886719h4.976562l-2.488281-4.191406zm1.648437-4.886719h1.726563l4.925781 8.167969h-1.375l-1.359375-2.296875h-6.15625l-1.363281 2.296875h-1.324219l4.925781-8.167969m16.679688 3.820313l1.03125-1.027344v-.996094l-.851563-.851562h-6.539062v2.875zm-7.601563-3.820313h8.417969l1.460937 1.449219v1.683594l-1.472656 1.46875 1.726563 3.566406h-1.335938L362.605469 64.25h-5.957031v3.339844h-1.242188v-8.167969m12.679688 6.472656v-4.78125l1.691406-1.691406h6.929687l1.464844 1.46875v1.144531h-1.183594v-.746093l-.863281-.863282h-5.769531l-1.027344 1.03125v4.097657l1.027344 1.03125H376.125l.863281-.867188v-.816406h1.183594v1.21875l-1.464844 1.46875h-6.929687l-1.691406-1.695313m13.046875-6.472656h1.238281v3.503906h7.332031v-3.503906h1.242188v8.167969h-1.242188v-3.65625h-7.332031v3.65625h-1.238281v-8.167969m16.886718 7.269531h2.972657v-6.382812h-2.972657v-.886719h4.214844v7.269531h2.882813v.898438h-7.097657v-.898438m9.199219 0h2.972656v-6.382812h-2.972656v-.886719h4.214844v7.269531h2.878906v.898438h-7.09375v-.898438m7.414063-2.726562h8.109375v-.957031h-8.109375v.957031m10.167968.390625l1.230469-1.226563h6.863281l.585938-.582031v-1.351562l-.796875-.792969h-5.929688l-.652343.652344v.601562h-1.242188v-.933594l1.300781-1.300781h7.105469l1.457031 1.453125v2.015625l-1.234375 1.226563H426.625l-.582031.582031v1.886719h8.679687v1.003906h-9.921875v-3.234375m20.664063 2.226562l1.03125-1.027343v-4.097657l-1.03125-1.03125h-5.875l-1.027344 1.03125v4.097657l1.027344 1.027343zm-8.148438-.6875v-4.78125l1.695313-1.691406h7.035156l1.691406 1.691406v4.78125l-1.691406 1.695313h-7.035156l-1.695313-1.695313m12.925782 0v1.695313h.734375v.757812l-.128907.128907h-.605468v.6875H451.25l.53125-.53125v-2.738282h-1.539062m7.292968-1.539062l1.230469-1.226563h6.867188l.582031-.582031v-1.351562l-.792969-.792969h-5.933594l-.652343.652344v.601562h-1.242188v-.933594l1.300781-1.300781H466l1.457031 1.453125v2.015625l-1.230468 1.226563h-6.867188l-.578125.582031v1.886719h8.675781v1.003906h-9.921875v-3.234375m20.664063 2.226562l1.03125-1.027343v-4.097657l-1.03125-1.03125h-5.871094l-1.03125 1.03125v4.097657l1.03125 1.027343zm-8.148438-.6875v-4.78125l1.695313-1.691406h7.035156l1.691406 1.691406v4.78125l-1.691406 1.695313h-7.035156l-1.695313-1.695313m12.691407.796875h2.972656v-6.382812h-2.972656v-.886719h4.214843v7.269531h2.882813v.898438h-7.097656v-.898438"/>
  <g clip-path="url(#a)">
    <path fill="currentColor" d="M491.941406 66.691406h2.972657v-6.382812h-2.972657v-.886719h4.214844v7.269531h2.878906v.898438h-7.09375v-.898438"/>
  </g>
  <path fill="currentColor" d="M147.613281 64.308594h4.972657l-2.488282-4.191406zm1.644532-4.886719h1.730468l4.921875 8.167969h-1.371093l-1.363282-2.296875h-6.15625l-1.363281 2.296875h-1.324219l4.925782-8.167969m8.503906 6.472656v-6.472656h1.246094v6.132813l1.027343 1.03125h5.316407l1.03125-1.03125v-6.132813H167.625v6.472656l-1.691406 1.695313h-6.476563l-1.695312-1.695313m12.476562.394532v-1.019532h1.234375v.664063l.648438.648437H178.125l.792969-.792968v-1.265625l-.582031-.582032h-6.863282l-1.234375-1.230468V60.875l1.453125-1.453125h7.109375l1.300782 1.300781v.933594h-1.230469v-.601562l-.652344-.652344h-5.941406l-.796875.792969v1.175781l.582031.578125h6.867188l1.230468 1.230469v1.953125l-1.453125 1.457031h-7.167968l-1.300782-1.300781m16.003907-5.863282h-4.414063v-1.003906h10.078125v1.003906h-4.417969v7.164063h-1.246093v-7.164063m7.898437 6.265625h2.582031v-6.382812h-2.582031v-.886719h6.417969v.886719h-2.59375v6.382812h2.59375v.898438h-6.417969v-.898438m9.148438-7.269531h1.910156L212.101563 66.75v-7.328125h1.183593v8.167969h-1.90625l-6.902343-7.328125v7.328125h-1.1875v-8.167969m12.78125 6.472656v1.695313h.734375v.757812l-.132813.128907h-.601562v.6875h1.003906l.535156-.53125v-2.738282h-1.539062m9.089843-5.46875h-4.414062v-1.003906h10.074219v1.003906h-4.414063v7.164063h-1.246094v-7.164063m12.027344 3.054688l-4.386719-4.058594h1.585938l3.65625 3.359375 3.695312-3.359375h1.609375l-4.511718 4.035156 4.644531 4.132813h-1.707031l-3.789063-3.433594-3.71875 3.433594h-1.609375l4.53125-4.109375m-94.355469 55.050781v-6.300781h19.5625v2.300781l1.40625 1.40625h32.972657l1.113281-1.109375v-6.59375l-.742188-.742187h-45.714843l-8.296875-8.300782V85.480469l9.40625-9.40625h55.945312l8.667969 8.667969v6.300781h-19.5625V88.59375l-1.40625-1.40625h-32.382813l-1.109375 1.113281v6.371094l.738282.738281h45.722656l8.296875 8.304688v14.074219l-9.414063 9.410156H151.5l-8.667969-8.667969m123.570313-2.445312H276.25l-12.886719-8.445313-12.925781 8.445313h9.441406v11.117187h-38.953125v-11.117187h6.445313l23.640625-14.226563L229.15625 87.1875h-7.492187V76.074219h38.1875V87.1875h-9.371094l12.859375 7.777344 12.886719-7.777344h-9.410157V76.074219h38.210938V87.1875h-7.597656l-23.746094 14.085938 25.636719 14.8125h6.449218v11.117187h-39.367187v-11.117187m42.84375 2.445312v-6.300781h19.5625v2.300781l1.40625 1.40625H363.1875l1.113281-1.109375v-6.59375l-.742187-.742187h-45.71875l-8.300781-8.300782V85.480469l9.414062-9.40625h55.941406l8.671875 8.667969v6.300781h-19.5625V88.59375l-1.410156-1.40625h-32.378906l-1.113281 1.113281v6.371094l.742187.738281h45.71875l8.296875 8.304688v14.074219l-9.40625 9.410156h-56.535156l-8.671875-8.667969"/>
  <g clip-path="url(#b)">
    <path fill="currentColor" d="M391.6875 87.1875h-5.707031V76.074219h34.085937V87.1875h-9.558593l7.925781 26.824219 13.269531-37.9375h24.449219l13.1875 37.9375 7.929687-26.824219h-9.558593V76.074219h31.492187V87.1875h-5.707031l-12.222656 40.015625h-26.160157l-12.226562-37.792969-12.222656 37.792969h-26.75L391.6875 87.1875"/>
  </g>
  <path fill="currentColor" d="M18.3125 137.4375l-12.375 7.820313 4.519531 6.265625 9.894532-11.527344zm-2.949219-7.015625l-13.097656 4.257813 2.230469 7.289062 11.902344-8.449219zm5.734375-24.304687l-9.90625-7.265625-4.578125 8.269531 12.410157 2.464844zm-6.246093 16.433593l-12.9375.546875-.027344 7.945313 12.960937-5.074219zm8.761718 20.546875l-10.632812 11.171875 6.824219 4.792969 6.800781-14.152344zm4.078125-44.488281l-6.785156-11.28125-6.914062 7.808594 10.664062 6.605469zM16.777344 114.28125L4.875 110.984375l-2.277344 8.28125 13.132813-1.429687zm54.890625 20.285156l18.089844 12.609375L99.855469 136.375l-24.777344-5.910156zm7.304687-10.050781l25.070313 6.226563 5.820312-13.066407-28.984375 2.109375zm3.519532-14.882812l-.296875 4.132812 28.90625-2.980469L113.472656 98.375s-12.683593 6.671875-30.980468 11.257813m-20.640625 32.59375l10.136718 16.277343 12.179688-7.214843-17.984375-12.046875zM23.441406 161.03125L32.5 163.789063l2.414063-16.050782-3.8125-.839843zm17-12.730469l-3.238281 16.371094 11.015625.03125-3.367187-16.738281zm11.890625-12.539062l-2.871093 1.179687 1.398437 5.464844 4.195313-1.625zm-1.316406 11.078125l2.746094 17.324219 12.269531-3.382813-10.386719-15.597656zm-25.132812-17.363281l-.738282-2.054688-4.96875 2 1.015625 2.875zm-6.238282-3.554688l5.015625-1.503906-.003906-2.296875-5.03125.605469zm9.195313-14.855469l-3.96875-2.3125-1.945313 3.210938 4.480469 1.378906zm40.207031 1.761719l-.710937 2.515625 7.441406-.726562.386719-3.429688c-.003907 0-.007813-.289062-.007813-.289062zm-48.816406 6.175781l4.941406-.09375.734375-2.367187-4.695312-.859375zm21.78125 24.917969L46.085938 143.5l-.605469-5.523437-2.839844.355468zm21.574219-8.390625l-4.847657-3.859375-2.589843 1.945313 3.585937 4.707031zm11.3125-16.207031l-7.769532.105469-1.066406 2.855468 7.238281 1.261719zm-40.847657 23.683594l3.582032.683593 1.296875-5.4375-2.539063-.425781zm36.503907-14.898438l-6.636719-2.078125-1.972656 2.535156 5.648437 3.265625zm-40.078125-25.675781l-2.832032 2.867187 3.59375 2.835938 2.195313-2.285156zm-1.691407 31.277344l-1.429687-1.664063-4.511719 3.285156 1.980469 2.347657zm1.605469 7.910156l-2.863281-1.613281 3.644531-4.375 2.054688 1.109375-2.835938 4.878906M68.863281 9.304688C41.941406 17.9375 22.875 40.710938 21.316406 61.695313c-1.558593 20.988281 14.460938 39.339843 40.597657 41.277343 33.761718 2.503907 71.492187-22.15625 73.984375-55.722656 2.488281-33.570312-32.261719-49.089844-67.035157-37.945312m-.152343 2.0625c33.070312-10.320313 65.554687 4.667968 63.203125 36.386718-2.351563 31.714844-37.699219 55.253907-69.84375 53.15625-25.167969-1.640625-40.667969-19.15625-39.164063-39.414062 1.503906-20.257813 19.917969-42.046875 45.804688-50.128906m-.359375 4.816406c-23.308594 6.8125-40.261719 26.421875-41.625 44.832031-1.367188 18.40625 12.96875 34.074219 35.699218 35.082031 28.265625 1.257813 58.546875-19.789062 60.582032-47.222656 2.035156-27.433594-25.664063-41.164062-54.65625-32.691406m-.382813 5.15625c24.859375-6.738281 47.785156 5.472656 46.0625 28.667969C112.3125 73.199219 87.125 91.480469 62.808594 90.9375c-20.109375-.445312-33.042969-14.054687-31.828125-30.460937 1.21875-16.40625 16.433594-33.5625 36.988281-39.136719m-1.378906 18.617187C56.640625 41.886719 48.648438 50.0625 48.03125 58.324219c-.613281 8.265625 6.3125 14.566406 16.160156 13.996094 10.753907-.617188 20.84375-9.050782 21.5625-18.746094.71875-9.699219-8.296875-15.722656-19.164062-13.617188m-.761719 10.3125c3.820313-.574218 6.804688 1.652344 6.558594 4.988282-.246094 3.335937-3.621094 6.363281-7.433594 6.746093-3.6875.375-6.402344-1.886718-6.167969-5.035156.238282-3.148437 3.339844-6.140625 7.042969-6.699219m1.78125-24.089843c-17.851562 4.488281-31.378906 19.375-32.449219 33.773437C34.09375 74.34375 45.648438 86.074219 63.167969 86.097656c20.625.027344 41.488281-15.707031 42.929687-35.085937 1.433594-19.382813-17.464843-30.109375-38.488281-24.832031m-.535156 7.21875c15.621094-3.449219 29.015625 4.859375 27.96875 19.003906C93.992188 66.539063 79.097656 78.417969 63.703125 78.875c-13.59375.40625-22.835937-8.460937-21.996094-19.753906.839844-11.289063 11.574219-22.664063 25.367188-25.722656"/>
  <g clip-path="url(#c)">
    <path fill="currentColor" d="M114.535156 131.648438c-4.4375 1.453125-7.730468 5.152343-7.484375 8.300781.25 3.148437 3.960938 4.722656 8.410157 3.472656 4.625-1.292969 8.277343-5.097656 8.011718-8.457031-.261718-3.355469-4.328125-4.820313-8.9375-3.316406m-22.292968 27.472656c.058593-2.234375-2.164063-3.570313-4.914063-2.996094-2.691406.566406-4.863281 2.753906-4.921875 4.894531-.054687 2.144532 2.027344 3.511719 4.714844 3.039063 2.746094-.476563 5.0625-2.691406 5.121094-4.9375m-10.328125 49.613281c-3.269532 1.003906-5.078125 3.972656-4.125 6.667969.972656 2.71875 4.429687 4.242187 7.796875 3.363281 3.472656-.914062 5.480468-4 4.40625-6.84375-1.074219-2.816406-4.710938-4.21875-8.078125-3.1875m-13.066407-10.574219c-4.371093.375-7.867187 3.777344-7.96875 7.605469-.097656 3.824219 3.230469 6.847656 7.59375 6.746094 4.535157-.105469 8.449219-3.527344 8.550782-7.636719.113281-4.117187-3.632813-7.113281-8.175782-6.714844m-1.742187 19.148438c-.734375.636719-.742188 1.648437-.007813 2.265625.730469.621094 1.941407.617187 2.691407-.015625.761718-.644531.761718-1.675781.007812-2.296875-.742187-.613281-1.953125-.589844-2.691406.046875m-10.46875-7.621094c-2.566406-.695312-5.308594.734375-6.179688 3.15625-.863281 2.402344.421875 4.96875 2.910157 5.757813 2.546875.8125 5.425781-.523438 6.367187-3.03125.941406-2.523438-.464844-5.167969-3.097656-5.882813m-12.417969-.40625c-.710937-.496094-1.726562-.292969-2.261719.445313-.535156.742187-.40625 1.742187.292969 2.246093.699219.5 1.714844.316407 2.265625-.425781.554688-.75.417969-1.769531-.296875-2.265625m11.578125-4.769531c2.421875-3.195313 1.808594-7.402344-1.328125-9.277344-3.054687-1.8125-7.261719-.671875-9.445312 2.433594-2.140625 3.039062-1.617188 6.960937 1.195312 8.867187 2.902344 1.957032 7.195313 1.109375 9.578125-2.023437m72.96875-26.539063c-1.71875-.148437-3.570312.765625-4.148437 2.042969-.582032 1.273438.304687 2.441406 1.996093 2.628906 1.714844.171875 3.609375-.726562 4.21875-2.027343.609375-1.308594-.328125-2.492188-2.066406-2.644532m-.3125-20.875c-4.851562 1.042969-8.742187 4.589844-8.832031 7.945313-.085938 3.355469 3.664062 5.429687 8.503906 4.601562 5.03125-.855468 9.316406-4.46875 9.40625-8.050781.09375-3.578125-4.039062-5.574219-9.078125-4.496094m-98.09375 34.695313c-.746094.367187-1.171875 1.265625-.957031 2.027344.214844.757812 1 1.09375 1.746094.742187.757812-.355469 1.1875-1.269531.960937-2.039062-.21875-.761719-1.011719-1.089844-1.75-.730469m88.300781-12.347656c2.191407-4.9375-1.160156-9.3125-7.257812-9.695313-5.84375-.363281-11.941406 3.105469-13.808594 7.667969-1.851562 4.5.976563 8.664062 6.503906 9.386719 5.769532.757812 12.390625-2.5 14.5625-7.359375m-18.84375 27.496093c-1.203125.730469-1.511718 2.039063-.667968 2.9375.84375.90625 2.527343 1.070313 3.761718.351563 1.246094-.71875 1.558594-2.0625.683594-2.976563-.871094-.90625-2.5625-1.039062-3.777344-.3125m-.445312-14.730468c-3.25-3.265625-9.429688-3.332032-13.738281-.328125-4.164063 2.902343-5.175782 7.714843-2.324219 10.90625 2.921875 3.277343 8.921875 3.773437 13.476562.941406 4.738282-2.929688 5.929688-8.171875 2.585938-11.519531m19.59375-2.355469c-3.636719-1.578125-8.652344-.441406-11.257813 2.429687-2.542968 2.820313-1.886718 6.375 1.503907 8.027344 3.484375 1.699219 8.605468.796875 11.398437-2.097656 2.859375-2.960938 2.109375-6.75-1.644531-8.359375M34.4375 198.464844c-1.800781 1.53125-2.253906 4.15625-1.035156 5.917969 1.246094 1.78125 3.765625 2.054687 5.652344.550781 1.921875-1.535156 2.421875-4.285156 1.089843-6.097656-1.3125-1.78125-3.875-1.929688-5.707031-.371094m21.832031-8.574219c1.738282-1.394531 2.1875-3.710937.972657-5.128906-1.195313-1.40625-3.523438-1.375-5.199219.035156-1.636719 1.386719-2.054688 3.613281-.929688 5.007813 1.144532 1.410156 3.4375 1.464843 5.15625.085937m3.003907 1.6875c-.71875 1.988281.34375 3.914063 2.410156 4.320313 2.113281.421875 4.464844-.882813 5.222656-2.9375.78125-2.058594-.375-4.03125-2.535156-4.386719-2.117188-.339844-4.386719 1.015625-5.097656 3.003906m-28.414063-5.355469c2.140625-.363281 3.957031-2.539062 4.023438-4.855468.058593-2.3125-1.664063-3.808594-3.804688-3.351563-2.089844.449219-3.800781 2.605469-3.855469 4.824219-.058593 2.222656 1.554688 3.742187 3.636719 3.382812m98.671875-37.773437c1.773438-.832031 2.777344-2.390625 2.230469-3.472656-.539063-1.078125-2.410156-1.257813-4.152344-.410157-1.71875.835938-2.679687 2.355469-2.160156 3.425782.523437 1.0625 2.34375 1.273437 4.082031.457031M74.066406 187.28125c-2.34375.964844-3.65625 3.289063-2.972656 5.214844.703125 1.933594 3.171875 2.796875 5.5625 1.894531 2.457031-.921875 3.859375-3.320312 3.117188-5.320312-.746094-1.984375-3.324219-2.773438-5.707032-1.789063m-19.269531-9.75c.054688-1.964844-1.570312-3.199219-3.578125-2.777344-1.980469.414063-3.59375 2.273438-3.632812 4.164063-.058594 1.898437 1.472656 3.152344 3.445312 2.808594 2.011719-.355469 3.71875-2.230469 3.765625-4.195313m56.769531-14.050781c6.179688-2.746094 9.796875-8.464844 7.832032-12.601563-1.9375-4.074218-8.449219-4.796875-14.320313-1.800781-5.617187 2.871094-8.691406 8.171875-7.0625 12.003906 1.664063 3.882813 7.628906 5.023438 13.550781 2.398438m-72.296875 6.257812c-2.535156 1.289063-3.945312 4.273438-3.226562 6.722657.738281 2.472656 3.410156 3.578125 6.035156 2.410156 2.71875-1.203125 4.3125-4.34375 3.472656-6.949219-.8125-2.574219-3.660156-3.519531-6.28125-2.183594m-.371093 13.121094c-3.144532 1.601563-4.890625 5.292969-4 8.335938.914062 3.066406 4.222656 4.4375 7.480468 2.988281 3.371094-1.492188 5.347657-5.386719 4.3125-8.617188-1.015625-3.191406-4.546875-4.367187-7.792968-2.707031M96.6875 169.460938c.058594-2.355469-2.28125-3.757813-5.175781-3.152344-2.828125.589844-5.117188 2.894531-5.179688 5.152344-.054687 2.257812 2.132813 3.695312 4.960938 3.195312 2.894531-.503906 5.328125-2.835937 5.394531-5.195312m-6.066406 14.972656c-1.707031 2.074219-4.859375 2.878906-7.003906 1.84375-2.113282-1.019531-2.523438-3.457031-.921875-5.484375 1.613281-2.0625 4.722656-2.972656 6.941406-2.003906 2.265625.996093 2.714844 3.539062.984375 5.644531"/>
  </g>
  <path fill="currentColor" d="M494.269531 153.09375h.828125l.855469 2.507813.867188-2.507813h.824218v3.023438h-.515625v-2.613282l-.886718 2.613282h-.589844l-.878906-2.601563v2.601563h-.503907zm-1.847656.453125h-1v-.453125h2.5v.453125h-.953125v2.570313h-.546875v-2.570313"/>
</svg>