<?xml version="1.0" encoding="UTF-8" standalone="no"?>
<!DOCTYPE svg PUBLIC "-//W3C//DTD SVG 1.1//EN" "http://www.w3.org/Graphics/SVG/1.1/DTD/svg11.dtd">
<svg width="100%" height="100%" viewBox="0 0 8204 618" version="1.1" xmlns="http://www.w3.org/2000/svg" xmlns:xlink="http://www.w3.org/1999/xlink" xml:space="preserve" xmlns:serif="http://www.serif.com/" style="fill-rule:evenodd;clip-rule:evenodd;stroke-linejoin:round;stroke-miterlimit:2;">
    <g transform="matrix(0.798185,0,0,0.798185,-742.05,-518.41)">
        <g transform="matrix(1,0,0,1,150.341,0)">
            <path d="M901.874,650.533L938.532,650.533L938.532,798.214L801.325,746.893L813.893,712.329L901.874,744.798L901.874,650.533ZM1100.88,745.845L963.669,798.214L963.669,650.533L1000.33,650.533L1000.33,744.798L1088.31,712.329L1100.88,745.845ZM1101.92,912.379L1073.64,936.469L972.048,821.257L1109.26,768.888L1122.87,804.499L1035.94,836.967L1101.92,912.379ZM930.153,821.257L829.604,937.516L800.278,912.379L866.263,836.967L779.33,804.499L791.898,769.935L930.153,821.257ZM874.642,977.316L847.41,953.227L951.1,834.873L1054.79,953.227L1027.56,977.316L951.1,891.431L874.642,977.316Z" style="fill:rgb(141,53,37);fill-rule:nonzero;"/>
        </g>
        <path d="M1856.04,921.805L1818.33,921.805L1818.33,872.578C1818.33,750.035 1769.11,689.287 1671.7,689.287C1576.39,689.287 1524.02,766.793 1524.02,872.578C1524.02,932.279 1547.06,973.127 1576.39,1000.36C1604.67,1027.59 1638.18,1042.25 1658.08,1050.63L1675.89,1059.01C1693.69,1066.34 1723.02,1076.82 1748.16,1099.86C1773.3,1122.9 1794.24,1158.51 1794.24,1209.84C1794.24,1306.19 1748.16,1361.7 1671.7,1361.7C1588.96,1361.7 1549.15,1313.53 1549.15,1204.6L1549.15,1155.37L1585.81,1155.37L1585.81,1204.6C1585.81,1249.64 1594.19,1282.1 1609.9,1302.01C1613.05,1307.24 1619.33,1311.43 1628.76,1316.67C1638.18,1321.9 1651.8,1325.05 1671.7,1325.05C1709.4,1325.05 1730.35,1306.19 1742.92,1283.15C1754.44,1260.11 1756.54,1230.78 1756.54,1209.84C1756.54,1173.18 1743.97,1149.09 1726.16,1131.28C1708.36,1114.52 1684.27,1103 1662.27,1093.58L1643.42,1085.2C1621.42,1075.77 1583.72,1060.06 1550.2,1027.59C1508.31,986.743 1487.36,935.421 1487.36,872.578C1487.36,806.593 1505.16,751.082 1538.68,712.329C1571.15,674.623 1617.24,651.581 1671.7,651.581C1747.11,651.581 1789.01,684.05 1811,712.329C1841.38,751.082 1856.04,804.499 1856.04,872.578L1856.04,921.805ZM1487.36,1155.37L1524.02,1155.37L1524.02,1204.6C1524.02,1325.05 1574.29,1386.84 1671.7,1386.84C1717.78,1386.84 1756.54,1369.04 1781.67,1334.47C1805.76,1304.1 1818.33,1260.11 1818.33,1209.84C1818.33,1150.13 1794.24,1109.29 1765.96,1083.1C1736.64,1056.92 1703.12,1043.3 1685.32,1035.97L1668.56,1028.64C1648.66,1020.26 1619.33,1007.69 1594.19,982.553C1569.06,958.464 1549.15,923.9 1549.15,872.578C1549.15,835.92 1556.49,796.119 1576.39,765.745C1596.29,735.371 1626.66,713.376 1671.7,713.376C1752.35,713.376 1794.24,763.651 1794.24,872.578L1794.24,921.805L1756.54,921.805L1756.54,872.578C1756.54,812.878 1742.92,780.409 1725.12,765.745C1707.31,751.082 1685.32,751.082 1671.7,751.082C1630.85,751.082 1610.95,773.077 1599.43,800.309C1586.86,827.541 1585.81,858.962 1585.81,872.578C1585.81,909.237 1598.38,933.326 1616.19,952.179C1633.99,971.032 1658.08,984.648 1683.22,994.075L1699.98,1001.41C1719.88,1009.78 1757.58,1023.4 1791.1,1055.87C1834.04,1095.67 1856.04,1146.99 1856.04,1209.84C1856.04,1328.19 1790.05,1423.5 1671.7,1423.5C1549.15,1423.5 1487.36,1342.85 1487.36,1204.6L1487.36,1155.37Z" style="fill:rgb(141,53,37);fill-rule:nonzero;"/>
        <path d="M1903.17,651.581L2116.84,1041.21L2116.84,1423.5L2081.22,1423.5L2081.22,1050.63L1861.28,651.581L1903.17,651.581ZM2287.56,651.581L2327.36,651.581L2129.4,1011.88L1931.45,651.581L1974.39,651.581L2130.45,935.421L2287.56,651.581ZM2140.93,1423.5L2140.93,1041.21L2355.64,651.581L2400.68,651.581L2179.68,1050.63L2179.68,1423.5L2140.93,1423.5Z" style="fill:rgb(141,53,37);fill-rule:nonzero;"/>
        <path d="M2843.72,650.533L2930.65,650.533L2930.65,1422.45L2893.99,1422.45L2893.99,688.239L2872,688.239L2688.71,1328.19L2504.37,688.239L2482.37,688.239L2482.37,1422.45L2445.71,1422.45L2445.71,650.533L2532.65,650.533L2688.71,1194.12L2843.72,650.533ZM2544.17,1422.45L2507.51,1422.45L2507.51,787.74L2688.71,1418.26L2868.86,787.74L2868.86,1422.45L2832.2,1422.45L2832.2,1052.73L2725.36,1422.45L2651,1422.45L2544.17,1052.73L2544.17,1422.45Z" style="fill:rgb(141,53,37);fill-rule:nonzero;"/>
        <path d="M3107.66,1084.15L3107.66,1421.41L3071,1421.41L3071,1047.49L3169.45,1047.49C3278.38,1047.49 3328.66,990.932 3328.66,866.294C3328.66,743.75 3278.38,686.144 3169.45,686.144L3009.2,686.144L3009.2,649.486L3169.45,649.486C3235.44,649.486 3285.71,668.339 3319.23,707.092C3350.65,742.703 3366.36,796.119 3366.36,866.294C3366.36,1007.69 3302.47,1084.15 3169.45,1084.15L3107.66,1084.15ZM3009.2,711.282L3045.86,711.282L3045.86,1421.41L3009.2,1421.41L3009.2,711.282ZM3071,1022.35L3071,711.282L3169.45,711.282C3264.77,711.282 3304.57,756.319 3304.57,866.294C3304.57,976.269 3264.77,1022.35 3169.45,1022.35L3071,1022.35ZM3107.66,747.94L3107.66,985.696L3169.45,985.696C3196.69,985.696 3215.54,982.553 3224.97,976.269C3234.39,969.985 3240.68,964.748 3243.82,961.606C3259.53,943.8 3266.86,912.379 3266.86,866.294C3266.86,816.02 3258.48,786.693 3242.77,769.935C3226.01,753.177 3201.92,747.94 3169.45,747.94L3107.66,747.94Z" style="fill:rgb(141,53,37);fill-rule:nonzero;"/>
        <path d="M3600.97,651.581L3679.53,651.581L3858.63,1423.5L3819.88,1423.5L3651.25,695.571L3628.21,695.571L3459.58,1423.5L3421.87,1423.5L3600.97,651.581ZM3639.73,756.319L3729.8,1146.99L3548.61,1146.99L3639.73,756.319ZM3639.73,920.758L3595.74,1109.29L3683.72,1109.29L3639.73,920.758ZM3523.47,1423.5L3484.72,1423.5L3543.37,1171.08L3736.09,1171.08L3794.74,1423.5L3757.03,1423.5L3706.76,1208.79L3572.7,1208.79L3523.47,1423.5Z" style="fill:rgb(141,53,37);fill-rule:nonzero;"/>
        <path d="M4328.9,689.287L3892.15,689.287L3892.15,651.581L4328.9,651.581L4328.9,689.287ZM3892.15,713.376L4098.48,713.376L4098.48,1423.5L4060.78,1423.5L4060.78,751.082L3892.15,751.082L3892.15,713.376ZM4122.57,1423.5L4122.57,713.376L4328.9,713.376L4328.9,751.082L4160.28,751.082L4160.28,1423.5L4122.57,1423.5Z" style="fill:rgb(141,53,37);fill-rule:nonzero;"/>
        <path d="M4422.12,650.533L4422.12,1422.45L4385.46,1422.45L4385.46,650.533L4422.12,650.533ZM4670.35,1024.45L4447.26,1024.45L4447.26,650.533L4483.92,650.533L4483.92,987.79L4632.65,987.79L4632.65,650.533L4670.35,650.533L4670.35,1024.45ZM4694.44,1422.45L4694.44,650.533L4732.15,650.533L4732.15,1422.45L4694.44,1422.45ZM4447.26,1049.59L4670.35,1049.59L4670.35,1422.45L4632.65,1422.45L4632.65,1086.24L4483.92,1086.24L4483.92,1422.45L4447.26,1422.45L4447.26,1049.59Z" style="fill:rgb(141,53,37);fill-rule:nonzero;"/>
        <path d="M4850.5,689.287L4850.5,1386.84L5133.29,1386.84L5133.29,1423.5L4813.84,1423.5L4813.84,651.581L5133.29,651.581L5133.29,689.287L4850.5,689.287ZM4875.64,713.376L5133.29,713.376L5133.29,751.082L4912.3,751.082L4912.3,987.79L5133.29,987.79L5133.29,1025.5L4875.64,1025.5L4875.64,713.376ZM4875.64,1049.59L5133.29,1049.59L5133.29,1087.29L4912.3,1087.29L4912.3,1325.05L5133.29,1325.05L5133.29,1361.7L4875.64,1361.7L4875.64,1049.59Z" style="fill:rgb(141,53,37);fill-rule:nonzero;"/>
        <path d="M5629.75,689.287L5192.99,689.287L5192.99,651.581L5629.75,651.581L5629.75,689.287ZM5192.99,713.376L5399.33,713.376L5399.33,1423.5L5361.62,1423.5L5361.62,751.082L5192.99,751.082L5192.99,713.376ZM5423.42,1423.5L5423.42,713.376L5629.75,713.376L5629.75,751.082L5461.12,751.082L5461.12,1423.5L5423.42,1423.5Z" style="fill:rgb(141,53,37);fill-rule:nonzero;"/>
        <path d="M5717.73,1422.45L5717.73,650.533L5754.39,650.533L5754.39,1422.45L5717.73,1422.45ZM5816.19,1422.45L5779.53,1422.45L5779.53,650.533L5816.19,650.533L5816.19,1422.45Z" style="fill:rgb(141,53,37);fill-rule:nonzero;"/>
        <path d="M6264.47,920.758L6226.76,920.758L6226.76,871.531C6226.76,751.082 6177.53,689.287 6081.17,689.287C6032.99,689.287 5996.34,704.997 5971.2,735.371C5947.11,767.84 5934.54,812.878 5934.54,871.531L5934.54,1203.55C5934.54,1278.96 5954.44,1326.09 5982.72,1352.28C6011,1378.46 6047.66,1386.84 6081.17,1386.84C6114.69,1386.84 6150.3,1378.46 6178.58,1352.28C6206.86,1326.09 6226.76,1278.96 6226.76,1203.55L6226.76,1153.28L6264.47,1153.28L6264.47,1203.55C6264.47,1271.63 6249.8,1324 6219.43,1361.7C6197.43,1389.99 6156.59,1423.5 6081.17,1423.5C6043.47,1423.5 6015.19,1415.12 5992.15,1402.55C5969.1,1391.03 5953.39,1375.32 5941.87,1361.7C5912.55,1325.05 5897.88,1272.68 5897.88,1203.55L5897.88,871.531C5897.88,803.451 5912.55,750.035 5941.87,713.376C5953.39,699.76 5969.1,684.05 5992.15,671.481C6015.19,659.96 6043.47,651.581 6081.17,651.581C6156.59,651.581 6197.43,685.097 6219.43,713.376C6249.8,751.082 6264.47,803.451 6264.47,871.531L6264.47,920.758ZM6202.67,920.758L6164.97,920.758L6164.97,871.531C6164.97,811.83 6151.35,780.409 6134.59,765.745C6116.78,751.082 6094.79,751.082 6081.17,751.082C6065.46,751.082 6045.56,751.082 6027.76,765.745C6009.95,780.409 5996.34,811.83 5996.34,871.531L5996.34,1203.55C5996.34,1248.59 6004.72,1281.06 6020.43,1300.96C6027.76,1312.48 6043.47,1325.05 6081.17,1325.05C6118.88,1325.05 6133.54,1312.48 6141.92,1300.96C6157.63,1281.06 6164.97,1248.59 6164.97,1203.55L6164.97,1153.28L6202.67,1153.28L6202.67,1203.55C6202.67,1309.34 6161.82,1361.7 6081.17,1361.7C6000.53,1361.7 5959.68,1309.34 5959.68,1203.55L5959.68,871.531C5959.68,765.745 6000.53,713.376 6081.17,713.376C6161.82,713.376 6202.67,765.745 6202.67,871.531L6202.67,920.758Z" style="fill:rgb(141,53,37);fill-rule:nonzero;"/>
        <path d="M7017.53,921.805L6979.83,921.805L6979.83,872.578C6979.83,750.035 6930.6,689.287 6833.19,689.287C6737.88,689.287 6685.51,766.793 6685.51,872.578C6685.51,932.279 6708.56,973.127 6737.88,1000.36C6766.16,1027.59 6799.68,1042.25 6819.58,1050.63L6837.38,1059.01C6855.19,1066.34 6884.52,1076.82 6909.65,1099.86C6934.79,1122.9 6955.74,1158.51 6955.74,1209.84C6955.74,1306.19 6909.65,1361.7 6833.19,1361.7C6750.45,1361.7 6710.65,1313.53 6710.65,1204.6L6710.65,1155.37L6747.31,1155.37L6747.31,1204.6C6747.31,1249.64 6755.69,1282.1 6771.4,1302.01C6774.54,1307.24 6780.82,1311.43 6790.25,1316.67C6799.68,1321.9 6813.29,1325.05 6833.19,1325.05C6870.9,1325.05 6891.85,1306.19 6904.42,1283.15C6915.94,1260.11 6918.03,1230.78 6918.03,1209.84C6918.03,1173.18 6905.46,1149.09 6887.66,1131.28C6869.85,1114.52 6845.76,1103 6823.77,1093.58L6804.91,1085.2C6782.92,1075.77 6745.21,1060.06 6711.7,1027.59C6669.8,986.743 6648.86,935.421 6648.86,872.578C6648.86,806.593 6666.66,751.082 6700.18,712.329C6732.65,674.623 6778.73,651.581 6833.19,651.581C6908.61,651.581 6950.5,684.05 6972.5,712.329C7002.87,751.082 7017.53,804.499 7017.53,872.578L7017.53,921.805ZM6648.86,1155.37L6685.51,1155.37L6685.51,1204.6C6685.51,1325.05 6735.79,1386.84 6833.19,1386.84C6879.28,1386.84 6918.03,1369.04 6943.17,1334.47C6967.26,1304.1 6979.83,1260.11 6979.83,1209.84C6979.83,1150.13 6955.74,1109.29 6927.46,1083.1C6898.13,1056.92 6864.61,1043.3 6846.81,1035.97L6830.05,1028.64C6810.15,1020.26 6780.82,1007.69 6755.69,982.553C6730.55,958.464 6710.65,923.9 6710.65,872.578C6710.65,835.92 6717.98,796.119 6737.88,765.745C6757.78,735.371 6788.16,713.376 6833.19,713.376C6913.84,713.376 6955.74,763.651 6955.74,872.578L6955.74,921.805L6918.03,921.805L6918.03,872.578C6918.03,812.878 6904.42,780.409 6886.61,765.745C6868.81,751.082 6846.81,751.082 6833.19,751.082C6792.35,751.082 6772.45,773.077 6760.93,800.309C6748.36,827.541 6747.31,858.962 6747.31,872.578C6747.31,909.237 6759.88,933.326 6777.68,952.179C6795.49,971.032 6819.58,984.648 6844.72,994.075L6861.47,1001.41C6881.37,1009.78 6919.08,1023.4 6952.6,1055.87C6995.54,1095.67 7017.53,1146.99 7017.53,1209.84C7017.53,1328.19 6951.55,1423.5 6833.19,1423.5C6710.65,1423.5 6648.86,1342.85 6648.86,1204.6L6648.86,1155.37Z" style="fill:rgb(141,53,37);fill-rule:nonzero;"/>
        <path d="M7064.66,651.581L7278.33,1041.21L7278.33,1423.5L7242.72,1423.5L7242.72,1050.63L7022.77,651.581L7064.66,651.581ZM7449.05,651.581L7488.86,651.581L7290.9,1011.88L7092.94,651.581L7135.89,651.581L7291.95,935.421L7449.05,651.581ZM7302.42,1423.5L7302.42,1041.21L7517.13,651.581L7562.17,651.581L7341.17,1050.63L7341.17,1423.5L7302.42,1423.5Z" style="fill:rgb(141,53,37);fill-rule:nonzero;"/>
        <path d="M7916.19,649.486L7916.19,1308.29L7665.86,687.192L7643.87,687.192L7643.87,1421.41L7607.21,1421.41L7607.21,649.486L7689.95,649.486L7878.48,1116.62L7878.48,649.486L7916.19,649.486ZM7919.33,1383.7L7940.28,1383.7L7940.28,649.486L7977.98,649.486L7977.98,1421.41L7894.19,1421.41L7705.66,954.274L7705.66,1421.41L7669,1421.41L7669,762.603L7919.33,1383.7Z" style="fill:rgb(141,53,37);fill-rule:nonzero;"/>
        <path d="M8478.63,689.287L8041.87,689.287L8041.87,651.581L8478.63,651.581L8478.63,689.287ZM8041.87,713.376L8248.21,713.376L8248.21,1423.5L8210.5,1423.5L8210.5,751.082L8041.87,751.082L8041.87,713.376ZM8272.3,1423.5L8272.3,713.376L8478.63,713.376L8478.63,751.082L8310,751.082L8310,1423.5L8272.3,1423.5Z" style="fill:rgb(141,53,37);fill-rule:nonzero;"/>
        <path d="M8571.85,650.533L8571.85,1422.45L8535.19,1422.45L8535.19,650.533L8571.85,650.533ZM8820.08,1024.45L8596.98,1024.45L8596.98,650.533L8633.64,650.533L8633.64,987.79L8782.37,987.79L8782.37,650.533L8820.08,650.533L8820.08,1024.45ZM8844.17,1422.45L8844.17,650.533L8881.87,650.533L8881.87,1422.45L8844.17,1422.45ZM8596.98,1049.59L8820.08,1049.59L8820.08,1422.45L8782.37,1422.45L8782.37,1086.24L8633.64,1086.24L8633.64,1422.45L8596.98,1422.45L8596.98,1049.59Z" style="fill:rgb(141,53,37);fill-rule:nonzero;"/>
        <path d="M9000.23,689.287L9000.23,1386.84L9283.02,1386.84L9283.02,1423.5L8963.57,1423.5L8963.57,651.581L9283.02,651.581L9283.02,689.287L9000.23,689.287ZM9025.36,713.376L9283.02,713.376L9283.02,751.082L9062.02,751.082L9062.02,987.79L9283.02,987.79L9283.02,1025.5L9025.36,1025.5L9025.36,713.376ZM9025.36,1049.59L9283.02,1049.59L9283.02,1087.29L9062.02,1087.29L9062.02,1325.05L9283.02,1325.05L9283.02,1361.7L9025.36,1361.7L9025.36,1049.59Z" style="fill:rgb(141,53,37);fill-rule:nonzero;"/>
        <path d="M9721.87,921.805L9684.17,921.805L9684.17,872.578C9684.17,750.035 9634.94,689.287 9537.53,689.287C9442.22,689.287 9389.85,766.793 9389.85,872.578C9389.85,932.279 9412.89,973.127 9442.22,1000.36C9470.5,1027.59 9504.02,1042.25 9523.92,1050.63L9541.72,1059.01C9559.53,1066.34 9588.85,1076.82 9613.99,1099.86C9639.13,1122.9 9660.08,1158.51 9660.08,1209.84C9660.08,1306.19 9613.99,1361.7 9537.53,1361.7C9454.79,1361.7 9414.99,1313.53 9414.99,1204.6L9414.99,1155.37L9451.65,1155.37L9451.65,1204.6C9451.65,1249.64 9460.03,1282.1 9475.74,1302.01C9478.88,1307.24 9485.16,1311.43 9494.59,1316.67C9504.02,1321.9 9517.63,1325.05 9537.53,1325.05C9575.24,1325.05 9596.19,1306.19 9608.75,1283.15C9620.28,1260.11 9622.37,1230.78 9622.37,1209.84C9622.37,1173.18 9609.8,1149.09 9592,1131.28C9574.19,1114.52 9550.1,1103 9528.11,1093.58L9509.25,1085.2C9487.26,1075.77 9449.55,1060.06 9416.04,1027.59C9374.14,986.743 9353.19,935.421 9353.19,872.578C9353.19,806.593 9371,751.082 9404.51,712.329C9436.98,674.623 9483.07,651.581 9537.53,651.581C9612.94,651.581 9654.84,684.05 9676.83,712.329C9707.21,751.082 9721.87,804.499 9721.87,872.578L9721.87,921.805ZM9353.19,1155.37L9389.85,1155.37L9389.85,1204.6C9389.85,1325.05 9440.13,1386.84 9537.53,1386.84C9583.62,1386.84 9622.37,1369.04 9647.51,1334.47C9671.6,1304.1 9684.17,1260.11 9684.17,1209.84C9684.17,1150.13 9660.08,1109.29 9631.8,1083.1C9602.47,1056.92 9568.95,1043.3 9551.15,1035.97L9534.39,1028.64C9514.49,1020.26 9485.16,1007.69 9460.03,982.553C9434.89,958.464 9414.99,923.9 9414.99,872.578C9414.99,835.92 9422.32,796.119 9442.22,765.745C9462.12,735.371 9492.5,713.376 9537.53,713.376C9618.18,713.376 9660.08,763.651 9660.08,872.578L9660.08,921.805L9622.37,921.805L9622.37,872.578C9622.37,812.878 9608.75,780.409 9590.95,765.745C9573.14,751.082 9551.15,751.082 9537.53,751.082C9496.68,751.082 9476.78,773.077 9465.26,800.309C9452.69,827.541 9451.65,858.962 9451.65,872.578C9451.65,909.237 9464.22,933.326 9482.02,952.179C9499.83,971.032 9523.92,984.648 9549.05,994.075L9565.81,1001.41C9585.71,1009.78 9623.42,1023.4 9656.93,1055.87C9699.88,1095.67 9721.87,1146.99 9721.87,1209.84C9721.87,1328.19 9655.89,1423.5 9537.53,1423.5C9414.99,1423.5 9353.19,1342.85 9353.19,1204.6L9353.19,1155.37Z" style="fill:rgb(141,53,37);fill-rule:nonzero;"/>
        <path d="M9800.43,1422.45L9800.43,650.533L9837.08,650.533L9837.08,1422.45L9800.43,1422.45ZM9898.88,1422.45L9862.22,1422.45L9862.22,650.533L9898.88,650.533L9898.88,1422.45Z" style="fill:rgb(141,53,37);fill-rule:nonzero;"/>
        <path d="M10378.6,651.581L10378.6,746.893L10108.4,1325.05L10395.3,1325.05L10395.3,1361.7L10061.2,1361.7L10061.2,1340.76L10343,740.608L10343,689.287L9980.58,689.287L9980.58,651.581L10378.6,651.581ZM10317.8,733.277L10318.9,733.277L10034,1340.76L10034,1386.84L10395.3,1386.84L10395.3,1423.5L9997.33,1423.5L9997.33,1327.14L10267.6,751.082L9980.58,751.082L9980.58,713.376L10317.8,713.376L10317.8,733.277Z" style="fill:rgb(141,53,37);fill-rule:nonzero;"/>
        <path d="M10495.9,689.287L10495.9,1386.84L10778.7,1386.84L10778.7,1423.5L10459.2,1423.5L10459.2,651.581L10778.7,651.581L10778.7,689.287L10495.9,689.287ZM10521,713.376L10778.7,713.376L10778.7,751.082L10557.7,751.082L10557.7,987.79L10778.7,987.79L10778.7,1025.5L10521,1025.5L10521,713.376ZM10521,1049.59L10778.7,1049.59L10778.7,1087.29L10557.7,1087.29L10557.7,1325.05L10778.7,1325.05L10778.7,1361.7L10521,1361.7L10521,1049.59Z" style="fill:rgb(141,53,37);fill-rule:nonzero;"/>
        <path d="M11207.1,1423.5L11169.4,1423.5L11169.4,1195.17C11169.4,1143.85 11154.7,1103 11124.3,1072.63C11111.7,1061.11 11097.1,1051.68 11080.3,1044.35C11139,1022.35 11168.3,964.748 11168.3,871.531C11168.3,746.893 11119.1,689.287 11009.1,689.287L10848.9,689.287L10848.9,651.581L11009.1,651.581C11142.1,651.581 11205,728.04 11205,871.531C11205,942.753 11189.3,997.217 11158.9,1033.88C11157.8,1034.92 11155.7,1037.02 11154.7,1039.11C11152.6,1041.21 11150.5,1043.3 11148.4,1044.35C11186.1,1081.01 11207.1,1131.28 11207.1,1195.17L11207.1,1423.5ZM10848.9,713.376L10885.5,713.376L10885.5,1423.5L10848.9,1423.5L10848.9,713.376ZM10910.6,1030.73L10910.6,713.376L11009.1,713.376C11104.4,713.376 11143.2,759.461 11143.2,871.531C11143.2,984.648 11104.4,1030.73 11009.1,1030.73L10910.6,1030.73ZM10947.3,751.082L10947.3,994.075L11009.1,994.075C11035.3,994.075 11054.1,990.932 11064.6,984.648C11074,978.364 11080.3,973.127 11083.5,969.985C11099.2,950.085 11106.5,917.616 11106.5,871.531C11106.5,820.209 11098.1,789.835 11082.4,772.03C11065.7,755.272 11041.6,751.082 11009.1,751.082L10947.3,751.082ZM11145.3,1423.5L11107.6,1423.5L11107.6,1195.17C11107.6,1127.09 11075.1,1093.58 11009.1,1093.58L10947.3,1093.58L10947.3,1423.5L10910.6,1423.5L10910.6,1055.87L11009.1,1055.87C11096,1055.87 11145.3,1106.14 11145.3,1195.17L11145.3,1423.5Z" style="fill:rgb(141,53,37);fill-rule:nonzero;"/>
    </g>
</svg>
