<svg xmlns="http://www.w3.org/2000/svg" viewBox="0 0 600 343.7">
  <g fill="#231f20">
    <path d="M597.39 336.27c-.55-.09-2.37-.29-5.22-.52-14-1.12-29.21-4-38.28-27.48-2.88-7.53-117.52-304.62-118.27-306.6-.86-2.27-3-2.21-3.77.08-.64 2-31 92-31 92l79.06 217.56c1.39 4 2.74 8 2.74 11.11a12.15 12.15 0 0 1-7 10.43c-3.49 1.65-10.14 2.53-15.26 3-1.61.14-3 .28-4.44.49a2.67 2.67 0 0 0-2.24 2.82 2.54 2.54 0 0 0 2.73 2.55h141.2a2.54 2.54 0 0 0 2.44-2.38 2.73 2.73 0 0 0-2.62-3M278.87 14.73c4.15-2.44 9.59-3.61 20.6-4.2 1.56-.09 2.77-.95 2.77-2.52a2.48 2.48 0 0 0-2.48-2.57H233c-1.57 0-3.37.47-3.37 2.56 0 1.06.44 2.25 2.49 2.53 1.55.2 5.1.42 9.06.7 9.55.67 13.22 1.66 16 5.61 2.58 3.71 1.19 10.3-1.71 18.13S175.73 239.8 175.73 239.8h-.31c-.92-2.89-61.8-194.29-64.44-202.56s-3.7-14.08-2.34-17.27c2.49-5.83 7.44-7.88 19.79-8.73 1.69-.12 2.48-.18 4-.32a2.54 2.54 0 0 0 2.19-3.3c-.36-1.82-1.42-2.2-3.41-2.2H2.62A2.56 2.56 0 0 0 .01 7.85a2.21 2.21 0 0 0 1.28 2.38c.76.34 3 .64 7.25.94 9.41.66 12.45 1.46 15.93 3.12 7.06 3.38 11.89 12.42 14.3 19.64s102.29 307.49 102.61 308.41a1.68 1.68 0 0 0 3.12 0c.62-1.45 124.42-312.2 126.2-316.54 1.53-3.71 4-8.64 8.17-11.1"/>
    <path d="M431.01 314.98c-2.73-.85-4.43.85-6.43 5.58-2.32 5.48-7.32 7-12.13 7-9 0-18.06-10.31-24.79-20.8-.37-.57-4.19-6.57-9.93-15.57 14.61-20.3 22.94-44.07 26.76-59.76 1.31-5.41 3.26-13.59 6.17-17 4-4.7 8.44-6.06 14.8-6.7a30 30 0 0 0 5-.71 2.49 2.49 0 0 0 1.72-2.78 2.31 2.31 0 0 0-2.39-2.16h-55.57a2.46 2.46 0 0 0-2.69 2.62 2.43 2.43 0 0 0 2.15 2.41 23 23 0 0 0 3.52.42c7 .37 12.07 1.15 15.25 3.27 5.12 3.41 4.62 8.73 3.65 16-2.17 16.2-10.4 40.1-22.37 58.05l-61.28-96.18s16.36-8.5 27.46-14.88c10.84-6.23 27.42-18.76 27.42-39.24 0-12.14-7-21.58-16.47-27.87-9.78-6.46-24.44-11.64-41.07-11.64-20.73 0-42.9 7.62-54.91 26.67-11.6 18.4-8.6 45.27 5 67.74 3.69 6.07 7.74 12.2 7.74 12.2-4.85 1.74-10.87 4.35-15.95 6.66-27.59 12.81-51 36.72-51 69.55 0 36.51 27.16 65.87 77.21 65.87a114.34 114.34 0 0 0 67.71-21.47c8.26 11.21 23.56 19.62 45.54 19.62 20.85 0 37.37-12.14 41.64-22.08.73-1.7.29-4.15-1.76-4.79ZM286.43 110.04c4.31-6.19 10.76-8.75 19.4-8.75 11.74 0 26.1 11 26.1 38.62 0 17.39-8.79 34.1-22.92 43.4 0 0-12.19-18.83-19.17-32-6.12-11.51-11.75-29.31-3.41-41.3Zm-42.69 148.22c0-16.49 5.78-38 26.88-51.52l.07.1.14.22c46 71 48.58 75.07 71 109.41-9.84 6.53-20.74 10.45-31.65 10.45-37.27 0-66.4-34.58-66.4-68.66"/>
  </g>
</svg>