<svg xmlns="http://www.w3.org/2000/svg" xml:space="preserve" fill-rule="evenodd" stroke-linejoin="round" stroke-miterlimit="2" clip-rule="evenodd" viewBox="0 0 280 320">
  <path d="M140,31.262C145.224,31.021 149.522,31.011 150.966,31.364C151.791,31.566 155.841,32.274 159.966,32.937C183.001,36.641 204.831,48.093 222.828,65.912C231.364,74.363 242.731,91.254 247.14,102.036C248.918,106.385 250.82,109.793 251.368,109.61C251.916,109.428 253.287,105.159 254.415,100.125C256.585,90.443 257.92,87.898 259.667,90.119C260.373,91.017 260.007,94.311 258.467,100.911C256.616,108.846 256.223,113.705 256.079,130.411C255.927,147.956 255.684,150.718 254.095,152.911C253.058,154.342 252.052,157.975 251.742,161.411C251.444,164.711 248.849,174.836 245.976,183.911C241.285,198.731 240.7,201.589 240.229,211.986L239.706,223.561L242.825,224.853C246.698,226.457 252.666,232.948 254.663,237.729C256.89,243.059 256.592,251.987 254.008,257.325C251.265,262.99 245.254,268.445 240.028,270.011L235.966,271.228L235.966,278.498C235.966,288.453 235.4,288.911 223.095,288.911C216.861,288.911 212.935,288.48 212.166,287.711C211.402,286.947 210.966,283.079 210.966,277.065L210.966,267.619L208.514,270.265C205.465,273.555 201.541,273.729 199.557,270.661C198.756,269.423 197.315,262.786 196.355,255.911C194.765,244.534 193.747,240.782 192.575,241.978C192.341,242.216 191.421,247.586 190.531,253.911C189.641,260.236 188.699,266.392 188.438,267.591C187.771,270.654 185.238,272.911 182.467,272.911C178.322,272.911 176.453,268.976 174.069,255.234C172.846,248.181 171.614,241.459 171.331,240.297C170.788,238.061 173.571,236.116 175.111,237.656C175.557,238.102 177.011,244.911 178.342,252.787C180.604,266.169 181.964,270.246 183.617,268.593C183.994,268.217 185.098,262.425 186.072,255.723C188.41,239.637 188.593,239.038 191.611,237.663C193.904,236.618 194.448,236.77 196.355,238.987C198.039,240.945 198.898,244.319 200.293,254.451C203.083,274.732 204.622,274.216 208.36,251.744C210.321,239.954 210.966,232.519 210.966,221.694C210.966,211.841 211.344,206.933 212.166,206.111C213.631,204.646 231.253,204.459 233.909,205.88C235.488,206.725 235.806,206.315 236.386,202.684C236.753,200.392 239.28,191.398 242.003,182.696C244.725,173.995 247.234,164.485 247.577,161.563C248.186,156.378 248.13,156.222 245.217,155.015C241.187,153.346 240.187,150.903 239.446,140.911C235.518,87.962 192.704,47.927 140,47.911C87.296,47.927 44.482,87.962 40.554,140.911C39.813,150.903 38.813,153.346 34.783,155.015C31.87,156.222 31.814,156.378 32.423,161.563C32.766,164.485 35.275,173.995 37.997,182.696C40.72,191.398 43.247,200.392 43.614,202.684C44.194,206.315 44.512,206.725 46.091,205.88C48.747,204.459 66.369,204.646 67.834,206.111C68.656,206.933 69.034,211.841 69.034,221.694C69.034,232.519 69.679,239.954 71.64,251.744C75.378,274.216 76.917,274.732 79.707,254.451C81.102,244.319 81.961,240.945 83.645,238.987C85.552,236.77 86.096,236.618 88.389,237.663C91.407,239.038 91.59,239.637 93.928,255.723C94.902,262.425 96.006,268.217 96.383,268.593C98.036,270.246 99.396,266.169 101.658,252.787C102.989,244.911 104.443,238.102 104.889,237.656C106.429,236.116 109.212,238.061 108.669,240.297C108.386,241.459 107.154,248.181 105.931,255.234C103.547,268.976 101.678,272.911 97.533,272.911C94.762,272.911 92.229,270.654 91.562,267.591C91.301,266.392 90.359,260.236 89.469,253.911C88.579,247.586 87.659,242.216 87.425,241.978C86.253,240.782 85.235,244.534 83.645,255.911C82.685,262.786 81.244,269.423 80.443,270.661C78.459,273.729 74.535,273.555 71.486,270.265L69.034,267.619L69.034,277.065C69.034,283.079 68.598,286.947 67.834,287.711C67.065,288.48 63.139,288.911 56.905,288.911C44.6,288.911 44.034,288.453 44.034,278.498L44.034,271.228L39.972,270.011C34.746,268.445 28.735,262.99 25.992,257.325C23.408,251.987 23.11,243.059 25.337,237.729C27.334,232.948 33.302,226.457 37.175,224.853L40.294,223.561L39.771,211.986C39.3,201.589 38.715,198.731 34.024,183.911C31.151,174.836 28.556,164.711 28.258,161.411C27.948,157.975 26.942,154.342 25.905,152.911C24.316,150.718 24.073,147.956 23.921,130.411C23.777,113.705 23.384,108.846 21.533,100.911C19.993,94.311 19.627,91.017 20.333,90.119C22.08,87.898 23.415,90.443 25.585,100.125C26.713,105.159 28.084,109.428 28.632,109.61C29.18,109.793 31.082,106.385 32.86,102.036C37.269,91.254 48.636,74.363 57.172,65.912C75.169,48.093 96.999,36.641 120.034,32.937C124.159,32.274 128.209,31.566 129.034,31.364C130.478,31.011 134.776,31.021 140,31.262ZM140,223.005C141.466,222.791 142.979,223.222 143.926,224.363C144.588,225.161 146.436,235.144 148.033,246.547C152.259,276.741 153.53,276.651 158.653,245.792C160.606,234.033 162.713,223.865 163.335,223.197C163.983,222.502 165.022,222.327 165.768,222.788C166.811,223.433 166.27,228.14 163.059,246.379C158.909,269.95 157.836,272.944 153.561,272.879C148.456,272.802 147.845,271.166 144.722,249.195C142.35,232.505 141.238,226.989 140,226.84C138.762,226.989 137.65,232.505 135.278,249.195C132.155,271.166 131.544,272.802 126.439,272.879C122.164,272.944 121.091,269.95 116.941,246.379C113.73,228.14 113.189,223.433 114.232,222.788C114.978,222.327 116.017,222.502 116.665,223.197C117.287,223.865 119.394,234.033 121.347,245.792C126.47,276.651 127.741,276.741 131.967,246.547C133.564,235.144 135.412,225.161 136.074,224.363C137.021,223.222 138.534,222.791 140,223.005Z"/>
  <path d="M106.563,148.001L105.851,148L96,148L96,155L118,155L118,161.813L107.912,162.156C98.248,162.486 97.72,162.62 95.37,165.354C93.182,167.9 92.948,168.981 93.208,175.354L93.5,182.5L124,183.052L124,176L98.873,176L99.187,172.75C99.499,169.51 99.519,169.499 105.5,169.259C121.086,168.632 124,166.976 124,158.746C124,149.773 121.33,148.053 106.563,148.001ZM189.059,148.001L188.55,148L178,148L178,155L200,155L200,162L190.423,162C181.171,162 180.747,162.099 177.923,164.923C175.207,167.639 175,168.382 175,175.423L175,183L206,183L206,176L180.873,176L181.187,172.75L181.5,169.5L191.246,168.928C199.654,168.434 201.336,168.033 203.496,166.004C205.486,164.135 206,162.677 206,158.907C206,156.298 205.72,153.435 205.379,152.545C204.133,149.297 199.641,148.039 189.059,148.001ZM214.417,149.356C214.095,150.196 213.988,151.697 214.181,152.692C214.488,154.276 215.739,154.518 224.278,154.648C236.2,154.828 237.229,155.165 236.817,158.744C236.503,161.471 236.417,161.503 228.5,161.752C213.646,162.219 212,163.56 212,175.189L212,183L243,183L243,176L218,176L218,172.5C218,169.842 218.421,168.994 219.75,168.977C236.797,168.754 238.136,168.543 240.598,165.681C243.924,161.814 243.92,155.182 240.589,151.306C238.243,148.576 237.863,148.491 226.59,148.164C216.909,147.883 214.907,148.079 214.417,149.356ZM139.643,148.971C133.137,151.05 129.999,156.332 130.002,165.2C130.003,172.91 132.184,177.667 137,180.466C142.145,183.456 158.592,183.438 162.613,180.438C167.537,176.764 169.343,173.406 169.801,167.069C170.34,159.618 167.437,152.809 162.648,150.29C159.019,148.382 144.153,147.53 139.643,148.971ZM138.073,157.635C134.949,161.606 135.156,170.247 138.455,173.545C140.699,175.79 141.684,176 149.955,176C157.667,176 159.295,175.705 161,174C163.866,171.134 164.095,161.463 161.395,157.25C160.06,155.165 159.227,155 150.05,155C140.541,155 140.062,155.105 138.073,157.635ZM147.5,163.277C138.449,169.542 137.096,171.396 140.163,173.331C142.669,174.912 161.222,162.554 160.798,159.586C160.271,155.896 156.752,156.873 147.5,163.277ZM92.003,102.25C92.005,102.938 93.598,112.05 95.542,122.5C98.877,140.423 100.124,144 103.036,144C104.295,144 106.864,140.413 113.294,129.68L119.777,118.86L127.138,130.912C134.55,143.044 135.784,144.404 138.462,143.376C140.377,142.641 140.494,142.208 143.991,122.963C145.636,113.908 147.247,105.263 147.571,103.75C148.135,101.113 147.996,101 144.188,101C139.656,101 140.136,99.966 137.46,115.5C137.178,117.135 136.886,118.732 136.604,120.187C135.939,123.623 135.335,126.265 135.081,126.747C134.683,127.502 132.116,124.214 128.578,118.414C122.549,108.536 120.864,106.965 118.141,108.683C116.542,109.692 110.462,118.721 107.322,124.75C106.391,126.537 105.322,128 104.947,128C104.571,128 103.229,121.925 101.963,114.5L99.663,101L95.832,101C93.431,101 92.001,101.467 92.003,102.25ZM209.357,101.992C204.678,103.88 204,106.433 204,122.167C204,136.283 204.099,137.004 206.411,139.694L208.822,142.5L242.129,143.136L241.814,139.318L241.5,135.5L211.5,134.5L211.5,109.5L242,108.948L242,101L226.75,101.063C218.363,101.098 210.536,101.516 209.357,101.992ZM165.491,102.865C160.45,105.155 155.425,110.807 154.06,115.723C153.483,117.8 153.009,124.787 153.006,131.25L153,143L161,143L161,133L188,133L188,143L195,143L195,122.607C195,104.934 194.789,102.133 193.418,101.607C192.548,101.273 186.811,101.01 180.668,101.022C172.035,101.039 168.59,101.457 165.491,102.865ZM167.198,110.673C163.276,112.606 161,116.563 161,121.45L161,125L188,125L188,109L179.25,109.023C173.227,109.038 169.471,109.553 167.198,110.673Z" transform="translate(-27 3)"/>
</svg>