<?xml version="1.0" encoding="UTF-8" standalone="no"?>
<!DOCTYPE svg PUBLIC "-//W3C//DTD SVG 1.1//EN" "http://www.w3.org/Graphics/SVG/1.1/DTD/svg11.dtd">
<svg width="100%" height="100%" viewBox="0 0 1890 3058" version="1.1" xmlns="http://www.w3.org/2000/svg" xmlns:xlink="http://www.w3.org/1999/xlink" xml:space="preserve" xmlns:serif="http://www.serif.com/" style="fill-rule:evenodd;clip-rule:evenodd;stroke-linecap:round;stroke-linejoin:round;stroke-miterlimit:1.5;">
    <g id="section">
        <path d="M1889.76,75.591c-0,-41.72 -33.871,-75.591 -75.591,-75.591l-1738.58,0c-41.72,0 -75.591,33.871 -75.591,75.591l-0,2906.52c-0,41.72 33.871,75.591 75.591,75.591l1738.58,0c41.72,0 75.591,-33.871 75.591,-75.591l-0,-2906.52Z" style="fill:rgb(235,235,235);"/>
    </g>
    <path d="M1779.64,1132.97c-0,-24.77 -20.081,-44.85 -44.851,-44.85l-1579.82,-0c-24.77,-0 -44.851,20.08 -44.851,44.85c0,460.717 374.042,834.761 834.759,834.761c460.717,-0 834.759,-374.044 834.759,-834.761Zm-769.145,204.056c-5.777,-10.58 -11.857,-45.033 -11.953,-51.315c-0.009,-0.628 -0.014,-1.256 -0.013,-1.885c-0,-53.703 32.908,-100.783 78.467,-100.783c0.405,0 0.807,0.004 1.213,0.011c95.542,2.014 234.582,181.366 234.582,332.778c-0,197.021 -164.855,356.975 -367.91,356.975c-203.056,0 -367.91,-159.954 -367.91,-356.975c0,-151.412 111.577,-330.185 234.582,-332.778c0.406,-0.007 0.808,-0.011 1.212,-0.011c45.56,0 78.468,47.08 78.468,100.783c0,0.626 -0.004,1.252 -0.015,1.885c-0.096,6.3 -6.158,40.74 -11.927,51.302c-13.446,24.613 -29.59,45.197 -35.263,52.135c-0.423,0.383 -0.814,0.764 -1.167,1.14c-21.608,23.009 -45.642,44.88 -64.442,69.443c-24.377,31.851 -40.799,67.768 -40.799,112.41c-0,117.158 92.866,212.275 207.254,212.275c114.386,0 207.252,-95.117 207.252,-212.275c-0,-45.286 -16.183,-79.669 -40.673,-110.924c-18.146,-23.159 -41.691,-44.35 -63.731,-69.63c-1.419,-1.672 -21.234,-25.262 -37.227,-54.561Zm-155.193,44.426c4.165,-2.384 7.605,-4.045 7.605,-4.045c-0,-0 -3.355,1.251 -4.933,2l-2.672,2.045Z" style="fill:rgb(141,53,37);"/>
    <g id="Eyes---wink" serif:id="Eyes + wink">
        <ellipse cx="681.989" cy="651.254" rx="132.017" ry="318.098" style="fill:rgb(141,53,37);"/>
        <g id="wink">
            <path d="M1117.83,660.027l243.917,-164.706" style="fill:none;stroke:rgb(142,53,37);stroke-width:91.67px;"/>
            <path d="M1117.83,660.027l254.888,147.16" style="fill:none;stroke:rgb(142,53,37);stroke-width:91.67px;"/>
            <path d="M1117.83,660.027l294.319,0" style="fill:none;stroke:rgb(142,53,37);stroke-width:91.67px;"/>
        </g>
    </g>
    <g id="text">
        <g transform="matrix(1,0,0,1,-1748.66,-2163.14)">
            <g transform="matrix(122.014,27.1578,-27.1578,122.014,2024.61,4972.46)">
                <path d="M0.062,-0.162l0,-0.086c0,-0.035 0.011,-0.061 0.033,-0.08l0.042,-0.035l-0.035,-0.042c-0.013,-0.016 -0.02,-0.035 -0.02,-0.058l0,-0.065c0,-0.108 0.054,-0.162 0.162,-0.162l0.182,0l0.06,0.045l0,0.075l-0.234,0c-0.021,0 -0.032,0.011 -0.032,0.032l0,0.086c0,0.021 0.011,0.032 0.032,0.032l0.384,0l0,0.12l-0.1,0l0,0.3l-0.312,0c-0.108,0 -0.162,-0.054 -0.162,-0.162Zm0.138,0.01c-0,0.021 0.011,0.032 0.032,0.032l0.166,0l0,-0.18l-0.166,0c-0.021,0 -0.032,0.011 -0.032,0.032l0,0.116Z" style="fill:rgb(142,53,37);fill-rule:nonzero;"/>
            </g>
            <g transform="matrix(123.138,21.4976,-21.4976,123.138,2139.02,4997.51)">
                <path d="M0.082,-0l0,-0.69l0.172,0l0.194,0.414l0.194,-0.414l0.172,0l-0,0.69l-0.144,-0l0,-0.436l-0.162,0.346l-0.12,-0l-0.162,-0.346l0,0.436l-0.144,-0Z" style="fill:rgb(142,53,37);fill-rule:nonzero;"/>
            </g>
            <g transform="matrix(123.811,17.2015,-17.2015,123.811,2250.66,5016.72)">
                <path d="M0.018,-0.027l0.205,-0.663l0.22,0l0.205,0.663l-0.018,0.027l-0.12,0l-0.042,-0.14l-0.27,0l-0.042,0.14l-0.12,0l-0.018,-0.027Zm0.219,-0.243l0.192,0l-0.088,-0.29l-0.016,0l-0.088,0.29Z" style="fill:rgb(142,53,37);fill-rule:nonzero;"/>
            </g>
            <g transform="matrix(124.257,13.6087,-13.6087,124.257,2334.3,5028.3)">
                <path d="M0.072,-0.168l-0,-0.354c-0,-0.112 0.056,-0.168 0.168,-0.168l0.267,0l0.067,0.052l-0,0.078l-0.328,0c-0.02,0 -0.03,0.01 -0.03,0.03l-0,0.37c-0,0.02 0.01,0.03 0.03,0.03l0.328,0l-0,0.078l-0.067,0.052l-0.267,0c-0.112,0 -0.168,-0.056 -0.168,-0.168Z" style="fill:rgb(142,53,37);fill-rule:nonzero;"/>
            </g>
            <g transform="matrix(124.596,10.037,-10.037,124.596,2413.11,5037.01)">
                <path d="M0.082,-0l0,-0.69l0.144,0l-0,0.27l0.256,0l-0,-0.27l0.144,0l-0,0.69l-0.144,-0l-0,-0.29l-0.256,0l-0,0.29l-0.144,-0Z" style="fill:rgb(142,53,37);fill-rule:nonzero;"/>
            </g>
            <g transform="matrix(124.789,7.2674,-7.2674,124.789,2502.67,5043.93)">
                <rect x="0.082" y="-0.69" width="0.144" height="0.69" style="fill:rgb(142,53,37);fill-rule:nonzero;"/>
            </g>
            <g transform="matrix(124.921,4.44514,-4.44514,124.921,2542.12,5046.52)">
                <path d="M0.082,-0l0,-0.69l0.156,0l0.274,0.453l0,-0.453l0.144,0l0,0.69l-0.156,-0l-0.274,-0.453l0,0.453l-0.144,-0Z" style="fill:rgb(142,53,37);fill-rule:nonzero;"/>
            </g>
            <g transform="matrix(124.998,0.760868,-0.760868,124.998,2635.69,5049.73)">
                <path d="M0.082,-0l0,-0.69l0.472,0l0,0.13l-0.328,0l-0,0.14l0.298,0l0,0.13l-0.298,0l-0,0.16l0.328,0l0,0.13l-0.472,0Z" style="fill:rgb(142,53,37);fill-rule:nonzero;"/>
            </g>
            <g transform="matrix(124.945,-3.71447,3.71447,124.945,2743.77,5049.85)">
                <path d="M0.082,-0l0,-0.69l0.144,0l-0,0.56l0.298,0l0,0.13l-0.442,-0Z" style="fill:rgb(142,53,37);fill-rule:nonzero;"/>
            </g>
            <g transform="matrix(124.817,-6.75449,6.75449,124.817,2813.48,5047.87)">
                <path d="M0.082,-0l0,-0.69l0.472,0l0,0.13l-0.328,0l-0,0.14l0.298,0l0,0.13l-0.298,0l-0,0.16l0.328,0l0,0.13l-0.472,0Z" style="fill:rgb(142,53,37);fill-rule:nonzero;"/>
            </g>
            <g transform="matrix(124.591,-10.106,10.106,124.591,2889.98,5043.8)">
                <path d="M0.018,-0.027l0.205,-0.663l0.22,0l0.205,0.663l-0.018,0.027l-0.12,0l-0.042,-0.14l-0.27,0l-0.042,0.14l-0.12,0l-0.018,-0.027Zm0.219,-0.243l0.192,0l-0.088,-0.29l-0.016,0l-0.088,0.29Z" style="fill:rgb(142,53,37);fill-rule:nonzero;"/>
            </g>
            <g transform="matrix(124.236,-13.7955,13.7955,124.236,2974.22,5036.97)">
                <path d="M0.082,-0l0,-0.69l0.336,0c0.112,0 0.168,0.056 0.168,0.168l-0,0.114c-0,0.083 -0.031,0.135 -0.093,0.156l0.113,0.222l-0.017,0.03l-0.124,-0l-0.122,-0.24l-0.117,0l-0,0.24l-0.144,-0Zm0.144,-0.37l0.186,0c0.02,0 0.03,-0.01 0.03,-0.03l-0,-0.13c-0,-0.02 -0.01,-0.03 -0.03,-0.03l-0.186,0l-0,0.19Z" style="fill:rgb(142,53,37);fill-rule:nonzero;"/>
            </g>
            <g transform="matrix(123.771,-17.4857,17.4857,123.771,3056.02,5027.99)">
                <path d="M0.082,-0l0,-0.69l0.156,0l0.274,0.453l0,-0.453l0.144,0l0,0.69l-0.156,-0l-0.274,-0.453l0,0.453l-0.144,-0Z" style="fill:rgb(142,53,37);fill-rule:nonzero;"/>
            </g>
            <g transform="matrix(123.328,-20.3737,20.3737,123.328,3148.45,5014.6)">
                <rect x="0.082" y="-0.69" width="0.144" height="0.69" style="fill:rgb(142,53,37);fill-rule:nonzero;"/>
            </g>
            <g transform="matrix(122.812,-23.2837,23.2837,122.812,3187.87,5008.39)">
                <path d="M0.082,-0l0,-0.69l0.156,0l0.274,0.453l0,-0.453l0.144,0l0,0.69l-0.156,-0l-0.274,-0.453l0,0.453l-0.144,-0Z" style="fill:rgb(142,53,37);fill-rule:nonzero;"/>
            </g>
            <g transform="matrix(121.997,-27.2355,27.2355,121.997,3279.65,4990.93)">
                <path d="M0.072,-0.168l-0,-0.354c-0,-0.112 0.056,-0.168 0.168,-0.168l0.289,0l0.067,0.052l-0,0.078l-0.35,0c-0.02,0 -0.03,0.01 -0.03,0.03l-0,0.37c-0,0.02 0.01,0.03 0.03,0.03l0.226,0l-0,-0.16l-0.132,0l-0,-0.13l0.276,0l-0,0.42l-0.376,0c-0.112,0 -0.168,-0.056 -0.168,-0.168Z" style="fill:rgb(142,53,37);fill-rule:nonzero;"/>
            </g>
        </g>
        <g transform="matrix(1,0,0,1,-1577.82,-2025.34)">
            <g transform="matrix(118.203,40.6573,-40.6573,118.203,1641.73,4664.9)">
                <path d="M0.024,-0.56l0,-0.13l0.564,0l-0,0.13l-0.21,0l-0,0.56l-0.144,-0l-0,-0.56l-0.21,0Z" style="fill:rgb(142,53,37);fill-rule:nonzero;"/>
            </g>
            <g transform="matrix(119.514,36.6253,-36.6253,119.514,1715.1,4690.22)">
                <path d="M0.082,-0l0,-0.69l0.144,0l-0,0.27l0.256,0l-0,-0.27l0.144,0l-0,0.69l-0.144,-0l-0,-0.29l-0.256,0l-0,0.29l-0.144,-0Z" style="fill:rgb(142,53,37);fill-rule:nonzero;"/>
            </g>
            <g transform="matrix(120.737,32.3664,-32.3664,120.737,1801.03,4716.5)">
                <path d="M0.082,-0l0,-0.69l0.336,0c0.112,0 0.168,0.056 0.168,0.168l-0,0.114c-0,0.083 -0.031,0.135 -0.093,0.156l0.113,0.222l-0.017,0.03l-0.124,-0l-0.122,-0.24l-0.117,0l-0,0.24l-0.144,-0Zm0.144,-0.37l0.186,0c0.02,0 0.03,-0.01 0.03,-0.03l-0,-0.13c-0,-0.02 -0.01,-0.03 -0.03,-0.03l-0.186,0l-0,0.19Z" style="fill:rgb(142,53,37);fill-rule:nonzero;"/>
            </g>
            <g transform="matrix(121.738,28.3686,-28.3686,121.738,1880.42,4737.86)">
                <path d="M0.072,-0.168l-0,-0.354c-0,-0.112 0.056,-0.168 0.168,-0.168l0.228,0c0.112,0 0.168,0.056 0.168,0.168l0,0.354c0,0.112 -0.056,0.168 -0.168,0.168l-0.228,0c-0.112,0 -0.168,-0.056 -0.168,-0.168Zm0.144,0.008c0,0.02 0.01,0.03 0.03,0.03l0.216,0c0.02,0 0.03,-0.01 0.03,-0.03l0,-0.37c0,-0.02 -0.01,-0.03 -0.03,-0.03l-0.216,0c-0.02,0 -0.03,0.01 -0.03,0.03l0,0.37Z" style="fill:rgb(142,53,37);fill-rule:nonzero;"/>
            </g>
            <g transform="matrix(122.65,24.1259,-24.1259,122.65,1967.78,4758.18)">
                <path d="M0.076,-0.168l0,-0.522l0.144,0l-0,0.53c-0,0.02 0.01,0.03 0.03,0.03l0.196,0c0.02,0 0.03,-0.01 0.03,-0.03l0,-0.53l0.144,0l0,0.522c0,0.112 -0.056,0.168 -0.168,0.168l-0.208,0c-0.112,0 -0.168,-0.056 -0.168,-0.168Z" style="fill:rgb(142,53,37);fill-rule:nonzero;"/>
            </g>
            <g transform="matrix(123.397,19.9532,-19.9532,123.397,2054.5,4775.21)">
                <path d="M0.072,-0.168l-0,-0.354c-0,-0.112 0.056,-0.168 0.168,-0.168l0.289,0l0.067,0.052l-0,0.078l-0.35,0c-0.02,0 -0.03,0.01 -0.03,0.03l-0,0.37c-0,0.02 0.01,0.03 0.03,0.03l0.226,0l-0,-0.16l-0.132,0l-0,-0.13l0.276,0l-0,0.42l-0.376,0c-0.112,0 -0.168,-0.056 -0.168,-0.168Z" style="fill:rgb(142,53,37);fill-rule:nonzero;"/>
            </g>
            <g transform="matrix(123.993,15.8339,-15.8339,123.993,2139.33,4788.94)">
                <path d="M0.082,-0l0,-0.69l0.144,0l-0,0.27l0.256,0l-0,-0.27l0.144,0l-0,0.69l-0.144,-0l-0,-0.29l-0.256,0l-0,0.29l-0.144,-0Z" style="fill:rgb(142,53,37);fill-rule:nonzero;"/>
            </g>
            <g transform="matrix(124.63,9.61082,-9.61082,124.63,2259.36,4803.74)">
                <path d="M0.082,-0l0,-0.69l0.172,0l0.194,0.414l0.194,-0.414l0.172,0l-0,0.69l-0.144,-0l0,-0.436l-0.162,0.346l-0.12,-0l-0.162,-0.346l0,0.436l-0.144,-0Z" style="fill:rgb(142,53,37);fill-rule:nonzero;"/>
            </g>
            <g transform="matrix(124.905,4.88413,-4.88413,124.905,2372.48,4812.21)">
                <path d="M0.072,-0.168l-0,-0.354c-0,-0.112 0.056,-0.168 0.168,-0.168l0.228,0c0.112,0 0.168,0.056 0.168,0.168l0,0.354c0,0.112 -0.056,0.168 -0.168,0.168l-0.228,0c-0.112,0 -0.168,-0.056 -0.168,-0.168Zm0.144,0.008c0,0.02 0.01,0.03 0.03,0.03l0.216,0c0.02,0 0.03,-0.01 0.03,-0.03l0,-0.37c0,-0.02 -0.01,-0.03 -0.03,-0.03l-0.216,0c-0.02,0 -0.03,0.01 -0.03,0.03l0,0.37Z" style="fill:rgb(142,53,37);fill-rule:nonzero;"/>
            </g>
            <g transform="matrix(124.996,1.02916,-1.02916,124.996,2462.03,4815.6)">
                <path d="M0.024,-0.56l0,-0.13l0.564,0l-0,0.13l-0.21,0l-0,0.56l-0.144,-0l-0,-0.56l-0.21,0Z" style="fill:rgb(142,53,37);fill-rule:nonzero;"/>
            </g>
            <g transform="matrix(124.989,-1.66855,1.66855,124.989,2539.8,4816.02)">
                <rect x="0.082" y="-0.69" width="0.144" height="0.69" style="fill:rgb(142,53,37);fill-rule:nonzero;"/>
            </g>
            <g transform="matrix(124.913,-4.65454,4.65454,124.913,2579.54,4815.78)">
                <path d="M0.072,-0.168l-0,-0.354c-0,-0.112 0.056,-0.168 0.168,-0.168l0.228,0c0.112,0 0.168,0.056 0.168,0.168l0,0.354c0,0.112 -0.056,0.168 -0.168,0.168l-0.228,0c-0.112,0 -0.168,-0.056 -0.168,-0.168Zm0.144,0.008c0,0.02 0.01,0.03 0.03,0.03l0.216,0c0.02,0 0.03,-0.01 0.03,-0.03l0,-0.37c0,-0.02 -0.01,-0.03 -0.03,-0.03l-0.216,0c-0.02,0 -0.03,0.01 -0.03,0.03l0,0.37Z" style="fill:rgb(142,53,37);fill-rule:nonzero;"/>
            </g>
            <g transform="matrix(124.682,-8.91345,8.91345,124.682,2669.3,4812.44)">
                <path d="M0.082,-0l0,-0.69l0.156,0l0.274,0.453l0,-0.453l0.144,0l0,0.69l-0.156,-0l-0.274,-0.453l0,0.453l-0.144,-0Z" style="fill:rgb(142,53,37);fill-rule:nonzero;"/>
            </g>
            <g transform="matrix(124.17,-14.3849,14.3849,124.17,2793.63,4802.67)">
                <path d="M0.024,-0.56l0,-0.13l0.564,0l-0,0.13l-0.21,0l-0,0.56l-0.144,-0l-0,-0.56l-0.21,0Z" style="fill:rgb(142,53,37);fill-rule:nonzero;"/>
            </g>
            <g transform="matrix(123.656,-18.2815,18.2815,123.656,2871.02,4793.76)">
                <path d="M0.082,-0l0,-0.69l0.336,0c0.112,0 0.168,0.056 0.168,0.168l-0,0.114c-0,0.083 -0.031,0.135 -0.093,0.156l0.113,0.222l-0.017,0.03l-0.124,-0l-0.122,-0.24l-0.117,0l-0,0.24l-0.144,-0Zm0.144,-0.37l0.186,0c0.02,0 0.03,-0.01 0.03,-0.03l-0,-0.13c-0,-0.02 -0.01,-0.03 -0.03,-0.03l-0.186,0l-0,0.19Z" style="fill:rgb(142,53,37);fill-rule:nonzero;"/>
            </g>
            <g transform="matrix(123.03,-22.1058,22.1058,123.03,2952.23,4781.8)">
                <path d="M0.018,-0.027l0.205,-0.663l0.22,0l0.205,0.663l-0.018,0.027l-0.12,0l-0.042,-0.14l-0.27,0l-0.042,0.14l-0.12,0l-0.018,-0.027Zm0.219,-0.243l0.192,0l-0.088,-0.29l-0.016,0l-0.088,0.29Z" style="fill:rgb(142,53,37);fill-rule:nonzero;"/>
            </g>
            <g transform="matrix(122.251,-26.0729,26.0729,122.251,3035.49,4766.8)">
                <path d="M0.072,-0.168l-0,-0.354c-0,-0.112 0.056,-0.168 0.168,-0.168l0.267,0l0.067,0.052l-0,0.078l-0.328,0c-0.02,0 -0.03,0.01 -0.03,0.03l-0,0.37c-0,0.02 0.01,0.03 0.03,0.03l0.328,0l-0,0.078l-0.067,0.052l-0.267,0c-0.112,0 -0.168,-0.056 -0.168,-0.168Z" style="fill:rgb(142,53,37);fill-rule:nonzero;"/>
            </g>
            <g transform="matrix(121.322,-30.1011,30.1011,121.322,3113.06,4750.36)">
                <path d="M0.082,-0l0,-0.69l0.144,0l-0,0.273l0.244,-0.273l0.135,0l0.014,0.029l-0.229,0.255l0.254,0.377l-0.013,0.029l-0.133,0l-0.201,-0.302l-0.071,0.077l0,0.225l-0.144,-0Z" style="fill:rgb(142,53,37);fill-rule:nonzero;"/>
            </g>
            <g transform="matrix(120.584,-32.9317,32.9317,120.584,3195.65,4729.63)">
                <rect x="0.082" y="-0.69" width="0.144" height="0.69" style="fill:rgb(142,53,37);fill-rule:nonzero;"/>
            </g>
            <g transform="matrix(119.664,-36.1306,36.1306,119.664,3234.02,4719.5)">
                <path d="M0.082,-0l0,-0.69l0.156,0l0.274,0.453l0,-0.453l0.144,0l0,0.69l-0.156,-0l-0.274,-0.453l0,0.453l-0.144,-0Z" style="fill:rgb(142,53,37);fill-rule:nonzero;"/>
            </g>
            <g transform="matrix(118.259,-40.4934,40.4934,118.259,3323.62,4692.37)">
                <path d="M0.072,-0.168l-0,-0.354c-0,-0.112 0.056,-0.168 0.168,-0.168l0.289,0l0.067,0.052l-0,0.078l-0.35,0c-0.02,0 -0.03,0.01 -0.03,0.03l-0,0.37c-0,0.02 0.01,0.03 0.03,0.03l0.226,0l-0,-0.16l-0.132,0l-0,-0.13l0.276,0l-0,0.42l-0.376,0c-0.112,0 -0.168,-0.056 -0.168,-0.168Z" style="fill:rgb(142,53,37);fill-rule:nonzero;"/>
            </g>
        </g>
        <g transform="matrix(1,0,0,1,-1199.9,-1800.07)">
            <g transform="matrix(373.564,143.003,-143.003,373.564,1291.57,4185.19)">
                <path d="M0.082,-0l0,-0.69l0.336,0c0.112,0 0.168,0.056 0.168,0.168l-0,0.134c-0,0.112 -0.056,0.168 -0.168,0.168l-0.192,0l-0,0.22l-0.144,-0Zm0.144,-0.35l0.186,0c0.02,0 0.03,-0.01 0.03,-0.03l-0,-0.15c-0,-0.02 -0.01,-0.03 -0.03,-0.03l-0.186,0l-0,0.21Z" style="fill:rgb(142,53,37);fill-rule:nonzero;"/>
            </g>
            <g transform="matrix(390.132,88.3011,-88.3011,390.132,1548.81,4283.51)">
                <path d="M0.072,-0.168l-0,-0.354c-0,-0.112 0.056,-0.168 0.168,-0.168l0.228,0c0.112,0 0.168,0.056 0.168,0.168l0,0.354c0,0.112 -0.056,0.168 -0.168,0.168l-0.228,0c-0.112,0 -0.168,-0.056 -0.168,-0.168Zm0.144,0.008c0,0.02 0.01,0.03 0.03,0.03l0.216,0c0.02,0 0.03,-0.01 0.03,-0.03l0,-0.37c0,-0.02 -0.01,-0.03 -0.03,-0.03l-0.216,0c-0.02,0 -0.03,0.01 -0.03,0.03l0,0.37Z" style="fill:rgb(142,53,37);fill-rule:nonzero;"/>
            </g>
            <g transform="matrix(399.474,20.5035,-20.5035,399.474,1845.28,4352.88)">
                <path d="M0.028,-0.663l0.02,-0.027l0.118,0l0.111,0.56l0.011,0l0.119,-0.494l0.142,0l0.119,0.494l0.011,0l0.111,-0.56l0.118,0l0.02,0.027l-0.135,0.663l-0.229,-0l-0.086,-0.365l-0.086,0.365l-0.229,-0l-0.135,-0.663Z" style="fill:rgb(142,53,37);fill-rule:nonzero;"/>
            </g>
            <g transform="matrix(397.614,-43.6238,43.6238,397.614,2247.67,4366.85)">
                <path d="M0.082,-0l0,-0.69l0.472,0l0,0.13l-0.328,0l-0,0.14l0.298,0l0,0.13l-0.298,0l-0,0.16l0.328,0l0,0.13l-0.472,0Z" style="fill:rgb(142,53,37);fill-rule:nonzero;"/>
            </g>
            <g transform="matrix(388.295,-96.0557,96.0557,388.295,2508.08,4338.57)">
                <path d="M0.082,-0l0,-0.69l0.336,0c0.112,0 0.168,0.056 0.168,0.168l-0,0.114c-0,0.083 -0.031,0.135 -0.093,0.156l0.113,0.222l-0.017,0.03l-0.124,-0l-0.122,-0.24l-0.117,0l-0,0.24l-0.144,-0Zm0.144,-0.37l0.186,0c0.02,0 0.03,-0.01 0.03,-0.03l-0,-0.13c-0,-0.02 -0.01,-0.03 -0.03,-0.03l-0.186,0l-0,0.19Z" style="fill:rgb(142,53,37);fill-rule:nonzero;"/>
            </g>
            <g transform="matrix(372.331,-146.183,146.183,372.331,2779.14,4269.97)">
                <path d="M0.052,-0.052l-0,-0.078l0.31,0c0.02,0 0.03,-0.01 0.03,-0.03l0,-0.072c0,-0.019 -0.008,-0.03 -0.025,-0.033l-0.195,-0.04c-0.08,-0.016 -0.12,-0.07 -0.12,-0.161l0,-0.056c0,-0.112 0.056,-0.168 0.168,-0.168l0.229,0l0.067,0.052l0,0.078l-0.29,0c-0.02,0 -0.03,0.01 -0.03,0.03l-0,0.065c-0,0.019 0.008,0.03 0.025,0.033l0.195,0.039c0.08,0.016 0.12,0.07 0.12,0.161l0,0.064c0,0.112 -0.056,0.168 -0.168,0.168l-0.249,0l-0.067,-0.052Z" style="fill:rgb(142,53,37);fill-rule:nonzero;"/>
            </g>
        </g>
        <g transform="matrix(1,0,0,1,-660.334,-1510.7)">
            <g transform="matrix(221.914,62.4433,-62.4433,221.914,1200.17,3721.7)">
                <path d="M0.052,-0.052l-0,-0.078l0.31,0c0.02,0 0.03,-0.01 0.03,-0.03l0,-0.072c0,-0.019 -0.008,-0.03 -0.025,-0.033l-0.195,-0.04c-0.08,-0.016 -0.12,-0.07 -0.12,-0.161l0,-0.056c0,-0.112 0.056,-0.168 0.168,-0.168l0.229,0l0.067,0.052l0,0.078l-0.29,0c-0.02,0 -0.03,0.01 -0.03,0.03l-0,0.065c-0,0.019 0.008,0.03 0.025,0.033l0.195,0.039c0.08,0.016 0.12,0.07 0.12,0.161l0,0.064c0,0.112 -0.056,0.168 -0.168,0.168l-0.249,0l-0.067,-0.052Z" style="fill:rgb(142,53,37);fill-rule:nonzero;"/>
            </g>
            <g transform="matrix(228.377,31.4444,-31.4444,228.377,1353.37,3764.01)">
                <path d="M0.076,-0.168l0,-0.522l0.144,0l-0,0.53c-0,0.02 0.01,0.03 0.03,0.03l0.196,0c0.02,0 0.03,-0.01 0.03,-0.03l0,-0.53l0.144,0l0,0.522c0,0.112 -0.056,0.168 -0.168,0.168l-0.208,0c-0.112,0 -0.168,-0.056 -0.168,-0.168Z" style="fill:rgb(142,53,37);fill-rule:nonzero;"/>
            </g>
            <g transform="matrix(230.529,-1.2645,1.2645,230.529,1535.23,3787.13)">
                <path d="M0.082,-0l0,-0.69l0.336,0c0.112,0 0.168,0.056 0.168,0.168l-0,0.134c-0,0.112 -0.056,0.168 -0.168,0.168l-0.192,0l-0,0.22l-0.144,-0Zm0.144,-0.35l0.186,0c0.02,0 0.03,-0.01 0.03,-0.03l-0,-0.15c-0,-0.02 -0.01,-0.03 -0.03,-0.03l-0.186,0l-0,0.21Z" style="fill:rgb(142,53,37);fill-rule:nonzero;"/>
            </g>
            <g transform="matrix(228.365,-31.5333,31.5333,228.365,1705.45,3784.92)">
                <path d="M0.082,-0l0,-0.69l0.472,0l0,0.13l-0.328,0l-0,0.14l0.298,0l0,0.13l-0.298,0l-0,0.16l0.328,0l0,0.13l-0.472,0Z" style="fill:rgb(142,53,37);fill-rule:nonzero;"/>
            </g>
            <g transform="matrix(222.034,-62.0163,62.0163,222.034,1866.34,3762.04)">
                <path d="M0.082,-0l0,-0.69l0.336,0c0.112,0 0.168,0.056 0.168,0.168l-0,0.114c-0,0.083 -0.031,0.135 -0.093,0.156l0.113,0.222l-0.017,0.03l-0.124,-0l-0.122,-0.24l-0.117,0l-0,0.24l-0.144,-0Zm0.144,-0.37l0.186,0c0.02,0 0.03,-0.01 0.03,-0.03l-0,-0.13c-0,-0.02 -0.01,-0.03 -0.03,-0.03l-0.186,0l-0,0.19Z" style="fill:rgb(142,53,37);fill-rule:nonzero;"/>
            </g>
        </g>
        <path d="M1070,317.24l0,-117.995l29.413,-0l33.176,70.797l33.176,-70.797l29.413,-0l-0,117.995l-24.625,0l-0,-74.559l-27.704,59.168l-20.521,0l-27.703,-59.168l0,74.559l-24.625,0Z" style="fill:rgb(142,53,37);fill-rule:nonzero;"/>
        <path d="M1222.2,288.511l0,-89.266l24.625,-0l0,90.634c0,3.42 1.71,5.13 5.131,5.13l33.517,0c3.42,0 5.13,-1.71 5.13,-5.13l0,-90.634l24.625,-0l0,89.266c0,19.153 -9.576,28.729 -28.729,28.729l-35.57,0c-19.152,0 -28.729,-9.576 -28.729,-28.729Z" style="fill:rgb(142,53,37);fill-rule:nonzero;"/>
        <path d="M1337.12,308.348l0,-13.339l53.013,0c3.42,0 5.13,-1.71 5.13,-5.13l0,-12.313c0,-3.306 -1.425,-5.187 -4.275,-5.643l-33.347,-6.84c-13.68,-2.736 -20.521,-11.914 -20.521,-27.533l0,-9.576c0,-19.153 9.577,-28.729 28.73,-28.729l39.161,-0l11.457,8.892l0,13.339l-49.592,-0c-3.42,-0 -5.13,1.71 -5.13,5.13l-0,11.116c-0,3.192 1.425,5.073 4.275,5.643l33.346,6.669c13.681,2.736 20.521,11.914 20.521,27.532l0,10.945c0,19.153 -9.576,28.729 -28.729,28.729l-42.581,0l-11.458,-8.892Z" style="fill:rgb(142,53,37);fill-rule:nonzero;"/>
        <rect x="1442.8" y="199.245" width="24.625" height="117.995" style="fill:rgb(142,53,37);fill-rule:nonzero;"/>
        <path d="M1493.76,288.511l-0,-60.537c-0,-19.153 9.576,-28.729 28.729,-28.729l45.659,-0l11.458,8.892l-0,13.339l-56.091,-0c-3.42,-0 -5.13,1.71 -5.13,5.13l-0,63.273c-0,3.42 1.71,5.13 5.13,5.13l56.091,0l-0,13.339l-11.458,8.892l-45.659,0c-19.153,0 -28.729,-9.576 -28.729,-28.729Z" style="fill:rgb(142,53,37);fill-rule:nonzero;"/>
        <path d="M1591.23,312.623l35.057,-113.378l37.622,-0l35.056,113.378l-3.078,4.617l-20.521,0l-7.182,-23.941l-46.172,0l-7.183,23.941l-20.521,0l-3.078,-4.617Zm37.451,-41.555l32.834,0l-15.049,-49.592l-2.736,-0l-15.049,49.592Z" style="fill:rgb(142,53,37);fill-rule:nonzero;"/>
        <path d="M1716.07,317.24l0,-117.995l24.625,-0l0,95.764l50.961,0l-0,22.231l-75.586,0Z" style="fill:rgb(142,53,37);fill-rule:nonzero;"/>
        <g transform="matrix(0.965926,-0.258819,0.258819,0.965926,-502.687,-3.03705)">
            <g transform="matrix(103.852,-135.642,135.642,103.852,662.462,654.306)">
                <rect x="0.082" y="-0.69" width="0.144" height="0.69" style="fill:rgb(142,53,37);fill-rule:nonzero;"/>
            </g>
            <g transform="matrix(129.656,-111.236,111.236,129.656,683.676,618.303)">
                <path d="M0.082,-0l0,-0.69l0.156,0l0.274,0.453l0,-0.453l0.144,0l0,0.69l-0.156,-0l-0.274,-0.453l0,0.453l-0.144,-0Z" style="fill:rgb(142,53,37);fill-rule:nonzero;"/>
            </g>
            <g transform="matrix(155.584,-70.5526,70.5526,155.584,770.756,543.705)">
                <path d="M0.052,-0.052l-0,-0.078l0.31,0c0.02,0 0.03,-0.01 0.03,-0.03l0,-0.072c0,-0.019 -0.008,-0.03 -0.025,-0.033l-0.195,-0.04c-0.08,-0.016 -0.12,-0.07 -0.12,-0.161l0,-0.056c0,-0.112 0.056,-0.168 0.168,-0.168l0.229,0l0.067,0.052l0,0.078l-0.29,0c-0.02,0 -0.03,0.01 -0.03,0.03l-0,0.065c-0,0.019 0.008,0.03 0.025,0.033l0.195,0.039c0.08,0.016 0.12,0.07 0.12,0.161l0,0.064c0,0.112 -0.056,0.168 -0.168,0.168l-0.249,0l-0.067,-0.052Z" style="fill:rgb(142,53,37);fill-rule:nonzero;"/>
            </g>
            <g transform="matrix(168.586,-27.6215,27.6215,168.586,851.473,505.161)">
                <path d="M0.024,-0.56l0,-0.13l0.564,0l-0,0.13l-0.21,0l-0,0.56l-0.144,-0l-0,-0.56l-0.21,0Z" style="fill:rgb(142,53,37);fill-rule:nonzero;"/>
            </g>
            <g transform="matrix(169.632,20.2249,-20.2249,169.632,943.381,487.872)">
                <path d="M0.018,-0.027l0.205,-0.663l0.22,0l0.205,0.663l-0.018,0.027l-0.12,0l-0.042,-0.14l-0.27,0l-0.042,0.14l-0.12,0l-0.018,-0.027Zm0.219,-0.243l0.192,0l-0.088,-0.29l-0.016,0l-0.088,0.29Z" style="fill:rgb(142,53,37);fill-rule:nonzero;"/>
            </g>
            <g transform="matrix(155.135,71.5339,-71.5339,155.135,1046.05,497.483)">
                <path d="M0.082,-0l0,-0.69l0.156,0l0.274,0.453l0,-0.453l0.144,0l0,0.69l-0.156,-0l-0.274,-0.453l0,0.453l-0.144,-0Z" style="fill:rgb(142,53,37);fill-rule:nonzero;"/>
            </g>
            <g transform="matrix(128.309,112.787,-112.787,128.309,1150.33,545.632)">
                <path d="M0.024,-0.56l0,-0.13l0.564,0l-0,0.13l-0.21,0l-0,0.56l-0.144,-0l-0,-0.56l-0.21,0Z" style="fill:rgb(142,53,37);fill-rule:nonzero;"/>
            </g>
        </g>
    </g>
</svg>
