<svg xmlns="http://www.w3.org/2000/svg" xml:space="preserve" style="fill-rule:evenodd;clip-rule:evenodd;stroke-linecap:round;stroke-linejoin:round;stroke-miterlimit:1.5" viewBox="0 0 1890 3058">
  <path d="M1889.76 75.591c0-41.72-33.871-75.591-75.591-75.591H75.589C33.869 0-.002 33.871-.002 75.591v2906.52c0 41.72 33.871 75.591 75.591 75.591h1738.58c41.72 0 75.591-33.871 75.591-75.591V75.591Z" style="fill:#ebebeb"/>
  <path d="M1779.64 1132.97c0-24.77-20.081-44.85-44.851-44.85H154.969c-24.77 0-44.851 20.08-44.851 44.85 0 460.717 374.042 834.761 834.759 834.761 460.717 0 834.759-374.044 834.759-834.761Zm-769.145 204.056c-5.777-10.58-11.857-45.033-11.953-51.315a118.37 118.37 0 0 1-.013-1.885c0-53.703 32.908-100.783 78.467-100.783.405 0 .807.004 1.213.011 95.542 2.014 234.582 181.366 234.582 332.778 0 197.021-164.855 356.975-367.91 356.975-203.056 0-367.91-159.954-367.91-356.975 0-151.412 111.577-330.185 234.582-332.778.406-.007.808-.011 1.212-.011 45.56 0 78.468 47.08 78.468 100.783 0 .626-.004 1.252-.015 1.885-.096 6.3-6.158 40.74-11.927 51.302-13.446 24.613-29.59 45.197-35.263 52.135a20.2 20.2 0 0 0-1.167 1.14c-21.608 23.009-45.642 44.88-64.442 69.443-24.377 31.851-40.799 67.768-40.799 112.41 0 117.158 92.866 212.275 207.254 212.275 114.386 0 207.252-95.117 207.252-212.275 0-45.286-16.183-79.669-40.673-110.924-18.146-23.159-41.691-44.35-63.731-69.63-1.419-1.672-21.234-25.262-37.227-54.561Zm-155.193 44.426c4.165-2.384 7.605-4.045 7.605-4.045s-3.355 1.251-4.933 2l-2.672 2.045Z" style="fill:#8d3525"/>
  <ellipse cx="681.989" cy="651.254" rx="132.017" ry="318.098" style="fill:#8d3525"/>
  <path d="m1117.83 660.027 243.917-164.706M1117.83 660.027l254.888 147.16M1117.83 660.027h294.319" style="fill:none;stroke:#8e3525;stroke-width:91.67px"/>
  <path d="M.062-.162v-.086a.1.1 0 0 1 .033-.08l.042-.035-.035-.042a.089.089 0 0 1-.02-.058v-.065c0-.108.054-.162.162-.162h.182l.06.045v.075H.252C.231-.57.22-.559.22-.538v.086c0 .021.011.032.032.032h.384v.12h-.1V0H.224C.116 0 .062-.054.062-.162Zm.138.01c0 .021.011.032.032.032h.166V-.3H.232C.211-.3.2-.289.2-.268v.116Z" style="fill:#8e3525;fill-rule:nonzero" transform="scale(124.9998) rotate(12.548 -101.105 21.277)"/>
  <path d="M.082 0v-.69h.172l.194.414.194-.414h.172V0H.67v-.436L.508-.09h-.12L.226-.436V0H.082Z" style="fill:#8e3525;fill-rule:nonzero" transform="scale(125.0005) rotate(9.903 -129.302 29.36)"/>
  <path d="M.018-.027.223-.69h.22l.205.663L.63 0H.51L.468-.14h-.27L.156 0h-.12L.018-.027ZM.237-.27h.192L.341-.56H.325l-.088.29Z" style="fill:#8e3525;fill-rule:nonzero" transform="rotate(7.91 -20386.819 5057.356) scale(125.0002)"/>
  <path d="M.072-.168v-.354c0-.112.056-.168.168-.168h.267l.067.052v.078H.246c-.02 0-.03.01-.03.03v.37c0 .02.01.03.03.03h.328v.078L.507 0H.24C.128 0 .072-.056.072-.168Z" style="fill:#8e3525;fill-rule:nonzero" transform="rotate(6.25 -25946.318 6795.882) scale(125)"/>
  <path d="M.082 0v-.69h.144v.27h.256v-.27h.144V0H.482v-.29H.226V0H.082Z" style="fill:#8e3525;fill-rule:nonzero" transform="scale(125) rotate(4.606 -283.208 77.589)"/>
  <path d="M.082-.69h.144V0H.082z" style="fill:#8e3525;fill-rule:nonzero" transform="matrix(124.789 7.2674 -7.2674 124.789 754.01 2880.79)"/>
  <path d="M.082 0v-.69h.156l.274.453V-.69h.144V0H.5L.226-.453V0H.082Z" style="fill:#8e3525;fill-rule:nonzero" transform="rotate(2.038 -80660.051 23747.178) scale(125.00006)"/>
  <path d="M.082 0v-.69h.472v.13H.226v.14h.298v.13H.226v.16h.328V0H.082Z" style="fill:#8e3525;fill-rule:nonzero" transform="matrix(124.998 .76087 -.76087 124.998 887.03 2886.59)"/>
  <path d="M.082 0v-.69h.144v.56h.298V0H.082Z" style="fill:#8e3525;fill-rule:nonzero" transform="rotate(-1.703 97620.325 -32036.955) scale(125.0002)"/>
  <path d="M.082 0v-.69h.472v.13H.226v.14h.298v.13H.226v.16h.328V0H.082Z" style="fill:#8e3525;fill-rule:nonzero" transform="matrix(124.817 -6.75449 6.75449 124.817 1064.82 2884.73)"/>
  <path d="M.018-.027.223-.69h.22l.205.663L.63 0H.51L.468-.14h-.27L.156 0h-.12L.018-.027ZM.237-.27h.192L.341-.56H.325l-.088.29Z" style="fill:#8e3525;fill-rule:nonzero" transform="rotate(-4.636 36142.691 -12654.13) scale(125)"/>
  <path d="M.082 0v-.69h.336c.112 0 .168.056.168.168v.114c0 .083-.031.135-.093.156l.113.222L.589 0H.465L.343-.24H.226V0H.082Zm.144-.37h.186c.02 0 .03-.01.03-.03v-.13c0-.02-.01-.03-.03-.03H.226v.19Z" style="fill:#8e3525;fill-rule:nonzero" transform="rotate(-6.336 26572.723 -9633.836) scale(124.9996)"/>
  <path d="M.082 0v-.69h.156l.274.453V-.69h.144V0H.5L.226-.453V0H.082Z" style="fill:#8e3525;fill-rule:nonzero" transform="scale(125) rotate(-8.041 168.264 -62.94)"/>
  <path d="M.082-.69h.144V0H.082z" style="fill:#8e3525;fill-rule:nonzero" transform="scale(124.9995) rotate(-9.381 144.621 -56.84)"/>
  <path d="M.082 0v-.69h.156l.274.453V-.69h.144V0H.5L.226-.453V0H.082Z" style="fill:#8e3525;fill-rule:nonzero" transform="scale(124.9997) rotate(-10.735 126.887 -49.89)"/>
  <path d="M.072-.168v-.354c0-.112.056-.168.168-.168h.289l.067.052v.078h-.35c-.02 0-.03.01-.03.03v.37c0 .02.01.03.03.03h.226v-.16H.34v-.13h.276V0H.24C.128 0 .072-.056.072-.168Z" style="fill:#8e3525;fill-rule:nonzero" transform="scale(125.0002) rotate(-12.585 108.704 -44.227)"/>
  <path d="M.024-.56v-.13h.564v.13h-.21V0H.234v-.56h-.21Z" style="fill:#8e3525;fill-rule:nonzero" transform="scale(124.9999) rotate(18.981 -62.901 12.087)"/>
  <path d="M.082 0v-.69h.144v.27h.256v-.27h.144V0H.482v-.29H.226V0H.082Z" style="fill:#8e3525;fill-rule:nonzero" transform="scale(125) rotate(17.038 -70.615 14.325)"/>
  <path d="M.082 0v-.69h.336c.112 0 .168.056.168.168v.114c0 .083-.031.135-.093.156l.113.222L.589 0H.465L.343-.24H.226V0H.082Zm.144-.37h.186c.02 0 .03-.01.03-.03v-.13c0-.02-.01-.03-.03-.03H.226v.19Z" style="fill:#8e3525;fill-rule:nonzero" transform="scale(125) rotate(15.007 -80.836 17.543)"/>
  <path d="M.072-.168v-.354c0-.112.056-.168.168-.168h.228c.112 0 .168.056.168.168v.354C.636-.056.58 0 .468 0H.24C.128 0 .072-.056.072-.168Zm.144.008c0 .02.01.03.03.03h.216c.02 0 .03-.01.03-.03v-.37c0-.02-.01-.03-.03-.03H.246c-.02 0-.03.01-.03.03v.37Z" style="fill:#8e3525;fill-rule:nonzero" transform="scale(124.9997) rotate(13.118 -93.16 21.378)"/>
  <path d="M.076-.168V-.69H.22v.53c0 .02.01.03.03.03h.196c.02 0 .03-.01.03-.03v-.53H.62v.522C.62-.056.564 0 .452 0H.244C.132 0 .076-.056.076-.168Z" style="fill:#8e3525;fill-rule:nonzero" transform="matrix(122.65 24.1259 -24.1259 122.65 389.96 2732.84)"/>
  <path d="M.072-.168v-.354c0-.112.056-.168.168-.168h.289l.067.052v.078h-.35c-.02 0-.03.01-.03.03v.37c0 .02.01.03.03.03h.226v-.16H.34v-.13h.276V0H.24C.128 0 .072-.056.072-.168Z" style="fill:#8e3525;fill-rule:nonzero" transform="rotate(9.185 -16878.185 4342.023) scale(124.9998)"/>
  <path d="M.082 0v-.69h.144v.27h.256v-.27h.144V0H.482v-.29H.226V0H.082Z" style="fill:#8e3525;fill-rule:nonzero" transform="rotate(7.277 -21448.473 5796.75) scale(124.9999)"/>
  <path d="M.082 0v-.69h.172l.194.414.194-.414h.172V0H.67v-.436L.508-.09h-.12L.226-.436V0H.082Z" style="fill:#8e3525;fill-rule:nonzero" transform="rotate(4.41 -35742.105 10240.313) scale(125.00002)"/>
  <path d="M.072-.168v-.354c0-.112.056-.168.168-.168h.228c.112 0 .168.056.168.168v.354C.636-.056.58 0 .468 0H.24C.128 0 .072-.056.072-.168Zm.144.008c0 .02.01.03.03.03h.216c.02 0 .03-.01.03-.03v-.37c0-.02-.01-.03-.03-.03H.246c-.02 0-.03.01-.03.03v.37Z" style="fill:#8e3525;fill-rule:nonzero" transform="scale(125.00046) rotate(2.239 -567.2 173.788)"/>
  <path d="M.024-.56v-.13h.564v.13h-.21V0H.234v-.56h-.21Z" style="fill:#8e3525;fill-rule:nonzero" transform="matrix(124.996 1.02916 -1.02916 124.996 884.21 2790.26)"/>
  <path d="M.082-.69h.144V0H.082z" style="fill:#8e3525;fill-rule:nonzero" transform="matrix(124.989 -1.66855 1.66855 124.989 961.98 2790.68)"/>
  <path d="M.072-.168v-.354c0-.112.056-.168.168-.168h.228c.112 0 .168.056.168.168v.354C.636-.056.58 0 .468 0H.24C.128 0 .072-.056.072-.168Zm.144.008c0 .02.01.03.03.03h.216c.02 0 .03-.01.03-.03v-.37c0-.02-.01-.03-.03-.03H.246c-.02 0-.03.01-.03.03v.37Z" style="fill:#8e3525;fill-rule:nonzero" transform="rotate(-2.134 75413.355 -25497.064) scale(124.99969)"/>
  <path d="M.082 0v-.69h.156l.274.453V-.69h.144V0H.5L.226-.453V0H.082Z" style="fill:#8e3525;fill-rule:nonzero" transform="matrix(124.682 -8.91345 8.91345 124.682 1091.48 2787.1)"/>
  <path d="M.024-.56v-.13h.564v.13h-.21V0H.234v-.56h-.21Z" style="fill:#8e3525;fill-rule:nonzero" transform="scale(125.0005) rotate(-6.608 197.294 -73.13)"/>
  <path d="M.082 0v-.69h.336c.112 0 .168.056.168.168v.114c0 .083-.031.135-.093.156l.113.222L.589 0H.465L.343-.24H.226V0H.082Zm.144-.37h.186c.02 0 .03-.01.03-.03v-.13c0-.02-.01-.03-.03-.03H.226v.19Z" style="fill:#8e3525;fill-rule:nonzero" transform="rotate(-8.41 19473.962 -7410.507) scale(125.0001)"/>
  <path d="M.018-.027.223-.69h.22l.205.663L.63 0H.51L.468-.14h-.27L.156 0h-.12L.018-.027ZM.237-.27h.192L.341-.56H.325l-.088.29Z" style="fill:#8e3525;fill-rule:nonzero" transform="rotate(-10.186 16151.143 -6332.3) scale(125.0002)"/>
  <path d="M.072-.168v-.354c0-.112.056-.168.168-.168h.267l.067.052v.078H.246c-.02 0-.03.01-.03.03v.37c0 .02.01.03.03.03h.328v.078L.507 0H.24C.128 0 .072-.056.072-.168Z" style="fill:#8e3525;fill-rule:nonzero" transform="rotate(-12.039 13727.575 -5540.877) scale(125.0004)"/>
  <path d="M.082 0v-.69h.144v.273L.47-.69h.135l.014.029-.229.255.254.377L.631 0H.498L.297-.302l-.071.077V0H.082Z" style="fill:#8e3525;fill-rule:nonzero" transform="rotate(-13.934 11917.268 -4919.06) scale(125.0004)"/>
  <path d="M.082-.69h.144V0H.082z" style="fill:#8e3525;fill-rule:nonzero" transform="rotate(-15.275 10892.367 -4680.234) scale(125)"/>
  <path d="M.082 0v-.69h.156l.274.453V-.69h.144V0H.5L.226-.453V0H.082Z" style="fill:#8e3525;fill-rule:nonzero" transform="scale(124.9996) rotate(-16.801 79.6 -34.084)"/>
  <path d="M.072-.168v-.354c0-.112.056-.168.168-.168h.289l.067.052v.078h-.35c-.02 0-.03.01-.03.03v.37c0 .02.01.03.03.03h.226v-.16H.34v-.13h.276V0H.24C.128 0 .072-.056.072-.168Z" style="fill:#8e3525;fill-rule:nonzero" transform="scale(124.9996) rotate(-18.902 71.07 -31.283)"/>
  <path d="M.082 0v-.69h.336c.112 0 .168.056.168.168v.134c0 .112-.056.168-.168.168H.226V0H.082Zm.144-.35h.186c.02 0 .03-.01.03-.03v-.15c0-.02-.01-.03-.03-.03H.226v.21Z" style="fill:#8e3525;fill-rule:nonzero" transform="rotate(20.947 -6405.228 1440.505) scale(400)"/>
  <path d="M.072-.168v-.354c0-.112.056-.168.168-.168h.228c.112 0 .168.056.168.168v.354C.636-.056.58 0 .468 0H.24C.128 0 .072-.056.072-.168Zm.144.008c0 .02.01.03.03.03h.216c.02 0 .03-.01.03-.03v-.37c0-.02-.01-.03-.03-.03H.246c-.02 0-.03.01-.03.03v.37Z" style="fill:#8e3525;fill-rule:nonzero" transform="rotate(12.753 -10936.65 2802.774) scale(400.0001)"/>
  <path d="m.028-.663.02-.027h.118l.111.56h.011l.119-.494h.142l.119.494h.011L.79-.69h.118l.02.027L.793 0H.564L.478-.365.392 0H.163L.028-.663Z" style="fill:#8e3525;fill-rule:nonzero" transform="scale(399.9998) rotate(2.938 -123.617 34.647)"/>
  <path d="M.082 0v-.69h.472v.13H.226v.14h.298v.13H.226v.16h.328V0H.082Z" style="fill:#8e3525;fill-rule:nonzero" transform="rotate(-6.261 23989.278 -8295.286) scale(399.9999)"/>
  <path d="M.082 0v-.69h.336c.112 0 .168.056.168.168v.114c0 .083-.031.135-.093.156l.113.222L.589 0H.465L.343-.24H.226V0H.082Zm.144-.37h.186c.02 0 .03-.01.03-.03v-.13c0-.02-.01-.03-.03-.03H.226v.19Z" style="fill:#8e3525;fill-rule:nonzero" transform="scale(399.9996) rotate(-13.895 27.676 -10.247)"/>
  <path d="M.052-.052V-.13h.31c.02 0 .03-.01.03-.03v-.072c0-.019-.008-.03-.025-.033l-.195-.04c-.08-.016-.12-.07-.12-.161v-.056c0-.112.056-.168.168-.168h.229l.067.052v.078h-.29c-.02 0-.03.01-.03.03v.065c0 .019.008.03.025.033l.195.039c.08.016.12.07.12.161v.064C.536-.056.48 0 .368 0H.119L.052-.052Z" style="fill:#8e3525;fill-rule:nonzero" transform="rotate(-21.436 7314.255 -2936.852) scale(400)"/>
  <path d="M.052-.052V-.13h.31c.02 0 .03-.01.03-.03v-.072c0-.019-.008-.03-.025-.033l-.195-.04c-.08-.016-.12-.07-.12-.161v-.056c0-.112.056-.168.168-.168h.229l.067.052v.078h-.29c-.02 0-.03.01-.03.03v.065c0 .019.008.03.025.033l.195.039c.08.016.12.07.12.161v.064C.536-.056.48 0 .368 0H.119L.052-.052Z" style="fill:#8e3525;fill-rule:nonzero" transform="scale(230.532) rotate(15.716 -33.575 13.28)"/>
  <path d="M.076-.168V-.69H.22v.53c0 .02.01.03.03.03h.196c.02 0 .03-.01.03-.03v-.53H.62v.522C.62-.056.564 0 .452 0H.244C.132 0 .076-.056.076-.168Z" style="fill:#8e3525;fill-rule:nonzero" transform="scale(230.5316) rotate(7.84 -69.822 26.824)"/>
  <path d="M.082 0v-.69h.336c.112 0 .168.056.168.168v.134c0 .112-.056.168-.168.168H.226V0H.082Zm.144-.35h.186c.02 0 .03-.01.03-.03v-.15c0-.02-.01-.03-.03-.03H.226v.21Z" style="fill:#8e3525;fill-rule:nonzero" transform="matrix(230.529 -1.2645 1.2645 230.529 874.896 2276.43)"/>
  <path d="M.082 0v-.69h.472v.13H.226v.14h.298v.13H.226v.16h.328V0H.082Z" style="fill:#8e3525;fill-rule:nonzero" transform="rotate(-7.862 17070.651 -6467.569) scale(230.5318)"/>
  <path d="M.082 0v-.69h.336c.112 0 .168.056.168.168v.114c0 .083-.031.135-.093.156l.113.222L.589 0H.465L.343-.24H.226V0H.082Zm.144-.37h.186c.02 0 .03-.01.03-.03v-.13c0-.02-.01-.03-.03-.03H.226v.19Z" style="fill:#8e3525;fill-rule:nonzero" transform="scale(230.5323) rotate(-15.606 38.249 -14.205)"/>
  <path d="M1070 317.24V199.245h29.413l33.176 70.797 33.176-70.797h29.413V317.24h-24.625v-74.559l-27.704 59.168h-20.521l-27.703-59.168v74.559H1070ZM1222.2 288.511v-89.266h24.625v90.634c0 3.42 1.71 5.13 5.131 5.13h33.517c3.42 0 5.13-1.71 5.13-5.13v-90.634h24.625v89.266c0 19.153-9.576 28.729-28.729 28.729h-35.57c-19.152 0-28.729-9.576-28.729-28.729ZM1337.12 308.348v-13.339h53.013c3.42 0 5.13-1.71 5.13-5.13v-12.313c0-3.306-1.425-5.187-4.275-5.643l-33.347-6.84c-13.68-2.736-20.521-11.914-20.521-27.533v-9.576c0-19.153 9.577-28.729 28.73-28.729h39.161l11.457 8.892v13.339h-49.592c-3.42 0-5.13 1.71-5.13 5.13v11.116c0 3.192 1.425 5.073 4.275 5.643l33.346 6.669c13.681 2.736 20.521 11.914 20.521 27.532v10.945c0 19.153-9.576 28.729-28.729 28.729h-42.581l-11.458-8.892ZM1442.8 199.245h24.625V317.24H1442.8zM1493.76 288.511v-60.537c0-19.153 9.576-28.729 28.729-28.729h45.659l11.458 8.892v13.339h-56.091c-3.42 0-5.13 1.71-5.13 5.13v63.273c0 3.42 1.71 5.13 5.13 5.13h56.091v13.339l-11.458 8.892h-45.659c-19.153 0-28.729-9.576-28.729-28.729ZM1591.23 312.623l35.057-113.378h37.622l35.056 113.378-3.078 4.617h-20.521l-7.182-23.941h-46.172l-7.183 23.941h-20.521l-3.078-4.617Zm37.451-41.555h32.834l-15.049-49.592h-2.736l-15.049 49.592ZM1716.07 317.24V199.245h24.625v95.764h50.961v22.231h-75.586Z" style="fill:#8e3525;fill-rule:nonzero"/>
  <path d="M.082-.69h.144V0H.082z" style="fill:#8e3525;fill-rule:nonzero" transform="rotate(-67.561 495.24 -.369) scale(170.83325)"/>
  <path d="M.082 0v-.69h.156l.274.453V-.69h.144V0H.5L.226-.453V0H.082Z" style="fill:#8e3525;fill-rule:nonzero" transform="rotate(-55.627 554.324 -92.508) scale(170.83365)"/>
  <path d="M.052-.052V-.13h.31c.02 0 .03-.01.03-.03v-.072c0-.019-.008-.03-.025-.033l-.195-.04c-.08-.016-.12-.07-.12-.161v-.056c0-.112.056-.168.168-.168h.229l.067.052v.078h-.29c-.02 0-.03.01-.03.03v.065c0 .019.008.03.025.033l.195.039c.08.016.12.07.12.161v.064C.536-.056.48 0 .368 0H.119L.052-.052Z" style="fill:#8e3525;fill-rule:nonzero" transform="scale(170.83343) rotate(-39.393 3.758 -2.183)"/>
  <path d="M.024-.56v-.13h.564v.13h-.21V0H.234v-.56h-.21Z" style="fill:#8e3525;fill-rule:nonzero" transform="scale(170.83383) rotate(-24.305 4.914 -5.35)"/>
  <path d="M.018-.027.223-.69h.22l.205.663L.63 0H.51L.468-.14h-.27L.156 0h-.12L.018-.027ZM.237-.27h.192L.341-.56H.325l-.088.29Z" style="fill:#8e3525;fill-rule:nonzero" transform="rotate(-8.201 1830.056 -3618.16) scale(170.83346)"/>
  <path d="M.082 0v-.69h.156l.274.453V-.69h.144V0H.5L.226-.453V0H.082Z" style="fill:#8e3525;fill-rule:nonzero" transform="rotate(9.755 -893.237 3832.767) scale(170.83318)"/>
  <path d="M.024-.56v-.13h.564v.13h-.21V0H.234v-.56h-.21Z" style="fill:#8e3525;fill-rule:nonzero" transform="rotate(26.316 -109.122 1716.513) scale(170.83359)"/>
</svg>