<?xml version="1.0" encoding="UTF-8" standalone="no"?>
<!DOCTYPE svg PUBLIC "-//W3C//DTD SVG 1.1//EN" "http://www.w3.org/Graphics/SVG/1.1/DTD/svg11.dtd">
<svg width="100%" height="100%" viewBox="0 0 453 465" version="1.1" xmlns="http://www.w3.org/2000/svg" xmlns:xlink="http://www.w3.org/1999/xlink" xml:space="preserve" xmlns:serif="http://www.serif.com/" style="fill-rule:evenodd;clip-rule:evenodd;stroke-linejoin:round;stroke-miterlimit:2;">
    <g transform="matrix(0.779311,0,0,0.779311,49.947,51.2606)">
        <g transform="matrix(1,0,0,1,-173.474,-90.9751)">
            <path d="M325.379,505.311C327.131,507.636 344.448,506.734 367.819,503.454C378.757,501.919 384.141,496.426 389.618,487.57C398.074,473.897 406.231,454.413 421.93,428.809C429.771,416.022 443.285,403.496 457.407,389.187C473.501,372.882 490.732,353.733 495.859,325.741C499.29,307.006 497.198,284.504 486.631,256.538C457.263,178.809 370.419,181.587 329.12,202.628C276.021,229.681 272.555,277.039 272.555,277.039L271.612,294.346L236.996,292.461L237.939,275.153C237.939,275.153 240.662,208.789 313.383,171.74C367.486,144.175 480.587,142.458 519.06,244.285C548.001,320.881 524.634,365.591 495.848,398.783C479.543,417.585 460.761,431.8 451.484,446.93C435.753,472.585 427.575,492.104 419.101,505.804C407.647,524.324 395.511,534.574 372.637,537.784C312.914,546.167 304.068,532.907 304.068,532.907L291.563,520.904L315.569,495.895L325.379,505.311Z"/>
        </g>
        <g transform="matrix(1,0,0,1,-173.474,-90.9751)">
            <path d="M173.474,555.526L173.474,487.181L281.379,375.395L362.865,426.037L237.631,555.526"/>
        </g>
        <g transform="matrix(1,0,0,1,-173.474,-90.9751)">
            <path d="M479.831,175.364L560.295,90.975L626.12,90.975L626.12,157.817L534.414,251.669C534.414,251.669 520.832,204.682 479.831,175.364Z"/>
        </g>
        <g transform="matrix(1.03803,0,0,1.03803,-191.818,-98.7357)">
            <path d="M300.451,263.017C314.472,228.458 348.383,204.06 387.949,204.06C440.039,204.06 482.329,246.35 482.329,298.44C482.329,309.504 480.422,320.125 476.918,329.992L458.305,322.928C460.978,315.258 462.431,307.017 462.431,298.44C462.431,257.333 429.056,223.958 387.949,223.958C356.879,223.958 330.228,243.023 319.064,270.081L300.451,263.017Z"/>
        </g>
    </g>
</svg>
