<?xml version="1.0" encoding="UTF-8" standalone="no"?>
<!DOCTYPE svg PUBLIC "-//W3C//DTD SVG 1.1//EN" "http://www.w3.org/Graphics/SVG/1.1/DTD/svg11.dtd">
<svg width="100%" height="100%" viewBox="0 0 24 24" version="1.1" xmlns="http://www.w3.org/2000/svg" xmlns:xlink="http://www.w3.org/1999/xlink" xml:space="preserve" xmlns:serif="http://www.serif.com/" style="fill-rule:evenodd;clip-rule:evenodd;stroke-linejoin:round;stroke-miterlimit:2;">
    <rect x="0" y="0" width="24" height="24" style="fill:none;fill-rule:nonzero;"/>
    <g transform="matrix(1,0,0,1,-0.818472,-0.34103)">
        <circle cx="12.755" cy="18.799" r="1.458"/>
    </g>
    <path d="M8,11.5C8,10.67 7.33,10 6.5,10C5.67,10 5,10.67 5,11.5C5,12.33 5.67,13 6.5,13C7.33,13 8,12.33 8,11.5ZM8.5,15C7.67,15 7,15.67 7,16.5C7,17.33 7.67,18 8.5,18C9.33,18 10,17.33 10,16.5C10,15.67 9.33,15 8.5,15ZM12,1C5.93,1 1,5.93 1,12C1,18.07 5.93,23 12,23C18.07,23 23,18.07 23,12C23,5.93 18.07,1 12,1ZM12,21C7.04,21 3,16.96 3,12C3,7.04 7.04,3 12,3C16.96,3 21,7.04 21,12C21,16.96 16.96,21 12,21ZM17.5,10C16.67,10 16,10.67 16,11.5C16,12.33 16.67,13 17.5,13C18.33,13 19,12.33 19,11.5C19,10.67 18.33,10 17.5,10ZM15.5,15C14.67,15 14,15.67 14,16.5C14,17.33 14.67,18 15.5,18C16.33,18 17,17.33 17,16.5C17,15.67 16.33,15 15.5,15Z" style="fill-rule:nonzero;"/>
</svg>
