<?xml version="1.0" standalone="no"?>
<!DOCTYPE svg PUBLIC "-//W3C//DTD SVG 20010904//EN"
 "http://www.w3.org/TR/2001/REC-SVG-20010904/DTD/svg10.dtd">
<svg version="1.0" xmlns="http://www.w3.org/2000/svg"
 width="1024.000000pt" height="1024.000000pt" viewBox="0 0 1024.000000 1024.000000"
 preserveAspectRatio="xMidYMid meet">
<metadata>
Created by potrace 1.14, written by Peter Selinger 2001-2017
</metadata>
<g transform="translate(0.000000,1024.000000) scale(0.100000,-0.100000)"
fill="#000000" stroke="none">
<path d="M4755 9645 c-1188 -101 -2265 -642 -3044 -1530 -284 -324 -494 -641
-681 -1027 -750 -1554 -551 -3400 514 -4763 106 -136 186 -226 335 -378 386
-394 784 -681 1273 -917 1408 -679 3069 -584 4393 253 297 188 555 397 816
664 367 374 624 739 849 1205 750 1554 551 3400 -514 4763 -210 268 -510 569
-781 781 -559 438 -1222 741 -1915 878 -394 78 -855 104 -1245 71z m-705
-1591 c93 -27 191 -85 269 -159 136 -129 219 -282 272 -500 30 -124 31 -320 2
-455 -43 -199 -64 -257 -132 -375 -128 -223 -228 -351 -483 -615 -371 -385
-511 -563 -624 -797 -116 -239 -164 -444 -164 -713 0 -529 205 -1025 580
-1401 256 -257 554 -427 898 -513 164 -41 247 -50 452 -50 205 0 288 9 452 50
197 49 426 149 593 260 547 361 885 992 885 1654 0 274 -47 475 -166 713 -109
218 -208 345 -561 718 -234 247 -324 355 -437 523 -158 236 -185 299 -239 546
-29 134 -28 331 1 455 50 207 126 349 257 481 144 144 270 199 455 197 469 -3
1071 -471 1558 -1210 149 -225 322 -559 376 -724 115 -353 163 -695 153 -1103
-13 -528 -118 -951 -353 -1416 -322 -639 -835 -1152 -1474 -1474 -360 -182
-695 -283 -1110 -337 -142 -19 -638 -19 -780 0 -415 54 -750 155 -1110 337
-925 466 -1581 1337 -1776 2354 -47 251 -68 662 -45 907 92 966 562 1808 1336
2389 131 99 265 180 340 207 202 71 435 92 575 51z"/>
</g>
</svg>
