<svg class="hero-bumper" xmlns="http://www.w3.org/2000/svg" xml:space="preserve" style="fill-rule:evenodd;clip-rule:evenodd;stroke-linecap:round;stroke-linejoin:round;stroke-miterlimit:1.5" viewBox="0 0 2481 3508">
  <path d="M1743.09 300.677c0-41.72-28.484-75.591-63.569-75.591h-1462.1c-35.085 0-63.57 33.871-63.57 75.591v2906.52c0 41.72 28.485 75.591 63.57 75.591h1462.1c35.085 0 63.569-33.871 63.569-75.591V300.677Z" style="fill:#ebebeb" transform="matrix(1.1891 0 0 1 112.333 0)"/>
  <path d="M94.173 29.051a2.374 2.374 0 0 0-2.374-2.373H8.201a2.374 2.374 0 0 0-2.374 2.373c0 24.38 19.793 44.173 44.173 44.173 24.38 0 44.173-19.793 44.173-44.173ZM53.472 39.849c-.306-.559-.627-2.383-.632-2.715l-.001-.1c0-2.842 1.741-5.333 4.152-5.333l.064.001c5.056.106 12.414 9.597 12.414 17.609 0 10.426-8.724 18.89-19.469 18.89-10.745 0-19.469-8.464-19.469-18.89 0-8.012 5.905-17.472 12.414-17.609l.064-.001c2.411 0 4.152 2.491 4.152 5.333l-.001.1c-.005.333-.326 2.156-.631 2.715-.711 1.302-1.909 2.799-1.928 2.819-1.143 1.217-2.415 2.375-3.41 3.675-1.29 1.685-2.159 3.586-2.159 5.948 0 6.2 4.915 11.233 10.968 11.233s10.967-5.033 10.967-11.233c0-2.396-.857-4.216-2.153-5.87-.96-1.225-2.206-2.347-3.372-3.684a19.133 19.133 0 0 1-1.97-2.888Z" style="fill:#8d3525" transform="translate(295.28 809.06) scale(18.8976)"/>
  <ellipse cx="851.651" cy="833.592" rx="132.017" ry="318.098" style="fill:#8d3525" transform="translate(125.614 42.748)"/>
  <path d="m1821.03 876.34 243.917-164.707" style="fill:none;stroke:#8e3525;stroke-width:91.67px" transform="translate(-407.922 8.774)"/>
  <path d="m1821.03 876.34 243.917-164.707" style="fill:none;stroke:#8e3525;stroke-width:91.67px" transform="rotate(64.03 1610.053 554.507)"/>
  <path d="m1821.03 876.34 243.917-164.707" style="fill:none;stroke:#8e3525;stroke-width:91.67px" transform="rotate(34.03 1602.735 214.213)"/>
  <path d="M.066-.479h.236v.238H.066z" style="fill:#8e3525;fill-rule:nonzero" transform="scale(125) rotate(15.802 -84.689 24.684)"/>
  <path d="M.052-.052V-.13h.31c.02 0 .03-.01.03-.03v-.072c0-.019-.008-.03-.025-.033l-.195-.04c-.08-.016-.12-.07-.12-.161v-.056c0-.112.056-.168.168-.168h.229l.067.052v.078h-.29c-.02 0-.03.01-.03.03v.065c0 .019.008.03.025.033l.195.039c.08.016.12.07.12.161v.064C.536-.056.48 0 .368 0H.119L.052-.052Z" style="fill:#8e3525;fill-rule:nonzero" transform="rotate(13.872 -12155.792 3630.01) scale(125)"/>
  <path d="M.082 0v-.69h.172l.194.414.194-.414h.172V0H.67v-.436L.508-.09h-.12L.226-.436V0H.082Z" style="fill:#8e3525;fill-rule:nonzero" transform="scale(125) rotate(11.928 -113.993 34.687)"/>
  <path d="M.082-.69h.144V0H.082z" style="fill:#8e3525;fill-rule:nonzero" transform="rotate(10.367 -16525.315 5385.623) scale(125.0005)"/>
  <path d="M.082 0v-.69h.144v.56h.298V0H.082Z" style="fill:#8e3525;fill-rule:nonzero" transform="rotate(9.185 -18733.304 6130.688) scale(124.9998)"/>
  <path d="M.082 0v-.69h.472v.13H.226v.14h.298v.13H.226v.16h.328V0H.082Z" style="fill:#8e3525;fill-rule:nonzero" transform="rotate(7.746 -22343.887 7501.405) scale(124.9997)"/>
  <path d="M.082 0v-.69h.336c.112 0 .168.056.168.168v.134c0 .112-.056.168-.168.168H.226V0H.082Zm.144-.35h.186c.02 0 .03-.01.03-.03v-.15c0-.02-.01-.03-.03-.03H.226v.21Z" style="fill:#8e3525;fill-rule:nonzero" transform="rotate(5.557 -31421.69 10966.645) scale(125.0004)"/>
  <path d="M.072-.168v-.354c0-.112.056-.168.168-.168h.228c.112 0 .168.056.168.168v.354C.636-.056.58 0 .468 0H.24C.128 0 .072-.056.072-.168Zm.144.008c0 .02.01.03.03.03h.216c.02 0 .03-.01.03-.03v-.37c0-.02-.01-.03-.03-.03H.246c-.02 0-.03.01-.03.03v.37Z" style="fill:#8e3525;fill-rule:nonzero" transform="matrix(124.709 8.52947 -8.52947 124.709 994.84 3102.11)"/>
  <path d="m.028-.663.02-.027h.118l.111.56h.011l.119-.494h.142l.119.494h.011L.79-.69h.118l.02.027L.793 0H.564L.478-.365.392 0H.163L.028-.663Z" style="fill:#8e3525;fill-rule:nonzero" transform="scale(124.99963) rotate(1.857 -762.95 280.11)"/>
  <path d="M.082 0v-.69h.472v.13H.226v.14h.298v.13H.226v.16h.328V0H.082Z" style="fill:#8e3525;fill-rule:nonzero" transform="matrix(125 -.19763 .19763 125 1205.11 3112.04)"/>
  <path d="M.082 0v-.69h.336c.112 0 .168.056.168.168v.114c0 .083-.031.135-.093.156l.113.222L.589 0H.465L.343-.24H.226V0H.082Zm.144-.37h.186c.02 0 .03-.01.03-.03v-.13c0-.02-.01-.03-.03-.03H.226v.19Z" style="fill:#8e3525;fill-rule:nonzero" transform="matrix(124.949 -3.57622 3.57622 124.949 1282 3112)"/>
  <path d="M.082 0v-.69h.472v.13H.226v.14h.298v.13H.226v.16h.328V0H.082Z" style="fill:#8e3525;fill-rule:nonzero" transform="matrix(124.808 -6.92218 6.92218 124.808 1364.03 3109.66)"/>
  <path d="M.082 0v-.69h.262c.188 0 .282.094.282.282v.126C.626-.094.532 0 .344 0H.082Zm.144-.13h.126c.087 0 .13-.043.13-.13v-.17c0-.087-.043-.13-.13-.13H.226v.43Z" style="fill:#8e3525;fill-rule:nonzero" transform="rotate(-4.773 37976.254 -15733.01) scale(124.9995)"/>
  <path d="M.052-.052V-.13h.31c.02 0 .03-.01.03-.03v-.072c0-.019-.008-.03-.025-.033l-.195-.04c-.08-.016-.12-.07-.12-.161v-.056c0-.112.056-.168.168-.168h.229l.067.052v.078h-.29c-.02 0-.03.01-.03.03v.065c0 .019.008.03.025.033l.195.039c.08.016.12.07.12.161v.064C.536-.056.48 0 .368 0H.119L.052-.052Z" style="fill:#8e3525;fill-rule:nonzero" transform="rotate(-6.971 26186.259 -11248.658) scale(125)"/>
  <path d="M.018-.663.035-.69h.123l.15.293.15-.293h.123l.017.027-.218.419V0H.236v-.244L.018-.663Z" style="fill:#8e3525;fill-rule:nonzero" transform="scale(125.0003) rotate(-8.504 172.552 -75.515)"/>
  <path d="M.082 0v-.69h.156l.274.453V-.69h.144V0H.5L.226-.453V0H.082Z" style="fill:#8e3525;fill-rule:nonzero" transform="rotate(-10.239 18012.49 -8008.328) scale(124.9998)"/>
  <path d="M.024-.56v-.13h.564v.13h-.21V0H.234v-.56h-.21Z" style="fill:#8e3525;fill-rule:nonzero" transform="scale(124.9998) rotate(-11.987 123.698 -56.438)"/>
  <path d="M.082 0v-.69h.144v.27h.256v-.27h.144V0H.482v-.29H.226V0H.082Z" style="fill:#8e3525;fill-rule:nonzero" transform="scale(125.0003) rotate(-13.717 108.661 -50.307)"/>
  <path d="M.066-.479h.236v.238H.066z" style="fill:#8e3525;fill-rule:nonzero" transform="scale(125) rotate(-15.802 94.794 -45.479)"/>
  <path d="M.082 0v-.69h.472v.13H.226v.17h.298v.13H.226V0H.082Z" style="fill:#8e3525;fill-rule:nonzero" transform="rotate(16.068 -10048.836 3142.118) scale(125)"/>
  <path d="M.072-.168v-.354c0-.112.056-.168.168-.168h.228c.112 0 .168.056.168.168v.354C.636-.056.58 0 .468 0H.24C.128 0 .072-.056.072-.168Zm.144.008c0 .02.01.03.03.03h.216c.02 0 .03-.01.03-.03v-.37c0-.02-.01-.03-.03-.03H.246c-.02 0-.03.01-.03.03v.37Z" style="fill:#8e3525;fill-rule:nonzero" transform="scale(124.9997) rotate(14.271 -91.253 29.222)"/>
  <path d="M.082 0v-.69h.336c.112 0 .168.056.168.168v.114c0 .083-.031.135-.093.156l.113.222L.589 0H.465L.343-.24H.226V0H.082Zm.144-.37h.186c.02 0 .03-.01.03-.03v-.13c0-.02-.01-.03-.03-.03H.226v.19Z" style="fill:#8e3525;fill-rule:nonzero" transform="matrix(122.141 26.5836 -26.5836 122.141 635.4 2946.71)"/>
  <path d="M.018-.663.035-.69h.123l.15.293.15-.293h.123l.017.027-.218.419V0H.236v-.244L.018-.663Z" style="fill:#8e3525;fill-rule:nonzero" transform="scale(125) rotate(9.851 -134.88 46.538)"/>
  <path d="M.072-.168v-.354c0-.112.056-.168.168-.168h.228c.112 0 .168.056.168.168v.354C.636-.056.58 0 .468 0H.24C.128 0 .072-.056.072-.168Zm.144.008c0 .02.01.03.03.03h.216c.02 0 .03-.01.03-.03v-.37c0-.02-.01-.03-.03-.03H.246c-.02 0-.03.01-.03.03v.37Z" style="fill:#8e3525;fill-rule:nonzero" transform="rotate(8.006 -20905.836 7377.298) scale(125.0004)"/>
  <path d="M.076-.168V-.69H.22v.53c0 .02.01.03.03.03h.196c.02 0 .03-.01.03-.03v-.53H.62v.522C.62-.056.564 0 .452 0H.244C.132 0 .076-.056.076-.168Z" style="fill:#8e3525;fill-rule:nonzero" transform="rotate(6.072 -27788.388 10100.757) scale(125.0003)"/>
  <path d="M.062-.162v-.086a.1.1 0 0 1 .033-.08l.042-.035-.035-.042a.089.089 0 0 1-.02-.058v-.065c0-.108.054-.162.162-.162h.182l.06.045v.075H.252C.231-.57.22-.559.22-.538v.086c0 .021.011.032.032.032h.384v.12h-.1V0H.224C.116 0 .062-.054.062-.162Zm.138.01c0 .021.011.032.032.032h.166V-.3H.232C.211-.3.2-.289.2-.268v.116Z" style="fill:#8e3525;fill-rule:nonzero" transform="rotate(3.498 -48733.658 18393.233) scale(124.99994)"/>
  <path d="M.018-.663.035-.69h.123l.15.293.15-.293h.123l.017.027-.218.419V0H.236v-.244L.018-.663Z" style="fill:#8e3525;fill-rule:nonzero" transform="matrix(124.976 2.45771 -2.45771 124.976 1148.18 3014.46)"/>
  <path d="M.072-.168v-.354c0-.112.056-.168.168-.168h.228c.112 0 .168.056.168.168v.354C.636-.056.58 0 .468 0H.24C.128 0 .072-.056.072-.168Zm.144.008c0 .02.01.03.03.03h.216c.02 0 .03-.01.03-.03v-.37c0-.02-.01-.03-.03-.03H.246c-.02 0-.03.01-.03.03v.37Z" style="fill:#8e3525;fill-rule:nonzero" transform="rotate(-.646 268212.676 -107321.298) scale(124.99994)"/>
  <path d="M.076-.168V-.69H.22v.53c0 .02.01.03.03.03h.196c.02 0 .03-.01.03-.03v-.53H.62v.522C.62-.056.564 0 .452 0H.244C.132 0 .076-.056.076-.168Z" style="fill:#8e3525;fill-rule:nonzero" transform="matrix(124.878 -5.5129 5.5129 124.878 1316.27 3015.03)"/>
  <path d="M.082 0v-.69h.336c.112 0 .168.056.168.168v.114c0 .083-.031.135-.093.156l.113.222L.589 0H.465L.343-.24H.226V0H.082Zm.144-.37h.186c.02 0 .03-.01.03-.03v-.13c0-.02-.01-.03-.03-.03H.226v.19Z" style="fill:#8e3525;fill-rule:nonzero" transform="rotate(-4.405 39848.113 -16754.638) scale(125.00025)"/>
  <path d="M.082 0v-.69h.472v.13H.226v.17h.298v.13H.226V0H.082Z" style="fill:#8e3525;fill-rule:nonzero" transform="scale(124.9998) rotate(-6.782 208.7 -90.435)"/>
  <path d="M.082 0v-.69h.336c.112 0 .168.056.168.168v.114c0 .083-.031.135-.093.156l.113.222L.589 0H.465L.343-.24H.226V0H.082Zm.144-.37h.186c.02 0 .03-.01.03-.03v-.13c0-.02-.01-.03-.03-.03H.226v.19Z" style="fill:#8e3525;fill-rule:nonzero" transform="scale(124.9997) rotate(-8.474 167.97 -73.95)"/>
  <path d="M.082-.69h.144V0H.082z" style="fill:#8e3525;fill-rule:nonzero" transform="rotate(-9.759 18294.511 -8305.891) scale(125)"/>
  <path d="M.082 0v-.69h.472v.13H.226v.14h.298v.13H.226v.16h.328V0H.082Z" style="fill:#8e3525;fill-rule:nonzero" transform="scale(124.9999) rotate(-11.092 129.378 -58.622)"/>
  <path d="M.082 0v-.69h.156l.274.453V-.69h.144V0H.5L.226-.453V0H.082Z" style="fill:#8e3525;fill-rule:nonzero" transform="rotate(-12.952 13930.908 -6392.856) scale(125)"/>
  <path d="M.082 0v-.69h.262c.188 0 .282.094.282.282v.126C.626-.094.532 0 .344 0H.082Zm.144-.13h.126c.087 0 .13-.043.13-.13v-.17c0-.087-.043-.13-.13-.13H.226v.43Z" style="fill:#8e3525;fill-rule:nonzero" transform="scale(125.0005) rotate(-15.025 96.647 -45.219)"/>
  <path d="M.052-.052V-.13h.31c.02 0 .03-.01.03-.03v-.072c0-.019-.008-.03-.025-.033l-.195-.04c-.08-.016-.12-.07-.12-.161v-.056c0-.112.056-.168.168-.168h.229l.067.052v.078h-.29c-.02 0-.03.01-.03.03v.065c0 .019.008.03.025.033l.195.039c.08.016.12.07.12.161v.064C.536-.056.48 0 .368 0H.119L.052-.052Z" style="fill:#8e3525;fill-rule:nonzero" transform="scale(124.9999) rotate(-16.852 86.59 -41.332)"/>
  <path d="M.082 0v-.69h.336c.112 0 .168.056.168.168v.134c0 .112-.056.168-.168.168H.226V0H.082Zm.144-.35h.186c.02 0 .03-.01.03-.03v-.15c0-.02-.01-.03-.03-.03H.226v.21Z" style="fill:#8e3525;fill-rule:nonzero" transform="rotate(20.947 -6866.368 2351.672) scale(400)"/>
  <path d="M.072-.168v-.354c0-.112.056-.168.168-.168h.228c.112 0 .168.056.168.168v.354C.636-.056.58 0 .468 0H.24C.128 0 .072-.056.072-.168Zm.144.008c0 .02.01.03.03.03h.216c.02 0 .03-.01.03-.03v-.37c0-.02-.01-.03-.03-.03H.246c-.02 0-.03.01-.03.03v.37Z" style="fill:#8e3525;fill-rule:nonzero" transform="rotate(12.753 -11796.039 4236.384) scale(400.0001)"/>
  <path d="m.028-.663.02-.027h.118l.111.56h.011l.119-.494h.142l.119.494h.011L.79-.69h.118l.02.027L.793 0H.564L.478-.365.392 0H.163L.028-.663Z" style="fill:#8e3525;fill-rule:nonzero" transform="scale(399.9998) rotate(2.938 -134.219 49.32)"/>
  <path d="M.082 0v-.69h.472v.13H.226v.14h.298v.13H.226v.16h.328V0H.082Z" style="fill:#8e3525;fill-rule:nonzero" transform="rotate(-6.261 26194.585 -10882.11) scale(399.9999)"/>
  <path d="M.082 0v-.69h.336c.112 0 .168.056.168.168v.114c0 .083-.031.135-.093.156l.113.222L.589 0H.465L.343-.24H.226V0H.082Zm.144-.37h.186c.02 0 .03-.01.03-.03v-.13c0-.02-.01-.03-.03-.03H.226v.19Z" style="fill:#8e3525;fill-rule:nonzero" transform="scale(399.9996) rotate(-13.895 30.354 -12.994)"/>
  <path d="M.052-.052V-.13h.31c.02 0 .03-.01.03-.03v-.072c0-.019-.008-.03-.025-.033l-.195-.04c-.08-.016-.12-.07-.12-.161v-.056c0-.112.056-.168.168-.168h.229l.067.052v.078h-.29c-.02 0-.03.01-.03.03v.065c0 .019.008.03.025.033l.195.039c.08.016.12.07.12.161v.064C.536-.056.48 0 .368 0H.119L.052-.052Z" style="fill:#8e3525;fill-rule:nonzero" transform="rotate(-21.436 8056.476 -3604.319) scale(400)"/>
  <path d="M.052-.052V-.13h.31c.02 0 .03-.01.03-.03v-.072c0-.019-.008-.03-.025-.033l-.195-.04c-.08-.016-.12-.07-.12-.161v-.056c0-.112.056-.168.168-.168h.229l.067.052v.078h-.29c-.02 0-.03.01-.03.03v.065c0 .019.008.03.025.033l.195.039c.08.016.12.07.12.161v.064C.536-.056.48 0 .368 0H.119L.052-.052Z" style="fill:#8e3525;fill-rule:nonzero" transform="scale(230.532) rotate(15.716 -36.472 18.408)"/>
  <path d="M.076-.168V-.69H.22v.53c0 .02.01.03.03.03h.196c.02 0 .03-.01.03-.03v-.53H.62v.522C.62-.056.564 0 .452 0H.244C.132 0 .076-.056.076-.168Z" style="fill:#8e3525;fill-rule:nonzero" transform="scale(230.5316) rotate(7.84 -76.306 36.659)"/>
  <path d="M.082 0v-.69h.336c.112 0 .168.056.168.168v.134c0 .112-.056.168-.168.168H.226V0H.082Zm.144-.35h.186c.02 0 .03-.01.03-.03v-.15c0-.02-.01-.03-.03-.03H.226v.21Z" style="fill:#8e3525;fill-rule:nonzero" transform="scale(230.5325) rotate(-.314 1980.783 -919.97)"/>
  <path d="M.082 0v-.69h.472v.13H.226v.14h.298v.13H.226v.16h.328V0H.082Z" style="fill:#8e3525;fill-rule:nonzero" transform="rotate(-7.862 18856.056 -8503.572) scale(230.5318)"/>
  <path d="M.082 0v-.69h.336c.112 0 .168.056.168.168v.114c0 .083-.031.135-.093.156l.113.222L.589 0H.465L.343-.24H.226V0H.082Zm.144-.37h.186c.02 0 .03-.01.03-.03v-.13c0-.02-.01-.03-.03-.03H.226v.19Z" style="fill:#8e3525;fill-rule:nonzero" transform="scale(230.5323) rotate(-15.606 42.452 -18.39)"/>
  <path d="M.082 0v-.69h.172l.194.414.194-.414h.172V0H.67v-.436L.508-.09h-.12L.226-.436V0H.082Z" style="fill:#8e3525;fill-rule:nonzero" transform="translate(1351.258 542.329) scale(171.00814)"/>
  <path d="M.076-.168V-.69H.22v.53c0 .02.01.03.03.03h.196c.02 0 .03-.01.03-.03v-.53H.62v.522C.62-.056.564 0 .452 0H.244C.132 0 .076-.056.076-.168Z" style="fill:#8e3525;fill-rule:nonzero" transform="translate(1504.482 542.329) scale(171.00814)"/>
  <path d="M.052-.052V-.13h.31c.02 0 .03-.01.03-.03v-.072c0-.019-.008-.03-.025-.033l-.195-.04c-.08-.016-.12-.07-.12-.161v-.056c0-.112.056-.168.168-.168h.229l.067.052v.078h-.29c-.02 0-.03.01-.03.03v.065c0 .019.008.03.025.033l.195.039c.08.016.12.07.12.161v.064C.536-.056.48 0 .368 0H.119L.052-.052Z" style="fill:#8e3525;fill-rule:nonzero" transform="translate(1623.503 542.329) scale(171.00814)"/>
  <path d="M.082-.69h.144V0H.082z" style="fill:#8e3525;fill-rule:nonzero" transform="translate(1724.056 542.329) scale(171.00814)"/>
  <path d="M.072-.168v-.354c0-.112.056-.168.168-.168h.267l.067.052v.078H.246c-.02 0-.03.01-.03.03v.37c0 .02.01.03.03.03h.328v.078L.507 0H.24C.128 0 .072-.056.072-.168Z" style="fill:#8e3525;fill-rule:nonzero" transform="translate(1776.726 542.329) scale(171.00814)"/>
  <path d="M.018-.027.223-.69h.22l.205.663L.63 0H.51L.468-.14h-.27L.156 0h-.12L.018-.027ZM.237-.27h.192L.341-.56H.325l-.088.29Z" style="fill:#8e3525;fill-rule:nonzero" transform="translate(1883.434 542.329) scale(171.00814)"/>
  <path d="M.082 0v-.69h.144v.56h.298V0H.082Z" style="fill:#8e3525;fill-rule:nonzero" transform="translate(1997.328 542.329) scale(171.00814)"/>
  <path d="M.082-.69h.144V0H.082z" style="fill:#8e3525;fill-rule:nonzero" transform="rotate(-67.561 811.116 -108.527) scale(170.83325)"/>
  <path d="M.082 0v-.69h.156l.274.453V-.69h.144V0H.5L.226-.453V0H.082Z" style="fill:#8e3525;fill-rule:nonzero" transform="rotate(-55.627 915.296 -259.823) scale(170.83365)"/>
  <path d="M.052-.052V-.13h.31c.02 0 .03-.01.03-.03v-.072c0-.019-.008-.03-.025-.033l-.195-.04c-.08-.016-.12-.07-.12-.161v-.056c0-.112.056-.168.168-.168h.229l.067.052v.078h-.29c-.02 0-.03.01-.03.03v.065c0 .019.008.03.025.033l.195.039c.08.016.12.07.12.161v.064C.536-.056.48 0 .368 0H.119L.052-.052Z" style="fill:#8e3525;fill-rule:nonzero" transform="scale(170.83343) rotate(-39.393 6.462 -3.939)"/>
  <path d="M.024-.56v-.13h.564v.13h-.21V0H.234v-.56h-.21Z" style="fill:#8e3525;fill-rule:nonzero" transform="scale(170.83383) rotate(-24.305 8.838 -8.704)"/>
  <path d="M.018-.027.223-.69h.22l.205.663L.63 0H.51L.468-.14h-.27L.156 0h-.12L.018-.027ZM.237-.27h.192L.341-.56H.325l-.088.29Z" style="fill:#8e3525;fill-rule:nonzero" transform="rotate(-8.201 3547.591 -5565.066) scale(170.83346)"/>
  <path d="M.082 0v-.69h.156l.274.453V-.69h.144V0H.5L.226-.453V0H.082Z" style="fill:#8e3525;fill-rule:nonzero" transform="rotate(9.755 -2064.471 5675.454) scale(170.83318)"/>
  <path d="M.024-.56v-.13h.564v.13h-.21V0H.234v-.56h-.21Z" style="fill:#8e3525;fill-rule:nonzero" transform="rotate(26.316 -442.894 2460.588) scale(170.83359)"/>
</svg>