<?xml version="1.0" encoding="UTF-8" standalone="no"?>
<!DOCTYPE svg PUBLIC "-//W3C//DTD SVG 1.1//EN" "http://www.w3.org/Graphics/SVG/1.1/DTD/svg11.dtd">
<svg width="100%" height="100%" viewBox="0 0 12095 12095" version="1.1" xmlns="http://www.w3.org/2000/svg" xmlns:xlink="http://www.w3.org/1999/xlink" xml:space="preserve" xmlns:serif="http://www.serif.com/" style="fill-rule:evenodd;clip-rule:evenodd;stroke-linejoin:round;stroke-miterlimit:2;">
    <path d="M12094.5,1451.34L12094.5,10643.1C12094.5,11444.2 11444.2,12094.5 10643.1,12094.5L1451.34,12094.5C650.323,12094.5 0,11444.2 0,10643.1L0,1451.34C0,650.323 650.323,0 1451.34,0L10643.1,0C11444.2,0 12094.5,650.323 12094.5,1451.34Z" style="fill:rgb(246,246,246);"/>
    <g id="Layer1">
        <g transform="matrix(1.37962,0,0,1.37962,-1975.19,-4384.51)">
            <g id="interface.cropped.svg" transform="matrix(54.6964,0,0,54.9601,5721.1,7986.6)">
                <g transform="matrix(1,0,0,1,-50,-50)">
                    <path d="M94.173,29.051C94.173,27.741 93.11,26.678 91.799,26.678L8.201,26.678C6.89,26.678 5.827,27.741 5.827,29.051C5.827,53.431 25.62,73.224 50,73.224C74.38,73.224 94.173,53.431 94.173,29.051ZM53.472,39.849C53.166,39.29 52.845,37.466 52.84,37.134C52.839,37.101 52.839,37.068 52.839,37.034C52.839,34.192 54.58,31.701 56.991,31.701C57.013,31.701 57.034,31.701 57.055,31.702C62.111,31.808 69.469,41.299 69.469,49.311C69.469,59.737 60.745,68.201 50,68.201C39.255,68.201 30.531,59.737 30.531,49.311C30.531,41.299 36.436,31.839 42.945,31.702C42.966,31.701 42.987,31.701 43.009,31.701C45.42,31.701 47.161,34.192 47.161,37.034C47.161,37.067 47.161,37.1 47.16,37.134C47.155,37.467 46.834,39.29 46.529,39.849C45.818,41.151 44.62,42.648 44.601,42.668C43.458,43.885 42.186,45.043 41.191,46.343C39.901,48.028 39.032,49.929 39.032,52.291C39.032,58.491 43.947,63.524 50,63.524C56.053,63.524 60.967,58.491 60.967,52.291C60.967,49.895 60.11,48.075 58.814,46.421C57.854,45.196 56.608,44.074 55.442,42.737C55.367,42.648 54.318,41.4 53.472,39.849Z" style="fill:rgb(141,53,37);"/>
                </g>
            </g>
            <g transform="matrix(0.565943,0,0,0.568671,1925.04,2270.68)">
                <g transform="matrix(0.974896,0.22266,-0.22266,0.974896,3164.49,-770.403)">
                    <text x="4998.82px" y="13648.6px" style="font-family:'Oxanium-Bold', 'Oxanium';font-weight:700;font-size:966.583px;fill:rgb(142,53,37);">S</text>
                </g>
                <g transform="matrix(0.993727,0.111837,-0.111837,0.993727,1578.16,-545.239)">
                    <text x="5649.1px" y="13794.4px" style="font-family:'Oxanium-Bold', 'Oxanium';font-weight:700;font-size:966.583px;fill:rgb(142,53,37);">U</text>
                </g>
                <g transform="matrix(0.999989,-0.00470159,0.00470159,0.999989,-65.1589,30.3159)">
                    <text x="6415.4px" y="13874px" style="font-family:'Oxanium-Bold', 'Oxanium';font-weight:700;font-size:966.583px;fill:rgb(142,53,37);">P</text>
                </g>
                <g transform="matrix(0.993705,-0.112031,0.112031,0.993705,-1508.59,885.781)">
                    <text x="7127.42px" y="13866.3px" style="font-family:'Oxanium-Bold', 'Oxanium';font-weight:700;font-size:966.583px;fill:rgb(142,53,37);">E</text>
                </g>
                <g transform="matrix(0.975239,-0.221152,0.221152,0.975239,-2855.89,2067.53)">
                    <text x="7805.25px" y="13787.6px" style="font-family:'Oxanium-Bold', 'Oxanium';font-weight:700;font-size:966.583px;fill:rgb(142,53,37);">R</text>
                </g>
            </g>
            <g transform="matrix(0.565943,0,0,0.568671,487.586,1535.39)">
                <g transform="matrix(0.966629,0.25618,-0.25618,0.966629,4302.8,-1040.27)">
                    <text x="6144.34px" y="15995.6px" style="font-family:'Oxanium-Bold', 'Oxanium';font-weight:700;font-size:1433.94px;fill:rgb(142,53,37);">P</text>
                </g>
                <g transform="matrix(0.987466,0.157833,-0.157833,0.987466,2653.54,-916.898)">
                    <text x="7099.65px" y="16248.5px" style="font-family:'Oxanium-Bold', 'Oxanium';font-weight:700;font-size:1433.94px;fill:rgb(142,53,37);">O</text>
                </g>
                <g transform="matrix(0.999324,0.0367689,-0.0367689,0.999324,609.499,-289.408)">
                    <text x="8173.1px" y="16426.2px" style="font-family:'Oxanium-Bold', 'Oxanium';font-weight:700;font-size:1433.94px;fill:rgb(142,53,37);">W</text>
                </g>
                <g transform="matrix(0.996939,-0.0781796,0.0781796,0.996939,-1257.56,802.191)">
                    <text x="9616.39px" y="16462px" style="font-family:'Oxanium-Bold', 'Oxanium';font-weight:700;font-size:1433.94px;fill:rgb(142,53,37);">E</text>
                </g>
                <g transform="matrix(0.985132,-0.171801,0.171801,0.985132,-2658.87,2056.29)">
                    <text x="10550.6px" y="16389.5px" style="font-family:'Oxanium-Bold', 'Oxanium';font-weight:700;font-size:1433.94px;fill:rgb(142,53,37);">R</text>
                </g>
                <g transform="matrix(0.965141,-0.261731,0.261731,0.965141,-3841.54,3584.53)">
                    <text x="11536px" y="16213.8px" style="font-family:'Oxanium-Bold', 'Oxanium';font-weight:700;font-size:1433.94px;fill:rgb(142,53,37);">S</text>
                </g>
            </g>
            <g transform="matrix(0.565943,0,0,0.568671,-107.982,1025.94)">
                <g transform="matrix(0.948933,0.315478,-0.315478,0.948933,5891.26,-1158.1)">
                    <text x="6522.82px" y="17618.2px" style="font-family:'Oxanium-Bold', 'Oxanium';font-weight:700;font-size:557.644px;fill:rgb(142,53,37);">F</text>
                </g>
                <g transform="matrix(0.95908,0.283136,-0.283136,0.95908,5300.64,-1216.23)">
                    <text x="6858.01px" y="17730px" style="font-family:'Oxanium-Bold', 'Oxanium';font-weight:700;font-size:557.644px;fill:rgb(142,53,37);">O</text>
                </g>
                <g transform="matrix(0.96901,0.247021,-0.247021,0.96901,4634.15,-1241.03)">
                    <text x="7263.24px" y="17849px" style="font-family:'Oxanium-Bold', 'Oxanium';font-weight:700;font-size:557.644px;fill:rgb(142,53,37);">R</text>
                </g>
                <g transform="matrix(0.979582,0.201043,-0.201043,0.979582,3774.12,-1200.64)">
                    <text x="7798.16px" y="17980.8px" style="font-family:'Oxanium-Bold', 'Oxanium';font-weight:700;font-size:557.644px;fill:rgb(142,53,37);">Y</text>
                </g>
                <g transform="matrix(0.986016,0.16665,-0.16665,0.986016,3123.09,-1107.84)">
                    <text x="8162.75px" y="18055.5px" style="font-family:'Oxanium-Bold', 'Oxanium';font-weight:700;font-size:557.644px;fill:rgb(142,53,37);">O</text>
                </g>
                <g transform="matrix(0.99144,0.130562,-0.130562,0.99144,2439.91,-964.929)">
                    <text x="8578.88px" y="18125.3px" style="font-family:'Oxanium-Bold', 'Oxanium';font-weight:700;font-size:557.644px;fill:rgb(142,53,37);">U</text>
                </g>
                <g transform="matrix(0.996718,0.0809525,-0.0809525,0.996718,1503.05,-681.18)">
                    <text x="9152.28px" y="18196px" style="font-family:'Oxanium-Bold', 'Oxanium';font-weight:700;font-size:557.644px;fill:rgb(142,53,37);">&amp;</text>
                </g>
                <g transform="matrix(0.999399,0.0346619,-0.0346619,0.999399,637.975,-325.867)">
                    <text x="9717.47px" y="18237.2px" style="font-family:'Oxanium-Bold', 'Oxanium';font-weight:700;font-size:557.644px;fill:rgb(142,53,37);">Y</text>
                </g>
                <g transform="matrix(0.999999,0.0010968,-0.0010968,0.999999,20.0227,-11.0549)">
                    <text x="10089.3px" y="18250.1px" style="font-family:'Oxanium-Bold', 'Oxanium';font-weight:700;font-size:557.644px;fill:rgb(142,53,37);">O</text>
                </g>
                <g transform="matrix(0.999414,-0.0342404,0.0342404,0.999414,-618.724,370.619)">
                    <text x="10511.5px" y="18250px" style="font-family:'Oxanium-Bold', 'Oxanium';font-weight:700;font-size:557.644px;fill:rgb(142,53,37);">U</text>
                </g>
                <g transform="matrix(0.997586,-0.0694364,0.0694364,0.997586,-1239.81,802.773)">
                    <text x="10927.4px" y="18235.2px" style="font-family:'Oxanium-Bold', 'Oxanium';font-weight:700;font-size:557.644px;fill:rgb(142,53,37);">R</text>
                </g>
                <g transform="matrix(0.993326,-0.115341,0.115341,0.993326,-2021.78,1445.11)">
                    <text x="11476.4px" y="18192.8px" style="font-family:'Oxanium-Bold', 'Oxanium';font-weight:700;font-size:557.644px;fill:rgb(142,53,37);">F</text>
                </g>
                <g transform="matrix(0.989136,-0.147004,0.147004,0.989136,-2539.98,1935.91)">
                    <text x="11827.5px" y="18152.3px" style="font-family:'Oxanium-Bold', 'Oxanium';font-weight:700;font-size:557.644px;fill:rgb(142,53,37);">R</text>
                </g>
                <g transform="matrix(0.98519,-0.171469,0.171469,0.98519,-2921.63,2362.03)">
                    <text x="12212.5px" y="18093.7px" style="font-family:'Oxanium-Bold', 'Oxanium';font-weight:700;font-size:557.644px;fill:rgb(142,53,37);">I</text>
                </g>
                <g transform="matrix(0.980471,-0.196662,0.196662,0.980471,-3309.42,2793.2)">
                    <text x="12409.6px" y="18060.2px" style="font-family:'Oxanium-Bold', 'Oxanium';font-weight:700;font-size:557.644px;fill:rgb(142,53,37);">E</text>
                </g>
                <g transform="matrix(0.973024,-0.230702,0.230702,0.973024,-3805.65,3430.7)">
                    <text x="12767.3px" y="17988.8px" style="font-family:'Oxanium-Bold', 'Oxanium';font-weight:700;font-size:557.644px;fill:rgb(142,53,37);">N</text>
                </g>
                <g transform="matrix(0.963394,-0.268091,0.268091,0.963394,-4312.23,4192.26)">
                    <text x="13195.1px" y="17886.7px" style="font-family:'Oxanium-Bold', 'Oxanium';font-weight:700;font-size:557.644px;fill:rgb(142,53,37);">D</text>
                </g>
                <g transform="matrix(0.953689,-0.300796,0.300796,0.953689,-4717.45,4911.26)">
                    <text x="13590.8px" y="17775.7px" style="font-family:'Oxanium-Bold', 'Oxanium';font-weight:700;font-size:557.644px;fill:rgb(142,53,37);">S</text>
                </g>
                <g transform="matrix(0.946001,-0.324164,0.324164,0.946001,-4974.89,5469.59)">
                    <text x="13929.9px" y="17667.3px" style="font-family:'Oxanium-Bold', 'Oxanium';font-weight:700;font-size:557.644px;fill:rgb(142,53,37);">!</text>
                </g>
            </g>
            <g transform="matrix(0.260279,0,0,0.261533,6700.91,3852.7)">
                <g transform="matrix(2049.95,0,0,2049.95,6680.55,2870.19)">
                </g>
                <text x="-2679.51px" y="2870.18px" style="font-family:'Oxanium-Bold', 'Oxanium';font-weight:700;font-size:2049.95px;fill:rgb(142,53,37);">MUSICAL</text>
            </g>
            <g transform="matrix(0.546482,-0.147135,0.146524,0.549472,3176.07,4280.62)">
                <g transform="matrix(0.605228,-0.796052,0.796052,0.605228,-687.844,1255.93)">
                    <text x="922.364px" y="1321.48px" style="font-family:'Oxanium-Bold', 'Oxanium';font-weight:700;font-size:828.5px;fill:rgb(142,53,37);">I</text>
                </g>
                <g transform="matrix(0.7493,-0.66223,0.66223,0.7493,-503.317,966.645)">
                    <text x="1025.05px" y="1148.09px" style="font-family:'Oxanium-Bold', 'Oxanium';font-weight:700;font-size:828.5px;fill:rgb(142,53,37);">N</text>
                </g>
                <g transform="matrix(0.898078,-0.439835,0.439835,0.898078,-195.794,714.099)">
                    <text x="1442.93px" y="779.516px" style="font-family:'Oxanium-Bold', 'Oxanium';font-weight:700;font-size:828.5px;fill:rgb(142,53,37);">S</text>
                </g>
                <g transform="matrix(0.978563,-0.205948,0.205948,0.978563,-80.7154,388.755)">
                    <text x="1827.05px" y="582.098px" style="font-family:'Oxanium-Bold', 'Oxanium';font-weight:700;font-size:828.5px;fill:rgb(142,53,37);">T</text>
                </g>
                <g transform="matrix(0.998213,0.0597615,-0.0597615,0.998213,32.6741,-134.774)">
                    <text x="2269.51px" y="478.867px" style="font-family:'Oxanium-Bold', 'Oxanium';font-weight:700;font-size:828.5px;fill:rgb(142,53,37);">A</text>
                </g>
                <g transform="matrix(0.936894,0.349613,-0.349613,0.936894,348.233,-936.544)">
                    <text x="2768.39px" y="496.352px" style="font-family:'Oxanium-Bold', 'Oxanium';font-weight:700;font-size:828.5px;fill:rgb(142,53,37);">N</text>
                </g>
                <g transform="matrix(0.805284,0.592889,-0.592889,0.805284,1050.3,-1815.92)">
                    <text x="3289.79px" y="691.066px" style="font-family:'Oxanium-Bold', 'Oxanium';font-weight:700;font-size:828.5px;fill:rgb(142,53,37);">T</text>
                </g>
            </g>
            <g id="Eyes---wink" serif:id="Eyes + wink" transform="matrix(2.89435,0,0,2.90831,2168.03,2885.62)">
                <g transform="matrix(1,0,0,1,113.041,42.7483)">
                    <ellipse cx="851.651" cy="833.592" rx="132.017" ry="318.098" style="fill:rgb(141,53,37);"/>
                </g>
                <g transform="matrix(0.89065,0,0,0.89065,-200.454,112.414)">
                    <path d="M1769.77,876.786C1769.73,872.212 1770.3,867.602 1771.52,863.083C1772.53,859.353 1773.95,855.792 1775.74,852.451C1777.81,848.542 1780.41,844.872 1783.53,841.555C1786.33,838.555 1789.45,835.945 1792.81,833.746L2036.17,669.42C2059.58,653.612 2091.48,659.693 2107.37,682.991C2123.25,706.289 2117.14,738.038 2093.73,753.847L1987.87,825.327L2115.35,825.327C2143.64,825.327 2166.61,848.185 2166.61,876.34C2166.61,904.495 2143.64,927.353 2115.35,927.353L2011.54,927.353L2101.64,979.374C2126.11,993.502 2134.45,1024.74 2120.26,1049.1C2106.06,1073.45 2074.67,1081.75 2050.2,1067.62L1795.9,920.805C1792.39,918.847 1789.09,916.462 1786.08,913.667C1782.43,910.291 1779.36,906.452 1776.9,902.297C1774.81,898.777 1773.19,895.093 1772.02,891.325C1770.6,886.721 1769.82,881.841 1769.77,876.786Z" style="fill:rgb(142,53,37);"/>
                </g>
            </g>
        </g>
    </g>
</svg>
